%FSLAX45Y45*%
G04 Gerber Fmt 4.5, Leading zero omitted, Abs format (unit mm)*
G04 Created by KiCad (PCBNEW 4.0.2-stable) date 05/09/2016 12:28:49*
%MOMM*%
G01*
G04 APERTURE LIST*
%ADD10C,0.127000*%
%ADD11C,0.381000*%
%ADD12C,0.200000*%
%ADD13C,0.300000*%
G04 APERTURE END LIST*
D10*
D11*
X18020000Y-3690000D02*
X18020000Y-14190000D01*
X8020000Y-14190000D02*
X8020000Y-3690000D01*
X18020000Y-14190000D02*
X8020000Y-14190000D01*
X8021066Y-3686302D02*
X18021046Y-3686302D01*
D12*
X8237061Y-12490061D02*
X8276939Y-12529939D01*
X8276939Y-12490061D02*
X8237061Y-12529939D01*
X8527161Y-11410061D02*
X8567039Y-11449939D01*
X8567039Y-11410061D02*
X8527161Y-11449939D01*
X8539861Y-9809861D02*
X8579739Y-9849739D01*
X8579739Y-9809861D02*
X8539861Y-9849739D01*
X8552561Y-8235061D02*
X8592439Y-8274939D01*
X8592439Y-8235061D02*
X8552561Y-8274939D01*
X8577961Y-5021961D02*
X8617839Y-5061839D01*
X8617839Y-5021961D02*
X8577961Y-5061839D01*
X8580061Y-12880061D02*
X8619939Y-12919939D01*
X8619939Y-12880061D02*
X8580061Y-12919939D01*
X8580061Y-13180061D02*
X8619939Y-13219939D01*
X8619939Y-13180061D02*
X8580061Y-13219939D01*
X8580061Y-13280061D02*
X8619939Y-13319939D01*
X8619939Y-13280061D02*
X8580061Y-13319939D01*
X8580061Y-13380061D02*
X8619939Y-13419939D01*
X8619939Y-13380061D02*
X8580061Y-13419939D01*
X8590661Y-6609461D02*
X8630539Y-6649339D01*
X8630539Y-6609461D02*
X8590661Y-6649339D01*
X8680061Y-12780061D02*
X8719939Y-12819939D01*
X8719939Y-12780061D02*
X8680061Y-12819939D01*
X8680061Y-12880061D02*
X8719939Y-12919939D01*
X8719939Y-12880061D02*
X8680061Y-12919939D01*
X8680061Y-13180061D02*
X8719939Y-13219939D01*
X8719939Y-13180061D02*
X8680061Y-13219939D01*
X8680061Y-13280061D02*
X8719939Y-13319939D01*
X8719939Y-13280061D02*
X8680061Y-13319939D01*
X8680061Y-13380061D02*
X8719939Y-13419939D01*
X8719939Y-13380061D02*
X8680061Y-13419939D01*
X8704961Y-8463661D02*
X8744839Y-8503539D01*
X8744839Y-8463661D02*
X8704961Y-8503539D01*
X8755761Y-6876161D02*
X8795639Y-6916039D01*
X8795639Y-6876161D02*
X8755761Y-6916039D01*
X8768461Y-10051161D02*
X8808339Y-10091039D01*
X8808339Y-10051161D02*
X8768461Y-10091039D01*
X8780061Y-12780061D02*
X8819939Y-12819939D01*
X8819939Y-12780061D02*
X8780061Y-12819939D01*
X8780061Y-12880061D02*
X8819939Y-12919939D01*
X8819939Y-12880061D02*
X8780061Y-12919939D01*
X8780061Y-13180061D02*
X8819939Y-13219939D01*
X8819939Y-13180061D02*
X8780061Y-13219939D01*
X8780061Y-13280061D02*
X8819939Y-13319939D01*
X8819939Y-13280061D02*
X8780061Y-13319939D01*
X8780061Y-13380061D02*
X8819939Y-13419939D01*
X8819939Y-13380061D02*
X8780061Y-13419939D01*
X8895461Y-5263261D02*
X8935339Y-5303139D01*
X8935339Y-5263261D02*
X8895461Y-5303139D01*
X9047861Y-9822561D02*
X9087739Y-9862439D01*
X9087739Y-9822561D02*
X9047861Y-9862439D01*
X9047861Y-11410061D02*
X9087739Y-11449939D01*
X9087739Y-11410061D02*
X9047861Y-11449939D01*
X9047861Y-12921361D02*
X9087739Y-12961239D01*
X9087739Y-12921361D02*
X9047861Y-12961239D01*
X9047861Y-12997561D02*
X9087739Y-13037439D01*
X9087739Y-12997561D02*
X9047861Y-13037439D01*
X9047861Y-13086461D02*
X9087739Y-13126339D01*
X9087739Y-13086461D02*
X9047861Y-13126339D01*
X9047861Y-13162661D02*
X9087739Y-13202539D01*
X9087739Y-13162661D02*
X9047861Y-13202539D01*
X9047861Y-13251561D02*
X9087739Y-13291439D01*
X9087739Y-13251561D02*
X9047861Y-13291439D01*
X9073261Y-5021961D02*
X9113139Y-5061839D01*
X9113139Y-5021961D02*
X9073261Y-5061839D01*
X9080061Y-13545061D02*
X9119939Y-13584939D01*
X9119939Y-13545061D02*
X9080061Y-13584939D01*
X9080061Y-13645061D02*
X9119939Y-13684939D01*
X9119939Y-13645061D02*
X9080061Y-13684939D01*
X9149461Y-12921361D02*
X9189339Y-12961239D01*
X9189339Y-12921361D02*
X9149461Y-12961239D01*
X9149461Y-12997561D02*
X9189339Y-13037439D01*
X9189339Y-12997561D02*
X9149461Y-13037439D01*
X9149461Y-13073761D02*
X9189339Y-13113639D01*
X9189339Y-13073761D02*
X9149461Y-13113639D01*
X9149461Y-13162661D02*
X9189339Y-13202539D01*
X9189339Y-13162661D02*
X9149461Y-13202539D01*
X9149461Y-13251561D02*
X9189339Y-13291439D01*
X9189339Y-13251561D02*
X9149461Y-13291439D01*
X9185061Y-13545061D02*
X9224939Y-13584939D01*
X9224939Y-13545061D02*
X9185061Y-13584939D01*
X9185061Y-13645061D02*
X9224939Y-13684939D01*
X9224939Y-13645061D02*
X9185061Y-13684939D01*
X9251061Y-7104761D02*
X9290939Y-7144639D01*
X9290939Y-7104761D02*
X9251061Y-7144639D01*
X9276461Y-13149961D02*
X9316339Y-13189839D01*
X9316339Y-13149961D02*
X9276461Y-13189839D01*
X9289161Y-8831961D02*
X9329039Y-8871839D01*
X9329039Y-8831961D02*
X9289161Y-8871839D01*
X9289161Y-13543661D02*
X9329039Y-13583539D01*
X9329039Y-13543661D02*
X9289161Y-13583539D01*
X9290061Y-13645061D02*
X9329939Y-13684939D01*
X9329939Y-13645061D02*
X9290061Y-13684939D01*
X9297061Y-5620061D02*
X9336939Y-5659939D01*
X9336939Y-5620061D02*
X9297061Y-5659939D01*
X9390761Y-13543661D02*
X9430639Y-13583539D01*
X9430639Y-13543661D02*
X9390761Y-13583539D01*
X9395061Y-13645061D02*
X9434939Y-13684939D01*
X9434939Y-13645061D02*
X9395061Y-13684939D01*
X9479661Y-12921361D02*
X9519539Y-12961239D01*
X9519539Y-12921361D02*
X9479661Y-12961239D01*
X9479661Y-12997561D02*
X9519539Y-13037439D01*
X9519539Y-12997561D02*
X9479661Y-13037439D01*
X9479661Y-13086461D02*
X9519539Y-13126339D01*
X9519539Y-13086461D02*
X9479661Y-13126339D01*
X9479661Y-13162661D02*
X9519539Y-13202539D01*
X9519539Y-13162661D02*
X9479661Y-13202539D01*
X9479661Y-13251561D02*
X9519539Y-13291439D01*
X9519539Y-13251561D02*
X9479661Y-13291439D01*
X9505061Y-13543661D02*
X9544939Y-13583539D01*
X9544939Y-13543661D02*
X9505061Y-13583539D01*
X9505061Y-13645061D02*
X9544939Y-13684939D01*
X9544939Y-13645061D02*
X9505061Y-13684939D01*
X9555861Y-12921361D02*
X9595739Y-12961239D01*
X9595739Y-12921361D02*
X9555861Y-12961239D01*
X9555861Y-12997561D02*
X9595739Y-13037439D01*
X9595739Y-12997561D02*
X9555861Y-13037439D01*
X9555861Y-13086461D02*
X9595739Y-13126339D01*
X9595739Y-13086461D02*
X9555861Y-13126339D01*
X9555861Y-13162661D02*
X9595739Y-13202539D01*
X9595739Y-13162661D02*
X9555861Y-13202539D01*
X9555861Y-13251561D02*
X9595739Y-13291439D01*
X9595739Y-13251561D02*
X9555861Y-13291439D01*
X9560941Y-8697341D02*
X9600819Y-8737219D01*
X9600819Y-8697341D02*
X9560941Y-8737219D01*
X9607061Y-11654061D02*
X9646939Y-11693939D01*
X9646939Y-11654061D02*
X9607061Y-11693939D01*
X9619361Y-13543661D02*
X9659239Y-13583539D01*
X9659239Y-13543661D02*
X9619361Y-13583539D01*
X9620061Y-13645061D02*
X9659939Y-13684939D01*
X9659939Y-13645061D02*
X9620061Y-13684939D01*
X9733661Y-13543661D02*
X9773539Y-13583539D01*
X9773539Y-13543661D02*
X9733661Y-13583539D01*
X9733661Y-13645061D02*
X9773539Y-13684939D01*
X9773539Y-13645061D02*
X9733661Y-13684939D01*
X9835261Y-12730861D02*
X9875139Y-12770739D01*
X9875139Y-12730861D02*
X9835261Y-12770739D01*
X9936861Y-13619861D02*
X9976739Y-13659739D01*
X9976739Y-13619861D02*
X9936861Y-13659739D01*
X10140061Y-13594461D02*
X10179939Y-13634339D01*
X10179939Y-13594461D02*
X10140061Y-13634339D01*
X10140061Y-13708761D02*
X10179939Y-13748639D01*
X10179939Y-13708761D02*
X10140061Y-13748639D01*
X10140061Y-13835761D02*
X10179939Y-13875639D01*
X10179939Y-13835761D02*
X10140061Y-13875639D01*
X10254361Y-13594461D02*
X10294239Y-13634339D01*
X10294239Y-13594461D02*
X10254361Y-13634339D01*
X10254361Y-13708761D02*
X10294239Y-13748639D01*
X10294239Y-13708761D02*
X10254361Y-13748639D01*
X10254361Y-13835761D02*
X10294239Y-13875639D01*
X10294239Y-13835761D02*
X10254361Y-13875639D01*
X10318061Y-10087061D02*
X10357939Y-10126939D01*
X10357939Y-10087061D02*
X10318061Y-10126939D01*
X10343261Y-9251061D02*
X10383139Y-9290939D01*
X10383139Y-9251061D02*
X10343261Y-9290939D01*
X10368661Y-13594461D02*
X10408539Y-13634339D01*
X10408539Y-13594461D02*
X10368661Y-13634339D01*
X10368661Y-13708761D02*
X10408539Y-13748639D01*
X10408539Y-13708761D02*
X10368661Y-13748639D01*
X10368661Y-13835761D02*
X10408539Y-13875639D01*
X10408539Y-13835761D02*
X10368661Y-13875639D01*
X10457561Y-12032361D02*
X10497439Y-12072239D01*
X10497439Y-12032361D02*
X10457561Y-12072239D01*
X10482961Y-13226161D02*
X10522839Y-13266039D01*
X10522839Y-13226161D02*
X10482961Y-13266039D01*
X10521061Y-13035661D02*
X10560939Y-13075539D01*
X10560939Y-13035661D02*
X10521061Y-13075539D01*
X10584561Y-13467461D02*
X10624439Y-13507339D01*
X10624439Y-13467461D02*
X10584561Y-13507339D01*
X10584561Y-13556361D02*
X10624439Y-13596239D01*
X10624439Y-13556361D02*
X10584561Y-13596239D01*
X10584561Y-13657961D02*
X10624439Y-13697839D01*
X10624439Y-13657961D02*
X10584561Y-13697839D01*
X10584561Y-13746861D02*
X10624439Y-13786739D01*
X10624439Y-13746861D02*
X10584561Y-13786739D01*
X10584561Y-13835761D02*
X10624439Y-13875639D01*
X10624439Y-13835761D02*
X10584561Y-13875639D01*
X10609961Y-13226161D02*
X10649839Y-13266039D01*
X10649839Y-13226161D02*
X10609961Y-13266039D01*
X10622661Y-5314061D02*
X10662539Y-5353939D01*
X10662539Y-5314061D02*
X10622661Y-5353939D01*
X10648061Y-6939661D02*
X10687939Y-6979539D01*
X10687939Y-6939661D02*
X10648061Y-6979539D01*
X10673461Y-13467461D02*
X10713339Y-13507339D01*
X10713339Y-13467461D02*
X10673461Y-13507339D01*
X10673461Y-13556361D02*
X10713339Y-13596239D01*
X10713339Y-13556361D02*
X10673461Y-13596239D01*
X10673461Y-13657961D02*
X10713339Y-13697839D01*
X10713339Y-13657961D02*
X10673461Y-13697839D01*
X10673461Y-13746861D02*
X10713339Y-13786739D01*
X10713339Y-13746861D02*
X10673461Y-13786739D01*
X10673461Y-13835761D02*
X10713339Y-13875639D01*
X10713339Y-13835761D02*
X10673461Y-13875639D01*
X10698861Y-5618861D02*
X10738739Y-5658739D01*
X10738739Y-5618861D02*
X10698861Y-5658739D01*
X10749661Y-13226161D02*
X10789539Y-13266039D01*
X10789539Y-13226161D02*
X10749661Y-13266039D01*
X10775061Y-8666861D02*
X10814939Y-8706739D01*
X10814939Y-8666861D02*
X10775061Y-8706739D01*
X10787761Y-12895961D02*
X10827639Y-12935839D01*
X10827639Y-12895961D02*
X10787761Y-12935839D01*
X10813161Y-11803761D02*
X10853039Y-11843639D01*
X10853039Y-11803761D02*
X10813161Y-11843639D01*
X10876661Y-13226161D02*
X10916539Y-13266039D01*
X10916539Y-13226161D02*
X10876661Y-13266039D01*
X10889361Y-5555361D02*
X10929239Y-5595239D01*
X10929239Y-5555361D02*
X10889361Y-5595239D01*
X10889361Y-12895961D02*
X10929239Y-12935839D01*
X10929239Y-12895961D02*
X10889361Y-12935839D01*
X10927461Y-7930261D02*
X10967339Y-7970139D01*
X10967339Y-7930261D02*
X10927461Y-7970139D01*
X10940161Y-13467461D02*
X10980039Y-13507339D01*
X10980039Y-13467461D02*
X10940161Y-13507339D01*
X10940161Y-13556361D02*
X10980039Y-13596239D01*
X10980039Y-13556361D02*
X10940161Y-13596239D01*
X10940161Y-13645261D02*
X10980039Y-13685139D01*
X10980039Y-13645261D02*
X10940161Y-13685139D01*
X10940161Y-13734161D02*
X10980039Y-13774039D01*
X10980039Y-13734161D02*
X10940161Y-13774039D01*
X10940161Y-13823061D02*
X10980039Y-13862939D01*
X10980039Y-13823061D02*
X10940161Y-13862939D01*
X11003661Y-13226161D02*
X11043539Y-13266039D01*
X11043539Y-13226161D02*
X11003661Y-13266039D01*
X11007061Y-9473061D02*
X11046939Y-9512939D01*
X11046939Y-9473061D02*
X11007061Y-9512939D01*
X11016361Y-13467461D02*
X11056239Y-13507339D01*
X11056239Y-13467461D02*
X11016361Y-13507339D01*
X11016361Y-13556361D02*
X11056239Y-13596239D01*
X11056239Y-13556361D02*
X11016361Y-13596239D01*
X11016361Y-13645261D02*
X11056239Y-13685139D01*
X11056239Y-13645261D02*
X11016361Y-13685139D01*
X11016361Y-13734161D02*
X11056239Y-13774039D01*
X11056239Y-13734161D02*
X11016361Y-13774039D01*
X11016361Y-13823061D02*
X11056239Y-13862939D01*
X11056239Y-13823061D02*
X11016361Y-13862939D01*
X11033261Y-9396061D02*
X11073139Y-9435939D01*
X11073139Y-9396061D02*
X11033261Y-9435939D01*
X11041761Y-12591161D02*
X11081639Y-12631039D01*
X11081639Y-12591161D02*
X11041761Y-12631039D01*
X11054461Y-7409561D02*
X11094339Y-7449439D01*
X11094339Y-7409561D02*
X11054461Y-7449439D01*
X11054461Y-12984861D02*
X11094339Y-13024739D01*
X11094339Y-12984861D02*
X11054461Y-13024739D01*
X11067161Y-7536561D02*
X11107039Y-7576439D01*
X11107039Y-7536561D02*
X11067161Y-7576439D01*
X11079861Y-9251061D02*
X11119739Y-9290939D01*
X11119739Y-9251061D02*
X11079861Y-9290939D01*
X11117961Y-7688961D02*
X11157839Y-7728839D01*
X11157839Y-7688961D02*
X11117961Y-7728839D01*
X11117961Y-9098661D02*
X11157839Y-9138539D01*
X11157839Y-9098661D02*
X11117961Y-9138539D01*
X11511661Y-13327761D02*
X11551539Y-13367639D01*
X11551539Y-13327761D02*
X11511661Y-13367639D01*
X11537061Y-12387961D02*
X11576939Y-12427839D01*
X11576939Y-12387961D02*
X11537061Y-12427839D01*
X11537061Y-13645261D02*
X11576939Y-13685139D01*
X11576939Y-13645261D02*
X11537061Y-13685139D01*
X11714861Y-12705461D02*
X11754739Y-12745339D01*
X11754739Y-12705461D02*
X11714861Y-12745339D01*
X11778361Y-12553061D02*
X11818239Y-12592939D01*
X11818239Y-12553061D02*
X11778361Y-12592939D01*
X11791061Y-11676761D02*
X11830939Y-11716639D01*
X11830939Y-11676761D02*
X11791061Y-11716639D01*
X11816461Y-11333861D02*
X11856339Y-11373739D01*
X11856339Y-11333861D02*
X11816461Y-11373739D01*
X11905361Y-13086461D02*
X11945239Y-13126339D01*
X11945239Y-13086461D02*
X11905361Y-13126339D01*
X11920601Y-5824601D02*
X11960479Y-5864479D01*
X11960479Y-5824601D02*
X11920601Y-5864479D01*
X12045061Y-13010261D02*
X12084939Y-13050139D01*
X12084939Y-13010261D02*
X12045061Y-13050139D01*
X12065061Y-6685061D02*
X12104939Y-6724939D01*
X12104939Y-6685061D02*
X12065061Y-6724939D01*
X12115061Y-10405061D02*
X12154939Y-10444939D01*
X12154939Y-10405061D02*
X12115061Y-10444939D01*
X12121261Y-13696061D02*
X12161139Y-13735939D01*
X12161139Y-13696061D02*
X12121261Y-13735939D01*
X12126087Y-10766425D02*
X12165965Y-10806303D01*
X12165965Y-10766425D02*
X12126087Y-10806303D01*
X12142061Y-11865061D02*
X12181939Y-11904939D01*
X12181939Y-11865061D02*
X12142061Y-11904939D01*
X12148061Y-13023061D02*
X12187939Y-13062939D01*
X12187939Y-13023061D02*
X12148061Y-13062939D01*
X12176125Y-11991213D02*
X12216003Y-12031091D01*
X12216003Y-11991213D02*
X12176125Y-12031091D01*
X12225061Y-8190061D02*
X12264939Y-8229939D01*
X12264939Y-8190061D02*
X12225061Y-8229939D01*
X12262061Y-9927061D02*
X12301939Y-9966939D01*
X12301939Y-9927061D02*
X12262061Y-9966939D01*
X12274061Y-12680061D02*
X12313939Y-12719939D01*
X12313939Y-12680061D02*
X12274061Y-12719939D01*
X12283061Y-10462061D02*
X12322939Y-10501939D01*
X12322939Y-10462061D02*
X12283061Y-10501939D01*
X12305061Y-10061061D02*
X12344939Y-10100939D01*
X12344939Y-10061061D02*
X12305061Y-10100939D01*
X12351131Y-11166221D02*
X12391009Y-11206099D01*
X12391009Y-11166221D02*
X12351131Y-11206099D01*
X12369061Y-12755061D02*
X12408939Y-12794939D01*
X12408939Y-12755061D02*
X12369061Y-12794939D01*
X12400061Y-8615061D02*
X12439939Y-8654939D01*
X12439939Y-8615061D02*
X12400061Y-8654939D01*
X12433061Y-10413061D02*
X12472939Y-10452939D01*
X12472939Y-10413061D02*
X12433061Y-10452939D01*
X12434061Y-10552061D02*
X12473939Y-10591939D01*
X12473939Y-10552061D02*
X12434061Y-10591939D01*
X12501245Y-12366371D02*
X12541123Y-12406249D01*
X12541123Y-12366371D02*
X12501245Y-12406249D01*
X12501245Y-12566269D02*
X12541123Y-12606147D01*
X12541123Y-12566269D02*
X12501245Y-12606147D01*
X12515061Y-9725061D02*
X12554939Y-9764939D01*
X12554939Y-9725061D02*
X12515061Y-9764939D01*
X12545061Y-8315061D02*
X12584939Y-8354939D01*
X12584939Y-8315061D02*
X12545061Y-8354939D01*
X12545061Y-11560061D02*
X12584939Y-11599939D01*
X12584939Y-11560061D02*
X12545061Y-11599939D01*
X12549061Y-13738061D02*
X12588939Y-13777939D01*
X12588939Y-13738061D02*
X12549061Y-13777939D01*
X12549061Y-13841061D02*
X12588939Y-13880939D01*
X12588939Y-13841061D02*
X12549061Y-13880939D01*
X12553061Y-6050661D02*
X12592939Y-6090539D01*
X12592939Y-6050661D02*
X12553061Y-6090539D01*
X12576175Y-9916287D02*
X12616053Y-9956165D01*
X12616053Y-9916287D02*
X12576175Y-9956165D01*
X12583061Y-6529061D02*
X12622939Y-6568939D01*
X12622939Y-6529061D02*
X12583061Y-6568939D01*
X12601067Y-5966333D02*
X12640945Y-6006211D01*
X12640945Y-5966333D02*
X12601067Y-6006211D01*
X12601067Y-9441307D02*
X12640945Y-9481185D01*
X12640945Y-9441307D02*
X12601067Y-9481185D01*
X12601067Y-9591421D02*
X12640945Y-9631299D01*
X12640945Y-9591421D02*
X12601067Y-9631299D01*
X12601067Y-10041255D02*
X12640945Y-10081133D01*
X12640945Y-10041255D02*
X12601067Y-10081133D01*
X12601067Y-10616311D02*
X12640945Y-10656189D01*
X12640945Y-10616311D02*
X12601067Y-10656189D01*
X12601067Y-10766425D02*
X12640945Y-10806303D01*
X12640945Y-10766425D02*
X12601067Y-10806303D01*
X12603861Y-13300061D02*
X12643739Y-13339939D01*
X12643739Y-13300061D02*
X12603861Y-13339939D01*
X12629261Y-12730861D02*
X12669139Y-12770739D01*
X12669139Y-12730861D02*
X12629261Y-12770739D01*
X12651105Y-9516237D02*
X12690983Y-9556115D01*
X12690983Y-9516237D02*
X12651105Y-9556115D01*
X12651105Y-10116439D02*
X12690983Y-10156317D01*
X12690983Y-10116439D02*
X12651105Y-10156317D01*
X12651105Y-10691241D02*
X12690983Y-10731119D01*
X12690983Y-10691241D02*
X12651105Y-10731119D01*
X12705461Y-6177661D02*
X12745339Y-6217539D01*
X12745339Y-6177661D02*
X12705461Y-6217539D01*
X12705461Y-13365861D02*
X12745339Y-13405739D01*
X12745339Y-13365861D02*
X12705461Y-13405739D01*
X12708061Y-10191061D02*
X12747939Y-10230939D01*
X12747939Y-10191061D02*
X12708061Y-10230939D01*
X12751181Y-11291189D02*
X12791059Y-11331067D01*
X12791059Y-11291189D02*
X12751181Y-11331067D01*
X12751181Y-11766423D02*
X12791059Y-11806301D01*
X12791059Y-11766423D02*
X12751181Y-11806301D01*
X12765061Y-13905061D02*
X12804939Y-13944939D01*
X12804939Y-13905061D02*
X12765061Y-13944939D01*
X12776073Y-12266295D02*
X12815951Y-12306173D01*
X12815951Y-12266295D02*
X12776073Y-12306173D01*
X12794361Y-13467461D02*
X12834239Y-13507339D01*
X12834239Y-13467461D02*
X12794361Y-13507339D01*
X12826111Y-6391275D02*
X12865989Y-6431153D01*
X12865989Y-6391275D02*
X12826111Y-6431153D01*
X12832461Y-13721461D02*
X12872339Y-13761339D01*
X12872339Y-13721461D02*
X12832461Y-13761339D01*
X12867388Y-9185061D02*
X12907266Y-9224939D01*
X12907266Y-9185061D02*
X12867388Y-9224939D01*
X12876149Y-10916285D02*
X12916027Y-10956163D01*
X12916027Y-10916285D02*
X12876149Y-10956163D01*
X12876149Y-12841351D02*
X12916027Y-12881229D01*
X12916027Y-12841351D02*
X12876149Y-12881229D01*
X12906061Y-13603061D02*
X12945939Y-13642939D01*
X12945939Y-13603061D02*
X12906061Y-13642939D01*
X12926187Y-12216257D02*
X12966065Y-12256135D01*
X12966065Y-12216257D02*
X12926187Y-12256135D01*
X12930061Y-9365061D02*
X12969939Y-9404939D01*
X12969939Y-9365061D02*
X12930061Y-9404939D01*
X12980061Y-9275061D02*
X13019939Y-9314939D01*
X13019939Y-9275061D02*
X12980061Y-9314939D01*
X12990061Y-8750061D02*
X13029939Y-8789939D01*
X13029939Y-8750061D02*
X12990061Y-8789939D01*
X13022961Y-13708761D02*
X13062839Y-13748639D01*
X13062839Y-13708761D02*
X13022961Y-13748639D01*
X13026009Y-12216257D02*
X13065887Y-12256135D01*
X13065887Y-12216257D02*
X13026009Y-12256135D01*
X13070061Y-8660061D02*
X13109939Y-8699939D01*
X13109939Y-8660061D02*
X13070061Y-8699939D01*
X13076047Y-11141329D02*
X13115925Y-11181207D01*
X13115925Y-11141329D02*
X13076047Y-11181207D01*
X13126085Y-11566271D02*
X13165963Y-11606149D01*
X13165963Y-11566271D02*
X13126085Y-11606149D01*
X13130061Y-11780061D02*
X13169939Y-11819939D01*
X13169939Y-11780061D02*
X13130061Y-11819939D01*
X13137261Y-13467461D02*
X13177139Y-13507339D01*
X13177139Y-13467461D02*
X13137261Y-13507339D01*
X13175061Y-8150061D02*
X13214939Y-8189939D01*
X13214939Y-8150061D02*
X13175061Y-8189939D01*
X13181203Y-11916283D02*
X13221081Y-11956161D01*
X13221081Y-11916283D02*
X13181203Y-11956161D01*
X13185061Y-9715061D02*
X13224939Y-9754939D01*
X13224939Y-9715061D02*
X13185061Y-9754939D01*
X13218061Y-13538061D02*
X13257939Y-13577939D01*
X13257939Y-13538061D02*
X13218061Y-13577939D01*
X13220061Y-9635061D02*
X13259939Y-9674939D01*
X13259939Y-9635061D02*
X13220061Y-9674939D01*
X13222061Y-13395061D02*
X13261939Y-13434939D01*
X13261939Y-13395061D02*
X13222061Y-13434939D01*
X13226161Y-12441301D02*
X13266039Y-12481179D01*
X13266039Y-12441301D02*
X13226161Y-12481179D01*
X13226161Y-12866243D02*
X13266039Y-12906121D01*
X13266039Y-12866243D02*
X13226161Y-12906121D01*
X13298061Y-13728061D02*
X13337939Y-13767939D01*
X13337939Y-13728061D02*
X13298061Y-13767939D01*
X13342239Y-5315331D02*
X13382117Y-5355209D01*
X13382117Y-5315331D02*
X13342239Y-5355209D01*
X13378561Y-13238861D02*
X13418439Y-13278739D01*
X13418439Y-13238861D02*
X13378561Y-13278739D01*
X13379061Y-11362061D02*
X13418939Y-11401939D01*
X13418939Y-11362061D02*
X13379061Y-11401939D01*
X13399135Y-5013325D02*
X13439013Y-5053203D01*
X13439013Y-5013325D02*
X13399135Y-5053203D01*
X13400061Y-8740061D02*
X13439939Y-8779939D01*
X13439939Y-8740061D02*
X13400061Y-8779939D01*
X13423691Y-12598021D02*
X13463569Y-12637899D01*
X13463569Y-12598021D02*
X13423691Y-12637899D01*
X13454761Y-13340461D02*
X13494639Y-13380339D01*
X13494639Y-13340461D02*
X13454761Y-13380339D01*
X13480061Y-8770061D02*
X13519939Y-8809939D01*
X13519939Y-8770061D02*
X13480061Y-8809939D01*
X13501243Y-10066401D02*
X13541121Y-10106279D01*
X13541121Y-10066401D02*
X13501243Y-10106279D01*
X13501243Y-12216257D02*
X13541121Y-12256135D01*
X13541121Y-12216257D02*
X13501243Y-12256135D01*
X13501243Y-12741275D02*
X13541121Y-12781153D01*
X13541121Y-12741275D02*
X13501243Y-12781153D01*
X13551027Y-10436225D02*
X13590905Y-10476103D01*
X13590905Y-10436225D02*
X13551027Y-10476103D01*
X13551027Y-12891389D02*
X13590905Y-12931267D01*
X13590905Y-12891389D02*
X13551027Y-12931267D01*
X13556361Y-5606161D02*
X13596239Y-5646039D01*
X13596239Y-5606161D02*
X13556361Y-5646039D01*
X13556361Y-5695061D02*
X13596239Y-5734939D01*
X13596239Y-5695061D02*
X13556361Y-5734939D01*
X13576173Y-11916283D02*
X13616051Y-11956161D01*
X13616051Y-11916283D02*
X13576173Y-11956161D01*
X13580061Y-9695061D02*
X13619939Y-9734939D01*
X13619939Y-9695061D02*
X13580061Y-9734939D01*
X13583457Y-13288393D02*
X13623335Y-13328271D01*
X13623335Y-13288393D02*
X13583457Y-13328271D01*
X13590061Y-7935061D02*
X13629939Y-7974939D01*
X13629939Y-7935061D02*
X13590061Y-7974939D01*
X13604031Y-12266551D02*
X13643909Y-12306429D01*
X13643909Y-12266551D02*
X13604031Y-12306429D01*
X13626211Y-9966325D02*
X13666089Y-10006203D01*
X13666089Y-9966325D02*
X13626211Y-10006203D01*
X13630061Y-9109061D02*
X13669939Y-9148939D01*
X13669939Y-9109061D02*
X13630061Y-9148939D01*
X13638061Y-8918061D02*
X13677939Y-8957939D01*
X13677939Y-8918061D02*
X13638061Y-8957939D01*
X13645061Y-8225061D02*
X13684939Y-8264939D01*
X13684939Y-8225061D02*
X13645061Y-8264939D01*
X13655061Y-11140061D02*
X13694939Y-11179939D01*
X13694939Y-11140061D02*
X13655061Y-11179939D01*
X13681075Y-10456291D02*
X13720953Y-10496169D01*
X13720953Y-10456291D02*
X13681075Y-10496169D01*
X13691235Y-4771263D02*
X13731113Y-4811141D01*
X13731113Y-4771263D02*
X13691235Y-4811141D01*
X13701141Y-12441301D02*
X13741019Y-12481179D01*
X13741019Y-12441301D02*
X13701141Y-12481179D01*
X13701141Y-12891389D02*
X13741019Y-12931267D01*
X13741019Y-12891389D02*
X13701141Y-12931267D01*
X13751061Y-10956061D02*
X13790939Y-10995939D01*
X13790939Y-10956061D02*
X13751061Y-10995939D01*
X13810361Y-14038961D02*
X13850239Y-14078839D01*
X13850239Y-14038961D02*
X13810361Y-14078839D01*
X13832205Y-5320411D02*
X13872083Y-5360289D01*
X13872083Y-5320411D02*
X13832205Y-5360289D01*
X13841095Y-12565507D02*
X13880973Y-12605385D01*
X13880973Y-12565507D02*
X13841095Y-12605385D01*
X13861161Y-5593461D02*
X13901039Y-5633339D01*
X13901039Y-5593461D02*
X13861161Y-5633339D01*
X13873861Y-5682361D02*
X13913739Y-5722239D01*
X13913739Y-5682361D02*
X13873861Y-5722239D01*
X13915061Y-10045061D02*
X13954939Y-10084939D01*
X13954939Y-10045061D02*
X13915061Y-10084939D01*
X13920061Y-12641061D02*
X13959939Y-12680939D01*
X13959939Y-12641061D02*
X13920061Y-12680939D01*
X13963061Y-11499061D02*
X14002939Y-11538939D01*
X14002939Y-11499061D02*
X13963061Y-11538939D01*
X13986129Y-4246245D02*
X14026007Y-4286123D01*
X14026007Y-4246245D02*
X13986129Y-4286123D01*
X14030061Y-11120061D02*
X14069939Y-11159939D01*
X14069939Y-11120061D02*
X14030061Y-11159939D01*
X14051153Y-9736201D02*
X14091031Y-9776079D01*
X14091031Y-9736201D02*
X14051153Y-9776079D01*
X14051153Y-10791317D02*
X14091031Y-10831195D01*
X14091031Y-10791317D02*
X14051153Y-10831195D01*
X14062061Y-8852061D02*
X14101939Y-8891939D01*
X14101939Y-8852061D02*
X14062061Y-8891939D01*
X14066139Y-7784211D02*
X14106017Y-7824089D01*
X14106017Y-7784211D02*
X14066139Y-7824089D01*
X14074061Y-8740061D02*
X14113939Y-8779939D01*
X14113939Y-8740061D02*
X14074061Y-8779939D01*
X14081125Y-12446381D02*
X14121003Y-12486259D01*
X14121003Y-12446381D02*
X14081125Y-12486259D01*
X14105061Y-12785061D02*
X14144939Y-12824939D01*
X14144939Y-12785061D02*
X14105061Y-12824939D01*
X14120241Y-8122285D02*
X14160119Y-8162163D01*
X14160119Y-8122285D02*
X14120241Y-8162163D01*
X14121061Y-7391061D02*
X14160939Y-7430939D01*
X14160939Y-7391061D02*
X14121061Y-7430939D01*
X14124731Y-10872853D02*
X14164609Y-10912731D01*
X14164609Y-10872853D02*
X14124731Y-10912731D01*
X14125067Y-7932293D02*
X14164945Y-7972171D01*
X14164945Y-7932293D02*
X14125067Y-7972171D01*
X14176121Y-7671435D02*
X14215999Y-7711313D01*
X14215999Y-7671435D02*
X14176121Y-7711313D01*
X14178153Y-8033385D02*
X14218031Y-8073263D01*
X14218031Y-8033385D02*
X14178153Y-8073263D01*
X14184249Y-8199247D02*
X14224127Y-8239125D01*
X14224127Y-8199247D02*
X14184249Y-8239125D01*
X14201013Y-10791317D02*
X14240891Y-10831195D01*
X14240891Y-10791317D02*
X14201013Y-10831195D01*
X14219301Y-5456301D02*
X14259179Y-5496179D01*
X14259179Y-5456301D02*
X14219301Y-5496179D01*
X14240129Y-8120253D02*
X14280007Y-8160131D01*
X14280007Y-8120253D02*
X14240129Y-8160131D01*
X14241145Y-7933309D02*
X14281023Y-7973187D01*
X14281023Y-7933309D02*
X14241145Y-7973187D01*
X14247241Y-5080381D02*
X14287119Y-5120259D01*
X14287119Y-5080381D02*
X14247241Y-5120259D01*
X14251051Y-10466197D02*
X14290929Y-10506075D01*
X14290929Y-10466197D02*
X14251051Y-10506075D01*
X14251051Y-10591419D02*
X14290929Y-10631297D01*
X14290929Y-10591419D02*
X14251051Y-10631297D01*
X14268061Y-5846061D02*
X14307939Y-5885939D01*
X14307939Y-5846061D02*
X14268061Y-5885939D01*
X14268061Y-7387061D02*
X14307939Y-7426939D01*
X14307939Y-7387061D02*
X14268061Y-7426939D01*
X14271117Y-7779385D02*
X14310995Y-7819263D01*
X14310995Y-7779385D02*
X14271117Y-7819263D01*
X14295061Y-11693061D02*
X14334939Y-11732939D01*
X14334939Y-11693061D02*
X14295061Y-11732939D01*
X14356461Y-13327761D02*
X14396339Y-13367639D01*
X14396339Y-13327761D02*
X14356461Y-13367639D01*
X14384147Y-7664323D02*
X14424025Y-7704201D01*
X14424025Y-7664323D02*
X14384147Y-7704201D01*
X14390243Y-7910195D02*
X14430121Y-7950073D01*
X14430121Y-7910195D02*
X14390243Y-7950073D01*
X14397101Y-8129397D02*
X14436979Y-8169275D01*
X14436979Y-8129397D02*
X14397101Y-8169275D01*
X14399061Y-6427061D02*
X14438939Y-6466939D01*
X14438939Y-6427061D02*
X14399061Y-6466939D01*
X14416151Y-8390255D02*
X14456029Y-8430133D01*
X14456029Y-8390255D02*
X14416151Y-8430133D01*
X14432071Y-10201785D02*
X14471949Y-10241663D01*
X14471949Y-10201785D02*
X14432071Y-10241663D01*
X14432153Y-4121277D02*
X14472031Y-4161155D01*
X14472031Y-4121277D02*
X14432153Y-4161155D01*
X14435061Y-8743061D02*
X14474939Y-8782939D01*
X14474939Y-8743061D02*
X14435061Y-8782939D01*
X14435201Y-5240401D02*
X14475079Y-5280279D01*
X14475079Y-5240401D02*
X14435201Y-5280279D01*
X14436725Y-4600067D02*
X14476603Y-4639945D01*
X14476603Y-4600067D02*
X14436725Y-4639945D01*
X14440061Y-8827061D02*
X14479939Y-8866939D01*
X14479939Y-8827061D02*
X14440061Y-8866939D01*
X14450061Y-12643061D02*
X14489939Y-12682939D01*
X14489939Y-12643061D02*
X14450061Y-12682939D01*
X14450441Y-4451477D02*
X14490319Y-4491355D01*
X14490319Y-4451477D02*
X14450441Y-4491355D01*
X14458061Y-13327761D02*
X14497939Y-13367639D01*
X14497939Y-13327761D02*
X14458061Y-13367639D01*
X14461871Y-4280027D02*
X14501749Y-4319905D01*
X14501749Y-4280027D02*
X14461871Y-4319905D01*
X14479143Y-7780401D02*
X14519021Y-7820279D01*
X14519021Y-7780401D02*
X14479143Y-7820279D01*
X14496161Y-4841621D02*
X14536039Y-4881499D01*
X14536039Y-4841621D02*
X14496161Y-4881499D01*
X14502003Y-8032369D02*
X14541881Y-8072247D01*
X14541881Y-8032369D02*
X14502003Y-8072247D01*
X14524061Y-10605061D02*
X14563939Y-10644939D01*
X14563939Y-10605061D02*
X14524061Y-10644939D01*
X14535023Y-8270367D02*
X14574901Y-8310245D01*
X14574901Y-8270367D02*
X14535023Y-8310245D01*
X14538579Y-4537329D02*
X14578457Y-4577207D01*
X14578457Y-4537329D02*
X14538579Y-4577207D01*
X14541881Y-4201287D02*
X14581759Y-4241165D01*
X14581759Y-4201287D02*
X14541881Y-4241165D01*
X14543151Y-4357751D02*
X14583029Y-4397629D01*
X14583029Y-4357751D02*
X14543151Y-4397629D01*
X14572061Y-10181061D02*
X14611939Y-10220939D01*
X14611939Y-10181061D02*
X14572061Y-10220939D01*
X14591157Y-4124579D02*
X14631035Y-4164457D01*
X14631035Y-4124579D02*
X14591157Y-4164457D01*
X14600047Y-7670419D02*
X14639925Y-7710297D01*
X14639925Y-7670419D02*
X14600047Y-7710297D01*
X14609191Y-7912227D02*
X14649069Y-7952105D01*
X14649069Y-7912227D02*
X14609191Y-7952105D01*
X14609191Y-8127365D02*
X14649069Y-8167243D01*
X14649069Y-8127365D02*
X14609191Y-8167243D01*
X14611731Y-4445889D02*
X14651609Y-4485767D01*
X14651609Y-4445889D02*
X14611731Y-4485767D01*
X14618081Y-5466461D02*
X14657959Y-5506339D01*
X14657959Y-5466461D02*
X14618081Y-5506339D01*
X14620875Y-4280027D02*
X14660753Y-4319905D01*
X14660753Y-4280027D02*
X14620875Y-4319905D01*
X14624061Y-10253061D02*
X14663939Y-10292939D01*
X14663939Y-10253061D02*
X14624061Y-10292939D01*
X14625447Y-4604639D02*
X14665325Y-4644517D01*
X14665325Y-4604639D02*
X14625447Y-4644517D01*
X14634061Y-6274061D02*
X14673939Y-6313939D01*
X14673939Y-6274061D02*
X14634061Y-6313939D01*
X14639061Y-6422061D02*
X14678939Y-6461939D01*
X14678939Y-6422061D02*
X14639061Y-6461939D01*
X14648561Y-12591161D02*
X14688439Y-12631039D01*
X14688439Y-12591161D02*
X14648561Y-12631039D01*
X14673961Y-13226161D02*
X14713839Y-13266039D01*
X14713839Y-13226161D02*
X14673961Y-13266039D01*
X14676247Y-10341229D02*
X14716125Y-10381107D01*
X14716125Y-10341229D02*
X14676247Y-10381107D01*
X14691233Y-4356227D02*
X14731111Y-4396105D01*
X14731111Y-4356227D02*
X14691233Y-4396105D01*
X14694281Y-5047361D02*
X14734159Y-5087239D01*
X14734159Y-5047361D02*
X14694281Y-5087239D01*
X14697329Y-4199001D02*
X14737207Y-4238879D01*
X14737207Y-4199001D02*
X14697329Y-4238879D01*
X14701139Y-10866247D02*
X14741017Y-10906125D01*
X14741017Y-10866247D02*
X14701139Y-10906125D01*
X14701901Y-4533773D02*
X14741779Y-4573651D01*
X14741779Y-4533773D02*
X14701901Y-4573651D01*
X14710029Y-8536305D02*
X14749907Y-8576183D01*
X14749907Y-8536305D02*
X14710029Y-8576183D01*
X14717121Y-6350161D02*
X14756999Y-6390039D01*
X14756999Y-6350161D02*
X14717121Y-6390039D01*
X14721061Y-11692061D02*
X14760939Y-11731939D01*
X14760939Y-11692061D02*
X14721061Y-11731939D01*
X14742713Y-9872855D02*
X14782591Y-9912733D01*
X14782591Y-9872855D02*
X14742713Y-9912733D01*
X14768195Y-4120007D02*
X14808073Y-4159885D01*
X14808073Y-4120007D02*
X14768195Y-4159885D01*
X14776069Y-11141329D02*
X14815947Y-11181207D01*
X14815947Y-11141329D02*
X14776069Y-11181207D01*
X14776323Y-4279011D02*
X14816201Y-4318889D01*
X14816201Y-4279011D02*
X14776323Y-4318889D01*
X14784197Y-4448175D02*
X14824075Y-4488053D01*
X14824075Y-4448175D02*
X14784197Y-4488053D01*
X14784197Y-4609211D02*
X14824075Y-4649089D01*
X14824075Y-4609211D02*
X14784197Y-4649089D01*
X14788261Y-13048361D02*
X14828139Y-13088239D01*
X14828139Y-13048361D02*
X14788261Y-13088239D01*
X14790061Y-6420061D02*
X14829939Y-6459939D01*
X14829939Y-6420061D02*
X14790061Y-6459939D01*
X14793061Y-6274061D02*
X14832939Y-6313939D01*
X14832939Y-6274061D02*
X14793061Y-6313939D01*
X14801215Y-11291189D02*
X14841093Y-11331067D01*
X14841093Y-11291189D02*
X14801215Y-11331067D01*
X14801215Y-11441303D02*
X14841093Y-11481181D01*
X14841093Y-11441303D02*
X14801215Y-11481181D01*
X14806041Y-4816221D02*
X14845919Y-4856099D01*
X14845919Y-4816221D02*
X14806041Y-4856099D01*
X14826107Y-11766423D02*
X14865985Y-11806301D01*
X14865985Y-11766423D02*
X14826107Y-11806301D01*
X14849475Y-4354449D02*
X14889353Y-4394327D01*
X14889353Y-4354449D02*
X14849475Y-4394327D01*
X14851253Y-11216259D02*
X14891131Y-11256137D01*
X14891131Y-11216259D02*
X14851253Y-11256137D01*
X14851253Y-11366373D02*
X14891131Y-11406251D01*
X14891131Y-11366373D02*
X14851253Y-11406251D01*
X14851761Y-12959461D02*
X14891639Y-12999339D01*
X14891639Y-12959461D02*
X14851761Y-12999339D01*
X14857349Y-4205859D02*
X14897227Y-4245737D01*
X14897227Y-4205859D02*
X14857349Y-4245737D01*
X14857349Y-4536059D02*
X14897227Y-4575937D01*
X14897227Y-4536059D02*
X14857349Y-4575937D01*
X14864461Y-5227701D02*
X14904339Y-5267579D01*
X14904339Y-5227701D02*
X14864461Y-5267579D01*
X14911061Y-11757061D02*
X14950939Y-11796939D01*
X14950939Y-11757061D02*
X14911061Y-11796939D01*
X14928061Y-12308061D02*
X14967939Y-12347939D01*
X14967939Y-12308061D02*
X14928061Y-12347939D01*
X14934061Y-9768061D02*
X14973939Y-9807939D01*
X14973939Y-9768061D02*
X14934061Y-9807939D01*
X14945487Y-4277741D02*
X14985365Y-4317619D01*
X14985365Y-4277741D02*
X14945487Y-4317619D01*
X14946061Y-10120061D02*
X14985939Y-10159939D01*
X14985939Y-10120061D02*
X14946061Y-10159939D01*
X14946503Y-4117721D02*
X14986381Y-4157599D01*
X14986381Y-4117721D02*
X14946503Y-4157599D01*
X14951075Y-4441317D02*
X14990953Y-4481195D01*
X14990953Y-4441317D02*
X14951075Y-4481195D01*
X14961489Y-4602353D02*
X15001367Y-4642231D01*
X15001367Y-4602353D02*
X14961489Y-4642231D01*
X14977061Y-11810061D02*
X15016939Y-11849939D01*
X15016939Y-11810061D02*
X14977061Y-11849939D01*
X14996033Y-8179435D02*
X15035911Y-8219313D01*
X15035911Y-8179435D02*
X14996033Y-8219313D01*
X15011781Y-4996561D02*
X15051659Y-5036439D01*
X15051659Y-4996561D02*
X15011781Y-5036439D01*
X15021179Y-12176379D02*
X15061057Y-12216257D01*
X15061057Y-12176379D02*
X15021179Y-12216257D01*
X15026005Y-9966325D02*
X15065883Y-10006203D01*
X15065883Y-9966325D02*
X15026005Y-10006203D01*
X15026005Y-10066401D02*
X15065883Y-10106279D01*
X15065883Y-10066401D02*
X15026005Y-10106279D01*
X15061061Y-11791061D02*
X15100939Y-11830939D01*
X15100939Y-11791061D02*
X15061061Y-11830939D01*
X15062581Y-5474081D02*
X15102459Y-5513959D01*
X15102459Y-5474081D02*
X15062581Y-5513959D01*
X15065061Y-13746061D02*
X15104939Y-13785939D01*
X15104939Y-13746061D02*
X15065061Y-13785939D01*
X15080361Y-13505561D02*
X15120239Y-13545439D01*
X15120239Y-13505561D02*
X15080361Y-13545439D01*
X15090521Y-11159871D02*
X15130399Y-11199749D01*
X15130399Y-11159871D02*
X15090521Y-11199749D01*
X15125061Y-11860061D02*
X15164939Y-11899939D01*
X15164939Y-11860061D02*
X15125061Y-11899939D01*
X15146061Y-11312061D02*
X15185939Y-11351939D01*
X15185939Y-11312061D02*
X15146061Y-11351939D01*
X15151481Y-4249801D02*
X15191359Y-4289679D01*
X15191359Y-4249801D02*
X15151481Y-4289679D01*
X15156561Y-10597261D02*
X15196439Y-10637139D01*
X15196439Y-10597261D02*
X15156561Y-10637139D01*
X15181961Y-12895961D02*
X15221839Y-12935839D01*
X15221839Y-12895961D02*
X15181961Y-12935839D01*
X15187061Y-6565061D02*
X15226939Y-6604939D01*
X15226939Y-6565061D02*
X15187061Y-6604939D01*
X15187061Y-6700061D02*
X15226939Y-6739939D01*
X15226939Y-6700061D02*
X15187061Y-6739939D01*
X15220061Y-11860061D02*
X15259939Y-11899939D01*
X15259939Y-11860061D02*
X15220061Y-11899939D01*
X15220061Y-12768961D02*
X15259939Y-12808839D01*
X15259939Y-12768961D02*
X15220061Y-12808839D01*
X15258061Y-6630061D02*
X15297939Y-6669939D01*
X15297939Y-6630061D02*
X15258061Y-6669939D01*
X15283561Y-5242941D02*
X15323439Y-5282819D01*
X15323439Y-5242941D02*
X15283561Y-5282819D01*
X15283561Y-10482961D02*
X15323439Y-10522839D01*
X15323439Y-10482961D02*
X15283561Y-10522839D01*
X15319121Y-4689221D02*
X15358999Y-4729099D01*
X15358999Y-4689221D02*
X15319121Y-4729099D01*
X15334061Y-6558061D02*
X15373939Y-6597939D01*
X15373939Y-6558061D02*
X15334061Y-6597939D01*
X15338061Y-6701061D02*
X15377939Y-6740939D01*
X15377939Y-6701061D02*
X15338061Y-6740939D01*
X15342061Y-9897061D02*
X15381939Y-9936939D01*
X15381939Y-9897061D02*
X15342061Y-9936939D01*
X15344521Y-4079621D02*
X15384399Y-4119499D01*
X15384399Y-4079621D02*
X15344521Y-4119499D01*
X15351633Y-9803257D02*
X15391511Y-9843135D01*
X15391511Y-9803257D02*
X15351633Y-9843135D01*
X15401163Y-10366375D02*
X15441041Y-10406253D01*
X15441041Y-10366375D02*
X15401163Y-10406253D01*
X15415061Y-11805061D02*
X15454939Y-11844939D01*
X15454939Y-11805061D02*
X15415061Y-11844939D01*
X15436061Y-13403061D02*
X15475939Y-13442939D01*
X15475939Y-13403061D02*
X15436061Y-13442939D01*
X15441041Y-5471541D02*
X15480919Y-5511419D01*
X15480919Y-5471541D02*
X15441041Y-5511419D01*
X15455220Y-9528220D02*
X15495098Y-9568098D01*
X15495098Y-9528220D02*
X15455220Y-9568098D01*
X15518061Y-13279061D02*
X15557939Y-13318939D01*
X15557939Y-13279061D02*
X15518061Y-13318939D01*
X15524861Y-4237101D02*
X15564739Y-4276979D01*
X15564739Y-4237101D02*
X15524861Y-4276979D01*
X15535061Y-12505061D02*
X15574939Y-12544939D01*
X15574939Y-12505061D02*
X15535061Y-12544939D01*
X15557061Y-6494061D02*
X15596939Y-6533939D01*
X15596939Y-6494061D02*
X15557061Y-6533939D01*
X15558061Y-12655061D02*
X15597939Y-12694939D01*
X15597939Y-12655061D02*
X15558061Y-12694939D01*
X15578201Y-4986401D02*
X15618079Y-5026279D01*
X15618079Y-4986401D02*
X15578201Y-5026279D01*
X15600061Y-9513061D02*
X15639939Y-9552939D01*
X15639939Y-9513061D02*
X15600061Y-9552939D01*
X15610631Y-12187811D02*
X15650509Y-12227689D01*
X15650509Y-12187811D02*
X15610631Y-12227689D01*
X15615711Y-12504041D02*
X15655589Y-12543919D01*
X15655589Y-12504041D02*
X15615711Y-12543919D01*
X15637061Y-13081061D02*
X15676939Y-13120939D01*
X15676939Y-13081061D02*
X15637061Y-13120939D01*
X15645061Y-12675061D02*
X15684939Y-12714939D01*
X15684939Y-12675061D02*
X15645061Y-12714939D01*
X15675061Y-9407061D02*
X15714939Y-9446939D01*
X15714939Y-9407061D02*
X15675061Y-9446939D01*
X15677261Y-4056761D02*
X15717139Y-4096639D01*
X15717139Y-4056761D02*
X15677261Y-4096639D01*
X15700121Y-5187061D02*
X15739999Y-5226939D01*
X15739999Y-5187061D02*
X15700121Y-5226939D01*
X15705201Y-4493641D02*
X15745079Y-4533519D01*
X15745079Y-4493641D02*
X15705201Y-4533519D01*
X15713061Y-12722061D02*
X15752939Y-12761939D01*
X15752939Y-12722061D02*
X15713061Y-12761939D01*
X15725061Y-12050061D02*
X15764939Y-12089939D01*
X15764939Y-12050061D02*
X15725061Y-12089939D01*
X15750921Y-4783201D02*
X15790799Y-4823079D01*
X15790799Y-4783201D02*
X15750921Y-4823079D01*
X15763061Y-9220061D02*
X15802939Y-9259939D01*
X15802939Y-9220061D02*
X15763061Y-9259939D01*
X15796641Y-4237101D02*
X15836519Y-4276979D01*
X15836519Y-4237101D02*
X15796641Y-4276979D01*
X15810061Y-11985061D02*
X15849939Y-12024939D01*
X15849939Y-11985061D02*
X15810061Y-12024939D01*
X15815061Y-11600061D02*
X15854939Y-11639939D01*
X15854939Y-11600061D02*
X15815061Y-11639939D01*
X15816961Y-11067161D02*
X15856839Y-11107039D01*
X15856839Y-11067161D02*
X15816961Y-11107039D01*
X15904061Y-12686061D02*
X15943939Y-12725939D01*
X15943939Y-12686061D02*
X15904061Y-12725939D01*
X15956661Y-10965561D02*
X15996539Y-11005439D01*
X15996539Y-10965561D02*
X15956661Y-11005439D01*
X15960061Y-12795061D02*
X15999939Y-12834939D01*
X15999939Y-12795061D02*
X15960061Y-12834939D01*
X16075061Y-12430061D02*
X16114939Y-12469939D01*
X16114939Y-12430061D02*
X16075061Y-12469939D01*
X16109061Y-11156061D02*
X16148939Y-11195939D01*
X16148939Y-11156061D02*
X16109061Y-11195939D01*
X16185261Y-11587861D02*
X16225139Y-11627739D01*
X16225139Y-11587861D02*
X16185261Y-11627739D01*
X16220061Y-12005061D02*
X16259939Y-12044939D01*
X16259939Y-12005061D02*
X16220061Y-12044939D01*
X16230061Y-11075061D02*
X16269939Y-11114939D01*
X16269939Y-11075061D02*
X16230061Y-11114939D01*
X16248761Y-12095861D02*
X16288639Y-12135739D01*
X16288639Y-12095861D02*
X16248761Y-12135739D01*
X16270061Y-11465061D02*
X16309939Y-11504939D01*
X16309939Y-11465061D02*
X16270061Y-11504939D01*
X16274061Y-12410061D02*
X16313939Y-12449939D01*
X16313939Y-12410061D02*
X16274061Y-12449939D01*
X16426561Y-10635361D02*
X16466439Y-10675239D01*
X16466439Y-10635361D02*
X16426561Y-10675239D01*
X16439061Y-5726061D02*
X16478939Y-5765939D01*
X16478939Y-5726061D02*
X16439061Y-5765939D01*
X16443751Y-8808595D02*
X16483629Y-8848473D01*
X16483629Y-8808595D02*
X16443751Y-8848473D01*
X16445061Y-12125061D02*
X16484939Y-12164939D01*
X16484939Y-12125061D02*
X16445061Y-12164939D01*
X16451961Y-10965561D02*
X16491839Y-11005439D01*
X16491839Y-10965561D02*
X16451961Y-11005439D01*
X16536715Y-8553579D02*
X16576593Y-8593457D01*
X16576593Y-8553579D02*
X16536715Y-8593457D01*
X16558061Y-6068061D02*
X16597939Y-6107939D01*
X16597939Y-6068061D02*
X16558061Y-6107939D01*
X16566261Y-10368661D02*
X16606139Y-10408539D01*
X16606139Y-10368661D02*
X16566261Y-10408539D01*
X16597061Y-5744061D02*
X16636939Y-5783939D01*
X16636939Y-5744061D02*
X16597061Y-5783939D01*
X16676561Y-12418561D02*
X16716439Y-12458439D01*
X16716439Y-12418561D02*
X16676561Y-12458439D01*
X16679209Y-8406259D02*
X16719087Y-8446137D01*
X16719087Y-8406259D02*
X16679209Y-8446137D01*
X16712061Y-9739061D02*
X16751939Y-9778939D01*
X16751939Y-9739061D02*
X16712061Y-9778939D01*
X16715061Y-11896061D02*
X16754939Y-11935939D01*
X16754939Y-11896061D02*
X16715061Y-11935939D01*
X16731361Y-10635361D02*
X16771239Y-10675239D01*
X16771239Y-10635361D02*
X16731361Y-10675239D01*
X16807561Y-11384661D02*
X16847439Y-11424539D01*
X16847439Y-11384661D02*
X16807561Y-11424539D01*
X16894061Y-9740061D02*
X16933939Y-9779939D01*
X16933939Y-9740061D02*
X16894061Y-9779939D01*
X16934561Y-8806561D02*
X16974439Y-8846439D01*
X16974439Y-8806561D02*
X16934561Y-8846439D01*
X16934561Y-11130661D02*
X16974439Y-11170539D01*
X16974439Y-11130661D02*
X16934561Y-11170539D01*
X17059061Y-7341061D02*
X17098939Y-7380939D01*
X17098939Y-7341061D02*
X17059061Y-7380939D01*
X17099661Y-9289161D02*
X17139539Y-9329039D01*
X17139539Y-9289161D02*
X17099661Y-9329039D01*
X17112361Y-9441561D02*
X17152239Y-9481439D01*
X17152239Y-9441561D02*
X17112361Y-9481439D01*
X17130061Y-12255061D02*
X17169939Y-12294939D01*
X17169939Y-12255061D02*
X17130061Y-12294939D01*
X17140061Y-4855061D02*
X17179939Y-4894939D01*
X17179939Y-4855061D02*
X17140061Y-4894939D01*
X17143222Y-5283200D02*
X17183100Y-5323078D01*
X17183100Y-5283200D02*
X17143222Y-5323078D01*
X17228061Y-9742061D02*
X17267939Y-9781939D01*
X17267939Y-9742061D02*
X17228061Y-9781939D01*
X17237061Y-8717061D02*
X17276939Y-8756939D01*
X17276939Y-8717061D02*
X17237061Y-8756939D01*
X17252061Y-7841361D02*
X17291939Y-7881239D01*
X17291939Y-7841361D02*
X17252061Y-7881239D01*
X17280061Y-4855061D02*
X17319939Y-4894939D01*
X17319939Y-4855061D02*
X17280061Y-4894939D01*
X17280061Y-5280061D02*
X17319939Y-5319939D01*
X17319939Y-5280061D02*
X17280061Y-5319939D01*
X17310227Y-6016371D02*
X17350105Y-6056249D01*
X17350105Y-6016371D02*
X17310227Y-6056249D01*
X17412051Y-11648061D02*
X17451929Y-11687939D01*
X17451929Y-11648061D02*
X17412051Y-11687939D01*
X17413051Y-11329061D02*
X17452929Y-11368939D01*
X17452929Y-11329061D02*
X17413051Y-11368939D01*
X17854061Y-10839061D02*
X17893939Y-10878939D01*
X17893939Y-10839061D02*
X17854061Y-10878939D01*
X17868061Y-4666061D02*
X17907939Y-4705939D01*
X17907939Y-4666061D02*
X17868061Y-4705939D01*
X14283060Y-13977000D02*
G75*
G03X14283060Y-13977000I-35560J0D01*
G01*
X14221940Y-13935060D02*
X14221940Y-14018940D01*
X14273060Y-13935060D02*
X14273060Y-14018940D01*
X14221940Y-14018940D02*
G75*
G03X14273060Y-14018940I25560J0D01*
G01*
X14273060Y-13935060D02*
G75*
G03X14221940Y-13935060I-25560J0D01*
G01*
X14363060Y-13749000D02*
G75*
G03X14363060Y-13749000I-35560J0D01*
G01*
X14301940Y-13732060D02*
X14301940Y-13765940D01*
X14353060Y-13732060D02*
X14353060Y-13765940D01*
X14301940Y-13765940D02*
G75*
G03X14353060Y-13765940I25560J0D01*
G01*
X14353060Y-13732060D02*
G75*
G03X14301940Y-13732060I-25560J0D01*
G01*
X14768060Y-13749000D02*
G75*
G03X14768060Y-13749000I-35560J0D01*
G01*
X14706940Y-13732060D02*
X14706940Y-13765940D01*
X14758060Y-13732060D02*
X14758060Y-13765940D01*
X14706940Y-13765940D02*
G75*
G03X14758060Y-13765940I25560J0D01*
G01*
X14758060Y-13732060D02*
G75*
G03X14706940Y-13732060I-25560J0D01*
G01*
X14848060Y-13977000D02*
G75*
G03X14848060Y-13977000I-35560J0D01*
G01*
X14786940Y-13935060D02*
X14786940Y-14018940D01*
X14838060Y-13935060D02*
X14838060Y-14018940D01*
X14786940Y-14018940D02*
G75*
G03X14838060Y-14018940I25560J0D01*
G01*
X14838060Y-13935060D02*
G75*
G03X14786940Y-13935060I-25560J0D01*
G01*
X13255000Y-14035000D02*
X13255000Y-14115000D01*
X13215000Y-14075000D02*
X13295000Y-14075000D01*
X13425000Y-14035000D02*
X13425000Y-14115000D01*
X13385000Y-14075000D02*
X13465000Y-14075000D01*
X15246000Y-14035000D02*
X15246000Y-14115000D01*
X15206000Y-14075000D02*
X15286000Y-14075000D01*
X15416000Y-14035000D02*
X15416000Y-14115000D01*
X15376000Y-14075000D02*
X15456000Y-14075000D01*
X8852697Y-7858287D02*
X8852697Y-7800813D01*
X8795223Y-7800813D01*
X8795223Y-7858287D01*
X8852697Y-7858287D01*
X8852697Y-7858287D02*
X8852697Y-7800813D01*
X8795223Y-7800813D01*
X8795223Y-7858287D01*
X8852697Y-7858287D01*
X8852697Y-9128287D02*
X8852697Y-9070813D01*
X8795223Y-9070813D01*
X8795223Y-9128287D01*
X8852697Y-9128287D01*
X8852697Y-9128287D02*
X8852697Y-9070813D01*
X8795223Y-9070813D01*
X8795223Y-9128287D01*
X8852697Y-9128287D01*
X8852697Y-9458487D02*
X8852697Y-9401013D01*
X8795223Y-9401013D01*
X8795223Y-9458487D01*
X8852697Y-9458487D01*
X8852697Y-9458487D02*
X8852697Y-9401013D01*
X8795223Y-9401013D01*
X8795223Y-9458487D01*
X8852697Y-9458487D01*
X8852697Y-10728487D02*
X8852697Y-10671013D01*
X8795223Y-10671013D01*
X8795223Y-10728487D01*
X8852697Y-10728487D01*
X8852697Y-10728487D02*
X8852697Y-10671013D01*
X8795223Y-10671013D01*
X8795223Y-10728487D01*
X8852697Y-10728487D01*
X8852697Y-11058687D02*
X8852697Y-11001213D01*
X8795223Y-11001213D01*
X8795223Y-11058687D01*
X8852697Y-11058687D01*
X8852697Y-11058687D02*
X8852697Y-11001213D01*
X8795223Y-11001213D01*
X8795223Y-11058687D01*
X8852697Y-11058687D01*
X8852697Y-12328687D02*
X8852697Y-12271213D01*
X8795223Y-12271213D01*
X8795223Y-12328687D01*
X8852697Y-12328687D01*
X8852697Y-12328687D02*
X8852697Y-12271213D01*
X8795223Y-12271213D01*
X8795223Y-12328687D01*
X8852697Y-12328687D01*
X8865397Y-4657887D02*
X8865397Y-4600413D01*
X8807923Y-4600413D01*
X8807923Y-4657887D01*
X8865397Y-4657887D01*
X8865397Y-4657887D02*
X8865397Y-4600413D01*
X8807923Y-4600413D01*
X8807923Y-4657887D01*
X8865397Y-4657887D01*
X8865397Y-5927887D02*
X8865397Y-5870413D01*
X8807923Y-5870413D01*
X8807923Y-5927887D01*
X8865397Y-5927887D01*
X8865397Y-5927887D02*
X8865397Y-5870413D01*
X8807923Y-5870413D01*
X8807923Y-5927887D01*
X8865397Y-5927887D01*
X8865397Y-6270787D02*
X8865397Y-6213313D01*
X8807923Y-6213313D01*
X8807923Y-6270787D01*
X8865397Y-6270787D01*
X8865397Y-6270787D02*
X8865397Y-6213313D01*
X8807923Y-6213313D01*
X8807923Y-6270787D01*
X8865397Y-6270787D01*
X8865397Y-7540787D02*
X8865397Y-7483313D01*
X8807923Y-7483313D01*
X8807923Y-7540787D01*
X8865397Y-7540787D01*
X8865397Y-7540787D02*
X8865397Y-7483313D01*
X8807923Y-7483313D01*
X8807923Y-7540787D01*
X8865397Y-7540787D01*
X9106697Y-7858287D02*
X9106697Y-7800813D01*
X9049223Y-7800813D01*
X9049223Y-7858287D01*
X9106697Y-7858287D01*
X9106697Y-7858287D02*
X9106697Y-7800813D01*
X9049223Y-7800813D01*
X9049223Y-7858287D01*
X9106697Y-7858287D01*
X9106697Y-9128287D02*
X9106697Y-9070813D01*
X9049223Y-9070813D01*
X9049223Y-9128287D01*
X9106697Y-9128287D01*
X9106697Y-9128287D02*
X9106697Y-9070813D01*
X9049223Y-9070813D01*
X9049223Y-9128287D01*
X9106697Y-9128287D01*
X9106697Y-9458487D02*
X9106697Y-9401013D01*
X9049223Y-9401013D01*
X9049223Y-9458487D01*
X9106697Y-9458487D01*
X9106697Y-9458487D02*
X9106697Y-9401013D01*
X9049223Y-9401013D01*
X9049223Y-9458487D01*
X9106697Y-9458487D01*
X9106697Y-10728487D02*
X9106697Y-10671013D01*
X9049223Y-10671013D01*
X9049223Y-10728487D01*
X9106697Y-10728487D01*
X9106697Y-10728487D02*
X9106697Y-10671013D01*
X9049223Y-10671013D01*
X9049223Y-10728487D01*
X9106697Y-10728487D01*
X9106697Y-11058687D02*
X9106697Y-11001213D01*
X9049223Y-11001213D01*
X9049223Y-11058687D01*
X9106697Y-11058687D01*
X9106697Y-11058687D02*
X9106697Y-11001213D01*
X9049223Y-11001213D01*
X9049223Y-11058687D01*
X9106697Y-11058687D01*
X9106697Y-12328687D02*
X9106697Y-12271213D01*
X9049223Y-12271213D01*
X9049223Y-12328687D01*
X9106697Y-12328687D01*
X9106697Y-12328687D02*
X9106697Y-12271213D01*
X9049223Y-12271213D01*
X9049223Y-12328687D01*
X9106697Y-12328687D01*
X9119397Y-4657887D02*
X9119397Y-4600413D01*
X9061923Y-4600413D01*
X9061923Y-4657887D01*
X9119397Y-4657887D01*
X9119397Y-4657887D02*
X9119397Y-4600413D01*
X9061923Y-4600413D01*
X9061923Y-4657887D01*
X9119397Y-4657887D01*
X9119397Y-5927887D02*
X9119397Y-5870413D01*
X9061923Y-5870413D01*
X9061923Y-5927887D01*
X9119397Y-5927887D01*
X9119397Y-5927887D02*
X9119397Y-5870413D01*
X9061923Y-5870413D01*
X9061923Y-5927887D01*
X9119397Y-5927887D01*
X9119397Y-6270787D02*
X9119397Y-6213313D01*
X9061923Y-6213313D01*
X9061923Y-6270787D01*
X9119397Y-6270787D01*
X9119397Y-6270787D02*
X9119397Y-6213313D01*
X9061923Y-6213313D01*
X9061923Y-6270787D01*
X9119397Y-6270787D01*
X9119397Y-7540787D02*
X9119397Y-7483313D01*
X9061923Y-7483313D01*
X9061923Y-7540787D01*
X9119397Y-7540787D01*
X9119397Y-7540787D02*
X9119397Y-7483313D01*
X9061923Y-7483313D01*
X9061923Y-7540787D01*
X9119397Y-7540787D01*
X9360697Y-7858287D02*
X9360697Y-7800813D01*
X9303223Y-7800813D01*
X9303223Y-7858287D01*
X9360697Y-7858287D01*
X9360697Y-7858287D02*
X9360697Y-7800813D01*
X9303223Y-7800813D01*
X9303223Y-7858287D01*
X9360697Y-7858287D01*
X9360697Y-9128287D02*
X9360697Y-9070813D01*
X9303223Y-9070813D01*
X9303223Y-9128287D01*
X9360697Y-9128287D01*
X9360697Y-9128287D02*
X9360697Y-9070813D01*
X9303223Y-9070813D01*
X9303223Y-9128287D01*
X9360697Y-9128287D01*
X9360697Y-9458487D02*
X9360697Y-9401013D01*
X9303223Y-9401013D01*
X9303223Y-9458487D01*
X9360697Y-9458487D01*
X9360697Y-9458487D02*
X9360697Y-9401013D01*
X9303223Y-9401013D01*
X9303223Y-9458487D01*
X9360697Y-9458487D01*
X9360697Y-10728487D02*
X9360697Y-10671013D01*
X9303223Y-10671013D01*
X9303223Y-10728487D01*
X9360697Y-10728487D01*
X9360697Y-10728487D02*
X9360697Y-10671013D01*
X9303223Y-10671013D01*
X9303223Y-10728487D01*
X9360697Y-10728487D01*
X9360697Y-11058687D02*
X9360697Y-11001213D01*
X9303223Y-11001213D01*
X9303223Y-11058687D01*
X9360697Y-11058687D01*
X9360697Y-11058687D02*
X9360697Y-11001213D01*
X9303223Y-11001213D01*
X9303223Y-11058687D01*
X9360697Y-11058687D01*
X9360697Y-12328687D02*
X9360697Y-12271213D01*
X9303223Y-12271213D01*
X9303223Y-12328687D01*
X9360697Y-12328687D01*
X9360697Y-12328687D02*
X9360697Y-12271213D01*
X9303223Y-12271213D01*
X9303223Y-12328687D01*
X9360697Y-12328687D01*
X9373397Y-4657887D02*
X9373397Y-4600413D01*
X9315923Y-4600413D01*
X9315923Y-4657887D01*
X9373397Y-4657887D01*
X9373397Y-4657887D02*
X9373397Y-4600413D01*
X9315923Y-4600413D01*
X9315923Y-4657887D01*
X9373397Y-4657887D01*
X9373397Y-5927887D02*
X9373397Y-5870413D01*
X9315923Y-5870413D01*
X9315923Y-5927887D01*
X9373397Y-5927887D01*
X9373397Y-5927887D02*
X9373397Y-5870413D01*
X9315923Y-5870413D01*
X9315923Y-5927887D01*
X9373397Y-5927887D01*
X9373397Y-6270787D02*
X9373397Y-6213313D01*
X9315923Y-6213313D01*
X9315923Y-6270787D01*
X9373397Y-6270787D01*
X9373397Y-6270787D02*
X9373397Y-6213313D01*
X9315923Y-6213313D01*
X9315923Y-6270787D01*
X9373397Y-6270787D01*
X9373397Y-7540787D02*
X9373397Y-7483313D01*
X9315923Y-7483313D01*
X9315923Y-7540787D01*
X9373397Y-7540787D01*
X9373397Y-7540787D02*
X9373397Y-7483313D01*
X9315923Y-7483313D01*
X9315923Y-7540787D01*
X9373397Y-7540787D01*
X9614697Y-7858287D02*
X9614697Y-7800813D01*
X9557223Y-7800813D01*
X9557223Y-7858287D01*
X9614697Y-7858287D01*
X9614697Y-7858287D02*
X9614697Y-7800813D01*
X9557223Y-7800813D01*
X9557223Y-7858287D01*
X9614697Y-7858287D01*
X9614697Y-9128287D02*
X9614697Y-9070813D01*
X9557223Y-9070813D01*
X9557223Y-9128287D01*
X9614697Y-9128287D01*
X9614697Y-9128287D02*
X9614697Y-9070813D01*
X9557223Y-9070813D01*
X9557223Y-9128287D01*
X9614697Y-9128287D01*
X9614697Y-9458487D02*
X9614697Y-9401013D01*
X9557223Y-9401013D01*
X9557223Y-9458487D01*
X9614697Y-9458487D01*
X9614697Y-9458487D02*
X9614697Y-9401013D01*
X9557223Y-9401013D01*
X9557223Y-9458487D01*
X9614697Y-9458487D01*
X9614697Y-10728487D02*
X9614697Y-10671013D01*
X9557223Y-10671013D01*
X9557223Y-10728487D01*
X9614697Y-10728487D01*
X9614697Y-10728487D02*
X9614697Y-10671013D01*
X9557223Y-10671013D01*
X9557223Y-10728487D01*
X9614697Y-10728487D01*
X9614697Y-11058687D02*
X9614697Y-11001213D01*
X9557223Y-11001213D01*
X9557223Y-11058687D01*
X9614697Y-11058687D01*
X9614697Y-11058687D02*
X9614697Y-11001213D01*
X9557223Y-11001213D01*
X9557223Y-11058687D01*
X9614697Y-11058687D01*
X9614697Y-12328687D02*
X9614697Y-12271213D01*
X9557223Y-12271213D01*
X9557223Y-12328687D01*
X9614697Y-12328687D01*
X9614697Y-12328687D02*
X9614697Y-12271213D01*
X9557223Y-12271213D01*
X9557223Y-12328687D01*
X9614697Y-12328687D01*
X9627397Y-4657887D02*
X9627397Y-4600413D01*
X9569923Y-4600413D01*
X9569923Y-4657887D01*
X9627397Y-4657887D01*
X9627397Y-4657887D02*
X9627397Y-4600413D01*
X9569923Y-4600413D01*
X9569923Y-4657887D01*
X9627397Y-4657887D01*
X9627397Y-5927887D02*
X9627397Y-5870413D01*
X9569923Y-5870413D01*
X9569923Y-5927887D01*
X9627397Y-5927887D01*
X9627397Y-5927887D02*
X9627397Y-5870413D01*
X9569923Y-5870413D01*
X9569923Y-5927887D01*
X9627397Y-5927887D01*
X9627397Y-6270787D02*
X9627397Y-6213313D01*
X9569923Y-6213313D01*
X9569923Y-6270787D01*
X9627397Y-6270787D01*
X9627397Y-6270787D02*
X9627397Y-6213313D01*
X9569923Y-6213313D01*
X9569923Y-6270787D01*
X9627397Y-6270787D01*
X9627397Y-7540787D02*
X9627397Y-7483313D01*
X9569923Y-7483313D01*
X9569923Y-7540787D01*
X9627397Y-7540787D01*
X9627397Y-7540787D02*
X9627397Y-7483313D01*
X9569923Y-7483313D01*
X9569923Y-7540787D01*
X9627397Y-7540787D01*
X9868697Y-7858287D02*
X9868697Y-7800813D01*
X9811223Y-7800813D01*
X9811223Y-7858287D01*
X9868697Y-7858287D01*
X9868697Y-7858287D02*
X9868697Y-7800813D01*
X9811223Y-7800813D01*
X9811223Y-7858287D01*
X9868697Y-7858287D01*
X9868697Y-9128287D02*
X9868697Y-9070813D01*
X9811223Y-9070813D01*
X9811223Y-9128287D01*
X9868697Y-9128287D01*
X9868697Y-9128287D02*
X9868697Y-9070813D01*
X9811223Y-9070813D01*
X9811223Y-9128287D01*
X9868697Y-9128287D01*
X9868697Y-9458487D02*
X9868697Y-9401013D01*
X9811223Y-9401013D01*
X9811223Y-9458487D01*
X9868697Y-9458487D01*
X9868697Y-9458487D02*
X9868697Y-9401013D01*
X9811223Y-9401013D01*
X9811223Y-9458487D01*
X9868697Y-9458487D01*
X9868697Y-10728487D02*
X9868697Y-10671013D01*
X9811223Y-10671013D01*
X9811223Y-10728487D01*
X9868697Y-10728487D01*
X9868697Y-10728487D02*
X9868697Y-10671013D01*
X9811223Y-10671013D01*
X9811223Y-10728487D01*
X9868697Y-10728487D01*
X9868697Y-11058687D02*
X9868697Y-11001213D01*
X9811223Y-11001213D01*
X9811223Y-11058687D01*
X9868697Y-11058687D01*
X9868697Y-11058687D02*
X9868697Y-11001213D01*
X9811223Y-11001213D01*
X9811223Y-11058687D01*
X9868697Y-11058687D01*
X9868697Y-12328687D02*
X9868697Y-12271213D01*
X9811223Y-12271213D01*
X9811223Y-12328687D01*
X9868697Y-12328687D01*
X9868697Y-12328687D02*
X9868697Y-12271213D01*
X9811223Y-12271213D01*
X9811223Y-12328687D01*
X9868697Y-12328687D01*
X9881397Y-4657887D02*
X9881397Y-4600413D01*
X9823923Y-4600413D01*
X9823923Y-4657887D01*
X9881397Y-4657887D01*
X9881397Y-4657887D02*
X9881397Y-4600413D01*
X9823923Y-4600413D01*
X9823923Y-4657887D01*
X9881397Y-4657887D01*
X9881397Y-5927887D02*
X9881397Y-5870413D01*
X9823923Y-5870413D01*
X9823923Y-5927887D01*
X9881397Y-5927887D01*
X9881397Y-5927887D02*
X9881397Y-5870413D01*
X9823923Y-5870413D01*
X9823923Y-5927887D01*
X9881397Y-5927887D01*
X9881397Y-6270787D02*
X9881397Y-6213313D01*
X9823923Y-6213313D01*
X9823923Y-6270787D01*
X9881397Y-6270787D01*
X9881397Y-6270787D02*
X9881397Y-6213313D01*
X9823923Y-6213313D01*
X9823923Y-6270787D01*
X9881397Y-6270787D01*
X9881397Y-7540787D02*
X9881397Y-7483313D01*
X9823923Y-7483313D01*
X9823923Y-7540787D01*
X9881397Y-7540787D01*
X9881397Y-7540787D02*
X9881397Y-7483313D01*
X9823923Y-7483313D01*
X9823923Y-7540787D01*
X9881397Y-7540787D01*
X10122697Y-7858287D02*
X10122697Y-7800813D01*
X10065223Y-7800813D01*
X10065223Y-7858287D01*
X10122697Y-7858287D01*
X10122697Y-7858287D02*
X10122697Y-7800813D01*
X10065223Y-7800813D01*
X10065223Y-7858287D01*
X10122697Y-7858287D01*
X10122697Y-9128287D02*
X10122697Y-9070813D01*
X10065223Y-9070813D01*
X10065223Y-9128287D01*
X10122697Y-9128287D01*
X10122697Y-9128287D02*
X10122697Y-9070813D01*
X10065223Y-9070813D01*
X10065223Y-9128287D01*
X10122697Y-9128287D01*
X10122697Y-9458487D02*
X10122697Y-9401013D01*
X10065223Y-9401013D01*
X10065223Y-9458487D01*
X10122697Y-9458487D01*
X10122697Y-9458487D02*
X10122697Y-9401013D01*
X10065223Y-9401013D01*
X10065223Y-9458487D01*
X10122697Y-9458487D01*
X10122697Y-10728487D02*
X10122697Y-10671013D01*
X10065223Y-10671013D01*
X10065223Y-10728487D01*
X10122697Y-10728487D01*
X10122697Y-10728487D02*
X10122697Y-10671013D01*
X10065223Y-10671013D01*
X10065223Y-10728487D01*
X10122697Y-10728487D01*
X10122697Y-11058687D02*
X10122697Y-11001213D01*
X10065223Y-11001213D01*
X10065223Y-11058687D01*
X10122697Y-11058687D01*
X10122697Y-11058687D02*
X10122697Y-11001213D01*
X10065223Y-11001213D01*
X10065223Y-11058687D01*
X10122697Y-11058687D01*
X10122697Y-12328687D02*
X10122697Y-12271213D01*
X10065223Y-12271213D01*
X10065223Y-12328687D01*
X10122697Y-12328687D01*
X10122697Y-12328687D02*
X10122697Y-12271213D01*
X10065223Y-12271213D01*
X10065223Y-12328687D01*
X10122697Y-12328687D01*
X10135397Y-4657887D02*
X10135397Y-4600413D01*
X10077923Y-4600413D01*
X10077923Y-4657887D01*
X10135397Y-4657887D01*
X10135397Y-4657887D02*
X10135397Y-4600413D01*
X10077923Y-4600413D01*
X10077923Y-4657887D01*
X10135397Y-4657887D01*
X10135397Y-5927887D02*
X10135397Y-5870413D01*
X10077923Y-5870413D01*
X10077923Y-5927887D01*
X10135397Y-5927887D01*
X10135397Y-5927887D02*
X10135397Y-5870413D01*
X10077923Y-5870413D01*
X10077923Y-5927887D01*
X10135397Y-5927887D01*
X10135397Y-6270787D02*
X10135397Y-6213313D01*
X10077923Y-6213313D01*
X10077923Y-6270787D01*
X10135397Y-6270787D01*
X10135397Y-6270787D02*
X10135397Y-6213313D01*
X10077923Y-6213313D01*
X10077923Y-6270787D01*
X10135397Y-6270787D01*
X10135397Y-7540787D02*
X10135397Y-7483313D01*
X10077923Y-7483313D01*
X10077923Y-7540787D01*
X10135397Y-7540787D01*
X10135397Y-7540787D02*
X10135397Y-7483313D01*
X10077923Y-7483313D01*
X10077923Y-7540787D01*
X10135397Y-7540787D01*
X10376697Y-7858287D02*
X10376697Y-7800813D01*
X10319223Y-7800813D01*
X10319223Y-7858287D01*
X10376697Y-7858287D01*
X10376697Y-7858287D02*
X10376697Y-7800813D01*
X10319223Y-7800813D01*
X10319223Y-7858287D01*
X10376697Y-7858287D01*
X10376697Y-9128287D02*
X10376697Y-9070813D01*
X10319223Y-9070813D01*
X10319223Y-9128287D01*
X10376697Y-9128287D01*
X10376697Y-9128287D02*
X10376697Y-9070813D01*
X10319223Y-9070813D01*
X10319223Y-9128287D01*
X10376697Y-9128287D01*
X10376697Y-9458487D02*
X10376697Y-9401013D01*
X10319223Y-9401013D01*
X10319223Y-9458487D01*
X10376697Y-9458487D01*
X10376697Y-9458487D02*
X10376697Y-9401013D01*
X10319223Y-9401013D01*
X10319223Y-9458487D01*
X10376697Y-9458487D01*
X10376697Y-10728487D02*
X10376697Y-10671013D01*
X10319223Y-10671013D01*
X10319223Y-10728487D01*
X10376697Y-10728487D01*
X10376697Y-10728487D02*
X10376697Y-10671013D01*
X10319223Y-10671013D01*
X10319223Y-10728487D01*
X10376697Y-10728487D01*
X10376697Y-11058687D02*
X10376697Y-11001213D01*
X10319223Y-11001213D01*
X10319223Y-11058687D01*
X10376697Y-11058687D01*
X10376697Y-11058687D02*
X10376697Y-11001213D01*
X10319223Y-11001213D01*
X10319223Y-11058687D01*
X10376697Y-11058687D01*
X10376697Y-12328687D02*
X10376697Y-12271213D01*
X10319223Y-12271213D01*
X10319223Y-12328687D01*
X10376697Y-12328687D01*
X10376697Y-12328687D02*
X10376697Y-12271213D01*
X10319223Y-12271213D01*
X10319223Y-12328687D01*
X10376697Y-12328687D01*
X10389397Y-4657887D02*
X10389397Y-4600413D01*
X10331923Y-4600413D01*
X10331923Y-4657887D01*
X10389397Y-4657887D01*
X10389397Y-4657887D02*
X10389397Y-4600413D01*
X10331923Y-4600413D01*
X10331923Y-4657887D01*
X10389397Y-4657887D01*
X10389397Y-5927887D02*
X10389397Y-5870413D01*
X10331923Y-5870413D01*
X10331923Y-5927887D01*
X10389397Y-5927887D01*
X10389397Y-5927887D02*
X10389397Y-5870413D01*
X10331923Y-5870413D01*
X10331923Y-5927887D01*
X10389397Y-5927887D01*
X10389397Y-6270787D02*
X10389397Y-6213313D01*
X10331923Y-6213313D01*
X10331923Y-6270787D01*
X10389397Y-6270787D01*
X10389397Y-6270787D02*
X10389397Y-6213313D01*
X10331923Y-6213313D01*
X10331923Y-6270787D01*
X10389397Y-6270787D01*
X10389397Y-7540787D02*
X10389397Y-7483313D01*
X10331923Y-7483313D01*
X10331923Y-7540787D01*
X10389397Y-7540787D01*
X10389397Y-7540787D02*
X10389397Y-7483313D01*
X10331923Y-7483313D01*
X10331923Y-7540787D01*
X10389397Y-7540787D01*
X10630697Y-7858287D02*
X10630697Y-7800813D01*
X10573223Y-7800813D01*
X10573223Y-7858287D01*
X10630697Y-7858287D01*
X10630697Y-7858287D02*
X10630697Y-7800813D01*
X10573223Y-7800813D01*
X10573223Y-7858287D01*
X10630697Y-7858287D01*
X10630697Y-9128287D02*
X10630697Y-9070813D01*
X10573223Y-9070813D01*
X10573223Y-9128287D01*
X10630697Y-9128287D01*
X10630697Y-9128287D02*
X10630697Y-9070813D01*
X10573223Y-9070813D01*
X10573223Y-9128287D01*
X10630697Y-9128287D01*
X10630697Y-9458487D02*
X10630697Y-9401013D01*
X10573223Y-9401013D01*
X10573223Y-9458487D01*
X10630697Y-9458487D01*
X10630697Y-9458487D02*
X10630697Y-9401013D01*
X10573223Y-9401013D01*
X10573223Y-9458487D01*
X10630697Y-9458487D01*
X10630697Y-10728487D02*
X10630697Y-10671013D01*
X10573223Y-10671013D01*
X10573223Y-10728487D01*
X10630697Y-10728487D01*
X10630697Y-10728487D02*
X10630697Y-10671013D01*
X10573223Y-10671013D01*
X10573223Y-10728487D01*
X10630697Y-10728487D01*
X10630697Y-11058687D02*
X10630697Y-11001213D01*
X10573223Y-11001213D01*
X10573223Y-11058687D01*
X10630697Y-11058687D01*
X10630697Y-11058687D02*
X10630697Y-11001213D01*
X10573223Y-11001213D01*
X10573223Y-11058687D01*
X10630697Y-11058687D01*
X10630697Y-12328687D02*
X10630697Y-12271213D01*
X10573223Y-12271213D01*
X10573223Y-12328687D01*
X10630697Y-12328687D01*
X10630697Y-12328687D02*
X10630697Y-12271213D01*
X10573223Y-12271213D01*
X10573223Y-12328687D01*
X10630697Y-12328687D01*
X10643397Y-4657887D02*
X10643397Y-4600413D01*
X10585923Y-4600413D01*
X10585923Y-4657887D01*
X10643397Y-4657887D01*
X10643397Y-4657887D02*
X10643397Y-4600413D01*
X10585923Y-4600413D01*
X10585923Y-4657887D01*
X10643397Y-4657887D01*
X10643397Y-5927887D02*
X10643397Y-5870413D01*
X10585923Y-5870413D01*
X10585923Y-5927887D01*
X10643397Y-5927887D01*
X10643397Y-5927887D02*
X10643397Y-5870413D01*
X10585923Y-5870413D01*
X10585923Y-5927887D01*
X10643397Y-5927887D01*
X10643397Y-6270787D02*
X10643397Y-6213313D01*
X10585923Y-6213313D01*
X10585923Y-6270787D01*
X10643397Y-6270787D01*
X10643397Y-6270787D02*
X10643397Y-6213313D01*
X10585923Y-6213313D01*
X10585923Y-6270787D01*
X10643397Y-6270787D01*
X10643397Y-7540787D02*
X10643397Y-7483313D01*
X10585923Y-7483313D01*
X10585923Y-7540787D01*
X10643397Y-7540787D01*
X10643397Y-7540787D02*
X10643397Y-7483313D01*
X10585923Y-7483313D01*
X10585923Y-7540787D01*
X10643397Y-7540787D01*
X16125086Y-13299826D02*
X16175124Y-13249788D01*
X16125086Y-13199750D01*
X16075048Y-13249788D01*
X16125086Y-13299826D01*
X16379086Y-13299826D02*
X16429124Y-13249788D01*
X16379086Y-13199750D01*
X16329048Y-13249788D01*
X16379086Y-13299826D01*
X16582286Y-13299826D02*
X16632324Y-13249788D01*
X16582286Y-13199750D01*
X16532248Y-13249788D01*
X16582286Y-13299826D01*
X16836286Y-13299826D02*
X16886324Y-13249788D01*
X16836286Y-13199750D01*
X16786248Y-13249788D01*
X16836286Y-13299826D01*
X8299200Y-4589200D02*
X8400800Y-4690800D01*
X8400800Y-4589200D02*
X8299200Y-4690800D01*
X8400800Y-4640000D02*
G75*
G03X8400800Y-4640000I-50800J0D01*
G01*
X8299200Y-4843200D02*
X8400800Y-4944800D01*
X8400800Y-4843200D02*
X8299200Y-4944800D01*
X8400800Y-4894000D02*
G75*
G03X8400800Y-4894000I-50800J0D01*
G01*
X8299200Y-5097200D02*
X8400800Y-5198800D01*
X8400800Y-5097200D02*
X8299200Y-5198800D01*
X8400800Y-5148000D02*
G75*
G03X8400800Y-5148000I-50800J0D01*
G01*
X8299200Y-5351200D02*
X8400800Y-5452800D01*
X8400800Y-5351200D02*
X8299200Y-5452800D01*
X8400800Y-5402000D02*
G75*
G03X8400800Y-5402000I-50800J0D01*
G01*
X8299200Y-5605200D02*
X8400800Y-5706800D01*
X8400800Y-5605200D02*
X8299200Y-5706800D01*
X8400800Y-5656000D02*
G75*
G03X8400800Y-5656000I-50800J0D01*
G01*
X8299200Y-5859200D02*
X8400800Y-5960800D01*
X8400800Y-5859200D02*
X8299200Y-5960800D01*
X8400800Y-5910000D02*
G75*
G03X8400800Y-5910000I-50800J0D01*
G01*
X8299200Y-6113200D02*
X8400800Y-6214800D01*
X8400800Y-6113200D02*
X8299200Y-6214800D01*
X8400800Y-6164000D02*
G75*
G03X8400800Y-6164000I-50800J0D01*
G01*
X8299200Y-6459200D02*
X8400800Y-6560800D01*
X8400800Y-6459200D02*
X8299200Y-6560800D01*
X8400800Y-6510000D02*
G75*
G03X8400800Y-6510000I-50800J0D01*
G01*
X8299200Y-6713200D02*
X8400800Y-6814800D01*
X8400800Y-6713200D02*
X8299200Y-6814800D01*
X8400800Y-6764000D02*
G75*
G03X8400800Y-6764000I-50800J0D01*
G01*
X8299200Y-6967200D02*
X8400800Y-7068800D01*
X8400800Y-6967200D02*
X8299200Y-7068800D01*
X8400800Y-7018000D02*
G75*
G03X8400800Y-7018000I-50800J0D01*
G01*
X8299200Y-7221200D02*
X8400800Y-7322800D01*
X8400800Y-7221200D02*
X8299200Y-7322800D01*
X8400800Y-7272000D02*
G75*
G03X8400800Y-7272000I-50800J0D01*
G01*
X8299200Y-7475200D02*
X8400800Y-7576800D01*
X8400800Y-7475200D02*
X8299200Y-7576800D01*
X8400800Y-7526000D02*
G75*
G03X8400800Y-7526000I-50800J0D01*
G01*
X8299200Y-7729200D02*
X8400800Y-7830800D01*
X8400800Y-7729200D02*
X8299200Y-7830800D01*
X8400800Y-7780000D02*
G75*
G03X8400800Y-7780000I-50800J0D01*
G01*
X8299200Y-7983200D02*
X8400800Y-8084800D01*
X8400800Y-7983200D02*
X8299200Y-8084800D01*
X8400800Y-8034000D02*
G75*
G03X8400800Y-8034000I-50800J0D01*
G01*
X8299200Y-8309200D02*
X8400800Y-8410800D01*
X8400800Y-8309200D02*
X8299200Y-8410800D01*
X8400800Y-8360000D02*
G75*
G03X8400800Y-8360000I-50800J0D01*
G01*
X8299200Y-8563200D02*
X8400800Y-8664800D01*
X8400800Y-8563200D02*
X8299200Y-8664800D01*
X8400800Y-8614000D02*
G75*
G03X8400800Y-8614000I-50800J0D01*
G01*
X8299200Y-8817200D02*
X8400800Y-8918800D01*
X8400800Y-8817200D02*
X8299200Y-8918800D01*
X8400800Y-8868000D02*
G75*
G03X8400800Y-8868000I-50800J0D01*
G01*
X8299200Y-9071200D02*
X8400800Y-9172800D01*
X8400800Y-9071200D02*
X8299200Y-9172800D01*
X8400800Y-9122000D02*
G75*
G03X8400800Y-9122000I-50800J0D01*
G01*
X8299200Y-9325200D02*
X8400800Y-9426800D01*
X8400800Y-9325200D02*
X8299200Y-9426800D01*
X8400800Y-9376000D02*
G75*
G03X8400800Y-9376000I-50800J0D01*
G01*
X8299200Y-9579200D02*
X8400800Y-9680800D01*
X8400800Y-9579200D02*
X8299200Y-9680800D01*
X8400800Y-9630000D02*
G75*
G03X8400800Y-9630000I-50800J0D01*
G01*
X8299200Y-9833200D02*
X8400800Y-9934800D01*
X8400800Y-9833200D02*
X8299200Y-9934800D01*
X8400800Y-9884000D02*
G75*
G03X8400800Y-9884000I-50800J0D01*
G01*
X8299200Y-10154200D02*
X8400800Y-10255800D01*
X8400800Y-10154200D02*
X8299200Y-10255800D01*
X8400800Y-10205000D02*
G75*
G03X8400800Y-10205000I-50800J0D01*
G01*
X8299200Y-10408200D02*
X8400800Y-10509800D01*
X8400800Y-10408200D02*
X8299200Y-10509800D01*
X8400800Y-10459000D02*
G75*
G03X8400800Y-10459000I-50800J0D01*
G01*
X8299200Y-10662200D02*
X8400800Y-10763800D01*
X8400800Y-10662200D02*
X8299200Y-10763800D01*
X8400800Y-10713000D02*
G75*
G03X8400800Y-10713000I-50800J0D01*
G01*
X8299200Y-10916200D02*
X8400800Y-11017800D01*
X8400800Y-10916200D02*
X8299200Y-11017800D01*
X8400800Y-10967000D02*
G75*
G03X8400800Y-10967000I-50800J0D01*
G01*
X8299200Y-11249200D02*
X8400800Y-11350800D01*
X8400800Y-11249200D02*
X8299200Y-11350800D01*
X8400800Y-11300000D02*
G75*
G03X8400800Y-11300000I-50800J0D01*
G01*
X8299200Y-11503200D02*
X8400800Y-11604800D01*
X8400800Y-11503200D02*
X8299200Y-11604800D01*
X8400800Y-11554000D02*
G75*
G03X8400800Y-11554000I-50800J0D01*
G01*
X8299200Y-11757200D02*
X8400800Y-11858800D01*
X8400800Y-11757200D02*
X8299200Y-11858800D01*
X8400800Y-11808000D02*
G75*
G03X8400800Y-11808000I-50800J0D01*
G01*
X8299200Y-12011200D02*
X8400800Y-12112800D01*
X8400800Y-12011200D02*
X8299200Y-12112800D01*
X8400800Y-12062000D02*
G75*
G03X8400800Y-12062000I-50800J0D01*
G01*
X8910200Y-4042200D02*
X9011800Y-4143800D01*
X9011800Y-4042200D02*
X8910200Y-4143800D01*
X9011800Y-4093000D02*
G75*
G03X9011800Y-4093000I-50800J0D01*
G01*
X9164200Y-4042200D02*
X9265800Y-4143800D01*
X9265800Y-4042200D02*
X9164200Y-4143800D01*
X9265800Y-4093000D02*
G75*
G03X9265800Y-4093000I-50800J0D01*
G01*
X9418200Y-4042200D02*
X9519800Y-4143800D01*
X9519800Y-4042200D02*
X9418200Y-4143800D01*
X9519800Y-4093000D02*
G75*
G03X9519800Y-4093000I-50800J0D01*
G01*
X9672200Y-4042200D02*
X9773800Y-4143800D01*
X9773800Y-4042200D02*
X9672200Y-4143800D01*
X9773800Y-4093000D02*
G75*
G03X9773800Y-4093000I-50800J0D01*
G01*
X11614200Y-8539200D02*
X11715800Y-8640800D01*
X11715800Y-8539200D02*
X11614200Y-8640800D01*
X11715800Y-8590000D02*
G75*
G03X11715800Y-8590000I-50800J0D01*
G01*
X11614200Y-8793200D02*
X11715800Y-8894800D01*
X11715800Y-8793200D02*
X11614200Y-8894800D01*
X11715800Y-8844000D02*
G75*
G03X11715800Y-8844000I-50800J0D01*
G01*
X11619200Y-9309200D02*
X11720800Y-9410800D01*
X11720800Y-9309200D02*
X11619200Y-9410800D01*
X11720800Y-9360000D02*
G75*
G03X11720800Y-9360000I-50800J0D01*
G01*
X11619200Y-9563200D02*
X11720800Y-9664800D01*
X11720800Y-9563200D02*
X11619200Y-9664800D01*
X11720800Y-9614000D02*
G75*
G03X11720800Y-9614000I-50800J0D01*
G01*
X13399200Y-6179200D02*
X13500800Y-6280800D01*
X13500800Y-6179200D02*
X13399200Y-6280800D01*
X13500800Y-6230000D02*
G75*
G03X13500800Y-6230000I-50800J0D01*
G01*
X16540200Y-4019200D02*
X16641800Y-4120800D01*
X16641800Y-4019200D02*
X16540200Y-4120800D01*
X16641800Y-4070000D02*
G75*
G03X16641800Y-4070000I-50800J0D01*
G01*
X16794200Y-4019200D02*
X16895800Y-4120800D01*
X16895800Y-4019200D02*
X16794200Y-4120800D01*
X16895800Y-4070000D02*
G75*
G03X16895800Y-4070000I-50800J0D01*
G01*
X16884200Y-10269200D02*
X16985800Y-10370800D01*
X16985800Y-10269200D02*
X16884200Y-10370800D01*
X16985800Y-10320000D02*
G75*
G03X16985800Y-10320000I-50800J0D01*
G01*
X17444200Y-5194200D02*
X17545800Y-5295800D01*
X17545800Y-5194200D02*
X17444200Y-5295800D01*
X17545800Y-5245000D02*
G75*
G03X17545800Y-5245000I-50800J0D01*
G01*
X17444200Y-5448200D02*
X17545800Y-5549800D01*
X17545800Y-5448200D02*
X17444200Y-5549800D01*
X17545800Y-5499000D02*
G75*
G03X17545800Y-5499000I-50800J0D01*
G01*
X17444200Y-5702200D02*
X17545800Y-5803800D01*
X17545800Y-5702200D02*
X17444200Y-5803800D01*
X17545800Y-5753000D02*
G75*
G03X17545800Y-5753000I-50800J0D01*
G01*
X17444200Y-5956200D02*
X17545800Y-6057800D01*
X17545800Y-5956200D02*
X17444200Y-6057800D01*
X17545800Y-6007000D02*
G75*
G03X17545800Y-6007000I-50800J0D01*
G01*
X17444200Y-6210200D02*
X17545800Y-6311800D01*
X17545800Y-6210200D02*
X17444200Y-6311800D01*
X17545800Y-6261000D02*
G75*
G03X17545800Y-6261000I-50800J0D01*
G01*
X17444200Y-6464200D02*
X17545800Y-6565800D01*
X17545800Y-6464200D02*
X17444200Y-6565800D01*
X17545800Y-6515000D02*
G75*
G03X17545800Y-6515000I-50800J0D01*
G01*
X17444200Y-6718200D02*
X17545800Y-6819800D01*
X17545800Y-6718200D02*
X17444200Y-6819800D01*
X17545800Y-6769000D02*
G75*
G03X17545800Y-6769000I-50800J0D01*
G01*
X17444200Y-6972200D02*
X17545800Y-7073800D01*
X17545800Y-6972200D02*
X17444200Y-7073800D01*
X17545800Y-7023000D02*
G75*
G03X17545800Y-7023000I-50800J0D01*
G01*
X17444200Y-7226200D02*
X17545800Y-7327800D01*
X17545800Y-7226200D02*
X17444200Y-7327800D01*
X17545800Y-7277000D02*
G75*
G03X17545800Y-7277000I-50800J0D01*
G01*
X17444200Y-7480200D02*
X17545800Y-7581800D01*
X17545800Y-7480200D02*
X17444200Y-7581800D01*
X17545800Y-7531000D02*
G75*
G03X17545800Y-7531000I-50800J0D01*
G01*
X17444200Y-7734200D02*
X17545800Y-7835800D01*
X17545800Y-7734200D02*
X17444200Y-7835800D01*
X17545800Y-7785000D02*
G75*
G03X17545800Y-7785000I-50800J0D01*
G01*
X17444200Y-7988200D02*
X17545800Y-8089800D01*
X17545800Y-7988200D02*
X17444200Y-8089800D01*
X17545800Y-8039000D02*
G75*
G03X17545800Y-8039000I-50800J0D01*
G01*
X17444200Y-8242200D02*
X17545800Y-8343800D01*
X17545800Y-8242200D02*
X17444200Y-8343800D01*
X17545800Y-8293000D02*
G75*
G03X17545800Y-8293000I-50800J0D01*
G01*
X17444200Y-8496200D02*
X17545800Y-8597800D01*
X17545800Y-8496200D02*
X17444200Y-8597800D01*
X17545800Y-8547000D02*
G75*
G03X17545800Y-8547000I-50800J0D01*
G01*
X17444200Y-8750200D02*
X17545800Y-8851800D01*
X17545800Y-8750200D02*
X17444200Y-8851800D01*
X17545800Y-8801000D02*
G75*
G03X17545800Y-8801000I-50800J0D01*
G01*
X17444200Y-9004200D02*
X17545800Y-9105800D01*
X17545800Y-9004200D02*
X17444200Y-9105800D01*
X17545800Y-9055000D02*
G75*
G03X17545800Y-9055000I-50800J0D01*
G01*
X17444200Y-9258200D02*
X17545800Y-9359800D01*
X17545800Y-9258200D02*
X17444200Y-9359800D01*
X17545800Y-9309000D02*
G75*
G03X17545800Y-9309000I-50800J0D01*
G01*
X17444200Y-9512200D02*
X17545800Y-9613800D01*
X17545800Y-9512200D02*
X17444200Y-9613800D01*
X17545800Y-9563000D02*
G75*
G03X17545800Y-9563000I-50800J0D01*
G01*
X17579200Y-9879200D02*
X17680800Y-9980800D01*
X17680800Y-9879200D02*
X17579200Y-9980800D01*
X17680800Y-9930000D02*
G75*
G03X17680800Y-9930000I-50800J0D01*
G01*
X17579200Y-10133200D02*
X17680800Y-10234800D01*
X17680800Y-10133200D02*
X17579200Y-10234800D01*
X17680800Y-10184000D02*
G75*
G03X17680800Y-10184000I-50800J0D01*
G01*
X17579200Y-10464200D02*
X17680800Y-10565800D01*
X17680800Y-10464200D02*
X17579200Y-10565800D01*
X17680800Y-10515000D02*
G75*
G03X17680800Y-10515000I-50800J0D01*
G01*
X17579200Y-10718200D02*
X17680800Y-10819800D01*
X17680800Y-10718200D02*
X17579200Y-10819800D01*
X17680800Y-10769000D02*
G75*
G03X17680800Y-10769000I-50800J0D01*
G01*
X17698200Y-5194200D02*
X17799800Y-5295800D01*
X17799800Y-5194200D02*
X17698200Y-5295800D01*
X17799800Y-5245000D02*
G75*
G03X17799800Y-5245000I-50800J0D01*
G01*
X17698200Y-5448200D02*
X17799800Y-5549800D01*
X17799800Y-5448200D02*
X17698200Y-5549800D01*
X17799800Y-5499000D02*
G75*
G03X17799800Y-5499000I-50800J0D01*
G01*
X17698200Y-5702200D02*
X17799800Y-5803800D01*
X17799800Y-5702200D02*
X17698200Y-5803800D01*
X17799800Y-5753000D02*
G75*
G03X17799800Y-5753000I-50800J0D01*
G01*
X17698200Y-5956200D02*
X17799800Y-6057800D01*
X17799800Y-5956200D02*
X17698200Y-6057800D01*
X17799800Y-6007000D02*
G75*
G03X17799800Y-6007000I-50800J0D01*
G01*
X17698200Y-6210200D02*
X17799800Y-6311800D01*
X17799800Y-6210200D02*
X17698200Y-6311800D01*
X17799800Y-6261000D02*
G75*
G03X17799800Y-6261000I-50800J0D01*
G01*
X17698200Y-6464200D02*
X17799800Y-6565800D01*
X17799800Y-6464200D02*
X17698200Y-6565800D01*
X17799800Y-6515000D02*
G75*
G03X17799800Y-6515000I-50800J0D01*
G01*
X17698200Y-6718200D02*
X17799800Y-6819800D01*
X17799800Y-6718200D02*
X17698200Y-6819800D01*
X17799800Y-6769000D02*
G75*
G03X17799800Y-6769000I-50800J0D01*
G01*
X17698200Y-6972200D02*
X17799800Y-7073800D01*
X17799800Y-6972200D02*
X17698200Y-7073800D01*
X17799800Y-7023000D02*
G75*
G03X17799800Y-7023000I-50800J0D01*
G01*
X17698200Y-7226200D02*
X17799800Y-7327800D01*
X17799800Y-7226200D02*
X17698200Y-7327800D01*
X17799800Y-7277000D02*
G75*
G03X17799800Y-7277000I-50800J0D01*
G01*
X17698200Y-7480200D02*
X17799800Y-7581800D01*
X17799800Y-7480200D02*
X17698200Y-7581800D01*
X17799800Y-7531000D02*
G75*
G03X17799800Y-7531000I-50800J0D01*
G01*
X17698200Y-7734200D02*
X17799800Y-7835800D01*
X17799800Y-7734200D02*
X17698200Y-7835800D01*
X17799800Y-7785000D02*
G75*
G03X17799800Y-7785000I-50800J0D01*
G01*
X17698200Y-7988200D02*
X17799800Y-8089800D01*
X17799800Y-7988200D02*
X17698200Y-8089800D01*
X17799800Y-8039000D02*
G75*
G03X17799800Y-8039000I-50800J0D01*
G01*
X17698200Y-8242200D02*
X17799800Y-8343800D01*
X17799800Y-8242200D02*
X17698200Y-8343800D01*
X17799800Y-8293000D02*
G75*
G03X17799800Y-8293000I-50800J0D01*
G01*
X17698200Y-8496200D02*
X17799800Y-8597800D01*
X17799800Y-8496200D02*
X17698200Y-8597800D01*
X17799800Y-8547000D02*
G75*
G03X17799800Y-8547000I-50800J0D01*
G01*
X17698200Y-8750200D02*
X17799800Y-8851800D01*
X17799800Y-8750200D02*
X17698200Y-8851800D01*
X17799800Y-8801000D02*
G75*
G03X17799800Y-8801000I-50800J0D01*
G01*
X17698200Y-9004200D02*
X17799800Y-9105800D01*
X17799800Y-9004200D02*
X17698200Y-9105800D01*
X17799800Y-9055000D02*
G75*
G03X17799800Y-9055000I-50800J0D01*
G01*
X17698200Y-9258200D02*
X17799800Y-9359800D01*
X17799800Y-9258200D02*
X17698200Y-9359800D01*
X17799800Y-9309000D02*
G75*
G03X17799800Y-9309000I-50800J0D01*
G01*
X17698200Y-9512200D02*
X17799800Y-9613800D01*
X17799800Y-9512200D02*
X17698200Y-9613800D01*
X17799800Y-9563000D02*
G75*
G03X17799800Y-9563000I-50800J0D01*
G01*
X8358056Y-12623056D02*
X8477944Y-12742944D01*
X8477944Y-12623056D02*
X8358056Y-12742944D01*
X8418000Y-12623056D02*
X8418000Y-12742944D01*
X8358056Y-12683000D02*
X8477944Y-12683000D01*
X8358056Y-12973056D02*
X8477944Y-13092944D01*
X8477944Y-12973056D02*
X8358056Y-13092944D01*
X8418000Y-12973056D02*
X8418000Y-13092944D01*
X8358056Y-13033000D02*
X8477944Y-13033000D01*
X8359056Y-13417056D02*
X8478944Y-13536944D01*
X8478944Y-13417056D02*
X8359056Y-13536944D01*
X8419000Y-13417056D02*
X8419000Y-13536944D01*
X8359056Y-13477000D02*
X8478944Y-13477000D01*
X8359056Y-13767056D02*
X8478944Y-13886944D01*
X8478944Y-13767056D02*
X8359056Y-13886944D01*
X8419000Y-13767056D02*
X8419000Y-13886944D01*
X8359056Y-13827000D02*
X8478944Y-13827000D01*
X13990056Y-6590056D02*
X14109944Y-6709944D01*
X14109944Y-6590056D02*
X13990056Y-6709944D01*
X14050000Y-6590056D02*
X14050000Y-6709944D01*
X13990056Y-6650000D02*
X14109944Y-6650000D01*
X14244056Y-6590056D02*
X14363944Y-6709944D01*
X14363944Y-6590056D02*
X14244056Y-6709944D01*
X14304000Y-6590056D02*
X14304000Y-6709944D01*
X14244056Y-6650000D02*
X14363944Y-6650000D01*
X10010000Y-4030000D02*
X10130000Y-4150000D01*
X10130000Y-4030000D02*
X10010000Y-4150000D01*
X10112427Y-4132427D02*
X10112427Y-4047573D01*
X10027573Y-4047573D01*
X10027573Y-4132427D01*
X10112427Y-4132427D01*
X10264000Y-4030000D02*
X10384000Y-4150000D01*
X10384000Y-4030000D02*
X10264000Y-4150000D01*
X10366427Y-4132427D02*
X10366427Y-4047573D01*
X10281573Y-4047573D01*
X10281573Y-4132427D01*
X10366427Y-4132427D01*
X10518000Y-4030000D02*
X10638000Y-4150000D01*
X10638000Y-4030000D02*
X10518000Y-4150000D01*
X10620427Y-4132427D02*
X10620427Y-4047573D01*
X10535573Y-4047573D01*
X10535573Y-4132427D01*
X10620427Y-4132427D01*
X10772000Y-4030000D02*
X10892000Y-4150000D01*
X10892000Y-4030000D02*
X10772000Y-4150000D01*
X10874427Y-4132427D02*
X10874427Y-4047573D01*
X10789573Y-4047573D01*
X10789573Y-4132427D01*
X10874427Y-4132427D01*
X17615000Y-12115000D02*
X17735000Y-12235000D01*
X17735000Y-12115000D02*
X17615000Y-12235000D01*
X17717427Y-12217427D02*
X17717427Y-12132573D01*
X17632573Y-12132573D01*
X17632573Y-12217427D01*
X17717427Y-12217427D01*
X17615000Y-12369000D02*
X17735000Y-12489000D01*
X17735000Y-12369000D02*
X17615000Y-12489000D01*
X17717427Y-12471427D02*
X17717427Y-12386573D01*
X17632573Y-12386573D01*
X17632573Y-12471427D01*
X17717427Y-12471427D01*
X17615000Y-12623000D02*
X17735000Y-12743000D01*
X17735000Y-12623000D02*
X17615000Y-12743000D01*
X17717427Y-12725427D02*
X17717427Y-12640573D01*
X17632573Y-12640573D01*
X17632573Y-12725427D01*
X17717427Y-12725427D01*
X17615000Y-12877000D02*
X17735000Y-12997000D01*
X17735000Y-12877000D02*
X17615000Y-12997000D01*
X17717427Y-12979427D02*
X17717427Y-12894573D01*
X17632573Y-12894573D01*
X17632573Y-12979427D01*
X17717427Y-12979427D01*
X17615000Y-13131000D02*
X17735000Y-13251000D01*
X17735000Y-13131000D02*
X17615000Y-13251000D01*
X17717427Y-13233427D02*
X17717427Y-13148573D01*
X17632573Y-13148573D01*
X17632573Y-13233427D01*
X17717427Y-13233427D01*
X11959336Y-4969256D02*
X12089384Y-5099304D01*
X12089384Y-4969256D02*
X11959336Y-5099304D01*
X12024360Y-5099304D02*
X12089384Y-5034280D01*
X12024360Y-4969256D01*
X11959336Y-5034280D01*
X12024360Y-5099304D01*
X12594336Y-4969256D02*
X12724384Y-5099304D01*
X12724384Y-4969256D02*
X12594336Y-5099304D01*
X12659360Y-5099304D02*
X12724384Y-5034280D01*
X12659360Y-4969256D01*
X12594336Y-5034280D01*
X12659360Y-5099304D01*
X15347696Y-4974336D02*
X15477744Y-5104384D01*
X15477744Y-4974336D02*
X15347696Y-5104384D01*
X15412720Y-5104384D02*
X15477744Y-5039360D01*
X15412720Y-4974336D01*
X15347696Y-5039360D01*
X15412720Y-5104384D01*
X15982696Y-4974336D02*
X16112744Y-5104384D01*
X16112744Y-4974336D02*
X15982696Y-5104384D01*
X16047720Y-5104384D02*
X16112744Y-5039360D01*
X16047720Y-4974336D01*
X15982696Y-5039360D01*
X16047720Y-5104384D01*
X15769486Y-13401426D02*
X15769486Y-13631550D01*
X15654424Y-13516488D02*
X15884548Y-13516488D01*
X15884548Y-13516488D02*
G75*
G03X15884548Y-13516488I-115062J0D01*
G01*
X17141086Y-13401426D02*
X17141086Y-13631550D01*
X17026024Y-13516488D02*
X17256148Y-13516488D01*
X17256148Y-13516488D02*
G75*
G03X17256148Y-13516488I-115062J0D01*
G01*
X8569651Y-4234887D02*
X8569651Y-3937817D01*
X8272581Y-3937817D01*
X8272581Y-4234887D01*
X8569651Y-4234887D01*
X8631174Y-4086352D02*
G75*
G03X8631174Y-4086352I-210058J0D01*
G01*
X17759531Y-13914737D02*
X17759531Y-13617667D01*
X17462461Y-13617667D01*
X17462461Y-13914737D01*
X17759531Y-13914737D01*
X17821054Y-13766202D02*
G75*
G03X17821054Y-13766202I-210058J0D01*
G01*
X17769531Y-4234887D02*
X17769531Y-3937817D01*
X17472461Y-3937817D01*
X17472461Y-4234887D01*
X17769531Y-4234887D01*
X17831054Y-4086352D02*
G75*
G03X17831054Y-4086352I-210058J0D01*
G01*
D13*
X8272378Y-14674764D02*
X8272378Y-14374764D01*
X8343807Y-14374764D01*
X8386664Y-14389050D01*
X8415236Y-14417621D01*
X8429521Y-14446193D01*
X8443807Y-14503336D01*
X8443807Y-14546193D01*
X8429521Y-14603336D01*
X8415236Y-14631907D01*
X8386664Y-14660479D01*
X8343807Y-14674764D01*
X8272378Y-14674764D01*
X8572379Y-14674764D02*
X8572379Y-14474764D01*
X8572379Y-14531907D02*
X8586664Y-14503336D01*
X8600950Y-14489050D01*
X8629521Y-14474764D01*
X8658093Y-14474764D01*
X8758093Y-14674764D02*
X8758093Y-14474764D01*
X8758093Y-14374764D02*
X8743807Y-14389050D01*
X8758093Y-14403336D01*
X8772379Y-14389050D01*
X8758093Y-14374764D01*
X8758093Y-14403336D01*
X8943807Y-14674764D02*
X8915236Y-14660479D01*
X8900950Y-14631907D01*
X8900950Y-14374764D01*
X9100950Y-14674764D02*
X9072379Y-14660479D01*
X9058093Y-14631907D01*
X9058093Y-14374764D01*
X9443807Y-14674764D02*
X9443807Y-14374764D01*
X9543807Y-14589050D01*
X9643807Y-14374764D01*
X9643807Y-14674764D01*
X9915236Y-14674764D02*
X9915236Y-14517621D01*
X9900950Y-14489050D01*
X9872379Y-14474764D01*
X9815236Y-14474764D01*
X9786664Y-14489050D01*
X9915236Y-14660479D02*
X9886664Y-14674764D01*
X9815236Y-14674764D01*
X9786664Y-14660479D01*
X9772379Y-14631907D01*
X9772379Y-14603336D01*
X9786664Y-14574764D01*
X9815236Y-14560479D01*
X9886664Y-14560479D01*
X9915236Y-14546193D01*
X10058093Y-14474764D02*
X10058093Y-14774764D01*
X10058093Y-14489050D02*
X10086664Y-14474764D01*
X10143807Y-14474764D01*
X10172379Y-14489050D01*
X10186664Y-14503336D01*
X10200950Y-14531907D01*
X10200950Y-14617621D01*
X10186664Y-14646193D01*
X10172379Y-14660479D01*
X10143807Y-14674764D01*
X10086664Y-14674764D01*
X10058093Y-14660479D01*
X10329521Y-14646193D02*
X10343807Y-14660479D01*
X10329521Y-14674764D01*
X10315236Y-14660479D01*
X10329521Y-14646193D01*
X10329521Y-14674764D01*
X10329521Y-14489050D02*
X10343807Y-14503336D01*
X10329521Y-14517621D01*
X10315236Y-14503336D01*
X10329521Y-14489050D01*
X10329521Y-14517621D01*
X7961072Y-15149111D02*
X8000950Y-15188989D01*
X8000950Y-15149111D02*
X7961072Y-15188989D01*
X8329521Y-15004764D02*
X8358093Y-15004764D01*
X8386664Y-15019050D01*
X8400950Y-15033336D01*
X8415236Y-15061907D01*
X8429521Y-15119050D01*
X8429521Y-15190479D01*
X8415236Y-15247621D01*
X8400950Y-15276193D01*
X8386664Y-15290479D01*
X8358093Y-15304764D01*
X8329521Y-15304764D01*
X8300950Y-15290479D01*
X8286664Y-15276193D01*
X8272378Y-15247621D01*
X8258093Y-15190479D01*
X8258093Y-15119050D01*
X8272378Y-15061907D01*
X8286664Y-15033336D01*
X8300950Y-15019050D01*
X8329521Y-15004764D01*
X8558093Y-15276193D02*
X8572379Y-15290479D01*
X8558093Y-15304764D01*
X8543807Y-15290479D01*
X8558093Y-15276193D01*
X8558093Y-15304764D01*
X8829521Y-15104764D02*
X8829521Y-15304764D01*
X8758093Y-14990479D02*
X8686664Y-15204764D01*
X8872378Y-15204764D01*
X9043807Y-15004764D02*
X9072379Y-15004764D01*
X9100950Y-15019050D01*
X9115236Y-15033336D01*
X9129521Y-15061907D01*
X9143807Y-15119050D01*
X9143807Y-15190479D01*
X9129521Y-15247621D01*
X9115236Y-15276193D01*
X9100950Y-15290479D01*
X9072379Y-15304764D01*
X9043807Y-15304764D01*
X9015236Y-15290479D01*
X9000950Y-15276193D01*
X8986664Y-15247621D01*
X8972379Y-15190479D01*
X8972379Y-15119050D01*
X8986664Y-15061907D01*
X9000950Y-15033336D01*
X9015236Y-15019050D01*
X9043807Y-15004764D01*
X9272379Y-15304764D02*
X9272379Y-15104764D01*
X9272379Y-15133336D02*
X9286664Y-15119050D01*
X9315236Y-15104764D01*
X9358093Y-15104764D01*
X9386664Y-15119050D01*
X9400950Y-15147621D01*
X9400950Y-15304764D01*
X9400950Y-15147621D02*
X9415236Y-15119050D01*
X9443807Y-15104764D01*
X9486664Y-15104764D01*
X9515236Y-15119050D01*
X9529521Y-15147621D01*
X9529521Y-15304764D01*
X9672379Y-15304764D02*
X9672379Y-15104764D01*
X9672379Y-15133336D02*
X9686664Y-15119050D01*
X9715236Y-15104764D01*
X9758093Y-15104764D01*
X9786664Y-15119050D01*
X9800950Y-15147621D01*
X9800950Y-15304764D01*
X9800950Y-15147621D02*
X9815236Y-15119050D01*
X9843807Y-15104764D01*
X9886664Y-15104764D01*
X9915236Y-15119050D01*
X9929521Y-15147621D01*
X9929521Y-15304764D01*
X10515236Y-14990479D02*
X10258093Y-15376193D01*
X10900950Y-15004764D02*
X10929521Y-15004764D01*
X10958093Y-15019050D01*
X10972378Y-15033336D01*
X10986664Y-15061907D01*
X11000950Y-15119050D01*
X11000950Y-15190479D01*
X10986664Y-15247621D01*
X10972378Y-15276193D01*
X10958093Y-15290479D01*
X10929521Y-15304764D01*
X10900950Y-15304764D01*
X10872378Y-15290479D01*
X10858093Y-15276193D01*
X10843807Y-15247621D01*
X10829521Y-15190479D01*
X10829521Y-15119050D01*
X10843807Y-15061907D01*
X10858093Y-15033336D01*
X10872378Y-15019050D01*
X10900950Y-15004764D01*
X11129521Y-15276193D02*
X11143807Y-15290479D01*
X11129521Y-15304764D01*
X11115236Y-15290479D01*
X11129521Y-15276193D01*
X11129521Y-15304764D01*
X11329521Y-15004764D02*
X11358093Y-15004764D01*
X11386664Y-15019050D01*
X11400950Y-15033336D01*
X11415235Y-15061907D01*
X11429521Y-15119050D01*
X11429521Y-15190479D01*
X11415235Y-15247621D01*
X11400950Y-15276193D01*
X11386664Y-15290479D01*
X11358093Y-15304764D01*
X11329521Y-15304764D01*
X11300950Y-15290479D01*
X11286664Y-15276193D01*
X11272378Y-15247621D01*
X11258093Y-15190479D01*
X11258093Y-15119050D01*
X11272378Y-15061907D01*
X11286664Y-15033336D01*
X11300950Y-15019050D01*
X11329521Y-15004764D01*
X11715235Y-15304764D02*
X11543807Y-15304764D01*
X11629521Y-15304764D02*
X11629521Y-15004764D01*
X11600950Y-15047621D01*
X11572378Y-15076193D01*
X11543807Y-15090479D01*
X11972378Y-15004764D02*
X11915235Y-15004764D01*
X11886664Y-15019050D01*
X11872378Y-15033336D01*
X11843807Y-15076193D01*
X11829521Y-15133336D01*
X11829521Y-15247621D01*
X11843807Y-15276193D01*
X11858093Y-15290479D01*
X11886664Y-15304764D01*
X11943807Y-15304764D01*
X11972378Y-15290479D01*
X11986664Y-15276193D01*
X12000950Y-15247621D01*
X12000950Y-15176193D01*
X11986664Y-15147621D01*
X11972378Y-15133336D01*
X11943807Y-15119050D01*
X11886664Y-15119050D01*
X11858093Y-15133336D01*
X11843807Y-15147621D01*
X11829521Y-15176193D01*
X12115236Y-15004764D02*
X12115236Y-15061907D01*
X12229521Y-15004764D02*
X12229521Y-15061907D01*
X12672378Y-15419050D02*
X12658093Y-15404764D01*
X12629521Y-15361907D01*
X12615235Y-15333336D01*
X12600950Y-15290479D01*
X12586664Y-15219050D01*
X12586664Y-15161907D01*
X12600950Y-15090479D01*
X12615235Y-15047621D01*
X12629521Y-15019050D01*
X12658093Y-14976193D01*
X12672378Y-14961907D01*
X12915235Y-15104764D02*
X12915235Y-15304764D01*
X12843807Y-14990479D02*
X12772378Y-15204764D01*
X12958093Y-15204764D01*
X13200950Y-15104764D02*
X13200950Y-15304764D01*
X13129521Y-14990479D02*
X13058093Y-15204764D01*
X13243807Y-15204764D01*
X13372378Y-15304764D02*
X13429521Y-15304764D01*
X13458093Y-15290479D01*
X13472378Y-15276193D01*
X13500950Y-15233336D01*
X13515235Y-15176193D01*
X13515235Y-15061907D01*
X13500950Y-15033336D01*
X13486664Y-15019050D01*
X13458093Y-15004764D01*
X13400950Y-15004764D01*
X13372378Y-15019050D01*
X13358093Y-15033336D01*
X13343807Y-15061907D01*
X13343807Y-15133336D01*
X13358093Y-15161907D01*
X13372378Y-15176193D01*
X13400950Y-15190479D01*
X13458093Y-15190479D01*
X13486664Y-15176193D01*
X13500950Y-15161907D01*
X13515235Y-15133336D01*
X13872378Y-15304764D02*
X13872378Y-15004764D01*
X14000950Y-15304764D02*
X14000950Y-15147621D01*
X13986664Y-15119050D01*
X13958093Y-15104764D01*
X13915235Y-15104764D01*
X13886664Y-15119050D01*
X13872378Y-15133336D01*
X14186664Y-15304764D02*
X14158093Y-15290479D01*
X14143807Y-15276193D01*
X14129521Y-15247621D01*
X14129521Y-15161907D01*
X14143807Y-15133336D01*
X14158093Y-15119050D01*
X14186664Y-15104764D01*
X14229521Y-15104764D01*
X14258093Y-15119050D01*
X14272378Y-15133336D01*
X14286664Y-15161907D01*
X14286664Y-15247621D01*
X14272378Y-15276193D01*
X14258093Y-15290479D01*
X14229521Y-15304764D01*
X14186664Y-15304764D01*
X14458093Y-15304764D02*
X14429521Y-15290479D01*
X14415236Y-15261907D01*
X14415236Y-15004764D01*
X14686664Y-15290479D02*
X14658093Y-15304764D01*
X14600950Y-15304764D01*
X14572378Y-15290479D01*
X14558093Y-15261907D01*
X14558093Y-15147621D01*
X14572378Y-15119050D01*
X14600950Y-15104764D01*
X14658093Y-15104764D01*
X14686664Y-15119050D01*
X14700950Y-15147621D01*
X14700950Y-15176193D01*
X14558093Y-15204764D01*
X14815236Y-15290479D02*
X14843807Y-15304764D01*
X14900950Y-15304764D01*
X14929521Y-15290479D01*
X14943807Y-15261907D01*
X14943807Y-15247621D01*
X14929521Y-15219050D01*
X14900950Y-15204764D01*
X14858093Y-15204764D01*
X14829521Y-15190479D01*
X14815236Y-15161907D01*
X14815236Y-15147621D01*
X14829521Y-15119050D01*
X14858093Y-15104764D01*
X14900950Y-15104764D01*
X14929521Y-15119050D01*
X15043807Y-15419050D02*
X15058093Y-15404764D01*
X15086664Y-15361907D01*
X15100950Y-15333336D01*
X15115236Y-15290479D01*
X15129521Y-15219050D01*
X15129521Y-15161907D01*
X15115236Y-15090479D01*
X15100950Y-15047621D01*
X15086664Y-15019050D01*
X15058093Y-14976193D01*
X15043807Y-14961907D01*
X8000950Y-15565050D02*
G75*
G03X8000950Y-15565050I-35560J0D01*
G01*
X8329521Y-15400764D02*
X8358093Y-15400764D01*
X8386664Y-15415050D01*
X8400950Y-15429336D01*
X8415236Y-15457907D01*
X8429521Y-15515050D01*
X8429521Y-15586479D01*
X8415236Y-15643621D01*
X8400950Y-15672193D01*
X8386664Y-15686479D01*
X8358093Y-15700764D01*
X8329521Y-15700764D01*
X8300950Y-15686479D01*
X8286664Y-15672193D01*
X8272378Y-15643621D01*
X8258093Y-15586479D01*
X8258093Y-15515050D01*
X8272378Y-15457907D01*
X8286664Y-15429336D01*
X8300950Y-15415050D01*
X8329521Y-15400764D01*
X8558093Y-15672193D02*
X8572379Y-15686479D01*
X8558093Y-15700764D01*
X8543807Y-15686479D01*
X8558093Y-15672193D01*
X8558093Y-15700764D01*
X8672378Y-15400764D02*
X8872378Y-15400764D01*
X8743807Y-15700764D01*
X9143807Y-15700764D02*
X8972379Y-15700764D01*
X9058093Y-15700764D02*
X9058093Y-15400764D01*
X9029521Y-15443621D01*
X9000950Y-15472193D01*
X8972379Y-15486479D01*
X9272379Y-15700764D02*
X9272379Y-15500764D01*
X9272379Y-15529336D02*
X9286664Y-15515050D01*
X9315236Y-15500764D01*
X9358093Y-15500764D01*
X9386664Y-15515050D01*
X9400950Y-15543621D01*
X9400950Y-15700764D01*
X9400950Y-15543621D02*
X9415236Y-15515050D01*
X9443807Y-15500764D01*
X9486664Y-15500764D01*
X9515236Y-15515050D01*
X9529521Y-15543621D01*
X9529521Y-15700764D01*
X9672379Y-15700764D02*
X9672379Y-15500764D01*
X9672379Y-15529336D02*
X9686664Y-15515050D01*
X9715236Y-15500764D01*
X9758093Y-15500764D01*
X9786664Y-15515050D01*
X9800950Y-15543621D01*
X9800950Y-15700764D01*
X9800950Y-15543621D02*
X9815236Y-15515050D01*
X9843807Y-15500764D01*
X9886664Y-15500764D01*
X9915236Y-15515050D01*
X9929521Y-15543621D01*
X9929521Y-15700764D01*
X10515236Y-15386479D02*
X10258093Y-15772193D01*
X10900950Y-15400764D02*
X10929521Y-15400764D01*
X10958093Y-15415050D01*
X10972378Y-15429336D01*
X10986664Y-15457907D01*
X11000950Y-15515050D01*
X11000950Y-15586479D01*
X10986664Y-15643621D01*
X10972378Y-15672193D01*
X10958093Y-15686479D01*
X10929521Y-15700764D01*
X10900950Y-15700764D01*
X10872378Y-15686479D01*
X10858093Y-15672193D01*
X10843807Y-15643621D01*
X10829521Y-15586479D01*
X10829521Y-15515050D01*
X10843807Y-15457907D01*
X10858093Y-15429336D01*
X10872378Y-15415050D01*
X10900950Y-15400764D01*
X11129521Y-15672193D02*
X11143807Y-15686479D01*
X11129521Y-15700764D01*
X11115236Y-15686479D01*
X11129521Y-15672193D01*
X11129521Y-15700764D01*
X11329521Y-15400764D02*
X11358093Y-15400764D01*
X11386664Y-15415050D01*
X11400950Y-15429336D01*
X11415235Y-15457907D01*
X11429521Y-15515050D01*
X11429521Y-15586479D01*
X11415235Y-15643621D01*
X11400950Y-15672193D01*
X11386664Y-15686479D01*
X11358093Y-15700764D01*
X11329521Y-15700764D01*
X11300950Y-15686479D01*
X11286664Y-15672193D01*
X11272378Y-15643621D01*
X11258093Y-15586479D01*
X11258093Y-15515050D01*
X11272378Y-15457907D01*
X11286664Y-15429336D01*
X11300950Y-15415050D01*
X11329521Y-15400764D01*
X11543807Y-15429336D02*
X11558093Y-15415050D01*
X11586664Y-15400764D01*
X11658093Y-15400764D01*
X11686664Y-15415050D01*
X11700950Y-15429336D01*
X11715235Y-15457907D01*
X11715235Y-15486479D01*
X11700950Y-15529336D01*
X11529521Y-15700764D01*
X11715235Y-15700764D01*
X11886664Y-15529336D02*
X11858093Y-15515050D01*
X11843807Y-15500764D01*
X11829521Y-15472193D01*
X11829521Y-15457907D01*
X11843807Y-15429336D01*
X11858093Y-15415050D01*
X11886664Y-15400764D01*
X11943807Y-15400764D01*
X11972378Y-15415050D01*
X11986664Y-15429336D01*
X12000950Y-15457907D01*
X12000950Y-15472193D01*
X11986664Y-15500764D01*
X11972378Y-15515050D01*
X11943807Y-15529336D01*
X11886664Y-15529336D01*
X11858093Y-15543621D01*
X11843807Y-15557907D01*
X11829521Y-15586479D01*
X11829521Y-15643621D01*
X11843807Y-15672193D01*
X11858093Y-15686479D01*
X11886664Y-15700764D01*
X11943807Y-15700764D01*
X11972378Y-15686479D01*
X11986664Y-15672193D01*
X12000950Y-15643621D01*
X12000950Y-15586479D01*
X11986664Y-15557907D01*
X11972378Y-15543621D01*
X11943807Y-15529336D01*
X12115236Y-15400764D02*
X12115236Y-15457907D01*
X12229521Y-15400764D02*
X12229521Y-15457907D01*
X12672378Y-15815050D02*
X12658093Y-15800764D01*
X12629521Y-15757907D01*
X12615235Y-15729336D01*
X12600950Y-15686479D01*
X12586664Y-15615050D01*
X12586664Y-15557907D01*
X12600950Y-15486479D01*
X12615235Y-15443621D01*
X12629521Y-15415050D01*
X12658093Y-15372193D01*
X12672378Y-15357907D01*
X12843807Y-15400764D02*
X12872378Y-15400764D01*
X12900950Y-15415050D01*
X12915235Y-15429336D01*
X12929521Y-15457907D01*
X12943807Y-15515050D01*
X12943807Y-15586479D01*
X12929521Y-15643621D01*
X12915235Y-15672193D01*
X12900950Y-15686479D01*
X12872378Y-15700764D01*
X12843807Y-15700764D01*
X12815235Y-15686479D01*
X12800950Y-15672193D01*
X12786664Y-15643621D01*
X12772378Y-15586479D01*
X12772378Y-15515050D01*
X12786664Y-15457907D01*
X12800950Y-15429336D01*
X12815235Y-15415050D01*
X12843807Y-15400764D01*
X13300950Y-15700764D02*
X13300950Y-15400764D01*
X13429521Y-15700764D02*
X13429521Y-15543621D01*
X13415235Y-15515050D01*
X13386664Y-15500764D01*
X13343807Y-15500764D01*
X13315235Y-15515050D01*
X13300950Y-15529336D01*
X13615235Y-15700764D02*
X13586664Y-15686479D01*
X13572378Y-15672193D01*
X13558093Y-15643621D01*
X13558093Y-15557907D01*
X13572378Y-15529336D01*
X13586664Y-15515050D01*
X13615235Y-15500764D01*
X13658093Y-15500764D01*
X13686664Y-15515050D01*
X13700950Y-15529336D01*
X13715235Y-15557907D01*
X13715235Y-15643621D01*
X13700950Y-15672193D01*
X13686664Y-15686479D01*
X13658093Y-15700764D01*
X13615235Y-15700764D01*
X13886664Y-15700764D02*
X13858093Y-15686479D01*
X13843807Y-15657907D01*
X13843807Y-15400764D01*
X14115236Y-15686479D02*
X14086664Y-15700764D01*
X14029521Y-15700764D01*
X14000950Y-15686479D01*
X13986664Y-15657907D01*
X13986664Y-15543621D01*
X14000950Y-15515050D01*
X14029521Y-15500764D01*
X14086664Y-15500764D01*
X14115236Y-15515050D01*
X14129521Y-15543621D01*
X14129521Y-15572193D01*
X13986664Y-15600764D01*
X14243807Y-15686479D02*
X14272378Y-15700764D01*
X14329521Y-15700764D01*
X14358093Y-15686479D01*
X14372378Y-15657907D01*
X14372378Y-15643621D01*
X14358093Y-15615050D01*
X14329521Y-15600764D01*
X14286664Y-15600764D01*
X14258093Y-15586479D01*
X14243807Y-15557907D01*
X14243807Y-15543621D01*
X14258093Y-15515050D01*
X14286664Y-15500764D01*
X14329521Y-15500764D01*
X14358093Y-15515050D01*
X14729521Y-15586479D02*
X14958093Y-15586479D01*
X14843807Y-15700764D02*
X14843807Y-15472193D01*
X15458093Y-15500764D02*
X15458093Y-15700764D01*
X15386664Y-15386479D02*
X15315236Y-15600764D01*
X15500950Y-15600764D01*
X15829521Y-15686479D02*
X15858093Y-15700764D01*
X15915235Y-15700764D01*
X15943807Y-15686479D01*
X15958093Y-15657907D01*
X15958093Y-15643621D01*
X15943807Y-15615050D01*
X15915235Y-15600764D01*
X15872378Y-15600764D01*
X15843807Y-15586479D01*
X15829521Y-15557907D01*
X15829521Y-15543621D01*
X15843807Y-15515050D01*
X15872378Y-15500764D01*
X15915235Y-15500764D01*
X15943807Y-15515050D01*
X16129521Y-15700764D02*
X16100950Y-15686479D01*
X16086664Y-15657907D01*
X16086664Y-15400764D01*
X16286664Y-15700764D02*
X16258093Y-15686479D01*
X16243807Y-15672193D01*
X16229521Y-15643621D01*
X16229521Y-15557907D01*
X16243807Y-15529336D01*
X16258093Y-15515050D01*
X16286664Y-15500764D01*
X16329521Y-15500764D01*
X16358093Y-15515050D01*
X16372378Y-15529336D01*
X16386664Y-15557907D01*
X16386664Y-15643621D01*
X16372378Y-15672193D01*
X16358093Y-15686479D01*
X16329521Y-15700764D01*
X16286664Y-15700764D01*
X16472378Y-15500764D02*
X16586664Y-15500764D01*
X16515236Y-15400764D02*
X16515236Y-15657907D01*
X16529521Y-15686479D01*
X16558093Y-15700764D01*
X16586664Y-15700764D01*
X16672378Y-15686479D02*
X16700950Y-15700764D01*
X16758093Y-15700764D01*
X16786664Y-15686479D01*
X16800950Y-15657907D01*
X16800950Y-15643621D01*
X16786664Y-15615050D01*
X16758093Y-15600764D01*
X16715236Y-15600764D01*
X16686664Y-15586479D01*
X16672378Y-15557907D01*
X16672378Y-15543621D01*
X16686664Y-15515050D01*
X16715236Y-15500764D01*
X16758093Y-15500764D01*
X16786664Y-15515050D01*
X16900950Y-15815050D02*
X16915236Y-15800764D01*
X16943807Y-15757907D01*
X16958093Y-15729336D01*
X16972378Y-15686479D01*
X16986664Y-15615050D01*
X16986664Y-15557907D01*
X16972378Y-15486479D01*
X16958093Y-15443621D01*
X16943807Y-15415050D01*
X16915236Y-15372193D01*
X16900950Y-15357907D01*
X7960950Y-15921050D02*
X7960950Y-16001050D01*
X7920950Y-15961050D02*
X8000950Y-15961050D01*
X8329521Y-15796764D02*
X8358093Y-15796764D01*
X8386664Y-15811050D01*
X8400950Y-15825336D01*
X8415236Y-15853907D01*
X8429521Y-15911050D01*
X8429521Y-15982479D01*
X8415236Y-16039621D01*
X8400950Y-16068193D01*
X8386664Y-16082479D01*
X8358093Y-16096764D01*
X8329521Y-16096764D01*
X8300950Y-16082479D01*
X8286664Y-16068193D01*
X8272378Y-16039621D01*
X8258093Y-15982479D01*
X8258093Y-15911050D01*
X8272378Y-15853907D01*
X8286664Y-15825336D01*
X8300950Y-15811050D01*
X8329521Y-15796764D01*
X8558093Y-16068193D02*
X8572379Y-16082479D01*
X8558093Y-16096764D01*
X8543807Y-16082479D01*
X8558093Y-16068193D01*
X8558093Y-16096764D01*
X8743807Y-15925336D02*
X8715236Y-15911050D01*
X8700950Y-15896764D01*
X8686664Y-15868193D01*
X8686664Y-15853907D01*
X8700950Y-15825336D01*
X8715236Y-15811050D01*
X8743807Y-15796764D01*
X8800950Y-15796764D01*
X8829521Y-15811050D01*
X8843807Y-15825336D01*
X8858093Y-15853907D01*
X8858093Y-15868193D01*
X8843807Y-15896764D01*
X8829521Y-15911050D01*
X8800950Y-15925336D01*
X8743807Y-15925336D01*
X8715236Y-15939621D01*
X8700950Y-15953907D01*
X8686664Y-15982479D01*
X8686664Y-16039621D01*
X8700950Y-16068193D01*
X8715236Y-16082479D01*
X8743807Y-16096764D01*
X8800950Y-16096764D01*
X8829521Y-16082479D01*
X8843807Y-16068193D01*
X8858093Y-16039621D01*
X8858093Y-15982479D01*
X8843807Y-15953907D01*
X8829521Y-15939621D01*
X8800950Y-15925336D01*
X9043807Y-15796764D02*
X9072379Y-15796764D01*
X9100950Y-15811050D01*
X9115236Y-15825336D01*
X9129521Y-15853907D01*
X9143807Y-15911050D01*
X9143807Y-15982479D01*
X9129521Y-16039621D01*
X9115236Y-16068193D01*
X9100950Y-16082479D01*
X9072379Y-16096764D01*
X9043807Y-16096764D01*
X9015236Y-16082479D01*
X9000950Y-16068193D01*
X8986664Y-16039621D01*
X8972379Y-15982479D01*
X8972379Y-15911050D01*
X8986664Y-15853907D01*
X9000950Y-15825336D01*
X9015236Y-15811050D01*
X9043807Y-15796764D01*
X9272379Y-16096764D02*
X9272379Y-15896764D01*
X9272379Y-15925336D02*
X9286664Y-15911050D01*
X9315236Y-15896764D01*
X9358093Y-15896764D01*
X9386664Y-15911050D01*
X9400950Y-15939621D01*
X9400950Y-16096764D01*
X9400950Y-15939621D02*
X9415236Y-15911050D01*
X9443807Y-15896764D01*
X9486664Y-15896764D01*
X9515236Y-15911050D01*
X9529521Y-15939621D01*
X9529521Y-16096764D01*
X9672379Y-16096764D02*
X9672379Y-15896764D01*
X9672379Y-15925336D02*
X9686664Y-15911050D01*
X9715236Y-15896764D01*
X9758093Y-15896764D01*
X9786664Y-15911050D01*
X9800950Y-15939621D01*
X9800950Y-16096764D01*
X9800950Y-15939621D02*
X9815236Y-15911050D01*
X9843807Y-15896764D01*
X9886664Y-15896764D01*
X9915236Y-15911050D01*
X9929521Y-15939621D01*
X9929521Y-16096764D01*
X10515236Y-15782479D02*
X10258093Y-16168193D01*
X10900950Y-15796764D02*
X10929521Y-15796764D01*
X10958093Y-15811050D01*
X10972378Y-15825336D01*
X10986664Y-15853907D01*
X11000950Y-15911050D01*
X11000950Y-15982479D01*
X10986664Y-16039621D01*
X10972378Y-16068193D01*
X10958093Y-16082479D01*
X10929521Y-16096764D01*
X10900950Y-16096764D01*
X10872378Y-16082479D01*
X10858093Y-16068193D01*
X10843807Y-16039621D01*
X10829521Y-15982479D01*
X10829521Y-15911050D01*
X10843807Y-15853907D01*
X10858093Y-15825336D01*
X10872378Y-15811050D01*
X10900950Y-15796764D01*
X11129521Y-16068193D02*
X11143807Y-16082479D01*
X11129521Y-16096764D01*
X11115236Y-16082479D01*
X11129521Y-16068193D01*
X11129521Y-16096764D01*
X11329521Y-15796764D02*
X11358093Y-15796764D01*
X11386664Y-15811050D01*
X11400950Y-15825336D01*
X11415235Y-15853907D01*
X11429521Y-15911050D01*
X11429521Y-15982479D01*
X11415235Y-16039621D01*
X11400950Y-16068193D01*
X11386664Y-16082479D01*
X11358093Y-16096764D01*
X11329521Y-16096764D01*
X11300950Y-16082479D01*
X11286664Y-16068193D01*
X11272378Y-16039621D01*
X11258093Y-15982479D01*
X11258093Y-15911050D01*
X11272378Y-15853907D01*
X11286664Y-15825336D01*
X11300950Y-15811050D01*
X11329521Y-15796764D01*
X11529521Y-15796764D02*
X11715235Y-15796764D01*
X11615235Y-15911050D01*
X11658093Y-15911050D01*
X11686664Y-15925336D01*
X11700950Y-15939621D01*
X11715235Y-15968193D01*
X11715235Y-16039621D01*
X11700950Y-16068193D01*
X11686664Y-16082479D01*
X11658093Y-16096764D01*
X11572378Y-16096764D01*
X11543807Y-16082479D01*
X11529521Y-16068193D01*
X12000950Y-16096764D02*
X11829521Y-16096764D01*
X11915235Y-16096764D02*
X11915235Y-15796764D01*
X11886664Y-15839621D01*
X11858093Y-15868193D01*
X11829521Y-15882479D01*
X12115236Y-15796764D02*
X12115236Y-15853907D01*
X12229521Y-15796764D02*
X12229521Y-15853907D01*
X12672378Y-16211050D02*
X12658093Y-16196764D01*
X12629521Y-16153907D01*
X12615235Y-16125336D01*
X12600950Y-16082479D01*
X12586664Y-16011050D01*
X12586664Y-15953907D01*
X12600950Y-15882479D01*
X12615235Y-15839621D01*
X12629521Y-15811050D01*
X12658093Y-15768193D01*
X12672378Y-15753907D01*
X12915235Y-15896764D02*
X12915235Y-16096764D01*
X12843807Y-15782479D02*
X12772378Y-15996764D01*
X12958093Y-15996764D01*
X13300950Y-16096764D02*
X13300950Y-15796764D01*
X13429521Y-16096764D02*
X13429521Y-15939621D01*
X13415235Y-15911050D01*
X13386664Y-15896764D01*
X13343807Y-15896764D01*
X13315235Y-15911050D01*
X13300950Y-15925336D01*
X13615235Y-16096764D02*
X13586664Y-16082479D01*
X13572378Y-16068193D01*
X13558093Y-16039621D01*
X13558093Y-15953907D01*
X13572378Y-15925336D01*
X13586664Y-15911050D01*
X13615235Y-15896764D01*
X13658093Y-15896764D01*
X13686664Y-15911050D01*
X13700950Y-15925336D01*
X13715235Y-15953907D01*
X13715235Y-16039621D01*
X13700950Y-16068193D01*
X13686664Y-16082479D01*
X13658093Y-16096764D01*
X13615235Y-16096764D01*
X13886664Y-16096764D02*
X13858093Y-16082479D01*
X13843807Y-16053907D01*
X13843807Y-15796764D01*
X14115236Y-16082479D02*
X14086664Y-16096764D01*
X14029521Y-16096764D01*
X14000950Y-16082479D01*
X13986664Y-16053907D01*
X13986664Y-15939621D01*
X14000950Y-15911050D01*
X14029521Y-15896764D01*
X14086664Y-15896764D01*
X14115236Y-15911050D01*
X14129521Y-15939621D01*
X14129521Y-15968193D01*
X13986664Y-15996764D01*
X14243807Y-16082479D02*
X14272378Y-16096764D01*
X14329521Y-16096764D01*
X14358093Y-16082479D01*
X14372378Y-16053907D01*
X14372378Y-16039621D01*
X14358093Y-16011050D01*
X14329521Y-15996764D01*
X14286664Y-15996764D01*
X14258093Y-15982479D01*
X14243807Y-15953907D01*
X14243807Y-15939621D01*
X14258093Y-15911050D01*
X14286664Y-15896764D01*
X14329521Y-15896764D01*
X14358093Y-15911050D01*
X14472378Y-16211050D02*
X14486664Y-16196764D01*
X14515236Y-16153907D01*
X14529521Y-16125336D01*
X14543807Y-16082479D01*
X14558093Y-16011050D01*
X14558093Y-15953907D01*
X14543807Y-15882479D01*
X14529521Y-15839621D01*
X14515236Y-15811050D01*
X14486664Y-15768193D01*
X14472378Y-15753907D01*
X7989047Y-16385787D02*
X7989047Y-16328313D01*
X7931573Y-16328313D01*
X7931573Y-16385787D01*
X7989047Y-16385787D01*
X8329521Y-16192764D02*
X8358093Y-16192764D01*
X8386664Y-16207050D01*
X8400950Y-16221336D01*
X8415236Y-16249907D01*
X8429521Y-16307050D01*
X8429521Y-16378479D01*
X8415236Y-16435621D01*
X8400950Y-16464193D01*
X8386664Y-16478479D01*
X8358093Y-16492764D01*
X8329521Y-16492764D01*
X8300950Y-16478479D01*
X8286664Y-16464193D01*
X8272378Y-16435621D01*
X8258093Y-16378479D01*
X8258093Y-16307050D01*
X8272378Y-16249907D01*
X8286664Y-16221336D01*
X8300950Y-16207050D01*
X8329521Y-16192764D01*
X8558093Y-16464193D02*
X8572379Y-16478479D01*
X8558093Y-16492764D01*
X8543807Y-16478479D01*
X8558093Y-16464193D01*
X8558093Y-16492764D01*
X8743807Y-16321336D02*
X8715236Y-16307050D01*
X8700950Y-16292764D01*
X8686664Y-16264193D01*
X8686664Y-16249907D01*
X8700950Y-16221336D01*
X8715236Y-16207050D01*
X8743807Y-16192764D01*
X8800950Y-16192764D01*
X8829521Y-16207050D01*
X8843807Y-16221336D01*
X8858093Y-16249907D01*
X8858093Y-16264193D01*
X8843807Y-16292764D01*
X8829521Y-16307050D01*
X8800950Y-16321336D01*
X8743807Y-16321336D01*
X8715236Y-16335621D01*
X8700950Y-16349907D01*
X8686664Y-16378479D01*
X8686664Y-16435621D01*
X8700950Y-16464193D01*
X8715236Y-16478479D01*
X8743807Y-16492764D01*
X8800950Y-16492764D01*
X8829521Y-16478479D01*
X8843807Y-16464193D01*
X8858093Y-16435621D01*
X8858093Y-16378479D01*
X8843807Y-16349907D01*
X8829521Y-16335621D01*
X8800950Y-16321336D01*
X9143807Y-16492764D02*
X8972379Y-16492764D01*
X9058093Y-16492764D02*
X9058093Y-16192764D01*
X9029521Y-16235621D01*
X9000950Y-16264193D01*
X8972379Y-16278479D01*
X9272379Y-16492764D02*
X9272379Y-16292764D01*
X9272379Y-16321336D02*
X9286664Y-16307050D01*
X9315236Y-16292764D01*
X9358093Y-16292764D01*
X9386664Y-16307050D01*
X9400950Y-16335621D01*
X9400950Y-16492764D01*
X9400950Y-16335621D02*
X9415236Y-16307050D01*
X9443807Y-16292764D01*
X9486664Y-16292764D01*
X9515236Y-16307050D01*
X9529521Y-16335621D01*
X9529521Y-16492764D01*
X9672379Y-16492764D02*
X9672379Y-16292764D01*
X9672379Y-16321336D02*
X9686664Y-16307050D01*
X9715236Y-16292764D01*
X9758093Y-16292764D01*
X9786664Y-16307050D01*
X9800950Y-16335621D01*
X9800950Y-16492764D01*
X9800950Y-16335621D02*
X9815236Y-16307050D01*
X9843807Y-16292764D01*
X9886664Y-16292764D01*
X9915236Y-16307050D01*
X9929521Y-16335621D01*
X9929521Y-16492764D01*
X10515236Y-16178479D02*
X10258093Y-16564193D01*
X10900950Y-16192764D02*
X10929521Y-16192764D01*
X10958093Y-16207050D01*
X10972378Y-16221336D01*
X10986664Y-16249907D01*
X11000950Y-16307050D01*
X11000950Y-16378479D01*
X10986664Y-16435621D01*
X10972378Y-16464193D01*
X10958093Y-16478479D01*
X10929521Y-16492764D01*
X10900950Y-16492764D01*
X10872378Y-16478479D01*
X10858093Y-16464193D01*
X10843807Y-16435621D01*
X10829521Y-16378479D01*
X10829521Y-16307050D01*
X10843807Y-16249907D01*
X10858093Y-16221336D01*
X10872378Y-16207050D01*
X10900950Y-16192764D01*
X11129521Y-16464193D02*
X11143807Y-16478479D01*
X11129521Y-16492764D01*
X11115236Y-16478479D01*
X11129521Y-16464193D01*
X11129521Y-16492764D01*
X11329521Y-16192764D02*
X11358093Y-16192764D01*
X11386664Y-16207050D01*
X11400950Y-16221336D01*
X11415235Y-16249907D01*
X11429521Y-16307050D01*
X11429521Y-16378479D01*
X11415235Y-16435621D01*
X11400950Y-16464193D01*
X11386664Y-16478479D01*
X11358093Y-16492764D01*
X11329521Y-16492764D01*
X11300950Y-16478479D01*
X11286664Y-16464193D01*
X11272378Y-16435621D01*
X11258093Y-16378479D01*
X11258093Y-16307050D01*
X11272378Y-16249907D01*
X11286664Y-16221336D01*
X11300950Y-16207050D01*
X11329521Y-16192764D01*
X11529521Y-16192764D02*
X11715235Y-16192764D01*
X11615235Y-16307050D01*
X11658093Y-16307050D01*
X11686664Y-16321336D01*
X11700950Y-16335621D01*
X11715235Y-16364193D01*
X11715235Y-16435621D01*
X11700950Y-16464193D01*
X11686664Y-16478479D01*
X11658093Y-16492764D01*
X11572378Y-16492764D01*
X11543807Y-16478479D01*
X11529521Y-16464193D01*
X11829521Y-16221336D02*
X11843807Y-16207050D01*
X11872378Y-16192764D01*
X11943807Y-16192764D01*
X11972378Y-16207050D01*
X11986664Y-16221336D01*
X12000950Y-16249907D01*
X12000950Y-16278479D01*
X11986664Y-16321336D01*
X11815235Y-16492764D01*
X12000950Y-16492764D01*
X12115236Y-16192764D02*
X12115236Y-16249907D01*
X12229521Y-16192764D02*
X12229521Y-16249907D01*
X12672378Y-16607050D02*
X12658093Y-16592764D01*
X12629521Y-16549907D01*
X12615235Y-16521336D01*
X12600950Y-16478479D01*
X12586664Y-16407050D01*
X12586664Y-16349907D01*
X12600950Y-16278479D01*
X12615235Y-16235621D01*
X12629521Y-16207050D01*
X12658093Y-16164193D01*
X12672378Y-16149907D01*
X12943807Y-16492764D02*
X12772378Y-16492764D01*
X12858093Y-16492764D02*
X12858093Y-16192764D01*
X12829521Y-16235621D01*
X12800950Y-16264193D01*
X12772378Y-16278479D01*
X13200950Y-16192764D02*
X13143807Y-16192764D01*
X13115235Y-16207050D01*
X13100950Y-16221336D01*
X13072378Y-16264193D01*
X13058093Y-16321336D01*
X13058093Y-16435621D01*
X13072378Y-16464193D01*
X13086664Y-16478479D01*
X13115235Y-16492764D01*
X13172378Y-16492764D01*
X13200950Y-16478479D01*
X13215235Y-16464193D01*
X13229521Y-16435621D01*
X13229521Y-16364193D01*
X13215235Y-16335621D01*
X13200950Y-16321336D01*
X13172378Y-16307050D01*
X13115235Y-16307050D01*
X13086664Y-16321336D01*
X13072378Y-16335621D01*
X13058093Y-16364193D01*
X13415235Y-16192764D02*
X13443807Y-16192764D01*
X13472378Y-16207050D01*
X13486664Y-16221336D01*
X13500950Y-16249907D01*
X13515235Y-16307050D01*
X13515235Y-16378479D01*
X13500950Y-16435621D01*
X13486664Y-16464193D01*
X13472378Y-16478479D01*
X13443807Y-16492764D01*
X13415235Y-16492764D01*
X13386664Y-16478479D01*
X13372378Y-16464193D01*
X13358093Y-16435621D01*
X13343807Y-16378479D01*
X13343807Y-16307050D01*
X13358093Y-16249907D01*
X13372378Y-16221336D01*
X13386664Y-16207050D01*
X13415235Y-16192764D01*
X13872378Y-16492764D02*
X13872378Y-16192764D01*
X14000950Y-16492764D02*
X14000950Y-16335621D01*
X13986664Y-16307050D01*
X13958093Y-16292764D01*
X13915235Y-16292764D01*
X13886664Y-16307050D01*
X13872378Y-16321336D01*
X14186664Y-16492764D02*
X14158093Y-16478479D01*
X14143807Y-16464193D01*
X14129521Y-16435621D01*
X14129521Y-16349907D01*
X14143807Y-16321336D01*
X14158093Y-16307050D01*
X14186664Y-16292764D01*
X14229521Y-16292764D01*
X14258093Y-16307050D01*
X14272378Y-16321336D01*
X14286664Y-16349907D01*
X14286664Y-16435621D01*
X14272378Y-16464193D01*
X14258093Y-16478479D01*
X14229521Y-16492764D01*
X14186664Y-16492764D01*
X14458093Y-16492764D02*
X14429521Y-16478479D01*
X14415236Y-16449907D01*
X14415236Y-16192764D01*
X14686664Y-16478479D02*
X14658093Y-16492764D01*
X14600950Y-16492764D01*
X14572378Y-16478479D01*
X14558093Y-16449907D01*
X14558093Y-16335621D01*
X14572378Y-16307050D01*
X14600950Y-16292764D01*
X14658093Y-16292764D01*
X14686664Y-16307050D01*
X14700950Y-16335621D01*
X14700950Y-16364193D01*
X14558093Y-16392764D01*
X14815236Y-16478479D02*
X14843807Y-16492764D01*
X14900950Y-16492764D01*
X14929521Y-16478479D01*
X14943807Y-16449907D01*
X14943807Y-16435621D01*
X14929521Y-16407050D01*
X14900950Y-16392764D01*
X14858093Y-16392764D01*
X14829521Y-16378479D01*
X14815236Y-16349907D01*
X14815236Y-16335621D01*
X14829521Y-16307050D01*
X14858093Y-16292764D01*
X14900950Y-16292764D01*
X14929521Y-16307050D01*
X15043807Y-16607050D02*
X15058093Y-16592764D01*
X15086664Y-16549907D01*
X15100950Y-16521336D01*
X15115236Y-16478479D01*
X15129521Y-16407050D01*
X15129521Y-16349907D01*
X15115236Y-16278479D01*
X15100950Y-16235621D01*
X15086664Y-16207050D01*
X15058093Y-16164193D01*
X15043807Y-16149907D01*
X7950912Y-16803088D02*
X8000950Y-16753050D01*
X7950912Y-16703012D01*
X7900874Y-16753050D01*
X7950912Y-16803088D01*
X8429521Y-16888764D02*
X8258093Y-16888764D01*
X8343807Y-16888764D02*
X8343807Y-16588764D01*
X8315236Y-16631621D01*
X8286664Y-16660193D01*
X8258093Y-16674479D01*
X8558093Y-16860193D02*
X8572379Y-16874479D01*
X8558093Y-16888764D01*
X8543807Y-16874479D01*
X8558093Y-16860193D01*
X8558093Y-16888764D01*
X8758093Y-16588764D02*
X8786664Y-16588764D01*
X8815236Y-16603050D01*
X8829521Y-16617336D01*
X8843807Y-16645907D01*
X8858093Y-16703050D01*
X8858093Y-16774479D01*
X8843807Y-16831622D01*
X8829521Y-16860193D01*
X8815236Y-16874479D01*
X8786664Y-16888764D01*
X8758093Y-16888764D01*
X8729521Y-16874479D01*
X8715236Y-16860193D01*
X8700950Y-16831622D01*
X8686664Y-16774479D01*
X8686664Y-16703050D01*
X8700950Y-16645907D01*
X8715236Y-16617336D01*
X8729521Y-16603050D01*
X8758093Y-16588764D01*
X9043807Y-16588764D02*
X9072379Y-16588764D01*
X9100950Y-16603050D01*
X9115236Y-16617336D01*
X9129521Y-16645907D01*
X9143807Y-16703050D01*
X9143807Y-16774479D01*
X9129521Y-16831622D01*
X9115236Y-16860193D01*
X9100950Y-16874479D01*
X9072379Y-16888764D01*
X9043807Y-16888764D01*
X9015236Y-16874479D01*
X9000950Y-16860193D01*
X8986664Y-16831622D01*
X8972379Y-16774479D01*
X8972379Y-16703050D01*
X8986664Y-16645907D01*
X9000950Y-16617336D01*
X9015236Y-16603050D01*
X9043807Y-16588764D01*
X9272379Y-16888764D02*
X9272379Y-16688764D01*
X9272379Y-16717336D02*
X9286664Y-16703050D01*
X9315236Y-16688764D01*
X9358093Y-16688764D01*
X9386664Y-16703050D01*
X9400950Y-16731621D01*
X9400950Y-16888764D01*
X9400950Y-16731621D02*
X9415236Y-16703050D01*
X9443807Y-16688764D01*
X9486664Y-16688764D01*
X9515236Y-16703050D01*
X9529521Y-16731621D01*
X9529521Y-16888764D01*
X9672379Y-16888764D02*
X9672379Y-16688764D01*
X9672379Y-16717336D02*
X9686664Y-16703050D01*
X9715236Y-16688764D01*
X9758093Y-16688764D01*
X9786664Y-16703050D01*
X9800950Y-16731621D01*
X9800950Y-16888764D01*
X9800950Y-16731621D02*
X9815236Y-16703050D01*
X9843807Y-16688764D01*
X9886664Y-16688764D01*
X9915236Y-16703050D01*
X9929521Y-16731621D01*
X9929521Y-16888764D01*
X10515236Y-16574479D02*
X10258093Y-16960193D01*
X10900950Y-16588764D02*
X10929521Y-16588764D01*
X10958093Y-16603050D01*
X10972378Y-16617336D01*
X10986664Y-16645907D01*
X11000950Y-16703050D01*
X11000950Y-16774479D01*
X10986664Y-16831622D01*
X10972378Y-16860193D01*
X10958093Y-16874479D01*
X10929521Y-16888764D01*
X10900950Y-16888764D01*
X10872378Y-16874479D01*
X10858093Y-16860193D01*
X10843807Y-16831622D01*
X10829521Y-16774479D01*
X10829521Y-16703050D01*
X10843807Y-16645907D01*
X10858093Y-16617336D01*
X10872378Y-16603050D01*
X10900950Y-16588764D01*
X11129521Y-16860193D02*
X11143807Y-16874479D01*
X11129521Y-16888764D01*
X11115236Y-16874479D01*
X11129521Y-16860193D01*
X11129521Y-16888764D01*
X11329521Y-16588764D02*
X11358093Y-16588764D01*
X11386664Y-16603050D01*
X11400950Y-16617336D01*
X11415235Y-16645907D01*
X11429521Y-16703050D01*
X11429521Y-16774479D01*
X11415235Y-16831622D01*
X11400950Y-16860193D01*
X11386664Y-16874479D01*
X11358093Y-16888764D01*
X11329521Y-16888764D01*
X11300950Y-16874479D01*
X11286664Y-16860193D01*
X11272378Y-16831622D01*
X11258093Y-16774479D01*
X11258093Y-16703050D01*
X11272378Y-16645907D01*
X11286664Y-16617336D01*
X11300950Y-16603050D01*
X11329521Y-16588764D01*
X11529521Y-16588764D02*
X11715235Y-16588764D01*
X11615235Y-16703050D01*
X11658093Y-16703050D01*
X11686664Y-16717336D01*
X11700950Y-16731621D01*
X11715235Y-16760193D01*
X11715235Y-16831622D01*
X11700950Y-16860193D01*
X11686664Y-16874479D01*
X11658093Y-16888764D01*
X11572378Y-16888764D01*
X11543807Y-16874479D01*
X11529521Y-16860193D01*
X11858093Y-16888764D02*
X11915235Y-16888764D01*
X11943807Y-16874479D01*
X11958093Y-16860193D01*
X11986664Y-16817336D01*
X12000950Y-16760193D01*
X12000950Y-16645907D01*
X11986664Y-16617336D01*
X11972378Y-16603050D01*
X11943807Y-16588764D01*
X11886664Y-16588764D01*
X11858093Y-16603050D01*
X11843807Y-16617336D01*
X11829521Y-16645907D01*
X11829521Y-16717336D01*
X11843807Y-16745907D01*
X11858093Y-16760193D01*
X11886664Y-16774479D01*
X11943807Y-16774479D01*
X11972378Y-16760193D01*
X11986664Y-16745907D01*
X12000950Y-16717336D01*
X12115236Y-16588764D02*
X12115236Y-16645907D01*
X12229521Y-16588764D02*
X12229521Y-16645907D01*
X12672378Y-17003050D02*
X12658093Y-16988764D01*
X12629521Y-16945907D01*
X12615235Y-16917336D01*
X12600950Y-16874479D01*
X12586664Y-16803050D01*
X12586664Y-16745907D01*
X12600950Y-16674479D01*
X12615235Y-16631621D01*
X12629521Y-16603050D01*
X12658093Y-16560193D01*
X12672378Y-16545907D01*
X12915235Y-16688764D02*
X12915235Y-16888764D01*
X12843807Y-16574479D02*
X12772378Y-16788764D01*
X12958093Y-16788764D01*
X13300950Y-16888764D02*
X13300950Y-16588764D01*
X13429521Y-16888764D02*
X13429521Y-16731621D01*
X13415235Y-16703050D01*
X13386664Y-16688764D01*
X13343807Y-16688764D01*
X13315235Y-16703050D01*
X13300950Y-16717336D01*
X13615235Y-16888764D02*
X13586664Y-16874479D01*
X13572378Y-16860193D01*
X13558093Y-16831622D01*
X13558093Y-16745907D01*
X13572378Y-16717336D01*
X13586664Y-16703050D01*
X13615235Y-16688764D01*
X13658093Y-16688764D01*
X13686664Y-16703050D01*
X13700950Y-16717336D01*
X13715235Y-16745907D01*
X13715235Y-16831622D01*
X13700950Y-16860193D01*
X13686664Y-16874479D01*
X13658093Y-16888764D01*
X13615235Y-16888764D01*
X13886664Y-16888764D02*
X13858093Y-16874479D01*
X13843807Y-16845907D01*
X13843807Y-16588764D01*
X14115236Y-16874479D02*
X14086664Y-16888764D01*
X14029521Y-16888764D01*
X14000950Y-16874479D01*
X13986664Y-16845907D01*
X13986664Y-16731621D01*
X14000950Y-16703050D01*
X14029521Y-16688764D01*
X14086664Y-16688764D01*
X14115236Y-16703050D01*
X14129521Y-16731621D01*
X14129521Y-16760193D01*
X13986664Y-16788764D01*
X14243807Y-16874479D02*
X14272378Y-16888764D01*
X14329521Y-16888764D01*
X14358093Y-16874479D01*
X14372378Y-16845907D01*
X14372378Y-16831622D01*
X14358093Y-16803050D01*
X14329521Y-16788764D01*
X14286664Y-16788764D01*
X14258093Y-16774479D01*
X14243807Y-16745907D01*
X14243807Y-16731621D01*
X14258093Y-16703050D01*
X14286664Y-16688764D01*
X14329521Y-16688764D01*
X14358093Y-16703050D01*
X14472378Y-17003050D02*
X14486664Y-16988764D01*
X14515236Y-16945907D01*
X14529521Y-16917336D01*
X14543807Y-16874479D01*
X14558093Y-16803050D01*
X14558093Y-16745907D01*
X14543807Y-16674479D01*
X14529521Y-16631621D01*
X14515236Y-16603050D01*
X14486664Y-16560193D01*
X14472378Y-16545907D01*
X7899350Y-17098250D02*
X8000950Y-17199850D01*
X8000950Y-17098250D02*
X7899350Y-17199850D01*
X8000950Y-17149050D02*
G75*
G03X8000950Y-17149050I-50800J0D01*
G01*
X8429521Y-17284764D02*
X8258093Y-17284764D01*
X8343807Y-17284764D02*
X8343807Y-16984764D01*
X8315236Y-17027622D01*
X8286664Y-17056193D01*
X8258093Y-17070479D01*
X8558093Y-17256193D02*
X8572379Y-17270479D01*
X8558093Y-17284764D01*
X8543807Y-17270479D01*
X8558093Y-17256193D01*
X8558093Y-17284764D01*
X8758093Y-16984764D02*
X8786664Y-16984764D01*
X8815236Y-16999050D01*
X8829521Y-17013336D01*
X8843807Y-17041907D01*
X8858093Y-17099050D01*
X8858093Y-17170479D01*
X8843807Y-17227622D01*
X8829521Y-17256193D01*
X8815236Y-17270479D01*
X8786664Y-17284764D01*
X8758093Y-17284764D01*
X8729521Y-17270479D01*
X8715236Y-17256193D01*
X8700950Y-17227622D01*
X8686664Y-17170479D01*
X8686664Y-17099050D01*
X8700950Y-17041907D01*
X8715236Y-17013336D01*
X8729521Y-16999050D01*
X8758093Y-16984764D01*
X8972379Y-17013336D02*
X8986664Y-16999050D01*
X9015236Y-16984764D01*
X9086664Y-16984764D01*
X9115236Y-16999050D01*
X9129521Y-17013336D01*
X9143807Y-17041907D01*
X9143807Y-17070479D01*
X9129521Y-17113336D01*
X8958093Y-17284764D01*
X9143807Y-17284764D01*
X9272379Y-17284764D02*
X9272379Y-17084764D01*
X9272379Y-17113336D02*
X9286664Y-17099050D01*
X9315236Y-17084764D01*
X9358093Y-17084764D01*
X9386664Y-17099050D01*
X9400950Y-17127622D01*
X9400950Y-17284764D01*
X9400950Y-17127622D02*
X9415236Y-17099050D01*
X9443807Y-17084764D01*
X9486664Y-17084764D01*
X9515236Y-17099050D01*
X9529521Y-17127622D01*
X9529521Y-17284764D01*
X9672379Y-17284764D02*
X9672379Y-17084764D01*
X9672379Y-17113336D02*
X9686664Y-17099050D01*
X9715236Y-17084764D01*
X9758093Y-17084764D01*
X9786664Y-17099050D01*
X9800950Y-17127622D01*
X9800950Y-17284764D01*
X9800950Y-17127622D02*
X9815236Y-17099050D01*
X9843807Y-17084764D01*
X9886664Y-17084764D01*
X9915236Y-17099050D01*
X9929521Y-17127622D01*
X9929521Y-17284764D01*
X10515236Y-16970479D02*
X10258093Y-17356193D01*
X10900950Y-16984764D02*
X10929521Y-16984764D01*
X10958093Y-16999050D01*
X10972378Y-17013336D01*
X10986664Y-17041907D01*
X11000950Y-17099050D01*
X11000950Y-17170479D01*
X10986664Y-17227622D01*
X10972378Y-17256193D01*
X10958093Y-17270479D01*
X10929521Y-17284764D01*
X10900950Y-17284764D01*
X10872378Y-17270479D01*
X10858093Y-17256193D01*
X10843807Y-17227622D01*
X10829521Y-17170479D01*
X10829521Y-17099050D01*
X10843807Y-17041907D01*
X10858093Y-17013336D01*
X10872378Y-16999050D01*
X10900950Y-16984764D01*
X11129521Y-17256193D02*
X11143807Y-17270479D01*
X11129521Y-17284764D01*
X11115236Y-17270479D01*
X11129521Y-17256193D01*
X11129521Y-17284764D01*
X11329521Y-16984764D02*
X11358093Y-16984764D01*
X11386664Y-16999050D01*
X11400950Y-17013336D01*
X11415235Y-17041907D01*
X11429521Y-17099050D01*
X11429521Y-17170479D01*
X11415235Y-17227622D01*
X11400950Y-17256193D01*
X11386664Y-17270479D01*
X11358093Y-17284764D01*
X11329521Y-17284764D01*
X11300950Y-17270479D01*
X11286664Y-17256193D01*
X11272378Y-17227622D01*
X11258093Y-17170479D01*
X11258093Y-17099050D01*
X11272378Y-17041907D01*
X11286664Y-17013336D01*
X11300950Y-16999050D01*
X11329521Y-16984764D01*
X11686664Y-17084764D02*
X11686664Y-17284764D01*
X11615235Y-16970479D02*
X11543807Y-17184764D01*
X11729521Y-17184764D01*
X11900950Y-16984764D02*
X11929521Y-16984764D01*
X11958093Y-16999050D01*
X11972378Y-17013336D01*
X11986664Y-17041907D01*
X12000950Y-17099050D01*
X12000950Y-17170479D01*
X11986664Y-17227622D01*
X11972378Y-17256193D01*
X11958093Y-17270479D01*
X11929521Y-17284764D01*
X11900950Y-17284764D01*
X11872378Y-17270479D01*
X11858093Y-17256193D01*
X11843807Y-17227622D01*
X11829521Y-17170479D01*
X11829521Y-17099050D01*
X11843807Y-17041907D01*
X11858093Y-17013336D01*
X11872378Y-16999050D01*
X11900950Y-16984764D01*
X12115236Y-16984764D02*
X12115236Y-17041907D01*
X12229521Y-16984764D02*
X12229521Y-17041907D01*
X12672378Y-17399050D02*
X12658093Y-17384764D01*
X12629521Y-17341907D01*
X12615235Y-17313336D01*
X12600950Y-17270479D01*
X12586664Y-17199050D01*
X12586664Y-17141907D01*
X12600950Y-17070479D01*
X12615235Y-17027622D01*
X12629521Y-16999050D01*
X12658093Y-16956193D01*
X12672378Y-16941907D01*
X12829521Y-17113336D02*
X12800950Y-17099050D01*
X12786664Y-17084764D01*
X12772378Y-17056193D01*
X12772378Y-17041907D01*
X12786664Y-17013336D01*
X12800950Y-16999050D01*
X12829521Y-16984764D01*
X12886664Y-16984764D01*
X12915235Y-16999050D01*
X12929521Y-17013336D01*
X12943807Y-17041907D01*
X12943807Y-17056193D01*
X12929521Y-17084764D01*
X12915235Y-17099050D01*
X12886664Y-17113336D01*
X12829521Y-17113336D01*
X12800950Y-17127622D01*
X12786664Y-17141907D01*
X12772378Y-17170479D01*
X12772378Y-17227622D01*
X12786664Y-17256193D01*
X12800950Y-17270479D01*
X12829521Y-17284764D01*
X12886664Y-17284764D01*
X12915235Y-17270479D01*
X12929521Y-17256193D01*
X12943807Y-17227622D01*
X12943807Y-17170479D01*
X12929521Y-17141907D01*
X12915235Y-17127622D01*
X12886664Y-17113336D01*
X13229521Y-17284764D02*
X13058093Y-17284764D01*
X13143807Y-17284764D02*
X13143807Y-16984764D01*
X13115235Y-17027622D01*
X13086664Y-17056193D01*
X13058093Y-17070479D01*
X13586664Y-17284764D02*
X13586664Y-16984764D01*
X13715235Y-17284764D02*
X13715235Y-17127622D01*
X13700950Y-17099050D01*
X13672378Y-17084764D01*
X13629521Y-17084764D01*
X13600950Y-17099050D01*
X13586664Y-17113336D01*
X13900950Y-17284764D02*
X13872378Y-17270479D01*
X13858093Y-17256193D01*
X13843807Y-17227622D01*
X13843807Y-17141907D01*
X13858093Y-17113336D01*
X13872378Y-17099050D01*
X13900950Y-17084764D01*
X13943807Y-17084764D01*
X13972378Y-17099050D01*
X13986664Y-17113336D01*
X14000950Y-17141907D01*
X14000950Y-17227622D01*
X13986664Y-17256193D01*
X13972378Y-17270479D01*
X13943807Y-17284764D01*
X13900950Y-17284764D01*
X14172378Y-17284764D02*
X14143807Y-17270479D01*
X14129521Y-17241907D01*
X14129521Y-16984764D01*
X14400950Y-17270479D02*
X14372378Y-17284764D01*
X14315236Y-17284764D01*
X14286664Y-17270479D01*
X14272378Y-17241907D01*
X14272378Y-17127622D01*
X14286664Y-17099050D01*
X14315236Y-17084764D01*
X14372378Y-17084764D01*
X14400950Y-17099050D01*
X14415236Y-17127622D01*
X14415236Y-17156193D01*
X14272378Y-17184764D01*
X14529521Y-17270479D02*
X14558093Y-17284764D01*
X14615236Y-17284764D01*
X14643807Y-17270479D01*
X14658093Y-17241907D01*
X14658093Y-17227622D01*
X14643807Y-17199050D01*
X14615236Y-17184764D01*
X14572378Y-17184764D01*
X14543807Y-17170479D01*
X14529521Y-17141907D01*
X14529521Y-17127622D01*
X14543807Y-17099050D01*
X14572378Y-17084764D01*
X14615236Y-17084764D01*
X14643807Y-17099050D01*
X14758093Y-17399050D02*
X14772378Y-17384764D01*
X14800950Y-17341907D01*
X14815236Y-17313336D01*
X14829521Y-17270479D01*
X14843807Y-17199050D01*
X14843807Y-17141907D01*
X14829521Y-17070479D01*
X14815236Y-17027622D01*
X14800950Y-16999050D01*
X14772378Y-16956193D01*
X14758093Y-16941907D01*
X7881062Y-17485106D02*
X8000950Y-17604994D01*
X8000950Y-17485106D02*
X7881062Y-17604994D01*
X7941006Y-17485106D02*
X7941006Y-17604994D01*
X7881062Y-17545050D02*
X8000950Y-17545050D01*
X8429521Y-17680764D02*
X8258093Y-17680764D01*
X8343807Y-17680764D02*
X8343807Y-17380764D01*
X8315236Y-17423622D01*
X8286664Y-17452193D01*
X8258093Y-17466479D01*
X8558093Y-17652193D02*
X8572379Y-17666479D01*
X8558093Y-17680764D01*
X8543807Y-17666479D01*
X8558093Y-17652193D01*
X8558093Y-17680764D01*
X8686664Y-17409336D02*
X8700950Y-17395050D01*
X8729521Y-17380764D01*
X8800950Y-17380764D01*
X8829521Y-17395050D01*
X8843807Y-17409336D01*
X8858093Y-17437907D01*
X8858093Y-17466479D01*
X8843807Y-17509336D01*
X8672378Y-17680764D01*
X8858093Y-17680764D01*
X9043807Y-17380764D02*
X9072379Y-17380764D01*
X9100950Y-17395050D01*
X9115236Y-17409336D01*
X9129521Y-17437907D01*
X9143807Y-17495050D01*
X9143807Y-17566479D01*
X9129521Y-17623622D01*
X9115236Y-17652193D01*
X9100950Y-17666479D01*
X9072379Y-17680764D01*
X9043807Y-17680764D01*
X9015236Y-17666479D01*
X9000950Y-17652193D01*
X8986664Y-17623622D01*
X8972379Y-17566479D01*
X8972379Y-17495050D01*
X8986664Y-17437907D01*
X9000950Y-17409336D01*
X9015236Y-17395050D01*
X9043807Y-17380764D01*
X9272379Y-17680764D02*
X9272379Y-17480764D01*
X9272379Y-17509336D02*
X9286664Y-17495050D01*
X9315236Y-17480764D01*
X9358093Y-17480764D01*
X9386664Y-17495050D01*
X9400950Y-17523622D01*
X9400950Y-17680764D01*
X9400950Y-17523622D02*
X9415236Y-17495050D01*
X9443807Y-17480764D01*
X9486664Y-17480764D01*
X9515236Y-17495050D01*
X9529521Y-17523622D01*
X9529521Y-17680764D01*
X9672379Y-17680764D02*
X9672379Y-17480764D01*
X9672379Y-17509336D02*
X9686664Y-17495050D01*
X9715236Y-17480764D01*
X9758093Y-17480764D01*
X9786664Y-17495050D01*
X9800950Y-17523622D01*
X9800950Y-17680764D01*
X9800950Y-17523622D02*
X9815236Y-17495050D01*
X9843807Y-17480764D01*
X9886664Y-17480764D01*
X9915236Y-17495050D01*
X9929521Y-17523622D01*
X9929521Y-17680764D01*
X10515236Y-17366479D02*
X10258093Y-17752193D01*
X10900950Y-17380764D02*
X10929521Y-17380764D01*
X10958093Y-17395050D01*
X10972378Y-17409336D01*
X10986664Y-17437907D01*
X11000950Y-17495050D01*
X11000950Y-17566479D01*
X10986664Y-17623622D01*
X10972378Y-17652193D01*
X10958093Y-17666479D01*
X10929521Y-17680764D01*
X10900950Y-17680764D01*
X10872378Y-17666479D01*
X10858093Y-17652193D01*
X10843807Y-17623622D01*
X10829521Y-17566479D01*
X10829521Y-17495050D01*
X10843807Y-17437907D01*
X10858093Y-17409336D01*
X10872378Y-17395050D01*
X10900950Y-17380764D01*
X11129521Y-17652193D02*
X11143807Y-17666479D01*
X11129521Y-17680764D01*
X11115236Y-17666479D01*
X11129521Y-17652193D01*
X11129521Y-17680764D01*
X11329521Y-17380764D02*
X11358093Y-17380764D01*
X11386664Y-17395050D01*
X11400950Y-17409336D01*
X11415235Y-17437907D01*
X11429521Y-17495050D01*
X11429521Y-17566479D01*
X11415235Y-17623622D01*
X11400950Y-17652193D01*
X11386664Y-17666479D01*
X11358093Y-17680764D01*
X11329521Y-17680764D01*
X11300950Y-17666479D01*
X11286664Y-17652193D01*
X11272378Y-17623622D01*
X11258093Y-17566479D01*
X11258093Y-17495050D01*
X11272378Y-17437907D01*
X11286664Y-17409336D01*
X11300950Y-17395050D01*
X11329521Y-17380764D01*
X11686664Y-17480764D02*
X11686664Y-17680764D01*
X11615235Y-17366479D02*
X11543807Y-17580764D01*
X11729521Y-17580764D01*
X11815235Y-17380764D02*
X12015235Y-17380764D01*
X11886664Y-17680764D01*
X12115236Y-17380764D02*
X12115236Y-17437907D01*
X12229521Y-17380764D02*
X12229521Y-17437907D01*
X12672378Y-17795050D02*
X12658093Y-17780764D01*
X12629521Y-17737907D01*
X12615235Y-17709336D01*
X12600950Y-17666479D01*
X12586664Y-17595050D01*
X12586664Y-17537907D01*
X12600950Y-17466479D01*
X12615235Y-17423622D01*
X12629521Y-17395050D01*
X12658093Y-17352193D01*
X12672378Y-17337907D01*
X12915235Y-17380764D02*
X12858093Y-17380764D01*
X12829521Y-17395050D01*
X12815235Y-17409336D01*
X12786664Y-17452193D01*
X12772378Y-17509336D01*
X12772378Y-17623622D01*
X12786664Y-17652193D01*
X12800950Y-17666479D01*
X12829521Y-17680764D01*
X12886664Y-17680764D01*
X12915235Y-17666479D01*
X12929521Y-17652193D01*
X12943807Y-17623622D01*
X12943807Y-17552193D01*
X12929521Y-17523622D01*
X12915235Y-17509336D01*
X12886664Y-17495050D01*
X12829521Y-17495050D01*
X12800950Y-17509336D01*
X12786664Y-17523622D01*
X12772378Y-17552193D01*
X13300950Y-17680764D02*
X13300950Y-17380764D01*
X13429521Y-17680764D02*
X13429521Y-17523622D01*
X13415235Y-17495050D01*
X13386664Y-17480764D01*
X13343807Y-17480764D01*
X13315235Y-17495050D01*
X13300950Y-17509336D01*
X13615235Y-17680764D02*
X13586664Y-17666479D01*
X13572378Y-17652193D01*
X13558093Y-17623622D01*
X13558093Y-17537907D01*
X13572378Y-17509336D01*
X13586664Y-17495050D01*
X13615235Y-17480764D01*
X13658093Y-17480764D01*
X13686664Y-17495050D01*
X13700950Y-17509336D01*
X13715235Y-17537907D01*
X13715235Y-17623622D01*
X13700950Y-17652193D01*
X13686664Y-17666479D01*
X13658093Y-17680764D01*
X13615235Y-17680764D01*
X13886664Y-17680764D02*
X13858093Y-17666479D01*
X13843807Y-17637907D01*
X13843807Y-17380764D01*
X14115236Y-17666479D02*
X14086664Y-17680764D01*
X14029521Y-17680764D01*
X14000950Y-17666479D01*
X13986664Y-17637907D01*
X13986664Y-17523622D01*
X14000950Y-17495050D01*
X14029521Y-17480764D01*
X14086664Y-17480764D01*
X14115236Y-17495050D01*
X14129521Y-17523622D01*
X14129521Y-17552193D01*
X13986664Y-17580764D01*
X14243807Y-17666479D02*
X14272378Y-17680764D01*
X14329521Y-17680764D01*
X14358093Y-17666479D01*
X14372378Y-17637907D01*
X14372378Y-17623622D01*
X14358093Y-17595050D01*
X14329521Y-17580764D01*
X14286664Y-17580764D01*
X14258093Y-17566479D01*
X14243807Y-17537907D01*
X14243807Y-17523622D01*
X14258093Y-17495050D01*
X14286664Y-17480764D01*
X14329521Y-17480764D01*
X14358093Y-17495050D01*
X14472378Y-17795050D02*
X14486664Y-17780764D01*
X14515236Y-17737907D01*
X14529521Y-17709336D01*
X14543807Y-17666479D01*
X14558093Y-17595050D01*
X14558093Y-17537907D01*
X14543807Y-17466479D01*
X14529521Y-17423622D01*
X14515236Y-17395050D01*
X14486664Y-17352193D01*
X14472378Y-17337907D01*
X7880950Y-17881050D02*
X8000950Y-18001050D01*
X8000950Y-17881050D02*
X7880950Y-18001050D01*
X7983377Y-17983477D02*
X7983377Y-17898623D01*
X7898523Y-17898623D01*
X7898523Y-17983477D01*
X7983377Y-17983477D01*
X8429521Y-18076764D02*
X8258093Y-18076764D01*
X8343807Y-18076764D02*
X8343807Y-17776764D01*
X8315236Y-17819622D01*
X8286664Y-17848193D01*
X8258093Y-17862479D01*
X8558093Y-18048193D02*
X8572379Y-18062479D01*
X8558093Y-18076764D01*
X8543807Y-18062479D01*
X8558093Y-18048193D01*
X8558093Y-18076764D01*
X8686664Y-17805336D02*
X8700950Y-17791050D01*
X8729521Y-17776764D01*
X8800950Y-17776764D01*
X8829521Y-17791050D01*
X8843807Y-17805336D01*
X8858093Y-17833907D01*
X8858093Y-17862479D01*
X8843807Y-17905336D01*
X8672378Y-18076764D01*
X8858093Y-18076764D01*
X9043807Y-17776764D02*
X9072379Y-17776764D01*
X9100950Y-17791050D01*
X9115236Y-17805336D01*
X9129521Y-17833907D01*
X9143807Y-17891050D01*
X9143807Y-17962479D01*
X9129521Y-18019622D01*
X9115236Y-18048193D01*
X9100950Y-18062479D01*
X9072379Y-18076764D01*
X9043807Y-18076764D01*
X9015236Y-18062479D01*
X9000950Y-18048193D01*
X8986664Y-18019622D01*
X8972379Y-17962479D01*
X8972379Y-17891050D01*
X8986664Y-17833907D01*
X9000950Y-17805336D01*
X9015236Y-17791050D01*
X9043807Y-17776764D01*
X9272379Y-18076764D02*
X9272379Y-17876764D01*
X9272379Y-17905336D02*
X9286664Y-17891050D01*
X9315236Y-17876764D01*
X9358093Y-17876764D01*
X9386664Y-17891050D01*
X9400950Y-17919622D01*
X9400950Y-18076764D01*
X9400950Y-17919622D02*
X9415236Y-17891050D01*
X9443807Y-17876764D01*
X9486664Y-17876764D01*
X9515236Y-17891050D01*
X9529521Y-17919622D01*
X9529521Y-18076764D01*
X9672379Y-18076764D02*
X9672379Y-17876764D01*
X9672379Y-17905336D02*
X9686664Y-17891050D01*
X9715236Y-17876764D01*
X9758093Y-17876764D01*
X9786664Y-17891050D01*
X9800950Y-17919622D01*
X9800950Y-18076764D01*
X9800950Y-17919622D02*
X9815236Y-17891050D01*
X9843807Y-17876764D01*
X9886664Y-17876764D01*
X9915236Y-17891050D01*
X9929521Y-17919622D01*
X9929521Y-18076764D01*
X10515236Y-17762479D02*
X10258093Y-18148193D01*
X10900950Y-17776764D02*
X10929521Y-17776764D01*
X10958093Y-17791050D01*
X10972378Y-17805336D01*
X10986664Y-17833907D01*
X11000950Y-17891050D01*
X11000950Y-17962479D01*
X10986664Y-18019622D01*
X10972378Y-18048193D01*
X10958093Y-18062479D01*
X10929521Y-18076764D01*
X10900950Y-18076764D01*
X10872378Y-18062479D01*
X10858093Y-18048193D01*
X10843807Y-18019622D01*
X10829521Y-17962479D01*
X10829521Y-17891050D01*
X10843807Y-17833907D01*
X10858093Y-17805336D01*
X10872378Y-17791050D01*
X10900950Y-17776764D01*
X11129521Y-18048193D02*
X11143807Y-18062479D01*
X11129521Y-18076764D01*
X11115236Y-18062479D01*
X11129521Y-18048193D01*
X11129521Y-18076764D01*
X11329521Y-17776764D02*
X11358093Y-17776764D01*
X11386664Y-17791050D01*
X11400950Y-17805336D01*
X11415235Y-17833907D01*
X11429521Y-17891050D01*
X11429521Y-17962479D01*
X11415235Y-18019622D01*
X11400950Y-18048193D01*
X11386664Y-18062479D01*
X11358093Y-18076764D01*
X11329521Y-18076764D01*
X11300950Y-18062479D01*
X11286664Y-18048193D01*
X11272378Y-18019622D01*
X11258093Y-17962479D01*
X11258093Y-17891050D01*
X11272378Y-17833907D01*
X11286664Y-17805336D01*
X11300950Y-17791050D01*
X11329521Y-17776764D01*
X11686664Y-17876764D02*
X11686664Y-18076764D01*
X11615235Y-17762479D02*
X11543807Y-17976764D01*
X11729521Y-17976764D01*
X11815235Y-17776764D02*
X12015235Y-17776764D01*
X11886664Y-18076764D01*
X12115236Y-17776764D02*
X12115236Y-17833907D01*
X12229521Y-17776764D02*
X12229521Y-17833907D01*
X12672378Y-18191050D02*
X12658093Y-18176764D01*
X12629521Y-18133907D01*
X12615235Y-18105336D01*
X12600950Y-18062479D01*
X12586664Y-17991050D01*
X12586664Y-17933907D01*
X12600950Y-17862479D01*
X12615235Y-17819622D01*
X12629521Y-17791050D01*
X12658093Y-17748193D01*
X12672378Y-17733907D01*
X12800950Y-18076764D02*
X12858093Y-18076764D01*
X12886664Y-18062479D01*
X12900950Y-18048193D01*
X12929521Y-18005336D01*
X12943807Y-17948193D01*
X12943807Y-17833907D01*
X12929521Y-17805336D01*
X12915235Y-17791050D01*
X12886664Y-17776764D01*
X12829521Y-17776764D01*
X12800950Y-17791050D01*
X12786664Y-17805336D01*
X12772378Y-17833907D01*
X12772378Y-17905336D01*
X12786664Y-17933907D01*
X12800950Y-17948193D01*
X12829521Y-17962479D01*
X12886664Y-17962479D01*
X12915235Y-17948193D01*
X12929521Y-17933907D01*
X12943807Y-17905336D01*
X13300950Y-18076764D02*
X13300950Y-17776764D01*
X13429521Y-18076764D02*
X13429521Y-17919622D01*
X13415235Y-17891050D01*
X13386664Y-17876764D01*
X13343807Y-17876764D01*
X13315235Y-17891050D01*
X13300950Y-17905336D01*
X13615235Y-18076764D02*
X13586664Y-18062479D01*
X13572378Y-18048193D01*
X13558093Y-18019622D01*
X13558093Y-17933907D01*
X13572378Y-17905336D01*
X13586664Y-17891050D01*
X13615235Y-17876764D01*
X13658093Y-17876764D01*
X13686664Y-17891050D01*
X13700950Y-17905336D01*
X13715235Y-17933907D01*
X13715235Y-18019622D01*
X13700950Y-18048193D01*
X13686664Y-18062479D01*
X13658093Y-18076764D01*
X13615235Y-18076764D01*
X13886664Y-18076764D02*
X13858093Y-18062479D01*
X13843807Y-18033907D01*
X13843807Y-17776764D01*
X14115236Y-18062479D02*
X14086664Y-18076764D01*
X14029521Y-18076764D01*
X14000950Y-18062479D01*
X13986664Y-18033907D01*
X13986664Y-17919622D01*
X14000950Y-17891050D01*
X14029521Y-17876764D01*
X14086664Y-17876764D01*
X14115236Y-17891050D01*
X14129521Y-17919622D01*
X14129521Y-17948193D01*
X13986664Y-17976764D01*
X14243807Y-18062479D02*
X14272378Y-18076764D01*
X14329521Y-18076764D01*
X14358093Y-18062479D01*
X14372378Y-18033907D01*
X14372378Y-18019622D01*
X14358093Y-17991050D01*
X14329521Y-17976764D01*
X14286664Y-17976764D01*
X14258093Y-17962479D01*
X14243807Y-17933907D01*
X14243807Y-17919622D01*
X14258093Y-17891050D01*
X14286664Y-17876764D01*
X14329521Y-17876764D01*
X14358093Y-17891050D01*
X14472378Y-18191050D02*
X14486664Y-18176764D01*
X14515236Y-18133907D01*
X14529521Y-18105336D01*
X14543807Y-18062479D01*
X14558093Y-17991050D01*
X14558093Y-17933907D01*
X14543807Y-17862479D01*
X14529521Y-17819622D01*
X14515236Y-17791050D01*
X14486664Y-17748193D01*
X14472378Y-17733907D01*
X7870902Y-18272026D02*
X8000950Y-18402074D01*
X8000950Y-18272026D02*
X7870902Y-18402074D01*
X7935926Y-18402074D02*
X8000950Y-18337050D01*
X7935926Y-18272026D01*
X7870902Y-18337050D01*
X7935926Y-18402074D01*
X8429521Y-18472764D02*
X8258093Y-18472764D01*
X8343807Y-18472764D02*
X8343807Y-18172764D01*
X8315236Y-18215622D01*
X8286664Y-18244193D01*
X8258093Y-18258479D01*
X8558093Y-18444193D02*
X8572379Y-18458479D01*
X8558093Y-18472764D01*
X8543807Y-18458479D01*
X8558093Y-18444193D01*
X8558093Y-18472764D01*
X8672378Y-18172764D02*
X8858093Y-18172764D01*
X8758093Y-18287050D01*
X8800950Y-18287050D01*
X8829521Y-18301336D01*
X8843807Y-18315622D01*
X8858093Y-18344193D01*
X8858093Y-18415622D01*
X8843807Y-18444193D01*
X8829521Y-18458479D01*
X8800950Y-18472764D01*
X8715236Y-18472764D01*
X8686664Y-18458479D01*
X8672378Y-18444193D01*
X9043807Y-18172764D02*
X9072379Y-18172764D01*
X9100950Y-18187050D01*
X9115236Y-18201336D01*
X9129521Y-18229907D01*
X9143807Y-18287050D01*
X9143807Y-18358479D01*
X9129521Y-18415622D01*
X9115236Y-18444193D01*
X9100950Y-18458479D01*
X9072379Y-18472764D01*
X9043807Y-18472764D01*
X9015236Y-18458479D01*
X9000950Y-18444193D01*
X8986664Y-18415622D01*
X8972379Y-18358479D01*
X8972379Y-18287050D01*
X8986664Y-18229907D01*
X9000950Y-18201336D01*
X9015236Y-18187050D01*
X9043807Y-18172764D01*
X9272379Y-18472764D02*
X9272379Y-18272764D01*
X9272379Y-18301336D02*
X9286664Y-18287050D01*
X9315236Y-18272764D01*
X9358093Y-18272764D01*
X9386664Y-18287050D01*
X9400950Y-18315622D01*
X9400950Y-18472764D01*
X9400950Y-18315622D02*
X9415236Y-18287050D01*
X9443807Y-18272764D01*
X9486664Y-18272764D01*
X9515236Y-18287050D01*
X9529521Y-18315622D01*
X9529521Y-18472764D01*
X9672379Y-18472764D02*
X9672379Y-18272764D01*
X9672379Y-18301336D02*
X9686664Y-18287050D01*
X9715236Y-18272764D01*
X9758093Y-18272764D01*
X9786664Y-18287050D01*
X9800950Y-18315622D01*
X9800950Y-18472764D01*
X9800950Y-18315622D02*
X9815236Y-18287050D01*
X9843807Y-18272764D01*
X9886664Y-18272764D01*
X9915236Y-18287050D01*
X9929521Y-18315622D01*
X9929521Y-18472764D01*
X10515236Y-18158479D02*
X10258093Y-18544193D01*
X10900950Y-18172764D02*
X10929521Y-18172764D01*
X10958093Y-18187050D01*
X10972378Y-18201336D01*
X10986664Y-18229907D01*
X11000950Y-18287050D01*
X11000950Y-18358479D01*
X10986664Y-18415622D01*
X10972378Y-18444193D01*
X10958093Y-18458479D01*
X10929521Y-18472764D01*
X10900950Y-18472764D01*
X10872378Y-18458479D01*
X10858093Y-18444193D01*
X10843807Y-18415622D01*
X10829521Y-18358479D01*
X10829521Y-18287050D01*
X10843807Y-18229907D01*
X10858093Y-18201336D01*
X10872378Y-18187050D01*
X10900950Y-18172764D01*
X11129521Y-18444193D02*
X11143807Y-18458479D01*
X11129521Y-18472764D01*
X11115236Y-18458479D01*
X11129521Y-18444193D01*
X11129521Y-18472764D01*
X11329521Y-18172764D02*
X11358093Y-18172764D01*
X11386664Y-18187050D01*
X11400950Y-18201336D01*
X11415235Y-18229907D01*
X11429521Y-18287050D01*
X11429521Y-18358479D01*
X11415235Y-18415622D01*
X11400950Y-18444193D01*
X11386664Y-18458479D01*
X11358093Y-18472764D01*
X11329521Y-18472764D01*
X11300950Y-18458479D01*
X11286664Y-18444193D01*
X11272378Y-18415622D01*
X11258093Y-18358479D01*
X11258093Y-18287050D01*
X11272378Y-18229907D01*
X11286664Y-18201336D01*
X11300950Y-18187050D01*
X11329521Y-18172764D01*
X11700950Y-18172764D02*
X11558093Y-18172764D01*
X11543807Y-18315622D01*
X11558093Y-18301336D01*
X11586664Y-18287050D01*
X11658093Y-18287050D01*
X11686664Y-18301336D01*
X11700950Y-18315622D01*
X11715235Y-18344193D01*
X11715235Y-18415622D01*
X11700950Y-18444193D01*
X11686664Y-18458479D01*
X11658093Y-18472764D01*
X11586664Y-18472764D01*
X11558093Y-18458479D01*
X11543807Y-18444193D01*
X12000950Y-18472764D02*
X11829521Y-18472764D01*
X11915235Y-18472764D02*
X11915235Y-18172764D01*
X11886664Y-18215622D01*
X11858093Y-18244193D01*
X11829521Y-18258479D01*
X12115236Y-18172764D02*
X12115236Y-18229907D01*
X12229521Y-18172764D02*
X12229521Y-18229907D01*
X12672378Y-18587050D02*
X12658093Y-18572764D01*
X12629521Y-18529907D01*
X12615235Y-18501336D01*
X12600950Y-18458479D01*
X12586664Y-18387050D01*
X12586664Y-18329907D01*
X12600950Y-18258479D01*
X12615235Y-18215622D01*
X12629521Y-18187050D01*
X12658093Y-18144193D01*
X12672378Y-18129907D01*
X12915235Y-18272764D02*
X12915235Y-18472764D01*
X12843807Y-18158479D02*
X12772378Y-18372764D01*
X12958093Y-18372764D01*
X13300950Y-18472764D02*
X13300950Y-18172764D01*
X13429521Y-18472764D02*
X13429521Y-18315622D01*
X13415235Y-18287050D01*
X13386664Y-18272764D01*
X13343807Y-18272764D01*
X13315235Y-18287050D01*
X13300950Y-18301336D01*
X13615235Y-18472764D02*
X13586664Y-18458479D01*
X13572378Y-18444193D01*
X13558093Y-18415622D01*
X13558093Y-18329907D01*
X13572378Y-18301336D01*
X13586664Y-18287050D01*
X13615235Y-18272764D01*
X13658093Y-18272764D01*
X13686664Y-18287050D01*
X13700950Y-18301336D01*
X13715235Y-18329907D01*
X13715235Y-18415622D01*
X13700950Y-18444193D01*
X13686664Y-18458479D01*
X13658093Y-18472764D01*
X13615235Y-18472764D01*
X13886664Y-18472764D02*
X13858093Y-18458479D01*
X13843807Y-18429907D01*
X13843807Y-18172764D01*
X14115236Y-18458479D02*
X14086664Y-18472764D01*
X14029521Y-18472764D01*
X14000950Y-18458479D01*
X13986664Y-18429907D01*
X13986664Y-18315622D01*
X14000950Y-18287050D01*
X14029521Y-18272764D01*
X14086664Y-18272764D01*
X14115236Y-18287050D01*
X14129521Y-18315622D01*
X14129521Y-18344193D01*
X13986664Y-18372764D01*
X14243807Y-18458479D02*
X14272378Y-18472764D01*
X14329521Y-18472764D01*
X14358093Y-18458479D01*
X14372378Y-18429907D01*
X14372378Y-18415622D01*
X14358093Y-18387050D01*
X14329521Y-18372764D01*
X14286664Y-18372764D01*
X14258093Y-18358479D01*
X14243807Y-18329907D01*
X14243807Y-18315622D01*
X14258093Y-18287050D01*
X14286664Y-18272764D01*
X14329521Y-18272764D01*
X14358093Y-18287050D01*
X14472378Y-18587050D02*
X14486664Y-18572764D01*
X14515236Y-18529907D01*
X14529521Y-18501336D01*
X14543807Y-18458479D01*
X14558093Y-18387050D01*
X14558093Y-18329907D01*
X14543807Y-18258479D01*
X14529521Y-18215622D01*
X14515236Y-18187050D01*
X14486664Y-18144193D01*
X14472378Y-18129907D01*
X7885888Y-18617988D02*
X7885888Y-18848112D01*
X7770826Y-18733050D02*
X8000950Y-18733050D01*
X8000950Y-18733050D02*
G75*
G03X8000950Y-18733050I-115062J0D01*
G01*
X8258093Y-18597336D02*
X8272378Y-18583050D01*
X8300950Y-18568764D01*
X8372378Y-18568764D01*
X8400950Y-18583050D01*
X8415236Y-18597336D01*
X8429521Y-18625907D01*
X8429521Y-18654479D01*
X8415236Y-18697336D01*
X8243807Y-18868764D01*
X8429521Y-18868764D01*
X8558093Y-18840193D02*
X8572379Y-18854479D01*
X8558093Y-18868764D01*
X8543807Y-18854479D01*
X8558093Y-18840193D01*
X8558093Y-18868764D01*
X8672378Y-18568764D02*
X8858093Y-18568764D01*
X8758093Y-18683050D01*
X8800950Y-18683050D01*
X8829521Y-18697336D01*
X8843807Y-18711622D01*
X8858093Y-18740193D01*
X8858093Y-18811622D01*
X8843807Y-18840193D01*
X8829521Y-18854479D01*
X8800950Y-18868764D01*
X8715236Y-18868764D01*
X8686664Y-18854479D01*
X8672378Y-18840193D01*
X9043807Y-18568764D02*
X9072379Y-18568764D01*
X9100950Y-18583050D01*
X9115236Y-18597336D01*
X9129521Y-18625907D01*
X9143807Y-18683050D01*
X9143807Y-18754479D01*
X9129521Y-18811622D01*
X9115236Y-18840193D01*
X9100950Y-18854479D01*
X9072379Y-18868764D01*
X9043807Y-18868764D01*
X9015236Y-18854479D01*
X9000950Y-18840193D01*
X8986664Y-18811622D01*
X8972379Y-18754479D01*
X8972379Y-18683050D01*
X8986664Y-18625907D01*
X9000950Y-18597336D01*
X9015236Y-18583050D01*
X9043807Y-18568764D01*
X9272379Y-18868764D02*
X9272379Y-18668764D01*
X9272379Y-18697336D02*
X9286664Y-18683050D01*
X9315236Y-18668764D01*
X9358093Y-18668764D01*
X9386664Y-18683050D01*
X9400950Y-18711622D01*
X9400950Y-18868764D01*
X9400950Y-18711622D02*
X9415236Y-18683050D01*
X9443807Y-18668764D01*
X9486664Y-18668764D01*
X9515236Y-18683050D01*
X9529521Y-18711622D01*
X9529521Y-18868764D01*
X9672379Y-18868764D02*
X9672379Y-18668764D01*
X9672379Y-18697336D02*
X9686664Y-18683050D01*
X9715236Y-18668764D01*
X9758093Y-18668764D01*
X9786664Y-18683050D01*
X9800950Y-18711622D01*
X9800950Y-18868764D01*
X9800950Y-18711622D02*
X9815236Y-18683050D01*
X9843807Y-18668764D01*
X9886664Y-18668764D01*
X9915236Y-18683050D01*
X9929521Y-18711622D01*
X9929521Y-18868764D01*
X10515236Y-18554479D02*
X10258093Y-18940193D01*
X10900950Y-18568764D02*
X10929521Y-18568764D01*
X10958093Y-18583050D01*
X10972378Y-18597336D01*
X10986664Y-18625907D01*
X11000950Y-18683050D01*
X11000950Y-18754479D01*
X10986664Y-18811622D01*
X10972378Y-18840193D01*
X10958093Y-18854479D01*
X10929521Y-18868764D01*
X10900950Y-18868764D01*
X10872378Y-18854479D01*
X10858093Y-18840193D01*
X10843807Y-18811622D01*
X10829521Y-18754479D01*
X10829521Y-18683050D01*
X10843807Y-18625907D01*
X10858093Y-18597336D01*
X10872378Y-18583050D01*
X10900950Y-18568764D01*
X11129521Y-18840193D02*
X11143807Y-18854479D01*
X11129521Y-18868764D01*
X11115236Y-18854479D01*
X11129521Y-18840193D01*
X11129521Y-18868764D01*
X11329521Y-18568764D02*
X11358093Y-18568764D01*
X11386664Y-18583050D01*
X11400950Y-18597336D01*
X11415235Y-18625907D01*
X11429521Y-18683050D01*
X11429521Y-18754479D01*
X11415235Y-18811622D01*
X11400950Y-18840193D01*
X11386664Y-18854479D01*
X11358093Y-18868764D01*
X11329521Y-18868764D01*
X11300950Y-18854479D01*
X11286664Y-18840193D01*
X11272378Y-18811622D01*
X11258093Y-18754479D01*
X11258093Y-18683050D01*
X11272378Y-18625907D01*
X11286664Y-18597336D01*
X11300950Y-18583050D01*
X11329521Y-18568764D01*
X11572378Y-18868764D02*
X11629521Y-18868764D01*
X11658093Y-18854479D01*
X11672378Y-18840193D01*
X11700950Y-18797336D01*
X11715235Y-18740193D01*
X11715235Y-18625907D01*
X11700950Y-18597336D01*
X11686664Y-18583050D01*
X11658093Y-18568764D01*
X11600950Y-18568764D01*
X11572378Y-18583050D01*
X11558093Y-18597336D01*
X11543807Y-18625907D01*
X11543807Y-18697336D01*
X11558093Y-18725907D01*
X11572378Y-18740193D01*
X11600950Y-18754479D01*
X11658093Y-18754479D01*
X11686664Y-18740193D01*
X11700950Y-18725907D01*
X11715235Y-18697336D01*
X12000950Y-18868764D02*
X11829521Y-18868764D01*
X11915235Y-18868764D02*
X11915235Y-18568764D01*
X11886664Y-18611622D01*
X11858093Y-18640193D01*
X11829521Y-18654479D01*
X12115236Y-18568764D02*
X12115236Y-18625907D01*
X12229521Y-18568764D02*
X12229521Y-18625907D01*
X12672378Y-18983050D02*
X12658093Y-18968764D01*
X12629521Y-18925907D01*
X12615235Y-18897336D01*
X12600950Y-18854479D01*
X12586664Y-18783050D01*
X12586664Y-18725907D01*
X12600950Y-18654479D01*
X12615235Y-18611622D01*
X12629521Y-18583050D01*
X12658093Y-18540193D01*
X12672378Y-18525907D01*
X12772378Y-18597336D02*
X12786664Y-18583050D01*
X12815235Y-18568764D01*
X12886664Y-18568764D01*
X12915235Y-18583050D01*
X12929521Y-18597336D01*
X12943807Y-18625907D01*
X12943807Y-18654479D01*
X12929521Y-18697336D01*
X12758093Y-18868764D01*
X12943807Y-18868764D01*
X13300950Y-18868764D02*
X13300950Y-18568764D01*
X13429521Y-18868764D02*
X13429521Y-18711622D01*
X13415235Y-18683050D01*
X13386664Y-18668764D01*
X13343807Y-18668764D01*
X13315235Y-18683050D01*
X13300950Y-18697336D01*
X13615235Y-18868764D02*
X13586664Y-18854479D01*
X13572378Y-18840193D01*
X13558093Y-18811622D01*
X13558093Y-18725907D01*
X13572378Y-18697336D01*
X13586664Y-18683050D01*
X13615235Y-18668764D01*
X13658093Y-18668764D01*
X13686664Y-18683050D01*
X13700950Y-18697336D01*
X13715235Y-18725907D01*
X13715235Y-18811622D01*
X13700950Y-18840193D01*
X13686664Y-18854479D01*
X13658093Y-18868764D01*
X13615235Y-18868764D01*
X13886664Y-18868764D02*
X13858093Y-18854479D01*
X13843807Y-18825907D01*
X13843807Y-18568764D01*
X14115236Y-18854479D02*
X14086664Y-18868764D01*
X14029521Y-18868764D01*
X14000950Y-18854479D01*
X13986664Y-18825907D01*
X13986664Y-18711622D01*
X14000950Y-18683050D01*
X14029521Y-18668764D01*
X14086664Y-18668764D01*
X14115236Y-18683050D01*
X14129521Y-18711622D01*
X14129521Y-18740193D01*
X13986664Y-18768764D01*
X14243807Y-18854479D02*
X14272378Y-18868764D01*
X14329521Y-18868764D01*
X14358093Y-18854479D01*
X14372378Y-18825907D01*
X14372378Y-18811622D01*
X14358093Y-18783050D01*
X14329521Y-18768764D01*
X14286664Y-18768764D01*
X14258093Y-18754479D01*
X14243807Y-18725907D01*
X14243807Y-18711622D01*
X14258093Y-18683050D01*
X14286664Y-18668764D01*
X14329521Y-18668764D01*
X14358093Y-18683050D01*
X14472378Y-18983050D02*
X14486664Y-18968764D01*
X14515236Y-18925907D01*
X14529521Y-18897336D01*
X14543807Y-18854479D01*
X14558093Y-18783050D01*
X14558093Y-18725907D01*
X14543807Y-18654479D01*
X14529521Y-18611622D01*
X14515236Y-18583050D01*
X14486664Y-18540193D01*
X14472378Y-18525907D01*
X7939427Y-19277585D02*
X7939427Y-18980515D01*
X7642357Y-18980515D01*
X7642357Y-19277585D01*
X7939427Y-19277585D01*
X8000950Y-19129050D02*
G75*
G03X8000950Y-19129050I-210058J0D01*
G01*
X8400950Y-19064764D02*
X8400950Y-19264764D01*
X8329521Y-18950479D02*
X8258093Y-19164764D01*
X8443807Y-19164764D01*
X8558093Y-19236193D02*
X8572379Y-19250479D01*
X8558093Y-19264764D01*
X8543807Y-19250479D01*
X8558093Y-19236193D01*
X8558093Y-19264764D01*
X8686664Y-18993336D02*
X8700950Y-18979050D01*
X8729521Y-18964764D01*
X8800950Y-18964764D01*
X8829521Y-18979050D01*
X8843807Y-18993336D01*
X8858093Y-19021907D01*
X8858093Y-19050479D01*
X8843807Y-19093336D01*
X8672378Y-19264764D01*
X8858093Y-19264764D01*
X9043807Y-18964764D02*
X9072379Y-18964764D01*
X9100950Y-18979050D01*
X9115236Y-18993336D01*
X9129521Y-19021907D01*
X9143807Y-19079050D01*
X9143807Y-19150479D01*
X9129521Y-19207622D01*
X9115236Y-19236193D01*
X9100950Y-19250479D01*
X9072379Y-19264764D01*
X9043807Y-19264764D01*
X9015236Y-19250479D01*
X9000950Y-19236193D01*
X8986664Y-19207622D01*
X8972379Y-19150479D01*
X8972379Y-19079050D01*
X8986664Y-19021907D01*
X9000950Y-18993336D01*
X9015236Y-18979050D01*
X9043807Y-18964764D01*
X9272379Y-19264764D02*
X9272379Y-19064764D01*
X9272379Y-19093336D02*
X9286664Y-19079050D01*
X9315236Y-19064764D01*
X9358093Y-19064764D01*
X9386664Y-19079050D01*
X9400950Y-19107622D01*
X9400950Y-19264764D01*
X9400950Y-19107622D02*
X9415236Y-19079050D01*
X9443807Y-19064764D01*
X9486664Y-19064764D01*
X9515236Y-19079050D01*
X9529521Y-19107622D01*
X9529521Y-19264764D01*
X9672379Y-19264764D02*
X9672379Y-19064764D01*
X9672379Y-19093336D02*
X9686664Y-19079050D01*
X9715236Y-19064764D01*
X9758093Y-19064764D01*
X9786664Y-19079050D01*
X9800950Y-19107622D01*
X9800950Y-19264764D01*
X9800950Y-19107622D02*
X9815236Y-19079050D01*
X9843807Y-19064764D01*
X9886664Y-19064764D01*
X9915236Y-19079050D01*
X9929521Y-19107622D01*
X9929521Y-19264764D01*
X10515236Y-18950479D02*
X10258093Y-19336193D01*
X10900950Y-18964764D02*
X10929521Y-18964764D01*
X10958093Y-18979050D01*
X10972378Y-18993336D01*
X10986664Y-19021907D01*
X11000950Y-19079050D01*
X11000950Y-19150479D01*
X10986664Y-19207622D01*
X10972378Y-19236193D01*
X10958093Y-19250479D01*
X10929521Y-19264764D01*
X10900950Y-19264764D01*
X10872378Y-19250479D01*
X10858093Y-19236193D01*
X10843807Y-19207622D01*
X10829521Y-19150479D01*
X10829521Y-19079050D01*
X10843807Y-19021907D01*
X10858093Y-18993336D01*
X10872378Y-18979050D01*
X10900950Y-18964764D01*
X11129521Y-19236193D02*
X11143807Y-19250479D01*
X11129521Y-19264764D01*
X11115236Y-19250479D01*
X11129521Y-19236193D01*
X11129521Y-19264764D01*
X11429521Y-19264764D02*
X11258093Y-19264764D01*
X11343807Y-19264764D02*
X11343807Y-18964764D01*
X11315235Y-19007622D01*
X11286664Y-19036193D01*
X11258093Y-19050479D01*
X11686664Y-18964764D02*
X11629521Y-18964764D01*
X11600950Y-18979050D01*
X11586664Y-18993336D01*
X11558093Y-19036193D01*
X11543807Y-19093336D01*
X11543807Y-19207622D01*
X11558093Y-19236193D01*
X11572378Y-19250479D01*
X11600950Y-19264764D01*
X11658093Y-19264764D01*
X11686664Y-19250479D01*
X11700950Y-19236193D01*
X11715235Y-19207622D01*
X11715235Y-19136193D01*
X11700950Y-19107622D01*
X11686664Y-19093336D01*
X11658093Y-19079050D01*
X11600950Y-19079050D01*
X11572378Y-19093336D01*
X11558093Y-19107622D01*
X11543807Y-19136193D01*
X11986664Y-18964764D02*
X11843807Y-18964764D01*
X11829521Y-19107622D01*
X11843807Y-19093336D01*
X11872378Y-19079050D01*
X11943807Y-19079050D01*
X11972378Y-19093336D01*
X11986664Y-19107622D01*
X12000950Y-19136193D01*
X12000950Y-19207622D01*
X11986664Y-19236193D01*
X11972378Y-19250479D01*
X11943807Y-19264764D01*
X11872378Y-19264764D01*
X11843807Y-19250479D01*
X11829521Y-19236193D01*
X12115236Y-18964764D02*
X12115236Y-19021907D01*
X12229521Y-18964764D02*
X12229521Y-19021907D01*
X12672378Y-19379050D02*
X12658093Y-19364764D01*
X12629521Y-19321907D01*
X12615235Y-19293336D01*
X12600950Y-19250479D01*
X12586664Y-19179050D01*
X12586664Y-19121907D01*
X12600950Y-19050479D01*
X12615235Y-19007622D01*
X12629521Y-18979050D01*
X12658093Y-18936193D01*
X12672378Y-18921907D01*
X12758093Y-18964764D02*
X12943807Y-18964764D01*
X12843807Y-19079050D01*
X12886664Y-19079050D01*
X12915235Y-19093336D01*
X12929521Y-19107622D01*
X12943807Y-19136193D01*
X12943807Y-19207622D01*
X12929521Y-19236193D01*
X12915235Y-19250479D01*
X12886664Y-19264764D01*
X12800950Y-19264764D01*
X12772378Y-19250479D01*
X12758093Y-19236193D01*
X13300950Y-19264764D02*
X13300950Y-18964764D01*
X13429521Y-19264764D02*
X13429521Y-19107622D01*
X13415235Y-19079050D01*
X13386664Y-19064764D01*
X13343807Y-19064764D01*
X13315235Y-19079050D01*
X13300950Y-19093336D01*
X13615235Y-19264764D02*
X13586664Y-19250479D01*
X13572378Y-19236193D01*
X13558093Y-19207622D01*
X13558093Y-19121907D01*
X13572378Y-19093336D01*
X13586664Y-19079050D01*
X13615235Y-19064764D01*
X13658093Y-19064764D01*
X13686664Y-19079050D01*
X13700950Y-19093336D01*
X13715235Y-19121907D01*
X13715235Y-19207622D01*
X13700950Y-19236193D01*
X13686664Y-19250479D01*
X13658093Y-19264764D01*
X13615235Y-19264764D01*
X13886664Y-19264764D02*
X13858093Y-19250479D01*
X13843807Y-19221907D01*
X13843807Y-18964764D01*
X14115236Y-19250479D02*
X14086664Y-19264764D01*
X14029521Y-19264764D01*
X14000950Y-19250479D01*
X13986664Y-19221907D01*
X13986664Y-19107622D01*
X14000950Y-19079050D01*
X14029521Y-19064764D01*
X14086664Y-19064764D01*
X14115236Y-19079050D01*
X14129521Y-19107622D01*
X14129521Y-19136193D01*
X13986664Y-19164764D01*
X14243807Y-19250479D02*
X14272378Y-19264764D01*
X14329521Y-19264764D01*
X14358093Y-19250479D01*
X14372378Y-19221907D01*
X14372378Y-19207622D01*
X14358093Y-19179050D01*
X14329521Y-19164764D01*
X14286664Y-19164764D01*
X14258093Y-19150479D01*
X14243807Y-19121907D01*
X14243807Y-19107622D01*
X14258093Y-19079050D01*
X14286664Y-19064764D01*
X14329521Y-19064764D01*
X14358093Y-19079050D01*
X14472378Y-19379050D02*
X14486664Y-19364764D01*
X14515236Y-19321907D01*
X14529521Y-19293336D01*
X14543807Y-19250479D01*
X14558093Y-19179050D01*
X14558093Y-19121907D01*
X14543807Y-19050479D01*
X14529521Y-19007622D01*
X14515236Y-18979050D01*
X14486664Y-18936193D01*
X14472378Y-18921907D01*
M02*
