G04 #@! TF.FileFunction,Copper,L4,Bot,Mixed*
%FSLAX46Y46*%
G04 Gerber Fmt 4.6, Leading zero omitted, Abs format (unit mm)*
G04 Created by KiCad (PCBNEW 4.0.2-stable) date 05/09/2016 12:26:53*
%MOMM*%
G01*
G04 APERTURE LIST*
%ADD10C,0.150000*%
%ADD11C,0.300000*%
%ADD12C,0.400000*%
%ADD13R,1.800000X1.800000*%
%ADD14C,1.800000*%
%ADD15O,0.711200X1.050000*%
%ADD16O,1.300000X2.150000*%
%ADD17C,1.397000*%
%ADD18R,1.397000X1.397000*%
%ADD19R,1.998980X1.998980*%
%ADD20C,2.499360*%
%ADD21R,1.524000X1.524000*%
%ADD22C,1.524000*%
%ADD23C,5.001260*%
%ADD24C,0.800000*%
%ADD25R,1.727200X1.727200*%
%ADD26O,1.727200X1.727200*%
%ADD27R,2.032000X1.727200*%
%ADD28O,2.032000X1.727200*%
%ADD29C,1.501140*%
%ADD30C,2.999740*%
%ADD31R,2.235200X2.235200*%
%ADD32R,2.032000X2.032000*%
%ADD33O,2.032000X2.032000*%
%ADD34R,1.727200X2.032000*%
%ADD35O,1.727200X2.032000*%
%ADD36R,2.000000X2.600000*%
%ADD37O,2.000000X2.600000*%
%ADD38R,2.600000X2.000000*%
%ADD39O,2.600000X2.000000*%
%ADD40C,0.599440*%
%ADD41C,0.254000*%
%ADD42C,0.508000*%
%ADD43C,1.016000*%
%ADD44C,0.762000*%
G04 APERTURE END LIST*
D10*
X177002200Y-166007200D02*
X177002200Y-198007200D01*
X285002200Y-198007200D01*
X285002200Y-166007200D01*
X177002200Y-166007200D01*
X10000000Y-10000000D02*
X10000000Y-200007200D01*
X287002200Y-200007200D01*
X287002200Y-10000000D01*
X10000000Y-10000000D01*
X12000000Y-12000000D02*
X12000000Y-198007200D01*
X285002200Y-198007200D01*
X285002200Y-12000000D01*
X12000000Y-12000000D01*
X60000000Y-12000000D02*
X60000000Y-10000000D01*
X110000000Y-12000000D02*
X110000000Y-10000000D01*
X160000000Y-12000000D02*
X160000000Y-10000000D01*
X210000000Y-12000000D02*
X210000000Y-10000000D01*
X260000000Y-12000000D02*
X260000000Y-10000000D01*
X35990476Y-11588095D02*
X35247619Y-11588095D01*
X35619048Y-11588095D02*
X35619048Y-10288095D01*
X35495238Y-10473810D01*
X35371429Y-10597619D01*
X35247619Y-10659524D01*
X85247619Y-10411905D02*
X85309524Y-10350000D01*
X85433333Y-10288095D01*
X85742857Y-10288095D01*
X85866667Y-10350000D01*
X85928571Y-10411905D01*
X85990476Y-10535714D01*
X85990476Y-10659524D01*
X85928571Y-10845238D01*
X85185714Y-11588095D01*
X85990476Y-11588095D01*
X135185714Y-10288095D02*
X135990476Y-10288095D01*
X135557143Y-10783333D01*
X135742857Y-10783333D01*
X135866667Y-10845238D01*
X135928571Y-10907143D01*
X135990476Y-11030952D01*
X135990476Y-11340476D01*
X135928571Y-11464286D01*
X135866667Y-11526190D01*
X135742857Y-11588095D01*
X135371429Y-11588095D01*
X135247619Y-11526190D01*
X135185714Y-11464286D01*
X185866667Y-10721429D02*
X185866667Y-11588095D01*
X185557143Y-10226190D02*
X185247619Y-11154762D01*
X186052381Y-11154762D01*
X235928571Y-10288095D02*
X235309524Y-10288095D01*
X235247619Y-10907143D01*
X235309524Y-10845238D01*
X235433333Y-10783333D01*
X235742857Y-10783333D01*
X235866667Y-10845238D01*
X235928571Y-10907143D01*
X235990476Y-11030952D01*
X235990476Y-11340476D01*
X235928571Y-11464286D01*
X235866667Y-11526190D01*
X235742857Y-11588095D01*
X235433333Y-11588095D01*
X235309524Y-11526190D01*
X235247619Y-11464286D01*
X285866667Y-10288095D02*
X285619048Y-10288095D01*
X285495238Y-10350000D01*
X285433333Y-10411905D01*
X285309524Y-10597619D01*
X285247619Y-10845238D01*
X285247619Y-11340476D01*
X285309524Y-11464286D01*
X285371429Y-11526190D01*
X285495238Y-11588095D01*
X285742857Y-11588095D01*
X285866667Y-11526190D01*
X285928571Y-11464286D01*
X285990476Y-11340476D01*
X285990476Y-11030952D01*
X285928571Y-10907143D01*
X285866667Y-10845238D01*
X285742857Y-10783333D01*
X285495238Y-10783333D01*
X285371429Y-10845238D01*
X285309524Y-10907143D01*
X285247619Y-11030952D01*
X60000000Y-198007200D02*
X60000000Y-200007200D01*
X110000000Y-198007200D02*
X110000000Y-200007200D01*
X160000000Y-198007200D02*
X160000000Y-200007200D01*
X210000000Y-198007200D02*
X210000000Y-200007200D01*
X260000000Y-198007200D02*
X260000000Y-200007200D01*
X35990476Y-199595295D02*
X35247619Y-199595295D01*
X35619048Y-199595295D02*
X35619048Y-198295295D01*
X35495238Y-198481010D01*
X35371429Y-198604819D01*
X35247619Y-198666724D01*
X85247619Y-198419105D02*
X85309524Y-198357200D01*
X85433333Y-198295295D01*
X85742857Y-198295295D01*
X85866667Y-198357200D01*
X85928571Y-198419105D01*
X85990476Y-198542914D01*
X85990476Y-198666724D01*
X85928571Y-198852438D01*
X85185714Y-199595295D01*
X85990476Y-199595295D01*
X135185714Y-198295295D02*
X135990476Y-198295295D01*
X135557143Y-198790533D01*
X135742857Y-198790533D01*
X135866667Y-198852438D01*
X135928571Y-198914343D01*
X135990476Y-199038152D01*
X135990476Y-199347676D01*
X135928571Y-199471486D01*
X135866667Y-199533390D01*
X135742857Y-199595295D01*
X135371429Y-199595295D01*
X135247619Y-199533390D01*
X135185714Y-199471486D01*
X185866667Y-198728629D02*
X185866667Y-199595295D01*
X185557143Y-198233390D02*
X185247619Y-199161962D01*
X186052381Y-199161962D01*
X235928571Y-198295295D02*
X235309524Y-198295295D01*
X235247619Y-198914343D01*
X235309524Y-198852438D01*
X235433333Y-198790533D01*
X235742857Y-198790533D01*
X235866667Y-198852438D01*
X235928571Y-198914343D01*
X235990476Y-199038152D01*
X235990476Y-199347676D01*
X235928571Y-199471486D01*
X235866667Y-199533390D01*
X235742857Y-199595295D01*
X235433333Y-199595295D01*
X235309524Y-199533390D01*
X235247619Y-199471486D01*
X285866667Y-198295295D02*
X285619048Y-198295295D01*
X285495238Y-198357200D01*
X285433333Y-198419105D01*
X285309524Y-198604819D01*
X285247619Y-198852438D01*
X285247619Y-199347676D01*
X285309524Y-199471486D01*
X285371429Y-199533390D01*
X285495238Y-199595295D01*
X285742857Y-199595295D01*
X285866667Y-199533390D01*
X285928571Y-199471486D01*
X285990476Y-199347676D01*
X285990476Y-199038152D01*
X285928571Y-198914343D01*
X285866667Y-198852438D01*
X285742857Y-198790533D01*
X285495238Y-198790533D01*
X285371429Y-198852438D01*
X285309524Y-198914343D01*
X285247619Y-199038152D01*
X10000000Y-60000000D02*
X12000000Y-60000000D01*
X10000000Y-110000000D02*
X12000000Y-110000000D01*
X10000000Y-160000000D02*
X12000000Y-160000000D01*
X10690476Y-35216667D02*
X11309524Y-35216667D01*
X10566667Y-35588095D02*
X11000000Y-34288095D01*
X11433333Y-35588095D01*
X11092857Y-84907143D02*
X11278571Y-84969048D01*
X11340476Y-85030952D01*
X11402381Y-85154762D01*
X11402381Y-85340476D01*
X11340476Y-85464286D01*
X11278571Y-85526190D01*
X11154762Y-85588095D01*
X10659524Y-85588095D01*
X10659524Y-84288095D01*
X11092857Y-84288095D01*
X11216667Y-84350000D01*
X11278571Y-84411905D01*
X11340476Y-84535714D01*
X11340476Y-84659524D01*
X11278571Y-84783333D01*
X11216667Y-84845238D01*
X11092857Y-84907143D01*
X10659524Y-84907143D01*
X11402381Y-135464286D02*
X11340476Y-135526190D01*
X11154762Y-135588095D01*
X11030952Y-135588095D01*
X10845238Y-135526190D01*
X10721429Y-135402381D01*
X10659524Y-135278571D01*
X10597619Y-135030952D01*
X10597619Y-134845238D01*
X10659524Y-134597619D01*
X10721429Y-134473810D01*
X10845238Y-134350000D01*
X11030952Y-134288095D01*
X11154762Y-134288095D01*
X11340476Y-134350000D01*
X11402381Y-134411905D01*
X10659524Y-185588095D02*
X10659524Y-184288095D01*
X10969048Y-184288095D01*
X11154762Y-184350000D01*
X11278571Y-184473810D01*
X11340476Y-184597619D01*
X11402381Y-184845238D01*
X11402381Y-185030952D01*
X11340476Y-185278571D01*
X11278571Y-185402381D01*
X11154762Y-185526190D01*
X10969048Y-185588095D01*
X10659524Y-185588095D01*
X287002200Y-60000000D02*
X285002200Y-60000000D01*
X287002200Y-110000000D02*
X285002200Y-110000000D01*
X287002200Y-160000000D02*
X285002200Y-160000000D01*
X285692676Y-35216667D02*
X286311724Y-35216667D01*
X285568867Y-35588095D02*
X286002200Y-34288095D01*
X286435533Y-35588095D01*
X286095057Y-84907143D02*
X286280771Y-84969048D01*
X286342676Y-85030952D01*
X286404581Y-85154762D01*
X286404581Y-85340476D01*
X286342676Y-85464286D01*
X286280771Y-85526190D01*
X286156962Y-85588095D01*
X285661724Y-85588095D01*
X285661724Y-84288095D01*
X286095057Y-84288095D01*
X286218867Y-84350000D01*
X286280771Y-84411905D01*
X286342676Y-84535714D01*
X286342676Y-84659524D01*
X286280771Y-84783333D01*
X286218867Y-84845238D01*
X286095057Y-84907143D01*
X285661724Y-84907143D01*
X286404581Y-135464286D02*
X286342676Y-135526190D01*
X286156962Y-135588095D01*
X286033152Y-135588095D01*
X285847438Y-135526190D01*
X285723629Y-135402381D01*
X285661724Y-135278571D01*
X285599819Y-135030952D01*
X285599819Y-134845238D01*
X285661724Y-134597619D01*
X285723629Y-134473810D01*
X285847438Y-134350000D01*
X286033152Y-134288095D01*
X286156962Y-134288095D01*
X286342676Y-134350000D01*
X286404581Y-134411905D01*
X285661724Y-185588095D02*
X285661724Y-184288095D01*
X285971248Y-184288095D01*
X286156962Y-184350000D01*
X286280771Y-184473810D01*
X286342676Y-184597619D01*
X286404581Y-184845238D01*
X286404581Y-185030952D01*
X286342676Y-185278571D01*
X286280771Y-185402381D01*
X286156962Y-185526190D01*
X285971248Y-185588095D01*
X285661724Y-185588095D01*
X200359343Y-193785771D02*
X200359343Y-192285771D01*
X200716486Y-192285771D01*
X200930771Y-192357200D01*
X201073629Y-192500057D01*
X201145057Y-192642914D01*
X201216486Y-192928629D01*
X201216486Y-193142914D01*
X201145057Y-193428629D01*
X201073629Y-193571486D01*
X200930771Y-193714343D01*
X200716486Y-193785771D01*
X200359343Y-193785771D01*
X202502200Y-193785771D02*
X202502200Y-193000057D01*
X202430771Y-192857200D01*
X202287914Y-192785771D01*
X202002200Y-192785771D01*
X201859343Y-192857200D01*
X202502200Y-193714343D02*
X202359343Y-193785771D01*
X202002200Y-193785771D01*
X201859343Y-193714343D01*
X201787914Y-193571486D01*
X201787914Y-193428629D01*
X201859343Y-193285771D01*
X202002200Y-193214343D01*
X202359343Y-193214343D01*
X202502200Y-193142914D01*
X203002200Y-192785771D02*
X203573629Y-192785771D01*
X203216486Y-192285771D02*
X203216486Y-193571486D01*
X203287914Y-193714343D01*
X203430772Y-193785771D01*
X203573629Y-193785771D01*
X204645057Y-193714343D02*
X204502200Y-193785771D01*
X204216486Y-193785771D01*
X204073629Y-193714343D01*
X204002200Y-193571486D01*
X204002200Y-193000057D01*
X204073629Y-192857200D01*
X204216486Y-192785771D01*
X204502200Y-192785771D01*
X204645057Y-192857200D01*
X204716486Y-193000057D01*
X204716486Y-193142914D01*
X204002200Y-193285771D01*
X205359343Y-193642914D02*
X205430771Y-193714343D01*
X205359343Y-193785771D01*
X205287914Y-193714343D01*
X205359343Y-193642914D01*
X205359343Y-193785771D01*
X205359343Y-192857200D02*
X205430771Y-192928629D01*
X205359343Y-193000057D01*
X205287914Y-192928629D01*
X205359343Y-192857200D01*
X205359343Y-193000057D01*
X207145057Y-192428629D02*
X207216486Y-192357200D01*
X207359343Y-192285771D01*
X207716486Y-192285771D01*
X207859343Y-192357200D01*
X207930772Y-192428629D01*
X208002200Y-192571486D01*
X208002200Y-192714343D01*
X207930772Y-192928629D01*
X207073629Y-193785771D01*
X208002200Y-193785771D01*
X208930771Y-192285771D02*
X209073628Y-192285771D01*
X209216485Y-192357200D01*
X209287914Y-192428629D01*
X209359343Y-192571486D01*
X209430771Y-192857200D01*
X209430771Y-193214343D01*
X209359343Y-193500057D01*
X209287914Y-193642914D01*
X209216485Y-193714343D01*
X209073628Y-193785771D01*
X208930771Y-193785771D01*
X208787914Y-193714343D01*
X208716485Y-193642914D01*
X208645057Y-193500057D01*
X208573628Y-193214343D01*
X208573628Y-192857200D01*
X208645057Y-192571486D01*
X208716485Y-192428629D01*
X208787914Y-192357200D01*
X208930771Y-192285771D01*
X210859342Y-193785771D02*
X210002199Y-193785771D01*
X210430771Y-193785771D02*
X210430771Y-192285771D01*
X210287914Y-192500057D01*
X210145056Y-192642914D01*
X210002199Y-192714343D01*
X212145056Y-192285771D02*
X211859342Y-192285771D01*
X211716485Y-192357200D01*
X211645056Y-192428629D01*
X211502199Y-192642914D01*
X211430770Y-192928629D01*
X211430770Y-193500057D01*
X211502199Y-193642914D01*
X211573627Y-193714343D01*
X211716485Y-193785771D01*
X212002199Y-193785771D01*
X212145056Y-193714343D01*
X212216485Y-193642914D01*
X212287913Y-193500057D01*
X212287913Y-193142914D01*
X212216485Y-193000057D01*
X212145056Y-192928629D01*
X212002199Y-192857200D01*
X211716485Y-192857200D01*
X211573627Y-192928629D01*
X211502199Y-193000057D01*
X211430770Y-193142914D01*
X212930770Y-193214343D02*
X214073627Y-193214343D01*
X215073627Y-192285771D02*
X215216484Y-192285771D01*
X215359341Y-192357200D01*
X215430770Y-192428629D01*
X215502199Y-192571486D01*
X215573627Y-192857200D01*
X215573627Y-193214343D01*
X215502199Y-193500057D01*
X215430770Y-193642914D01*
X215359341Y-193714343D01*
X215216484Y-193785771D01*
X215073627Y-193785771D01*
X214930770Y-193714343D01*
X214859341Y-193642914D01*
X214787913Y-193500057D01*
X214716484Y-193214343D01*
X214716484Y-192857200D01*
X214787913Y-192571486D01*
X214859341Y-192428629D01*
X214930770Y-192357200D01*
X215073627Y-192285771D01*
X216430770Y-192928629D02*
X216287912Y-192857200D01*
X216216484Y-192785771D01*
X216145055Y-192642914D01*
X216145055Y-192571486D01*
X216216484Y-192428629D01*
X216287912Y-192357200D01*
X216430770Y-192285771D01*
X216716484Y-192285771D01*
X216859341Y-192357200D01*
X216930770Y-192428629D01*
X217002198Y-192571486D01*
X217002198Y-192642914D01*
X216930770Y-192785771D01*
X216859341Y-192857200D01*
X216716484Y-192928629D01*
X216430770Y-192928629D01*
X216287912Y-193000057D01*
X216216484Y-193071486D01*
X216145055Y-193214343D01*
X216145055Y-193500057D01*
X216216484Y-193642914D01*
X216287912Y-193714343D01*
X216430770Y-193785771D01*
X216716484Y-193785771D01*
X216859341Y-193714343D01*
X216930770Y-193642914D01*
X217002198Y-193500057D01*
X217002198Y-193214343D01*
X216930770Y-193071486D01*
X216859341Y-193000057D01*
X216716484Y-192928629D01*
X217645055Y-193214343D02*
X218787912Y-193214343D01*
X219430769Y-192428629D02*
X219502198Y-192357200D01*
X219645055Y-192285771D01*
X220002198Y-192285771D01*
X220145055Y-192357200D01*
X220216484Y-192428629D01*
X220287912Y-192571486D01*
X220287912Y-192714343D01*
X220216484Y-192928629D01*
X219359341Y-193785771D01*
X220287912Y-193785771D01*
X220787912Y-192285771D02*
X221716483Y-192285771D01*
X221216483Y-192857200D01*
X221430769Y-192857200D01*
X221573626Y-192928629D01*
X221645055Y-193000057D01*
X221716483Y-193142914D01*
X221716483Y-193500057D01*
X221645055Y-193642914D01*
X221573626Y-193714343D01*
X221430769Y-193785771D01*
X221002197Y-193785771D01*
X220859340Y-193714343D01*
X220787912Y-193642914D01*
X177002200Y-194507200D02*
X285002200Y-194507200D01*
X178359343Y-196585771D02*
X178359343Y-195085771D01*
X179216486Y-196585771D02*
X178573629Y-195728629D01*
X179216486Y-195085771D02*
X178359343Y-195942914D01*
X179859343Y-196585771D02*
X179859343Y-195585771D01*
X179859343Y-195085771D02*
X179787914Y-195157200D01*
X179859343Y-195228629D01*
X179930771Y-195157200D01*
X179859343Y-195085771D01*
X179859343Y-195228629D01*
X181430772Y-196442914D02*
X181359343Y-196514343D01*
X181145057Y-196585771D01*
X181002200Y-196585771D01*
X180787915Y-196514343D01*
X180645057Y-196371486D01*
X180573629Y-196228629D01*
X180502200Y-195942914D01*
X180502200Y-195728629D01*
X180573629Y-195442914D01*
X180645057Y-195300057D01*
X180787915Y-195157200D01*
X181002200Y-195085771D01*
X181145057Y-195085771D01*
X181359343Y-195157200D01*
X181430772Y-195228629D01*
X182716486Y-196585771D02*
X182716486Y-195800057D01*
X182645057Y-195657200D01*
X182502200Y-195585771D01*
X182216486Y-195585771D01*
X182073629Y-195657200D01*
X182716486Y-196514343D02*
X182573629Y-196585771D01*
X182216486Y-196585771D01*
X182073629Y-196514343D01*
X182002200Y-196371486D01*
X182002200Y-196228629D01*
X182073629Y-196085771D01*
X182216486Y-196014343D01*
X182573629Y-196014343D01*
X182716486Y-195942914D01*
X184073629Y-196585771D02*
X184073629Y-195085771D01*
X184073629Y-196514343D02*
X183930772Y-196585771D01*
X183645058Y-196585771D01*
X183502200Y-196514343D01*
X183430772Y-196442914D01*
X183359343Y-196300057D01*
X183359343Y-195871486D01*
X183430772Y-195728629D01*
X183502200Y-195657200D01*
X183645058Y-195585771D01*
X183930772Y-195585771D01*
X184073629Y-195657200D01*
X185930772Y-195800057D02*
X186430772Y-195800057D01*
X186645058Y-196585771D02*
X185930772Y-196585771D01*
X185930772Y-195085771D01*
X186645058Y-195085771D01*
X187287915Y-196442914D02*
X187359343Y-196514343D01*
X187287915Y-196585771D01*
X187216486Y-196514343D01*
X187287915Y-196442914D01*
X187287915Y-196585771D01*
X188002201Y-196585771D02*
X188002201Y-195085771D01*
X188359344Y-195085771D01*
X188573629Y-195157200D01*
X188716487Y-195300057D01*
X188787915Y-195442914D01*
X188859344Y-195728629D01*
X188859344Y-195942914D01*
X188787915Y-196228629D01*
X188716487Y-196371486D01*
X188573629Y-196514343D01*
X188359344Y-196585771D01*
X188002201Y-196585771D01*
X189502201Y-196442914D02*
X189573629Y-196514343D01*
X189502201Y-196585771D01*
X189430772Y-196514343D01*
X189502201Y-196442914D01*
X189502201Y-196585771D01*
X190145058Y-196157200D02*
X190859344Y-196157200D01*
X190002201Y-196585771D02*
X190502201Y-195085771D01*
X191002201Y-196585771D01*
X191502201Y-196442914D02*
X191573629Y-196514343D01*
X191502201Y-196585771D01*
X191430772Y-196514343D01*
X191502201Y-196442914D01*
X191502201Y-196585771D01*
X194502201Y-196585771D02*
X194502201Y-195085771D01*
X194645058Y-196014343D02*
X195073629Y-196585771D01*
X195073629Y-195585771D02*
X194502201Y-196157200D01*
X195716487Y-196585771D02*
X195716487Y-195585771D01*
X195716487Y-195085771D02*
X195645058Y-195157200D01*
X195716487Y-195228629D01*
X195787915Y-195157200D01*
X195716487Y-195085771D01*
X195716487Y-195228629D01*
X197073630Y-196514343D02*
X196930773Y-196585771D01*
X196645059Y-196585771D01*
X196502201Y-196514343D01*
X196430773Y-196442914D01*
X196359344Y-196300057D01*
X196359344Y-195871486D01*
X196430773Y-195728629D01*
X196502201Y-195657200D01*
X196645059Y-195585771D01*
X196930773Y-195585771D01*
X197073630Y-195657200D01*
X198359344Y-196585771D02*
X198359344Y-195800057D01*
X198287915Y-195657200D01*
X198145058Y-195585771D01*
X197859344Y-195585771D01*
X197716487Y-195657200D01*
X198359344Y-196514343D02*
X198216487Y-196585771D01*
X197859344Y-196585771D01*
X197716487Y-196514343D01*
X197645058Y-196371486D01*
X197645058Y-196228629D01*
X197716487Y-196085771D01*
X197859344Y-196014343D01*
X198216487Y-196014343D01*
X198359344Y-195942914D01*
X199716487Y-196585771D02*
X199716487Y-195085771D01*
X199716487Y-196514343D02*
X199573630Y-196585771D01*
X199287916Y-196585771D01*
X199145058Y-196514343D01*
X199073630Y-196442914D01*
X199002201Y-196300057D01*
X199002201Y-195871486D01*
X199073630Y-195728629D01*
X199145058Y-195657200D01*
X199287916Y-195585771D01*
X199573630Y-195585771D01*
X199716487Y-195657200D01*
X202216487Y-195585771D02*
X202216487Y-196585771D01*
X201859344Y-195014343D02*
X201502201Y-196085771D01*
X202430773Y-196085771D01*
X203002201Y-196442914D02*
X203073629Y-196514343D01*
X203002201Y-196585771D01*
X202930772Y-196514343D01*
X203002201Y-196442914D01*
X203002201Y-196585771D01*
X204002201Y-195085771D02*
X204145058Y-195085771D01*
X204287915Y-195157200D01*
X204359344Y-195228629D01*
X204430773Y-195371486D01*
X204502201Y-195657200D01*
X204502201Y-196014343D01*
X204430773Y-196300057D01*
X204359344Y-196442914D01*
X204287915Y-196514343D01*
X204145058Y-196585771D01*
X204002201Y-196585771D01*
X203859344Y-196514343D01*
X203787915Y-196442914D01*
X203716487Y-196300057D01*
X203645058Y-196014343D01*
X203645058Y-195657200D01*
X203716487Y-195371486D01*
X203787915Y-195228629D01*
X203859344Y-195157200D01*
X204002201Y-195085771D01*
X205145058Y-196442914D02*
X205216486Y-196514343D01*
X205145058Y-196585771D01*
X205073629Y-196514343D01*
X205145058Y-196442914D01*
X205145058Y-196585771D01*
X205787915Y-195228629D02*
X205859344Y-195157200D01*
X206002201Y-195085771D01*
X206359344Y-195085771D01*
X206502201Y-195157200D01*
X206573630Y-195228629D01*
X206645058Y-195371486D01*
X206645058Y-195514343D01*
X206573630Y-195728629D01*
X205716487Y-196585771D01*
X206645058Y-196585771D01*
X207287915Y-196014343D02*
X208430772Y-196014343D01*
X209073629Y-196514343D02*
X209216486Y-196585771D01*
X209502201Y-196585771D01*
X209645058Y-196514343D01*
X209716486Y-196371486D01*
X209716486Y-196300057D01*
X209645058Y-196157200D01*
X209502201Y-196085771D01*
X209287915Y-196085771D01*
X209145058Y-196014343D01*
X209073629Y-195871486D01*
X209073629Y-195800057D01*
X209145058Y-195657200D01*
X209287915Y-195585771D01*
X209502201Y-195585771D01*
X209645058Y-195657200D01*
X210145058Y-195585771D02*
X210716487Y-195585771D01*
X210359344Y-195085771D02*
X210359344Y-196371486D01*
X210430772Y-196514343D01*
X210573630Y-196585771D01*
X210716487Y-196585771D01*
X211859344Y-196585771D02*
X211859344Y-195800057D01*
X211787915Y-195657200D01*
X211645058Y-195585771D01*
X211359344Y-195585771D01*
X211216487Y-195657200D01*
X211859344Y-196514343D02*
X211716487Y-196585771D01*
X211359344Y-196585771D01*
X211216487Y-196514343D01*
X211145058Y-196371486D01*
X211145058Y-196228629D01*
X211216487Y-196085771D01*
X211359344Y-196014343D01*
X211716487Y-196014343D01*
X211859344Y-195942914D01*
X212573630Y-196585771D02*
X212573630Y-195085771D01*
X212573630Y-195657200D02*
X212716487Y-195585771D01*
X213002201Y-195585771D01*
X213145058Y-195657200D01*
X213216487Y-195728629D01*
X213287916Y-195871486D01*
X213287916Y-196300057D01*
X213216487Y-196442914D01*
X213145058Y-196514343D01*
X213002201Y-196585771D01*
X212716487Y-196585771D01*
X212573630Y-196514343D01*
X214145059Y-196585771D02*
X214002201Y-196514343D01*
X213930773Y-196371486D01*
X213930773Y-195085771D01*
X215287915Y-196514343D02*
X215145058Y-196585771D01*
X214859344Y-196585771D01*
X214716487Y-196514343D01*
X214645058Y-196371486D01*
X214645058Y-195800057D01*
X214716487Y-195657200D01*
X214859344Y-195585771D01*
X215145058Y-195585771D01*
X215287915Y-195657200D01*
X215359344Y-195800057D01*
X215359344Y-195942914D01*
X214645058Y-196085771D01*
X177002200Y-191507200D02*
X285002200Y-191507200D01*
D11*
X264216486Y-193785771D02*
X263716486Y-193071486D01*
X263359343Y-193785771D02*
X263359343Y-192285771D01*
X263930771Y-192285771D01*
X264073629Y-192357200D01*
X264145057Y-192428629D01*
X264216486Y-192571486D01*
X264216486Y-192785771D01*
X264145057Y-192928629D01*
X264073629Y-193000057D01*
X263930771Y-193071486D01*
X263359343Y-193071486D01*
X265430771Y-193714343D02*
X265287914Y-193785771D01*
X265002200Y-193785771D01*
X264859343Y-193714343D01*
X264787914Y-193571486D01*
X264787914Y-193000057D01*
X264859343Y-192857200D01*
X265002200Y-192785771D01*
X265287914Y-192785771D01*
X265430771Y-192857200D01*
X265502200Y-193000057D01*
X265502200Y-193142914D01*
X264787914Y-193285771D01*
X266002200Y-192785771D02*
X266359343Y-193785771D01*
X266716485Y-192785771D01*
X267287914Y-193642914D02*
X267359342Y-193714343D01*
X267287914Y-193785771D01*
X267216485Y-193714343D01*
X267287914Y-193642914D01*
X267287914Y-193785771D01*
X267287914Y-192857200D02*
X267359342Y-192928629D01*
X267287914Y-193000057D01*
X267216485Y-192928629D01*
X267287914Y-192857200D01*
X267287914Y-193000057D01*
X269930771Y-193785771D02*
X269073628Y-193785771D01*
X269502200Y-193785771D02*
X269502200Y-192285771D01*
X269359343Y-192500057D01*
X269216485Y-192642914D01*
X269073628Y-192714343D01*
X270573628Y-193642914D02*
X270645056Y-193714343D01*
X270573628Y-193785771D01*
X270502199Y-193714343D01*
X270573628Y-193642914D01*
X270573628Y-193785771D01*
X271573628Y-192285771D02*
X271716485Y-192285771D01*
X271859342Y-192357200D01*
X271930771Y-192428629D01*
X272002200Y-192571486D01*
X272073628Y-192857200D01*
X272073628Y-193214343D01*
X272002200Y-193500057D01*
X271930771Y-193642914D01*
X271859342Y-193714343D01*
X271716485Y-193785771D01*
X271573628Y-193785771D01*
X271430771Y-193714343D01*
X271359342Y-193642914D01*
X271287914Y-193500057D01*
X271216485Y-193214343D01*
X271216485Y-192857200D01*
X271287914Y-192571486D01*
X271359342Y-192428629D01*
X271430771Y-192357200D01*
X271573628Y-192285771D01*
D10*
X178287914Y-193714343D02*
X178502200Y-193785771D01*
X178859343Y-193785771D01*
X179002200Y-193714343D01*
X179073629Y-193642914D01*
X179145057Y-193500057D01*
X179145057Y-193357200D01*
X179073629Y-193214343D01*
X179002200Y-193142914D01*
X178859343Y-193071486D01*
X178573629Y-193000057D01*
X178430771Y-192928629D01*
X178359343Y-192857200D01*
X178287914Y-192714343D01*
X178287914Y-192571486D01*
X178359343Y-192428629D01*
X178430771Y-192357200D01*
X178573629Y-192285771D01*
X178930771Y-192285771D01*
X179145057Y-192357200D01*
X179787914Y-193785771D02*
X179787914Y-192785771D01*
X179787914Y-192285771D02*
X179716485Y-192357200D01*
X179787914Y-192428629D01*
X179859342Y-192357200D01*
X179787914Y-192285771D01*
X179787914Y-192428629D01*
X180359343Y-192785771D02*
X181145057Y-192785771D01*
X180359343Y-193785771D01*
X181145057Y-193785771D01*
X182287914Y-193714343D02*
X182145057Y-193785771D01*
X181859343Y-193785771D01*
X181716486Y-193714343D01*
X181645057Y-193571486D01*
X181645057Y-193000057D01*
X181716486Y-192857200D01*
X181859343Y-192785771D01*
X182145057Y-192785771D01*
X182287914Y-192857200D01*
X182359343Y-193000057D01*
X182359343Y-193142914D01*
X181645057Y-193285771D01*
X183002200Y-193642914D02*
X183073628Y-193714343D01*
X183002200Y-193785771D01*
X182930771Y-193714343D01*
X183002200Y-193642914D01*
X183002200Y-193785771D01*
X183002200Y-192857200D02*
X183073628Y-192928629D01*
X183002200Y-193000057D01*
X182930771Y-192928629D01*
X183002200Y-192857200D01*
X183002200Y-193000057D01*
X184787914Y-193357200D02*
X185502200Y-193357200D01*
X184645057Y-193785771D02*
X185145057Y-192285771D01*
X185645057Y-193785771D01*
X186787914Y-192785771D02*
X186787914Y-193785771D01*
X186430771Y-192214343D02*
X186073628Y-193285771D01*
X187002200Y-193285771D01*
X263359343Y-196585771D02*
X263359343Y-195085771D01*
X264716486Y-196585771D02*
X264716486Y-195085771D01*
X264716486Y-196514343D02*
X264573629Y-196585771D01*
X264287915Y-196585771D01*
X264145057Y-196514343D01*
X264073629Y-196442914D01*
X264002200Y-196300057D01*
X264002200Y-195871486D01*
X264073629Y-195728629D01*
X264145057Y-195657200D01*
X264287915Y-195585771D01*
X264573629Y-195585771D01*
X264716486Y-195657200D01*
X265430772Y-196442914D02*
X265502200Y-196514343D01*
X265430772Y-196585771D01*
X265359343Y-196514343D01*
X265430772Y-196442914D01*
X265430772Y-196585771D01*
X265430772Y-195657200D02*
X265502200Y-195728629D01*
X265430772Y-195800057D01*
X265359343Y-195728629D01*
X265430772Y-195657200D01*
X265430772Y-195800057D01*
X268073629Y-196585771D02*
X267216486Y-196585771D01*
X267645058Y-196585771D02*
X267645058Y-195085771D01*
X267502201Y-195300057D01*
X267359343Y-195442914D01*
X267216486Y-195514343D01*
X269787914Y-195014343D02*
X268502200Y-196942914D01*
X271073629Y-196585771D02*
X270216486Y-196585771D01*
X270645058Y-196585771D02*
X270645058Y-195085771D01*
X270502201Y-195300057D01*
X270359343Y-195442914D01*
X270216486Y-195514343D01*
X177002200Y-187507200D02*
X285002200Y-187507200D01*
D12*
X178454581Y-188211962D02*
X179597438Y-188211962D01*
X178776010Y-190211962D02*
X179026010Y-188211962D01*
X180014105Y-190211962D02*
X180180771Y-188878629D01*
X180264105Y-188211962D02*
X180156962Y-188307200D01*
X180240295Y-188402438D01*
X180347439Y-188307200D01*
X180264105Y-188211962D01*
X180240295Y-188402438D01*
X180847438Y-188878629D02*
X181609343Y-188878629D01*
X181216486Y-188211962D02*
X181002200Y-189926248D01*
X181073630Y-190116724D01*
X181252201Y-190211962D01*
X181442677Y-190211962D01*
X182395058Y-190211962D02*
X182216487Y-190116724D01*
X182145057Y-189926248D01*
X182359343Y-188211962D01*
X183930772Y-190116724D02*
X183728391Y-190211962D01*
X183347439Y-190211962D01*
X183168867Y-190116724D01*
X183097438Y-189926248D01*
X183192676Y-189164343D01*
X183311724Y-188973867D01*
X183514105Y-188878629D01*
X183895057Y-188878629D01*
X184073629Y-188973867D01*
X184145057Y-189164343D01*
X184121248Y-189354819D01*
X183145057Y-189545295D01*
X184895057Y-190021486D02*
X184978392Y-190116724D01*
X184871248Y-190211962D01*
X184787915Y-190116724D01*
X184895057Y-190021486D01*
X184871248Y-190211962D01*
X185026010Y-188973867D02*
X185109344Y-189069105D01*
X185002200Y-189164343D01*
X184918867Y-189069105D01*
X185026010Y-188973867D01*
X185002200Y-189164343D01*
X187323629Y-189640533D02*
X188276010Y-189640533D01*
X187061725Y-190211962D02*
X187978392Y-188211962D01*
X188395059Y-190211962D01*
X189121249Y-188211962D02*
X190454583Y-188211962D01*
X188871249Y-190211962D01*
X190204583Y-190211962D01*
X191597440Y-188211962D02*
X191978392Y-188211962D01*
X192156963Y-188307200D01*
X192323631Y-188497676D01*
X192371249Y-188878629D01*
X192287916Y-189545295D01*
X192145059Y-189926248D01*
X191930773Y-190116724D01*
X191728392Y-190211962D01*
X191347440Y-190211962D01*
X191168869Y-190116724D01*
X191002201Y-189926248D01*
X190954582Y-189545295D01*
X191037915Y-188878629D01*
X191180773Y-188497676D01*
X191395059Y-188307200D01*
X191597440Y-188211962D01*
X194204583Y-190211962D02*
X193656963Y-189259581D01*
X193061725Y-190211962D02*
X193311725Y-188211962D01*
X194073630Y-188211962D01*
X194252201Y-188307200D01*
X194335535Y-188402438D01*
X194406964Y-188592914D01*
X194371249Y-188878629D01*
X194252202Y-189069105D01*
X194145058Y-189164343D01*
X193942677Y-189259581D01*
X193180772Y-189259581D01*
D10*
X178859343Y-185600057D02*
X178359343Y-185600057D01*
X178359343Y-186385771D02*
X178359343Y-184885771D01*
X179073629Y-184885771D01*
X179645057Y-186385771D02*
X179645057Y-185385771D01*
X179645057Y-184885771D02*
X179573628Y-184957200D01*
X179645057Y-185028629D01*
X179716485Y-184957200D01*
X179645057Y-184885771D01*
X179645057Y-185028629D01*
X180573629Y-186385771D02*
X180430771Y-186314343D01*
X180359343Y-186171486D01*
X180359343Y-184885771D01*
X181716485Y-186314343D02*
X181573628Y-186385771D01*
X181287914Y-186385771D01*
X181145057Y-186314343D01*
X181073628Y-186171486D01*
X181073628Y-185600057D01*
X181145057Y-185457200D01*
X181287914Y-185385771D01*
X181573628Y-185385771D01*
X181716485Y-185457200D01*
X181787914Y-185600057D01*
X181787914Y-185742914D01*
X181073628Y-185885771D01*
X182430771Y-186242914D02*
X182502199Y-186314343D01*
X182430771Y-186385771D01*
X182359342Y-186314343D01*
X182430771Y-186242914D01*
X182430771Y-186385771D01*
X182430771Y-185457200D02*
X182502199Y-185528629D01*
X182430771Y-185600057D01*
X182359342Y-185528629D01*
X182430771Y-185457200D01*
X182430771Y-185600057D01*
X184216485Y-185957200D02*
X184930771Y-185957200D01*
X184073628Y-186385771D02*
X184573628Y-184885771D01*
X185073628Y-186385771D01*
X185430771Y-185385771D02*
X186216485Y-185385771D01*
X185430771Y-186385771D01*
X186216485Y-186385771D01*
X187002200Y-186385771D02*
X186859342Y-186314343D01*
X186787914Y-186242914D01*
X186716485Y-186100057D01*
X186716485Y-185671486D01*
X186787914Y-185528629D01*
X186859342Y-185457200D01*
X187002200Y-185385771D01*
X187216485Y-185385771D01*
X187359342Y-185457200D01*
X187430771Y-185528629D01*
X187502200Y-185671486D01*
X187502200Y-186100057D01*
X187430771Y-186242914D01*
X187359342Y-186314343D01*
X187216485Y-186385771D01*
X187002200Y-186385771D01*
X188145057Y-186385771D02*
X188145057Y-185385771D01*
X188145057Y-185671486D02*
X188216485Y-185528629D01*
X188287914Y-185457200D01*
X188430771Y-185385771D01*
X188573628Y-185385771D01*
X188716485Y-186528629D02*
X189859342Y-186528629D01*
X191002199Y-186385771D02*
X190145056Y-186385771D01*
X190573628Y-186385771D02*
X190573628Y-184885771D01*
X190430771Y-185100057D01*
X190287913Y-185242914D01*
X190145056Y-185314343D01*
X191645056Y-186242914D02*
X191716484Y-186314343D01*
X191645056Y-186385771D01*
X191573627Y-186314343D01*
X191645056Y-186242914D01*
X191645056Y-186385771D01*
X192645056Y-184885771D02*
X192787913Y-184885771D01*
X192930770Y-184957200D01*
X193002199Y-185028629D01*
X193073628Y-185171486D01*
X193145056Y-185457200D01*
X193145056Y-185814343D01*
X193073628Y-186100057D01*
X193002199Y-186242914D01*
X192930770Y-186314343D01*
X192787913Y-186385771D01*
X192645056Y-186385771D01*
X192502199Y-186314343D01*
X192430770Y-186242914D01*
X192359342Y-186100057D01*
X192287913Y-185814343D01*
X192287913Y-185457200D01*
X192359342Y-185171486D01*
X192430770Y-185028629D01*
X192502199Y-184957200D01*
X192645056Y-184885771D01*
X193787913Y-186242914D02*
X193859341Y-186314343D01*
X193787913Y-186385771D01*
X193716484Y-186314343D01*
X193787913Y-186242914D01*
X193787913Y-186385771D01*
X194502199Y-186385771D02*
X194502199Y-184885771D01*
X194645056Y-185814343D02*
X195073627Y-186385771D01*
X195073627Y-185385771D02*
X194502199Y-185957200D01*
X195716485Y-186385771D02*
X195716485Y-185385771D01*
X195716485Y-184885771D02*
X195645056Y-184957200D01*
X195716485Y-185028629D01*
X195787913Y-184957200D01*
X195716485Y-184885771D01*
X195716485Y-185028629D01*
X197073628Y-186314343D02*
X196930771Y-186385771D01*
X196645057Y-186385771D01*
X196502199Y-186314343D01*
X196430771Y-186242914D01*
X196359342Y-186100057D01*
X196359342Y-185671486D01*
X196430771Y-185528629D01*
X196502199Y-185457200D01*
X196645057Y-185385771D01*
X196930771Y-185385771D01*
X197073628Y-185457200D01*
X198359342Y-186385771D02*
X198359342Y-185600057D01*
X198287913Y-185457200D01*
X198145056Y-185385771D01*
X197859342Y-185385771D01*
X197716485Y-185457200D01*
X198359342Y-186314343D02*
X198216485Y-186385771D01*
X197859342Y-186385771D01*
X197716485Y-186314343D01*
X197645056Y-186171486D01*
X197645056Y-186028629D01*
X197716485Y-185885771D01*
X197859342Y-185814343D01*
X198216485Y-185814343D01*
X198359342Y-185742914D01*
X199716485Y-186385771D02*
X199716485Y-184885771D01*
X199716485Y-186314343D02*
X199573628Y-186385771D01*
X199287914Y-186385771D01*
X199145056Y-186314343D01*
X199073628Y-186242914D01*
X199002199Y-186100057D01*
X199002199Y-185671486D01*
X199073628Y-185528629D01*
X199145056Y-185457200D01*
X199287914Y-185385771D01*
X199573628Y-185385771D01*
X199716485Y-185457200D01*
X200073628Y-186528629D02*
X201216485Y-186528629D01*
X201573628Y-185385771D02*
X201573628Y-186885771D01*
X201573628Y-185457200D02*
X201716485Y-185385771D01*
X202002199Y-185385771D01*
X202145056Y-185457200D01*
X202216485Y-185528629D01*
X202287914Y-185671486D01*
X202287914Y-186100057D01*
X202216485Y-186242914D01*
X202145056Y-186314343D01*
X202002199Y-186385771D01*
X201716485Y-186385771D01*
X201573628Y-186314343D01*
X203573628Y-186314343D02*
X203430771Y-186385771D01*
X203145057Y-186385771D01*
X203002199Y-186314343D01*
X202930771Y-186242914D01*
X202859342Y-186100057D01*
X202859342Y-185671486D01*
X202930771Y-185528629D01*
X203002199Y-185457200D01*
X203145057Y-185385771D01*
X203430771Y-185385771D01*
X203573628Y-185457200D01*
X204216485Y-186385771D02*
X204216485Y-184885771D01*
X204216485Y-185457200D02*
X204359342Y-185385771D01*
X204645056Y-185385771D01*
X204787913Y-185457200D01*
X204859342Y-185528629D01*
X204930771Y-185671486D01*
X204930771Y-186100057D01*
X204859342Y-186242914D01*
X204787913Y-186314343D01*
X204645056Y-186385771D01*
X204359342Y-186385771D01*
X204216485Y-186314343D01*
X177002200Y-181507200D02*
X285002200Y-181507200D01*
X178287914Y-183614343D02*
X178502200Y-183685771D01*
X178859343Y-183685771D01*
X179002200Y-183614343D01*
X179073629Y-183542914D01*
X179145057Y-183400057D01*
X179145057Y-183257200D01*
X179073629Y-183114343D01*
X179002200Y-183042914D01*
X178859343Y-182971486D01*
X178573629Y-182900057D01*
X178430771Y-182828629D01*
X178359343Y-182757200D01*
X178287914Y-182614343D01*
X178287914Y-182471486D01*
X178359343Y-182328629D01*
X178430771Y-182257200D01*
X178573629Y-182185771D01*
X178930771Y-182185771D01*
X179145057Y-182257200D01*
X179787914Y-183685771D02*
X179787914Y-182185771D01*
X180430771Y-183685771D02*
X180430771Y-182900057D01*
X180359342Y-182757200D01*
X180216485Y-182685771D01*
X180002200Y-182685771D01*
X179859342Y-182757200D01*
X179787914Y-182828629D01*
X181716485Y-183614343D02*
X181573628Y-183685771D01*
X181287914Y-183685771D01*
X181145057Y-183614343D01*
X181073628Y-183471486D01*
X181073628Y-182900057D01*
X181145057Y-182757200D01*
X181287914Y-182685771D01*
X181573628Y-182685771D01*
X181716485Y-182757200D01*
X181787914Y-182900057D01*
X181787914Y-183042914D01*
X181073628Y-183185771D01*
X183002199Y-183614343D02*
X182859342Y-183685771D01*
X182573628Y-183685771D01*
X182430771Y-183614343D01*
X182359342Y-183471486D01*
X182359342Y-182900057D01*
X182430771Y-182757200D01*
X182573628Y-182685771D01*
X182859342Y-182685771D01*
X183002199Y-182757200D01*
X183073628Y-182900057D01*
X183073628Y-183042914D01*
X182359342Y-183185771D01*
X183502199Y-182685771D02*
X184073628Y-182685771D01*
X183716485Y-182185771D02*
X183716485Y-183471486D01*
X183787913Y-183614343D01*
X183930771Y-183685771D01*
X184073628Y-183685771D01*
X184573628Y-183542914D02*
X184645056Y-183614343D01*
X184573628Y-183685771D01*
X184502199Y-183614343D01*
X184573628Y-183542914D01*
X184573628Y-183685771D01*
X184573628Y-182757200D02*
X184645056Y-182828629D01*
X184573628Y-182900057D01*
X184502199Y-182828629D01*
X184573628Y-182757200D01*
X184573628Y-182900057D01*
D11*
X178359343Y-180685771D02*
X178359343Y-179185771D01*
X178930771Y-179185771D01*
X179073629Y-179257200D01*
X179145057Y-179328629D01*
X179216486Y-179471486D01*
X179216486Y-179685771D01*
X179145057Y-179828629D01*
X179073629Y-179900057D01*
X178930771Y-179971486D01*
X178359343Y-179971486D01*
X179859343Y-180685771D02*
X179859343Y-179685771D01*
X179859343Y-179971486D02*
X179930771Y-179828629D01*
X180002200Y-179757200D01*
X180145057Y-179685771D01*
X180287914Y-179685771D01*
X181359342Y-180614343D02*
X181216485Y-180685771D01*
X180930771Y-180685771D01*
X180787914Y-180614343D01*
X180716485Y-180471486D01*
X180716485Y-179900057D01*
X180787914Y-179757200D01*
X180930771Y-179685771D01*
X181216485Y-179685771D01*
X181359342Y-179757200D01*
X181430771Y-179900057D01*
X181430771Y-180042914D01*
X180716485Y-180185771D01*
X182002199Y-180614343D02*
X182145056Y-180685771D01*
X182430771Y-180685771D01*
X182573628Y-180614343D01*
X182645056Y-180471486D01*
X182645056Y-180400057D01*
X182573628Y-180257200D01*
X182430771Y-180185771D01*
X182216485Y-180185771D01*
X182073628Y-180114343D01*
X182002199Y-179971486D01*
X182002199Y-179900057D01*
X182073628Y-179757200D01*
X182216485Y-179685771D01*
X182430771Y-179685771D01*
X182573628Y-179757200D01*
X183502200Y-180685771D02*
X183359342Y-180614343D01*
X183287914Y-180542914D01*
X183216485Y-180400057D01*
X183216485Y-179971486D01*
X183287914Y-179828629D01*
X183359342Y-179757200D01*
X183502200Y-179685771D01*
X183716485Y-179685771D01*
X183859342Y-179757200D01*
X183930771Y-179828629D01*
X184002200Y-179971486D01*
X184002200Y-180400057D01*
X183930771Y-180542914D01*
X183859342Y-180614343D01*
X183716485Y-180685771D01*
X183502200Y-180685771D01*
X184859343Y-180685771D02*
X184716485Y-180614343D01*
X184645057Y-180471486D01*
X184645057Y-179185771D01*
X185430771Y-180685771D02*
X185430771Y-179685771D01*
X185430771Y-179185771D02*
X185359342Y-179257200D01*
X185430771Y-179328629D01*
X185502199Y-179257200D01*
X185430771Y-179185771D01*
X185430771Y-179328629D01*
X186787914Y-180685771D02*
X186787914Y-179185771D01*
X186787914Y-180614343D02*
X186645057Y-180685771D01*
X186359343Y-180685771D01*
X186216485Y-180614343D01*
X186145057Y-180542914D01*
X186073628Y-180400057D01*
X186073628Y-179971486D01*
X186145057Y-179828629D01*
X186216485Y-179757200D01*
X186359343Y-179685771D01*
X186645057Y-179685771D01*
X186787914Y-179757200D01*
X187287914Y-179185771D02*
X188145057Y-179185771D01*
X187716486Y-180685771D02*
X187716486Y-179185771D01*
X189216485Y-180614343D02*
X189073628Y-180685771D01*
X188787914Y-180685771D01*
X188645057Y-180614343D01*
X188573628Y-180471486D01*
X188573628Y-179900057D01*
X188645057Y-179757200D01*
X188787914Y-179685771D01*
X189073628Y-179685771D01*
X189216485Y-179757200D01*
X189287914Y-179900057D01*
X189287914Y-180042914D01*
X188573628Y-180185771D01*
X190573628Y-180614343D02*
X190430771Y-180685771D01*
X190145057Y-180685771D01*
X190002199Y-180614343D01*
X189930771Y-180542914D01*
X189859342Y-180400057D01*
X189859342Y-179971486D01*
X189930771Y-179828629D01*
X190002199Y-179757200D01*
X190145057Y-179685771D01*
X190430771Y-179685771D01*
X190573628Y-179757200D01*
X191216485Y-179685771D02*
X191216485Y-180685771D01*
X191216485Y-179828629D02*
X191287913Y-179757200D01*
X191430771Y-179685771D01*
X191645056Y-179685771D01*
X191787913Y-179757200D01*
X191859342Y-179900057D01*
X191859342Y-180685771D01*
X192787914Y-180685771D02*
X192645056Y-180614343D01*
X192573628Y-180542914D01*
X192502199Y-180400057D01*
X192502199Y-179971486D01*
X192573628Y-179828629D01*
X192645056Y-179757200D01*
X192787914Y-179685771D01*
X193002199Y-179685771D01*
X193145056Y-179757200D01*
X193216485Y-179828629D01*
X193287914Y-179971486D01*
X193287914Y-180400057D01*
X193216485Y-180542914D01*
X193145056Y-180614343D01*
X193002199Y-180685771D01*
X192787914Y-180685771D01*
X194145057Y-180685771D02*
X194002199Y-180614343D01*
X193930771Y-180471486D01*
X193930771Y-179185771D01*
X194930771Y-180685771D02*
X194787913Y-180614343D01*
X194716485Y-180542914D01*
X194645056Y-180400057D01*
X194645056Y-179971486D01*
X194716485Y-179828629D01*
X194787913Y-179757200D01*
X194930771Y-179685771D01*
X195145056Y-179685771D01*
X195287913Y-179757200D01*
X195359342Y-179828629D01*
X195430771Y-179971486D01*
X195430771Y-180400057D01*
X195359342Y-180542914D01*
X195287913Y-180614343D01*
X195145056Y-180685771D01*
X194930771Y-180685771D01*
X196716485Y-179685771D02*
X196716485Y-180900057D01*
X196645056Y-181042914D01*
X196573628Y-181114343D01*
X196430771Y-181185771D01*
X196216485Y-181185771D01*
X196073628Y-181114343D01*
X196716485Y-180614343D02*
X196573628Y-180685771D01*
X196287914Y-180685771D01*
X196145056Y-180614343D01*
X196073628Y-180542914D01*
X196002199Y-180400057D01*
X196002199Y-179971486D01*
X196073628Y-179828629D01*
X196145056Y-179757200D01*
X196287914Y-179685771D01*
X196573628Y-179685771D01*
X196716485Y-179757200D01*
X197430771Y-180685771D02*
X197430771Y-179685771D01*
X197430771Y-179185771D02*
X197359342Y-179257200D01*
X197430771Y-179328629D01*
X197502199Y-179257200D01*
X197430771Y-179185771D01*
X197430771Y-179328629D01*
X198716485Y-180614343D02*
X198573628Y-180685771D01*
X198287914Y-180685771D01*
X198145057Y-180614343D01*
X198073628Y-180471486D01*
X198073628Y-179900057D01*
X198145057Y-179757200D01*
X198287914Y-179685771D01*
X198573628Y-179685771D01*
X198716485Y-179757200D01*
X198787914Y-179900057D01*
X198787914Y-180042914D01*
X198073628Y-180185771D01*
X199359342Y-180614343D02*
X199502199Y-180685771D01*
X199787914Y-180685771D01*
X199930771Y-180614343D01*
X200002199Y-180471486D01*
X200002199Y-180400057D01*
X199930771Y-180257200D01*
X199787914Y-180185771D01*
X199573628Y-180185771D01*
X199430771Y-180114343D01*
X199359342Y-179971486D01*
X199359342Y-179900057D01*
X199430771Y-179757200D01*
X199573628Y-179685771D01*
X199787914Y-179685771D01*
X199930771Y-179757200D01*
D10*
X197002200Y-191507200D02*
X197002200Y-194507200D01*
X261002200Y-191507200D02*
X261002200Y-198007200D01*
D13*
X84180000Y-126830000D03*
D14*
X84180000Y-130330000D03*
D15*
X143275000Y-137490000D03*
D16*
X142475000Y-139770000D03*
X148125000Y-139770000D03*
D15*
X147325000Y-137490000D03*
D17*
X106019600Y-94297500D03*
X103479600Y-94297500D03*
X100939600Y-94297500D03*
X98399600Y-94297500D03*
X95859600Y-94297500D03*
X93319600Y-94297500D03*
X90779600Y-94297500D03*
X88239600Y-94297500D03*
X88239600Y-94297500D03*
X90779600Y-94297500D03*
X93319600Y-94297500D03*
X95859600Y-94297500D03*
X98399600Y-94297500D03*
X100939600Y-94297500D03*
X103479600Y-94297500D03*
X106019600Y-94297500D03*
X106019600Y-106997500D03*
X103479600Y-106997500D03*
X100939600Y-106997500D03*
X98399600Y-106997500D03*
X95859600Y-106997500D03*
X93319600Y-106997500D03*
X90779600Y-106997500D03*
D18*
X88239600Y-106997500D03*
X88239600Y-106997500D03*
D17*
X90779600Y-106997500D03*
X93319600Y-106997500D03*
X95859600Y-106997500D03*
X98399600Y-106997500D03*
X100939600Y-106997500D03*
X103479600Y-106997500D03*
X106019600Y-106997500D03*
X106019600Y-110299500D03*
X103479600Y-110299500D03*
X100939600Y-110299500D03*
X98399600Y-110299500D03*
X95859600Y-110299500D03*
X93319600Y-110299500D03*
X90779600Y-110299500D03*
X88239600Y-110299500D03*
X88239600Y-110299500D03*
X90779600Y-110299500D03*
X93319600Y-110299500D03*
X95859600Y-110299500D03*
X98399600Y-110299500D03*
X100939600Y-110299500D03*
X103479600Y-110299500D03*
X106019600Y-110299500D03*
X106019600Y-122999500D03*
X103479600Y-122999500D03*
X100939600Y-122999500D03*
X98399600Y-122999500D03*
X95859600Y-122999500D03*
X93319600Y-122999500D03*
X90779600Y-122999500D03*
D18*
X88239600Y-122999500D03*
X88239600Y-122999500D03*
D17*
X90779600Y-122999500D03*
X93319600Y-122999500D03*
X95859600Y-122999500D03*
X98399600Y-122999500D03*
X100939600Y-122999500D03*
X103479600Y-122999500D03*
X106019600Y-122999500D03*
X106146600Y-46291500D03*
X103606600Y-46291500D03*
X101066600Y-46291500D03*
X98526600Y-46291500D03*
X95986600Y-46291500D03*
X93446600Y-46291500D03*
X90906600Y-46291500D03*
X88366600Y-46291500D03*
X88366600Y-46291500D03*
X90906600Y-46291500D03*
X93446600Y-46291500D03*
X95986600Y-46291500D03*
X98526600Y-46291500D03*
X101066600Y-46291500D03*
X103606600Y-46291500D03*
X106146600Y-46291500D03*
X106146600Y-58991500D03*
X103606600Y-58991500D03*
X101066600Y-58991500D03*
X98526600Y-58991500D03*
X95986600Y-58991500D03*
X93446600Y-58991500D03*
X90906600Y-58991500D03*
D18*
X88366600Y-58991500D03*
X88366600Y-58991500D03*
D17*
X90906600Y-58991500D03*
X93446600Y-58991500D03*
X95986600Y-58991500D03*
X98526600Y-58991500D03*
X101066600Y-58991500D03*
X103606600Y-58991500D03*
X106146600Y-58991500D03*
D19*
X120243600Y-50342800D03*
D20*
X126593600Y-50342800D03*
D21*
X140500000Y-66500000D03*
D22*
X143040000Y-66500000D03*
D19*
X154127200Y-50393600D03*
D20*
X160477200Y-50393600D03*
D23*
X176209960Y-40863520D03*
X176109960Y-137662020D03*
X84211160Y-40863520D03*
D17*
X106019600Y-78295500D03*
X103479600Y-78295500D03*
X100939600Y-78295500D03*
X98399600Y-78295500D03*
X95859600Y-78295500D03*
X93319600Y-78295500D03*
X90779600Y-78295500D03*
X88239600Y-78295500D03*
X88239600Y-78295500D03*
X90779600Y-78295500D03*
X93319600Y-78295500D03*
X95859600Y-78295500D03*
X98399600Y-78295500D03*
X100939600Y-78295500D03*
X103479600Y-78295500D03*
X106019600Y-78295500D03*
X106019600Y-90995500D03*
X103479600Y-90995500D03*
X100939600Y-90995500D03*
X98399600Y-90995500D03*
X95859600Y-90995500D03*
X93319600Y-90995500D03*
X90779600Y-90995500D03*
D18*
X88239600Y-90995500D03*
X88239600Y-90995500D03*
D17*
X90779600Y-90995500D03*
X93319600Y-90995500D03*
X95859600Y-90995500D03*
X98399600Y-90995500D03*
X100939600Y-90995500D03*
X103479600Y-90995500D03*
X106019600Y-90995500D03*
X106146600Y-62420500D03*
X103606600Y-62420500D03*
X101066600Y-62420500D03*
X98526600Y-62420500D03*
X95986600Y-62420500D03*
X93446600Y-62420500D03*
X90906600Y-62420500D03*
X88366600Y-62420500D03*
X88366600Y-62420500D03*
X90906600Y-62420500D03*
X93446600Y-62420500D03*
X95986600Y-62420500D03*
X98526600Y-62420500D03*
X101066600Y-62420500D03*
X103606600Y-62420500D03*
X106146600Y-62420500D03*
X106146600Y-75120500D03*
X103606600Y-75120500D03*
X101066600Y-75120500D03*
X98526600Y-75120500D03*
X95986600Y-75120500D03*
X93446600Y-75120500D03*
X90906600Y-75120500D03*
D18*
X88366600Y-75120500D03*
X88366600Y-75120500D03*
D17*
X90906600Y-75120500D03*
X93446600Y-75120500D03*
X95986600Y-75120500D03*
X98526600Y-75120500D03*
X101066600Y-75120500D03*
X103606600Y-75120500D03*
X106146600Y-75120500D03*
D13*
X84190000Y-134770000D03*
D14*
X84190000Y-138270000D03*
D24*
X132550000Y-140750000D03*
X134250000Y-140750000D03*
X152460000Y-140750000D03*
X154160000Y-140750000D03*
D25*
X174950000Y-52450000D03*
D26*
X177490000Y-52450000D03*
X174950000Y-54990000D03*
X177490000Y-54990000D03*
X174950000Y-57530000D03*
X177490000Y-57530000D03*
X174950000Y-60070000D03*
X177490000Y-60070000D03*
X174950000Y-62610000D03*
X177490000Y-62610000D03*
X174950000Y-65150000D03*
X177490000Y-65150000D03*
X174950000Y-67690000D03*
X177490000Y-67690000D03*
X174950000Y-70230000D03*
X177490000Y-70230000D03*
X174950000Y-72770000D03*
X177490000Y-72770000D03*
X174950000Y-75310000D03*
X177490000Y-75310000D03*
X174950000Y-77850000D03*
X177490000Y-77850000D03*
X174950000Y-80390000D03*
X177490000Y-80390000D03*
X174950000Y-82930000D03*
X177490000Y-82930000D03*
X174950000Y-85470000D03*
X177490000Y-85470000D03*
X174950000Y-88010000D03*
X177490000Y-88010000D03*
X174950000Y-90550000D03*
X177490000Y-90550000D03*
X174950000Y-93090000D03*
X177490000Y-93090000D03*
X174950000Y-95630000D03*
X177490000Y-95630000D03*
D27*
X83500000Y-46400000D03*
D28*
X83500000Y-48940000D03*
X83500000Y-51480000D03*
X83500000Y-54020000D03*
X83500000Y-56560000D03*
X83500000Y-59100000D03*
X83500000Y-61640000D03*
D27*
X83500000Y-65100000D03*
D28*
X83500000Y-67640000D03*
X83500000Y-70180000D03*
X83500000Y-72720000D03*
X83500000Y-75260000D03*
X83500000Y-77800000D03*
X83500000Y-80340000D03*
D27*
X83500000Y-83600000D03*
D28*
X83500000Y-86140000D03*
X83500000Y-88680000D03*
X83500000Y-91220000D03*
X83500000Y-93760000D03*
X83500000Y-96300000D03*
X83500000Y-98840000D03*
D27*
X83500000Y-113000000D03*
D28*
X83500000Y-115540000D03*
X83500000Y-118080000D03*
X83500000Y-120620000D03*
D27*
X83500000Y-102050000D03*
D28*
X83500000Y-104590000D03*
X83500000Y-107130000D03*
X83500000Y-109670000D03*
D29*
X168362860Y-132497880D03*
X165822860Y-132497880D03*
X163790860Y-132497880D03*
X161250860Y-132497880D03*
D30*
X171410860Y-135164880D03*
X157694860Y-135164880D03*
D31*
X134500000Y-62300000D03*
X169350000Y-103200000D03*
D32*
X116650000Y-85900000D03*
D33*
X116650000Y-88440000D03*
D32*
X116700000Y-93600000D03*
D33*
X116700000Y-96140000D03*
D32*
X168450000Y-40700000D03*
D33*
X165910000Y-40700000D03*
D32*
X176300000Y-99300000D03*
D33*
X176300000Y-101840000D03*
D32*
X176300000Y-105150000D03*
D33*
X176300000Y-107690000D03*
D34*
X89610000Y-40930000D03*
D35*
X92150000Y-40930000D03*
X94690000Y-40930000D03*
X97230000Y-40930000D03*
D36*
X100700000Y-40900000D03*
D37*
X103240000Y-40900000D03*
X105780000Y-40900000D03*
X108320000Y-40900000D03*
D38*
X176750000Y-121750000D03*
D39*
X176750000Y-124290000D03*
X176750000Y-126830000D03*
X176750000Y-129370000D03*
X176750000Y-131910000D03*
D40*
X150850000Y-137660000D03*
X107950000Y-86868000D03*
X106680000Y-69596000D03*
X107188000Y-56388000D03*
X127850000Y-139250000D03*
X154350000Y-118250000D03*
X159800000Y-128150000D03*
X164650000Y-121450000D03*
X120850000Y-67050000D03*
X136239700Y-122864900D03*
X144101820Y-79301340D03*
X146199860Y-76903580D03*
X142610840Y-79532480D03*
X140860780Y-78041500D03*
X141450060Y-79522320D03*
X146291300Y-81473040D03*
X145549620Y-82903060D03*
X144360900Y-84101940D03*
X141401800Y-81422240D03*
X135709660Y-104561640D03*
X142910560Y-77993240D03*
X141980920Y-80533240D03*
X142600680Y-81401920D03*
X146291300Y-79321660D03*
X144170400Y-81493360D03*
X128960880Y-128612900D03*
X142041880Y-82191860D03*
X144040860Y-76842620D03*
X144990820Y-78003400D03*
X145219420Y-80523080D03*
X141960600Y-76913740D03*
X133621780Y-53352700D03*
X137210800Y-129113280D03*
X135211820Y-127612140D03*
X110744000Y-74295000D03*
X109474000Y-79502000D03*
X111379000Y-91186000D03*
X108331000Y-118237000D03*
X109093000Y-129159000D03*
X104775000Y-120523000D03*
X121412000Y-137160000D03*
X158369000Y-110871000D03*
X164465000Y-106553000D03*
X151765000Y-106172000D03*
X154560000Y-134230000D03*
X142880000Y-74070000D03*
X121680000Y-130430000D03*
X134190740Y-50332640D03*
X93091000Y-88519000D03*
X105410000Y-130556000D03*
X103380000Y-101070000D03*
X96270000Y-116740000D03*
X141410000Y-74110000D03*
X126030000Y-65490000D03*
X119405400Y-58445400D03*
X93170000Y-56400000D03*
X131500000Y-118000000D03*
X136750000Y-111600000D03*
X132461000Y-124612400D03*
X137010140Y-104762300D03*
X123710700Y-111861600D03*
X154211020Y-103863140D03*
X132461000Y-128861820D03*
X135709660Y-129113280D03*
X156305700Y-122077500D03*
X149310000Y-117770000D03*
X172480000Y-97620000D03*
X149480000Y-123280000D03*
X150411180Y-121963180D03*
X148082000Y-130683000D03*
X156570000Y-131010000D03*
X157708600Y-48031400D03*
X142392400Y-54762400D03*
X147111720Y-43761660D03*
X147172680Y-42189400D03*
X153390600Y-47091600D03*
X147962620Y-42989500D03*
X144520920Y-41412160D03*
X148041360Y-44681140D03*
X146110960Y-41445180D03*
X145161000Y-48615600D03*
X149814280Y-46222920D03*
X155448000Y-42570400D03*
X148844000Y-52476400D03*
X147218400Y-45537120D03*
X145618200Y-42212260D03*
X156972000Y-40767000D03*
X151714200Y-42697400D03*
X157200600Y-52070000D03*
X149654260Y-42976800D03*
X147881340Y-41399460D03*
X146316700Y-44658280D03*
X155981400Y-50063400D03*
X144703800Y-44714160D03*
X149664420Y-41376600D03*
X158165800Y-42570400D03*
X142671800Y-51003200D03*
X148772880Y-42257980D03*
X144818100Y-42999660D03*
X154609800Y-54914800D03*
X145630900Y-43776900D03*
X148694140Y-43743880D03*
X150825200Y-54940200D03*
X147142200Y-50673000D03*
X148772880Y-45559980D03*
X146380200Y-54864000D03*
X150317200Y-50165000D03*
X144566640Y-46200060D03*
X145585180Y-45572680D03*
X153035000Y-52628800D03*
X148259800Y-48361600D03*
X144551400Y-52603400D03*
X149710140Y-44612560D03*
X146408140Y-42999660D03*
X146453860Y-46245780D03*
X157251400Y-45135800D03*
X148041360Y-46291500D03*
X153644600Y-40995600D03*
X171600000Y-48750000D03*
X171631610Y-53031390D03*
X149540000Y-97880000D03*
X165862000Y-103886000D03*
X169545000Y-111506000D03*
X130459480Y-122361960D03*
X125211840Y-125862080D03*
X129461260Y-122361960D03*
X125211840Y-123863100D03*
X126238000Y-133200000D03*
X143764000Y-133477000D03*
X122940000Y-127000000D03*
X123890000Y-127750000D03*
X144780000Y-133477000D03*
X127254000Y-133858000D03*
X88000000Y-128000000D03*
X87000000Y-128000000D03*
X86000000Y-129000000D03*
X87000000Y-129000000D03*
X88000000Y-129000000D03*
X88000000Y-132000000D03*
X87000000Y-132000000D03*
X86000000Y-132000000D03*
X86000000Y-133000000D03*
X87000000Y-133000000D03*
X88000000Y-133000000D03*
X88000000Y-134000000D03*
X87000000Y-134000000D03*
X86000000Y-134000000D03*
X91000000Y-136650000D03*
X91000000Y-135650000D03*
X92050000Y-135650000D03*
X92050000Y-136650000D03*
X93100000Y-136650000D03*
X94150000Y-136650000D03*
X95250000Y-136650000D03*
X96400000Y-136650000D03*
X97536000Y-136650000D03*
X93091000Y-135636000D03*
X94107000Y-135636000D03*
X95250000Y-135636000D03*
X96393000Y-135636000D03*
X97536000Y-135636000D03*
X94996000Y-132715000D03*
X94996000Y-131064000D03*
X90678000Y-131826000D03*
X90678000Y-131064000D03*
X91694000Y-132715000D03*
X91694000Y-131826000D03*
X94996000Y-131826000D03*
X90678000Y-130175000D03*
X94996000Y-130175000D03*
X95758000Y-132715000D03*
X95758000Y-131826000D03*
X95758000Y-131064000D03*
X95758000Y-130175000D03*
X94996000Y-129413000D03*
X95758000Y-129413000D03*
X91694000Y-129413000D03*
X90678000Y-129413000D03*
X90678000Y-132715000D03*
X82570000Y-125100000D03*
X91694000Y-130937000D03*
X91694000Y-130175000D03*
X92964000Y-131699000D03*
X126710440Y-107111800D03*
X126210060Y-107863640D03*
X125690000Y-138610000D03*
X108077000Y-129159000D03*
X131572000Y-134874000D03*
X128524000Y-137414000D03*
X126210060Y-106362500D03*
X106045000Y-138557000D03*
X106045000Y-137668000D03*
X106045000Y-136779000D03*
X106045000Y-135763000D03*
X106045000Y-134874000D03*
X106934000Y-137668000D03*
X106934000Y-135763000D03*
X106934000Y-134874000D03*
X109601000Y-134874000D03*
X110363000Y-134874000D03*
X109601000Y-135763000D03*
X110363000Y-135763000D03*
X109601000Y-136652000D03*
X110363000Y-136652000D03*
X109601000Y-137541000D03*
X110363000Y-137541000D03*
X109601000Y-138430000D03*
X110363000Y-138430000D03*
X106934000Y-138557000D03*
X106934000Y-136779000D03*
X105029000Y-132461000D03*
X110236000Y-132461000D03*
X108966000Y-132461000D03*
X107696000Y-132461000D03*
X106299000Y-132461000D03*
X101600000Y-136144000D03*
X102743000Y-136144000D03*
X103886000Y-136144000D03*
X103886000Y-137287000D03*
X102743000Y-137287000D03*
X101600000Y-137287000D03*
X101600000Y-138557000D03*
X102743000Y-138557000D03*
X103886000Y-138557000D03*
X132420000Y-134150000D03*
X138610340Y-125854460D03*
X139400000Y-126610000D03*
X132380000Y-135580000D03*
X134747000Y-133604000D03*
X128143000Y-134874000D03*
X120650000Y-130302000D03*
X125690000Y-137580000D03*
X141250000Y-128050000D03*
X130429000Y-137287000D03*
X129260000Y-136230000D03*
X162687000Y-121158000D03*
X168275000Y-114046000D03*
X123030000Y-104820000D03*
X133990000Y-113820000D03*
X143150000Y-117130000D03*
X147410000Y-117120000D03*
X123250000Y-100810000D03*
X137710000Y-109760000D03*
X172720000Y-78613000D03*
X172570000Y-87370000D03*
X151660000Y-113320000D03*
X121350000Y-104250000D03*
X140500000Y-111400000D03*
X126492000Y-127508000D03*
X161290000Y-111760000D03*
X157450000Y-120700000D03*
X156650000Y-126950000D03*
X125350000Y-97450000D03*
X171500000Y-122750000D03*
X136100000Y-79550000D03*
X131950000Y-81700000D03*
X136650000Y-82450000D03*
X122450000Y-82100000D03*
X124200000Y-86350000D03*
X130900000Y-86800000D03*
X135211820Y-122361960D03*
X132011420Y-119362220D03*
X137210800Y-124612400D03*
X131460240Y-115862100D03*
X151104600Y-111798100D03*
X147299680Y-85562440D03*
X121960640Y-120111520D03*
X135211820Y-100863400D03*
X128960880Y-109362240D03*
X127711200Y-113111280D03*
X138521440Y-53403500D03*
X121460260Y-107863640D03*
X136461500Y-99862640D03*
X127960120Y-122862340D03*
X127711200Y-117863620D03*
X150159720Y-81993740D03*
X122820000Y-99470000D03*
X124530000Y-104330000D03*
X146540000Y-62940000D03*
X147370600Y-63701000D03*
X148130000Y-62940000D03*
X148100000Y-64400000D03*
X146590000Y-64420000D03*
X142880000Y-58660000D03*
X134436300Y-126179600D03*
X133985000Y-132588000D03*
X136033960Y-133083320D03*
X87757000Y-68961000D03*
X86106000Y-66294000D03*
X87249000Y-84836000D03*
X85725000Y-82550000D03*
X87884000Y-100711000D03*
X85598000Y-98298000D03*
X90678000Y-98425000D03*
X85471000Y-114300000D03*
X90678000Y-114300000D03*
X90932000Y-50419000D03*
X89154000Y-52832000D03*
X85979000Y-50419000D03*
X118364000Y-113538000D03*
X118110000Y-116967000D03*
X119253000Y-131064000D03*
X115570000Y-136652000D03*
X115316000Y-133477000D03*
X167513000Y-106553000D03*
X138303000Y-140589000D03*
X153035000Y-105029000D03*
X115570000Y-124079000D03*
X117983000Y-125730000D03*
X117348000Y-127254000D03*
X174329900Y-113490000D03*
X174319900Y-116680000D03*
X164590000Y-57460000D03*
X165780000Y-60880000D03*
X166170000Y-57640000D03*
X125650000Y-115800000D03*
X121620000Y-118850000D03*
X157330000Y-127420000D03*
X155380000Y-132990000D03*
X155780000Y-126750000D03*
X140710920Y-108112560D03*
X150459440Y-99862640D03*
X146961860Y-103611680D03*
X148460460Y-117863620D03*
X171323000Y-94615000D03*
X153620000Y-99170000D03*
X144520100Y-102217240D03*
X147626520Y-98927940D03*
X169545000Y-88265000D03*
X164636900Y-88285340D03*
X146440000Y-102730000D03*
X145920000Y-102010000D03*
X156356500Y-125239800D03*
X157830000Y-92400000D03*
X154751590Y-95481590D03*
X144600000Y-88470000D03*
X140820000Y-88720000D03*
X134200000Y-87600000D03*
X130100000Y-87700000D03*
X125650000Y-83350000D03*
X156200000Y-95330000D03*
X135000000Y-87900000D03*
X140940000Y-87600000D03*
X144550000Y-87630000D03*
X156950000Y-94270000D03*
X170790000Y-73610000D03*
X149660000Y-101400000D03*
X145440000Y-106250000D03*
X151450000Y-118800000D03*
X165566540Y-85735180D03*
X167320000Y-97590000D03*
X152400000Y-118800000D03*
X166991480Y-84261980D03*
X169140000Y-97600000D03*
X141010640Y-124663200D03*
X139830000Y-115190000D03*
X133180000Y-137480000D03*
X128873270Y-92050000D03*
X173301660Y-60363100D03*
X135961120Y-119362220D03*
X139350000Y-100650000D03*
X142709900Y-104861360D03*
X142209520Y-108112560D03*
X162400000Y-120250000D03*
X158300000Y-120050000D03*
X132050000Y-97350000D03*
X148211540Y-114612420D03*
X158350000Y-116200000D03*
X132400000Y-96550000D03*
X148711920Y-113863120D03*
X136000000Y-97150000D03*
X130000000Y-92950000D03*
X148711920Y-112361980D03*
X147960080Y-111612680D03*
X162500000Y-110950000D03*
X129500000Y-93850000D03*
X148211540Y-113111280D03*
X150810000Y-118110000D03*
X149970000Y-118300000D03*
X142709900Y-106113580D03*
X141446700Y-108927920D03*
X135763000Y-57150000D03*
X138938000Y-57023000D03*
X130959860Y-111612680D03*
X135763000Y-56261000D03*
X138811000Y-56134000D03*
X140710920Y-97561400D03*
X173000000Y-53000000D03*
X160950000Y-124500000D03*
X155550000Y-125250000D03*
X173000000Y-48750000D03*
X171196000Y-93091000D03*
X153715720Y-98231960D03*
X150459440Y-100863400D03*
X146939000Y-132461000D03*
X178740000Y-108590000D03*
X110744000Y-130048000D03*
X110617000Y-126111000D03*
X178880000Y-46860000D03*
X126710440Y-101363780D03*
X103632000Y-92710000D03*
X127280000Y-102110000D03*
X110532000Y-94160000D03*
X110998000Y-92710000D03*
X126210060Y-100611940D03*
X110270000Y-94930000D03*
X124540000Y-105720000D03*
X95808800Y-87172800D03*
X126710440Y-95361760D03*
X111379000Y-77089000D03*
X126210060Y-96113600D03*
X126210060Y-94612460D03*
X110871000Y-75565000D03*
X92710000Y-71247000D03*
X125961140Y-99362260D03*
X125730000Y-60706000D03*
X127254000Y-61976000D03*
X126210060Y-59862720D03*
X109093000Y-55753000D03*
X152400000Y-127889000D03*
X159766000Y-109855000D03*
X164719000Y-109855000D03*
X106426000Y-53340000D03*
X128460500Y-64112140D03*
X144700000Y-126630000D03*
X162900000Y-114850000D03*
X153540000Y-65780000D03*
X152780000Y-66500000D03*
X152070000Y-65850000D03*
X152070000Y-67200000D03*
X153580000Y-67210000D03*
X144190000Y-64470000D03*
X155770000Y-65140000D03*
X98552000Y-127508000D03*
X99568000Y-136398000D03*
X140060680Y-42661840D03*
X137111740Y-47912020D03*
X152019000Y-129159000D03*
X162052000Y-116078000D03*
X167350000Y-119160000D03*
X146685000Y-126111000D03*
X148717000Y-129794000D03*
X159240000Y-127060000D03*
X151003000Y-135255000D03*
X147210780Y-108861860D03*
X136500000Y-91290000D03*
X162940000Y-124300000D03*
X136580000Y-89380000D03*
X166965000Y-124385000D03*
D41*
X141460220Y-79532480D02*
X142610840Y-79532480D01*
D42*
X134285200Y-70124800D02*
X134340600Y-70180200D01*
D41*
X144101820Y-79301340D02*
X144122140Y-79321660D01*
X141401800Y-81422240D02*
X142041880Y-82062320D01*
X141980920Y-80533240D02*
X142600680Y-81153000D01*
X145100040Y-78003400D02*
X144990820Y-78003400D01*
X140860780Y-78013560D02*
X140860780Y-78041500D01*
X141960600Y-76913740D02*
X140860780Y-78013560D01*
X146199860Y-76903580D02*
X145100040Y-78003400D01*
X142041880Y-82062320D02*
X142041880Y-82191860D01*
X142910560Y-77972920D02*
X142910560Y-77993240D01*
X144040860Y-76842620D02*
X142910560Y-77972920D01*
X144170400Y-81523840D02*
X144170400Y-81493360D01*
X145549620Y-82903060D02*
X144170400Y-81523840D01*
X141450060Y-79522320D02*
X141460220Y-79532480D01*
X142600680Y-81153000D02*
X142600680Y-81401920D01*
X144122140Y-79321660D02*
X146291300Y-79321660D01*
X146291300Y-81473040D02*
X145341340Y-80523080D01*
D42*
X130683000Y-66522600D02*
X134285200Y-70124800D01*
X130683000Y-60450000D02*
X130683000Y-66522600D01*
X133621780Y-53352700D02*
X132554980Y-54419500D01*
X132554980Y-55399940D02*
X130683000Y-57271920D01*
X132554980Y-54419500D02*
X132554980Y-55399940D01*
X130683000Y-57271920D02*
X130683000Y-60450000D01*
D41*
X145341340Y-80523080D02*
X145219420Y-80523080D01*
X109474000Y-79502000D02*
X109474000Y-79629000D01*
D42*
X111379000Y-91821000D02*
X111760000Y-92202000D01*
X111760000Y-92202000D02*
X111760000Y-100838000D01*
X111760000Y-100838000D02*
X109728000Y-102870000D01*
X111379000Y-91186000D02*
X111379000Y-91821000D01*
X109728000Y-116840000D02*
X108331000Y-118237000D01*
X109728000Y-102870000D02*
X109728000Y-116840000D01*
D41*
X109093000Y-129159000D02*
X104775000Y-124841000D01*
X104775000Y-124841000D02*
X104775000Y-120523000D01*
D43*
X166710000Y-63414000D02*
X168465500Y-61658500D01*
X168465500Y-61658500D02*
X168465500Y-59182000D01*
X168465500Y-59182000D02*
X172656500Y-54991000D01*
X172656500Y-54991000D02*
X175006000Y-54991000D01*
X151593580Y-76903580D02*
X154290000Y-79600000D01*
X154290000Y-79600000D02*
X154290000Y-81790000D01*
X154290000Y-81790000D02*
X154660000Y-81790000D01*
X154660000Y-81790000D02*
X162280000Y-74170000D01*
X162280000Y-74170000D02*
X162280000Y-70640000D01*
X162280000Y-70640000D02*
X166710000Y-66210000D01*
X146199860Y-76903580D02*
X151593580Y-76903580D01*
X166710000Y-66210000D02*
X166710000Y-63414000D01*
D42*
X134334800Y-70124800D02*
X140550000Y-76340000D01*
X140550000Y-76340000D02*
X140550000Y-76400000D01*
X140550000Y-76400000D02*
X140500000Y-76450000D01*
X134285200Y-70124800D02*
X134334800Y-70124800D01*
X103606600Y-67500500D02*
X95986600Y-75120500D01*
X103606600Y-62420500D02*
X103606600Y-67500500D01*
X103314500Y-78295500D02*
X93091000Y-88519000D01*
X103479600Y-78295500D02*
X103314500Y-78295500D01*
X103380000Y-94397100D02*
X103479600Y-94297500D01*
X103380000Y-101070000D02*
X103380000Y-94397100D01*
X100820000Y-112190000D02*
X101589100Y-112190000D01*
X96270000Y-116740000D02*
X100820000Y-112190000D01*
X101589100Y-112190000D02*
X103479600Y-110299500D01*
X120290000Y-128320000D02*
X121680000Y-129710000D01*
X121680000Y-129710000D02*
X121680000Y-130180000D01*
D44*
X103940000Y-116740000D02*
X96270000Y-116740000D01*
X117860000Y-120400000D02*
X120290000Y-122830000D01*
X107600000Y-120400000D02*
X117860000Y-120400000D01*
X103940000Y-116740000D02*
X107600000Y-120400000D01*
D42*
X121680000Y-130430000D02*
X121680000Y-130180000D01*
X120290000Y-122830000D02*
X120290000Y-128320000D01*
D44*
X113665000Y-52197000D02*
X114376200Y-52197000D01*
X103606600Y-46291500D02*
X109512100Y-52197000D01*
X113665000Y-52197000D02*
X109512100Y-52197000D01*
X119405400Y-57226200D02*
X119405400Y-58445400D01*
X114376200Y-52197000D02*
X119405400Y-57226200D01*
X94071000Y-55499000D02*
X93170000Y-56400000D01*
X103314500Y-46291500D02*
X103606600Y-46291500D01*
X103314500Y-46291500D02*
X94107000Y-55499000D01*
X94107000Y-55499000D02*
X94071000Y-55499000D01*
D42*
X136750000Y-112750000D02*
X131500000Y-118000000D01*
X136750000Y-111600000D02*
X136750000Y-112750000D01*
D41*
X176182020Y-89281000D02*
X177479960Y-87983060D01*
X173990000Y-89281000D02*
X176182020Y-89281000D01*
X173228000Y-90043000D02*
X173990000Y-89281000D01*
X168818360Y-91861640D02*
X152842500Y-107837500D01*
X170561000Y-90043000D02*
X173228000Y-90043000D01*
X168818360Y-91785640D02*
X170561000Y-90043000D01*
X168818360Y-91861640D02*
X168818360Y-91785640D01*
X152842500Y-107837500D02*
X152842500Y-114231260D01*
X149961600Y-117118400D02*
X149961600Y-117112160D01*
X152842500Y-114231260D02*
X149961600Y-117112160D01*
X149310000Y-117770000D02*
X149961600Y-117118400D01*
X172480000Y-97620000D02*
X170059000Y-99949000D01*
X165809000Y-99949000D02*
X170059000Y-99949000D01*
X165755402Y-100002598D02*
X165809000Y-99949000D01*
X156551100Y-109298900D02*
X165755402Y-100002598D01*
X154240000Y-119550000D02*
X156551100Y-117238900D01*
X156551100Y-117238900D02*
X156551100Y-109298900D01*
X149480000Y-120830000D02*
X150760000Y-119550000D01*
X150760000Y-119550000D02*
X154240000Y-119550000D01*
X149480000Y-123280000D02*
X149480000Y-120830000D01*
X157080400Y-117489600D02*
X157080400Y-109495140D01*
X174939960Y-96713040D02*
X174939960Y-95603060D01*
X171069000Y-100584000D02*
X174939960Y-96713040D01*
X170688000Y-100584000D02*
X171069000Y-100584000D01*
X165989000Y-100584000D02*
X170688000Y-100584000D01*
X157080400Y-109492600D02*
X165989000Y-100584000D01*
X157080400Y-117489600D02*
X154458480Y-120111520D01*
X157080400Y-109495140D02*
X157080400Y-109492600D01*
X154458480Y-120111520D02*
X151211280Y-120111520D01*
X150931080Y-120111520D02*
X151211280Y-120111520D01*
X150349380Y-121963180D02*
X150031900Y-121645700D01*
X150031900Y-121645700D02*
X150031900Y-121010700D01*
X150031900Y-121010700D02*
X150931080Y-120111520D01*
X150411180Y-121963180D02*
X150349380Y-121963180D01*
X148209000Y-130683000D02*
X148463000Y-130683000D01*
X148082000Y-130683000D02*
X148463000Y-130683000D01*
X155946000Y-131054000D02*
X155956000Y-131064000D01*
X155575000Y-130683000D02*
X155946000Y-131054000D01*
X148463000Y-130683000D02*
X155575000Y-130683000D01*
X156526000Y-131054000D02*
X156570000Y-131010000D01*
X155946000Y-131054000D02*
X156526000Y-131054000D01*
X156972000Y-41376600D02*
X156972000Y-40767000D01*
X145585180Y-45572680D02*
X144957800Y-46200060D01*
X157251400Y-47574200D02*
X157251400Y-45135800D01*
X148750020Y-45537120D02*
X147218400Y-45537120D01*
X144520920Y-41412160D02*
X144553940Y-41445180D01*
X148041360Y-44681140D02*
X148109940Y-44612560D01*
X147904200Y-41376600D02*
X149664420Y-41376600D01*
X147881340Y-41399460D02*
X147904200Y-41376600D01*
X145595340Y-43776900D02*
X144818100Y-42999660D01*
X146418300Y-42989500D02*
X147962620Y-42989500D01*
X148772880Y-45559980D02*
X148750020Y-45537120D01*
X147134580Y-43738800D02*
X148694140Y-43743880D01*
X157200600Y-52324000D02*
X157200600Y-52070000D01*
X144759680Y-44658280D02*
X146316700Y-44658280D01*
X146453860Y-46245780D02*
X146499580Y-46291500D01*
X150063200Y-50165000D02*
X150317200Y-50165000D01*
X148935440Y-42257980D02*
X148772880Y-42257980D01*
X153390600Y-48463200D02*
X153390600Y-47091600D01*
X147172680Y-42189400D02*
X147149820Y-42212260D01*
X147149820Y-42212260D02*
X145618200Y-42212260D01*
X144553940Y-41445180D02*
X146110960Y-41445180D01*
X147111720Y-43761660D02*
X147134580Y-43738800D01*
X154609800Y-54914800D02*
X157200600Y-52324000D01*
X147231100Y-46291500D02*
X147167600Y-46355000D01*
X157708600Y-48031400D02*
X157251400Y-47574200D01*
X158165800Y-42570400D02*
X156972000Y-41376600D01*
X145872200Y-48615600D02*
X145161000Y-48615600D01*
X148259800Y-48361600D02*
X150063200Y-50165000D01*
X155448000Y-42570400D02*
X153873200Y-40995600D01*
X148844000Y-52476400D02*
X147142200Y-50774600D01*
X142671800Y-51003200D02*
X144272000Y-52603400D01*
X145630900Y-43776900D02*
X145595340Y-43776900D01*
X144272000Y-52603400D02*
X144551400Y-52603400D01*
X147142200Y-50774600D02*
X147142200Y-50673000D01*
X142392400Y-54762400D02*
X142494000Y-54864000D01*
X150825200Y-54838600D02*
X150825200Y-54940200D01*
X153873200Y-40995600D02*
X153644600Y-40995600D01*
X142494000Y-54864000D02*
X146380200Y-54864000D01*
X146499580Y-46291500D02*
X148041360Y-46291500D01*
X148041360Y-46291500D02*
X147231100Y-46291500D01*
X149654260Y-42976800D02*
X148935440Y-42257980D01*
X147167600Y-47320200D02*
X145872200Y-48615600D01*
X146408140Y-42999660D02*
X146418300Y-42989500D01*
X153035000Y-52628800D02*
X150825200Y-54838600D01*
X147167600Y-46355000D02*
X147167600Y-47320200D01*
X144957800Y-46200060D02*
X144566640Y-46200060D01*
X144703800Y-44714160D02*
X144759680Y-44658280D01*
X148109940Y-44612560D02*
X149710140Y-44612560D01*
X155981400Y-50063400D02*
X153390600Y-48463200D01*
X171631610Y-48781610D02*
X171600000Y-48750000D01*
X171631610Y-53031390D02*
X171631610Y-48781610D01*
X169545000Y-111506000D02*
X168910000Y-110871000D01*
X168910000Y-110871000D02*
X168910000Y-105791000D01*
X168910000Y-105791000D02*
X167005000Y-103886000D01*
X167005000Y-103886000D02*
X165862000Y-103886000D01*
X128460500Y-124363480D02*
X130459480Y-122361960D01*
X126710440Y-124363480D02*
X128460500Y-124363480D01*
X125211840Y-125862080D02*
X126710440Y-124363480D01*
X129461260Y-122361960D02*
X127960120Y-123863100D01*
X125211840Y-123863100D02*
X127960120Y-123863100D01*
X126238000Y-133200000D02*
X126238000Y-131572000D01*
X126238000Y-131572000D02*
X122940000Y-128274000D01*
X122940000Y-128274000D02*
X122940000Y-127000000D01*
X126238000Y-133200000D02*
X126238000Y-133223000D01*
X127254000Y-133858000D02*
X127254000Y-131114000D01*
X127254000Y-131114000D02*
X126873000Y-130733000D01*
X123890000Y-127750000D02*
X126873000Y-130733000D01*
X86000000Y-129000000D02*
X87000000Y-128000000D01*
X87000000Y-129000000D02*
X86000000Y-129000000D01*
X88000000Y-132000000D02*
X88000000Y-129000000D01*
X86423868Y-132000000D02*
X87000000Y-132000000D01*
X86000000Y-132000000D02*
X86423868Y-132000000D01*
X86000000Y-133000000D02*
X86000000Y-132000000D01*
X87576132Y-133000000D02*
X87000000Y-133000000D01*
X88000000Y-133000000D02*
X87576132Y-133000000D01*
X88000000Y-134000000D02*
X88000000Y-133000000D01*
X86423868Y-134000000D02*
X87000000Y-134000000D01*
X86000000Y-134000000D02*
X86423868Y-134000000D01*
X91000000Y-136073868D02*
X91000000Y-136650000D01*
X91000000Y-135650000D02*
X91000000Y-136073868D01*
X92050000Y-136650000D02*
X92050000Y-135650000D01*
X94150000Y-136650000D02*
X93100000Y-136650000D01*
X96400000Y-136650000D02*
X95250000Y-136650000D01*
X97536000Y-135636000D02*
X97536000Y-136650000D01*
X97536000Y-136650000D02*
X97536000Y-136779000D01*
X93091000Y-135636000D02*
X94107000Y-135636000D01*
X95250000Y-135636000D02*
X96393000Y-135636000D01*
D44*
X90020000Y-104340000D02*
X86290000Y-104340000D01*
X98399600Y-94297500D02*
X98399600Y-95960400D01*
X90020000Y-104340000D02*
X98399600Y-95960400D01*
X86290000Y-104340000D02*
X83500000Y-107130000D01*
X91740000Y-105460000D02*
X87550000Y-105460000D01*
X100939600Y-94297500D02*
X100939600Y-96260400D01*
X91740000Y-105460000D02*
X100939600Y-96260400D01*
X85420000Y-107590000D02*
X83591400Y-109418600D01*
X87550000Y-105460000D02*
X85420000Y-107590000D01*
X83591400Y-109702600D02*
X83591400Y-109418600D01*
X83927400Y-104622600D02*
X85350000Y-103200000D01*
X85350000Y-103200000D02*
X89380000Y-103200000D01*
X89380000Y-103200000D02*
X95859600Y-96720400D01*
X95859600Y-96720400D02*
X95859600Y-94297500D01*
X83591400Y-104622600D02*
X83927400Y-104622600D01*
X88874600Y-102082600D02*
X93319600Y-97637600D01*
X93319600Y-97637600D02*
X93319600Y-94297500D01*
X83591400Y-102082600D02*
X88874600Y-102082600D01*
D41*
X131572000Y-134874000D02*
X131699000Y-135001000D01*
X129413000Y-134874000D02*
X131572000Y-134874000D01*
X128524000Y-135763000D02*
X128524000Y-137414000D01*
X129413000Y-134874000D02*
X128524000Y-135763000D01*
X108966000Y-132461000D02*
X110236000Y-132461000D01*
X106299000Y-132461000D02*
X107696000Y-132461000D01*
X103886000Y-136144000D02*
X102743000Y-136144000D01*
X102743000Y-137287000D02*
X103886000Y-137287000D01*
X101600000Y-138557000D02*
X101600000Y-137287000D01*
X103886000Y-138557000D02*
X102743000Y-138557000D01*
X136190000Y-134610000D02*
X132880000Y-134610000D01*
X132880000Y-134610000D02*
X132420000Y-134150000D01*
X138270000Y-127580000D02*
X138270000Y-132530000D01*
X138270000Y-132530000D02*
X136190000Y-134610000D01*
X138610340Y-127239660D02*
X138610340Y-125854460D01*
X138610340Y-127239660D02*
X138270000Y-127580000D01*
X139400000Y-127200000D02*
X138790000Y-127810000D01*
X138790000Y-127810000D02*
X138790000Y-132850000D01*
X139400000Y-126610000D02*
X139400000Y-127200000D01*
X138790000Y-132850000D02*
X136450000Y-135190000D01*
X136450000Y-135190000D02*
X132770000Y-135190000D01*
X132770000Y-135190000D02*
X132380000Y-135580000D01*
D44*
X83591400Y-117938600D02*
X84940000Y-116590000D01*
X84940000Y-116590000D02*
X91690000Y-116590000D01*
X91690000Y-116590000D02*
X97980500Y-110299500D01*
X97980500Y-110299500D02*
X98399600Y-110299500D01*
X83591400Y-118110000D02*
X83591400Y-117938600D01*
X83591400Y-120368600D02*
X86310000Y-117650000D01*
X86310000Y-117650000D02*
X93589100Y-117650000D01*
X93589100Y-117650000D02*
X100939600Y-110299500D01*
X83591400Y-120650000D02*
X83591400Y-120368600D01*
X90890000Y-115570000D02*
X95859600Y-110600400D01*
X95859600Y-110600400D02*
X95859600Y-110299500D01*
X83591400Y-115570000D02*
X90890000Y-115570000D01*
X90589100Y-113030000D02*
X93319600Y-110299500D01*
X83591400Y-113030000D02*
X90589100Y-113030000D01*
D41*
X134747000Y-133604000D02*
X134620000Y-133477000D01*
X134620000Y-133477000D02*
X129540000Y-133477000D01*
X129540000Y-133477000D02*
X128143000Y-134874000D01*
X168275000Y-114046000D02*
X168275000Y-119150000D01*
X168275000Y-119150000D02*
X168275000Y-119275000D01*
X168275000Y-119275000D02*
X167700000Y-119850000D01*
X167700000Y-119850000D02*
X163995000Y-119850000D01*
X163995000Y-119850000D02*
X162687000Y-121158000D01*
X168275000Y-119315000D02*
X168275000Y-119150000D01*
X123030000Y-104820000D02*
X123250000Y-105040000D01*
X129710000Y-108820000D02*
X129710000Y-113320000D01*
X125930000Y-105040000D02*
X129380000Y-108490000D01*
X129380000Y-108490000D02*
X129710000Y-108820000D01*
X130210000Y-113820000D02*
X129710000Y-113320000D01*
X133990000Y-113820000D02*
X130210000Y-113820000D01*
X123250000Y-105040000D02*
X125930000Y-105040000D01*
X147860000Y-117120000D02*
X147410000Y-117120000D01*
X151660000Y-113320000D02*
X147860000Y-117120000D01*
X137710000Y-109760000D02*
X137620000Y-109760000D01*
X134220000Y-113160000D02*
X130590000Y-113160000D01*
X135865000Y-111515000D02*
X134220000Y-113160000D01*
X135880000Y-111500000D02*
X135865000Y-111515000D01*
X130590000Y-113160000D02*
X130290000Y-112860000D01*
X130290000Y-112860000D02*
X130290000Y-108620000D01*
X130290000Y-108620000D02*
X129925000Y-108255000D01*
X129925000Y-108255000D02*
X123250000Y-101580000D01*
X123250000Y-101580000D02*
X123250000Y-100810000D01*
X137620000Y-109760000D02*
X135880000Y-111500000D01*
X175670000Y-73960000D02*
X175650000Y-73960000D01*
X151660000Y-113320000D02*
X151660000Y-113260000D01*
X172750000Y-74570000D02*
X173280000Y-74040000D01*
X172720000Y-78613000D02*
X172750000Y-74570000D01*
X171660000Y-87370000D02*
X172570000Y-87370000D01*
X151771400Y-107258600D02*
X171660000Y-87370000D01*
X151771400Y-113148600D02*
X151771400Y-107258600D01*
X151660000Y-113260000D02*
X151771400Y-113148600D01*
X175650000Y-73960000D02*
X175570000Y-74040000D01*
X175570000Y-74040000D02*
X173280000Y-74040000D01*
X177479960Y-70203060D02*
X176200000Y-71483020D01*
X176200000Y-73430000D02*
X176200000Y-71483020D01*
X175670000Y-73960000D02*
X176200000Y-73430000D01*
X157450000Y-120700000D02*
X157450000Y-120750000D01*
X156650000Y-126950000D02*
X156650000Y-126900000D01*
X147370600Y-63701000D02*
X146609600Y-62940000D01*
X146609600Y-62940000D02*
X146540000Y-62940000D01*
X147370600Y-63699400D02*
X148130000Y-62940000D01*
X147370600Y-63701000D02*
X147370600Y-63699400D01*
X147401000Y-63701000D02*
X148100000Y-64400000D01*
X147370600Y-63701000D02*
X147401000Y-63701000D01*
X147309000Y-63701000D02*
X146590000Y-64420000D01*
X147370600Y-63701000D02*
X147309000Y-63701000D01*
X89154000Y-52832000D02*
X89281000Y-52832000D01*
X118364000Y-113538000D02*
X118618000Y-113538000D01*
X174329900Y-113490000D02*
X174320000Y-113490000D01*
X174319900Y-116680000D02*
X174320000Y-116680000D01*
X157330000Y-127420000D02*
X157380000Y-127420000D01*
X171135040Y-66687700D02*
X171135040Y-67688460D01*
X172460920Y-64363600D02*
X172460920Y-65361820D01*
X177479960Y-60093860D02*
X176212500Y-61361320D01*
X173461680Y-63362840D02*
X172460920Y-64363600D01*
X174210980Y-61361320D02*
X173461680Y-62110620D01*
X171135040Y-67688460D02*
X166760000Y-72063500D01*
X176212500Y-61361320D02*
X174210980Y-61361320D01*
X177479960Y-60043060D02*
X177479960Y-60093860D01*
X173461680Y-62110620D02*
X173461680Y-63362840D01*
X172460920Y-65361820D02*
X171135040Y-66687700D01*
X166760000Y-72063500D02*
X166760000Y-75815080D01*
X140459460Y-107360720D02*
X140710920Y-107612180D01*
X140459460Y-102113080D02*
X140459460Y-107360720D01*
X140710920Y-107612180D02*
X140710920Y-108112560D01*
X140713460Y-101861620D02*
X140710920Y-101861620D01*
X140713460Y-101861620D02*
X140710920Y-101864160D01*
X166760000Y-75815080D02*
X140713460Y-101861620D01*
X140710920Y-101861620D02*
X140459460Y-102113080D01*
X150459440Y-99862640D02*
X150210520Y-99862640D01*
X150210520Y-99862640D02*
X146961860Y-103111300D01*
X146961860Y-103111300D02*
X146961860Y-103611680D01*
X170552110Y-89272110D02*
X171585890Y-89272110D01*
X171585890Y-89272110D02*
X174068000Y-86790000D01*
X174068000Y-86790000D02*
X176133020Y-86790000D01*
X176133020Y-86790000D02*
X176309020Y-86614000D01*
X176309020Y-86614000D02*
X177479960Y-85443060D01*
X170552110Y-89272110D02*
X152341580Y-107482640D01*
X170609260Y-89214960D02*
X170552110Y-89272110D01*
X152341580Y-107482640D02*
X152341580Y-113731040D01*
X152341580Y-113731040D02*
X148460460Y-117612160D01*
X148460460Y-117612160D02*
X148460460Y-117863620D01*
X171323000Y-94615000D02*
X171622719Y-94315281D01*
X171622719Y-94315281D02*
X176227739Y-94315281D01*
X176227739Y-94315281D02*
X176309020Y-94234000D01*
X176309020Y-94234000D02*
X177479960Y-93063060D01*
X147476520Y-98927940D02*
X147626520Y-98927940D01*
X144520100Y-101732100D02*
X147324260Y-98927940D01*
X147324260Y-98927940D02*
X147626520Y-98927940D01*
X144520100Y-102217240D02*
X144520100Y-101732100D01*
X172366940Y-85443060D02*
X174939960Y-85443060D01*
X169545000Y-88265000D02*
X172366940Y-85443060D01*
X160774660Y-88285340D02*
X160787360Y-88272640D01*
X160690000Y-88370000D02*
X160787360Y-88272640D01*
X146440000Y-102730000D02*
X146440000Y-102620000D01*
X146440000Y-102620000D02*
X160690000Y-88370000D01*
X164636900Y-88285340D02*
X160774660Y-88285340D01*
X174652940Y-77823060D02*
X174939960Y-77823060D01*
X172719500Y-79756500D02*
X174652940Y-77823060D01*
X172719500Y-80390500D02*
X172746940Y-80363060D01*
X165611400Y-87498600D02*
X172719500Y-80390500D01*
X172719500Y-80390500D02*
X172719500Y-79756500D01*
X149780000Y-98610000D02*
X160891400Y-87498600D01*
X160891400Y-87498600D02*
X165611400Y-87498600D01*
X146294520Y-102010000D02*
X149694520Y-98610000D01*
X149694520Y-98610000D02*
X149780000Y-98610000D01*
X145920000Y-102010000D02*
X146294520Y-102010000D01*
X156356500Y-125239800D02*
X156356500Y-124988340D01*
X156356500Y-125239800D02*
X156356500Y-124465900D01*
X156356500Y-124465900D02*
X156547000Y-124275400D01*
X160660080Y-111379000D02*
X160660080Y-120162320D01*
X160660080Y-111163100D02*
X160660080Y-111379000D01*
X160660080Y-120162320D02*
X156547000Y-124275400D01*
X160660080Y-111379000D02*
X160660080Y-107055920D01*
X171864020Y-101219000D02*
X177479960Y-95603060D01*
X166497000Y-101219000D02*
X171864020Y-101219000D01*
X160660080Y-107055920D02*
X166497000Y-101219000D01*
X157830000Y-92403180D02*
X157830000Y-92400000D01*
X157830000Y-92403180D02*
X154751590Y-95481590D01*
X134820000Y-88720000D02*
X134770000Y-88720000D01*
X140820000Y-88720000D02*
X134820000Y-88720000D01*
X134200000Y-88150000D02*
X134200000Y-87600000D01*
X134770000Y-88720000D02*
X134200000Y-88150000D01*
X130000000Y-87700000D02*
X130100000Y-87700000D01*
X125650000Y-83350000D02*
X130000000Y-87700000D01*
X156200000Y-95330000D02*
X156170000Y-95360000D01*
X156170000Y-95360000D02*
X156170000Y-95440000D01*
X135300000Y-87600000D02*
X135000000Y-87900000D01*
X140940000Y-87600000D02*
X135300000Y-87600000D01*
X156950000Y-94270000D02*
X156980000Y-94270000D01*
X149660000Y-101960000D02*
X149660000Y-101400000D01*
X145440000Y-106180000D02*
X149660000Y-101960000D01*
X145440000Y-106250000D02*
X145440000Y-106180000D01*
X170790000Y-73610000D02*
X171790000Y-73610000D01*
X171790000Y-73610000D02*
X174939960Y-70460040D01*
X174939960Y-70460040D02*
X174939960Y-70203060D01*
X151450000Y-118800000D02*
X151550000Y-118700000D01*
X151550000Y-118700000D02*
X151550000Y-118050000D01*
X151550000Y-118050000D02*
X155550898Y-114049102D01*
X155550898Y-114049102D02*
X155550898Y-113650000D01*
X155550898Y-113650000D02*
X155514100Y-113650000D01*
X155514100Y-113650000D02*
X155514100Y-108905900D01*
X167320000Y-97590000D02*
X167360000Y-97590000D01*
X166830000Y-97590000D02*
X167320000Y-97590000D01*
X155514100Y-108905900D02*
X157670000Y-106750000D01*
X157670000Y-106750000D02*
X166830000Y-97590000D01*
X174236940Y-67663060D02*
X173850000Y-68050000D01*
X173850000Y-68050000D02*
X173850000Y-68670000D01*
X173850000Y-68670000D02*
X169740000Y-72780000D01*
X174939960Y-67663060D02*
X174236940Y-67663060D01*
X169550000Y-79650000D02*
X165570480Y-83629520D01*
X169550000Y-72970000D02*
X169550000Y-79650000D01*
X169740000Y-72780000D02*
X169550000Y-72970000D01*
X165566540Y-83633460D02*
X165570480Y-83629520D01*
X165566540Y-85735180D02*
X165566540Y-83633460D01*
X165556540Y-85725180D02*
X165556540Y-85715180D01*
X165566540Y-85735180D02*
X165556540Y-85725180D01*
X156004900Y-114245100D02*
X156004900Y-114049102D01*
X152346028Y-117903972D02*
X156004900Y-114245100D01*
X152346028Y-118746028D02*
X152346028Y-117903972D01*
X152400000Y-118800000D02*
X152346028Y-118746028D01*
X170140000Y-73210000D02*
X170140000Y-74820000D01*
X177056940Y-67663060D02*
X177479960Y-67663060D01*
X174360000Y-68990000D02*
X173620000Y-69730000D01*
X175730000Y-68990000D02*
X174360000Y-68990000D01*
X177056940Y-67663060D02*
X175730000Y-68990000D01*
X173620000Y-69730000D02*
X170140000Y-73210000D01*
X170140000Y-74820000D02*
X170140000Y-80770560D01*
X166991480Y-83919080D02*
X170140000Y-80770560D01*
X166991480Y-84261980D02*
X166991480Y-83919080D01*
X156004900Y-114049102D02*
X156004900Y-109095100D01*
X156004900Y-109095100D02*
X166370000Y-98730000D01*
X166370000Y-98730000D02*
X168010000Y-98730000D01*
X168010000Y-98730000D02*
X169140000Y-97600000D01*
X145855000Y-101075000D02*
X145240720Y-101689280D01*
X145240720Y-101689280D02*
X145240720Y-101790000D01*
X145240720Y-101790000D02*
X145240000Y-105380000D01*
X145240000Y-105380000D02*
X144720000Y-105900000D01*
X145240720Y-120421660D02*
X141010640Y-124651740D01*
X144720000Y-105900000D02*
X144720000Y-106560000D01*
X144720000Y-106560000D02*
X145240720Y-107080720D01*
X145240720Y-107080720D02*
X145240720Y-120421660D01*
X173620000Y-72743060D02*
X174939960Y-72743060D01*
X173599220Y-72743060D02*
X173620000Y-72743060D01*
X145855000Y-101075000D02*
X145903120Y-101026880D01*
X171910000Y-74453060D02*
X173620000Y-72743060D01*
X146444660Y-101075000D02*
X148398680Y-99120980D01*
X145855000Y-101075000D02*
X146444660Y-101075000D01*
X159669800Y-86670000D02*
X148398680Y-97941120D01*
X165570000Y-86670000D02*
X159669800Y-86670000D01*
X171910000Y-80330000D02*
X165570000Y-86670000D01*
X171910000Y-74453060D02*
X171910000Y-80330000D01*
X148398680Y-97941120D02*
X148398680Y-99120980D01*
X174696940Y-60043060D02*
X172950000Y-61790000D01*
X174939960Y-60043060D02*
X174696940Y-60043060D01*
X172950000Y-61790000D02*
X172950000Y-63030000D01*
X172950000Y-63030000D02*
X171870000Y-64110000D01*
X171870000Y-64110000D02*
X171870000Y-65250000D01*
X171870000Y-65250000D02*
X170500000Y-66620000D01*
X170500000Y-66620000D02*
X170500000Y-67600000D01*
X170500000Y-67600000D02*
X166190000Y-71910000D01*
X166190000Y-71910000D02*
X166190000Y-75700000D01*
X166190000Y-75700000D02*
X139830000Y-102060000D01*
X139830000Y-102060000D02*
X139830000Y-115190000D01*
X136682220Y-119362220D02*
X135961120Y-119362220D01*
X140250000Y-122930000D02*
X136682220Y-119362220D01*
X140250000Y-127050000D02*
X140250000Y-122930000D01*
X139610000Y-127690000D02*
X140250000Y-127050000D01*
X139573000Y-132969000D02*
X139610000Y-127690000D01*
X136398000Y-136017000D02*
X134643000Y-136017000D01*
X139446000Y-132969000D02*
X136398000Y-136017000D01*
X139573000Y-132969000D02*
X139446000Y-132969000D01*
X134643000Y-136017000D02*
X133180000Y-137480000D01*
X173301660Y-60731400D02*
X173301660Y-60363100D01*
X172420280Y-62804040D02*
X172420280Y-61612780D01*
X172420280Y-61612780D02*
X172420280Y-61643260D01*
X172420280Y-61612780D02*
X173301660Y-60731400D01*
X165640000Y-75502520D02*
X165640000Y-71692520D01*
X139176760Y-101965760D02*
X165640000Y-75502520D01*
X171340780Y-65072260D02*
X171340780Y-63883540D01*
X171340780Y-63883540D02*
X172420280Y-62804040D01*
X165640000Y-71692520D02*
X169941240Y-67391280D01*
X169941240Y-66471800D02*
X171340780Y-65072260D01*
X169941240Y-67391280D02*
X169941240Y-66471800D01*
X139176760Y-102000000D02*
X139176760Y-101965760D01*
X139176760Y-115646200D02*
X139176760Y-102000000D01*
X139209780Y-115613180D02*
X139176760Y-115646200D01*
X139176760Y-115646200D02*
X135961120Y-118861840D01*
X135961120Y-119362220D02*
X135961120Y-118861840D01*
X139176760Y-100823240D02*
X139350000Y-100650000D01*
X139176760Y-102000000D02*
X139176760Y-100823240D01*
X142811500Y-102758240D02*
X142811500Y-104759760D01*
X142811500Y-104759760D02*
X142709900Y-104861360D01*
X152410160Y-93162120D02*
X169070000Y-76502280D01*
X142811500Y-102758240D02*
X152407620Y-93162120D01*
X169070000Y-76502280D02*
X169070000Y-72753240D01*
X152407620Y-93162120D02*
X152410160Y-93162120D01*
X173210220Y-68613020D02*
X169070000Y-72753240D01*
X173210220Y-67612260D02*
X173210220Y-68613020D01*
X173210220Y-67612260D02*
X174459900Y-66362580D01*
X174459900Y-66362580D02*
X176240440Y-66362580D01*
X177479960Y-65123060D02*
X176240440Y-66362580D01*
X142209520Y-107612180D02*
X142209520Y-108112560D01*
X141460220Y-102613460D02*
X141460220Y-106862880D01*
X141460220Y-106862880D02*
X142209520Y-107612180D01*
X173461680Y-65862200D02*
X172209460Y-67114420D01*
X177479960Y-62583060D02*
X177479960Y-62593220D01*
X172209460Y-68115180D02*
X167940000Y-72384640D01*
X176209960Y-63863220D02*
X174459900Y-63863220D01*
X167940000Y-72384640D02*
X167940000Y-76133680D01*
X172209460Y-67114420D02*
X172209460Y-68115180D01*
X174459900Y-63863220D02*
X173461680Y-64861440D01*
X177479960Y-62593220D02*
X176209960Y-63863220D01*
X167940000Y-76133680D02*
X141460220Y-102613460D01*
X173461680Y-64861440D02*
X173461680Y-65862200D01*
X149212300Y-114612420D02*
X148211540Y-114612420D01*
X176182020Y-84201000D02*
X177479960Y-82903060D01*
X172720000Y-84201000D02*
X176182020Y-84201000D01*
X170164760Y-86756240D02*
X172720000Y-84201000D01*
X150459440Y-113365280D02*
X149212300Y-114612420D01*
X170068240Y-86756240D02*
X150459440Y-106365040D01*
X170113960Y-86710520D02*
X170068240Y-86756240D01*
X150459440Y-106365040D02*
X150459440Y-113365280D01*
X170068240Y-86756240D02*
X170164760Y-86756240D01*
X149209760Y-113863120D02*
X148711920Y-113863120D01*
X149961600Y-113111280D02*
X149209760Y-113863120D01*
X149961600Y-106111040D02*
X149961600Y-113111280D01*
X170581320Y-85491320D02*
X149961600Y-106111040D01*
X170629580Y-85443060D02*
X170581320Y-85491320D01*
X173255940Y-82903060D02*
X174939960Y-82903060D01*
X170667680Y-85491320D02*
X173255940Y-82903060D01*
X170581320Y-85491320D02*
X170667680Y-85491320D01*
X134250000Y-97150000D02*
X134200000Y-97150000D01*
X136000000Y-97150000D02*
X134250000Y-97150000D01*
X134200000Y-97150000D02*
X130000000Y-92950000D01*
X174912520Y-80390500D02*
X174939960Y-80363060D01*
X148960840Y-112113060D02*
X148960840Y-112359440D01*
X148958300Y-112361980D02*
X148711920Y-112361980D01*
X148960840Y-112359440D02*
X148958300Y-112361980D01*
X171670980Y-82903060D02*
X148960840Y-105613200D01*
X148960840Y-105613200D02*
X148960840Y-112113060D01*
X174271940Y-80363060D02*
X174939960Y-80363060D01*
X171731940Y-82903060D02*
X174271940Y-80363060D01*
X171670980Y-82903060D02*
X171731940Y-82903060D01*
X147960080Y-111612680D02*
X148211540Y-111612680D01*
X148211540Y-111612680D02*
X148460460Y-111363760D01*
X148460460Y-111363760D02*
X148460460Y-105412540D01*
X176182020Y-79121000D02*
X177479960Y-77823060D01*
X174371000Y-79121000D02*
X176182020Y-79121000D01*
X173736000Y-79756000D02*
X174371000Y-79121000D01*
X173736000Y-80137000D02*
X173736000Y-79756000D01*
X148460460Y-105412540D02*
X173736000Y-80137000D01*
X148211540Y-113111280D02*
X149209760Y-113111280D01*
X176213020Y-81630000D02*
X176309020Y-81534000D01*
X149209760Y-113111280D02*
X149461220Y-112859820D01*
X149461220Y-112859820D02*
X149461220Y-105862120D01*
X171284900Y-84112100D02*
X173767000Y-81630000D01*
X176309020Y-81534000D02*
X177479960Y-80363060D01*
X149461220Y-105862120D02*
X171211240Y-84112100D01*
X171211240Y-84112100D02*
X171284900Y-84112100D01*
X173767000Y-81630000D02*
X176213020Y-81630000D01*
X177479960Y-90591640D02*
X177479960Y-90523060D01*
X150810000Y-117864840D02*
X150810000Y-118110000D01*
X151460200Y-117214640D02*
X150810000Y-117864840D01*
X153928700Y-114746140D02*
X151460200Y-117214640D01*
X153928700Y-108271300D02*
X153928700Y-114746140D01*
X167803000Y-94397000D02*
X153928700Y-108271300D01*
X167836460Y-94363540D02*
X167803000Y-94397000D01*
X176182020Y-91821000D02*
X177479960Y-90523060D01*
X170434000Y-91821000D02*
X176182020Y-91821000D01*
X167858000Y-94397000D02*
X170434000Y-91821000D01*
X167803000Y-94397000D02*
X167858000Y-94397000D01*
X149970000Y-118300000D02*
X149970000Y-118013060D01*
X149970000Y-118013060D02*
X150710900Y-117272160D01*
X153366000Y-114617060D02*
X150710900Y-117272160D01*
X168322000Y-93138000D02*
X153366000Y-108094000D01*
X168396940Y-93063060D02*
X168322000Y-93138000D01*
X153366000Y-108094000D02*
X153366000Y-114617060D01*
X170842940Y-90523060D02*
X174939960Y-90523060D01*
X168322000Y-93044000D02*
X170842940Y-90523060D01*
X168322000Y-93138000D02*
X168322000Y-93044000D01*
X174939960Y-65123060D02*
X174939960Y-65133220D01*
X174939960Y-65133220D02*
X172709840Y-67363340D01*
X172709840Y-67363340D02*
X172709840Y-68364100D01*
X172709840Y-68364100D02*
X168560000Y-72513940D01*
X168560000Y-72513940D02*
X168560000Y-76262980D01*
X168560000Y-76262980D02*
X141960600Y-102862380D01*
X141960600Y-102862380D02*
X141960600Y-105364280D01*
X141960600Y-105364280D02*
X142709900Y-106113580D01*
X140959840Y-107111800D02*
X141460220Y-107612180D01*
X141460220Y-107612180D02*
X141446700Y-108927920D01*
X140959840Y-102362000D02*
X140959840Y-107111800D01*
X172961300Y-64612520D02*
X172961300Y-65613280D01*
X171711620Y-67861180D02*
X167310000Y-72262800D01*
X167310000Y-76014380D02*
X141211300Y-102113080D01*
X171711620Y-66862960D02*
X171711620Y-67861180D01*
X172961300Y-65613280D02*
X171711620Y-66862960D01*
X174939960Y-62633860D02*
X172961300Y-64612520D01*
X141208760Y-102113080D02*
X140959840Y-102362000D01*
X174939960Y-62583060D02*
X174939960Y-62633860D01*
X141211300Y-102113080D02*
X141208760Y-102113080D01*
X167310000Y-72262800D02*
X167310000Y-76014380D01*
X130959860Y-102592340D02*
X135558980Y-97993220D01*
X135558980Y-97993220D02*
X139181820Y-97993220D01*
X139181820Y-97993220D02*
X148211540Y-88963500D01*
X148211540Y-88963500D02*
X150662640Y-88963500D01*
X150662640Y-88963500D02*
X164550000Y-75076140D01*
X164550000Y-75076140D02*
X164550000Y-71250900D01*
X168810940Y-66989960D02*
X164550000Y-71250900D01*
X174939960Y-57503060D02*
X174434500Y-57503060D01*
X170969940Y-61595000D02*
X170969940Y-62529720D01*
X168810940Y-66022220D02*
X168810940Y-66989960D01*
X172090080Y-60474860D02*
X170969940Y-61595000D01*
X170240960Y-63258700D02*
X170240960Y-64592200D01*
X170240960Y-64592200D02*
X168810940Y-66022220D01*
X174434500Y-57503060D02*
X172090080Y-59847480D01*
X170969940Y-62529720D02*
X170240960Y-63258700D01*
X172090080Y-59847480D02*
X172090080Y-60474860D01*
X130959860Y-111612680D02*
X130959860Y-111612680D01*
X130959860Y-111612680D02*
X130959860Y-106215180D01*
X130959860Y-106215180D02*
X130959860Y-102592340D01*
X148485860Y-89588340D02*
X150835360Y-89588340D01*
X177479960Y-57503060D02*
X177479960Y-58019960D01*
X177479960Y-58019960D02*
X177479960Y-57503060D01*
X150835360Y-89588340D02*
X150860760Y-89562940D01*
X165090000Y-75333700D02*
X165090000Y-71513540D01*
X165090000Y-71513540D02*
X169410380Y-67193160D01*
X169410380Y-67193160D02*
X169410380Y-66301620D01*
X171579540Y-61729620D02*
X171579540Y-62796420D01*
X170741340Y-63634620D02*
X170741340Y-64970660D01*
X169410380Y-66301620D02*
X170741340Y-64970660D01*
X173880780Y-58762900D02*
X172580300Y-60063380D01*
X176220120Y-58762900D02*
X173880780Y-58762900D01*
X172580300Y-60063380D02*
X172580300Y-60728860D01*
X176220120Y-58762900D02*
X177479960Y-57503060D01*
X171579540Y-62796420D02*
X170741340Y-63634620D01*
X172580300Y-60728860D02*
X171579540Y-61729620D01*
X150860760Y-89562940D02*
X165090000Y-75333700D01*
X140710920Y-97561400D02*
X140710920Y-97363280D01*
X140710920Y-97363280D02*
X148485860Y-89588340D01*
X173000000Y-53000000D02*
X173000000Y-48750000D01*
X150459440Y-100863400D02*
X150459440Y-102580560D01*
X150459440Y-102580560D02*
X145870000Y-107170000D01*
X145870000Y-112055526D02*
X145870000Y-122280700D01*
X145870000Y-107170000D02*
X145870000Y-112055526D01*
X155550000Y-125250000D02*
X155550000Y-125300000D01*
X172950000Y-48800000D02*
X173000000Y-48750000D01*
X171196000Y-93091000D02*
X171223940Y-93063060D01*
X171223940Y-93063060D02*
X174939960Y-93063060D01*
X153090880Y-98231960D02*
X153715720Y-98231960D01*
X153090880Y-98231960D02*
X150459440Y-100863400D01*
X145870000Y-122280700D02*
X145870000Y-122293400D01*
X145870000Y-123698000D02*
X145870000Y-122280700D01*
X145870000Y-123719500D02*
X145870000Y-123698000D01*
X145870000Y-131265000D02*
X146939000Y-132461000D01*
X145870000Y-123698000D02*
X145870000Y-131265000D01*
X178880000Y-108450000D02*
X178880000Y-46860000D01*
X178880000Y-108450000D02*
X178740000Y-108590000D01*
X110744000Y-130048000D02*
X110617000Y-129921000D01*
X110617000Y-129921000D02*
X110617000Y-126111000D01*
X178880000Y-46860000D02*
X178894000Y-46860000D01*
X103632000Y-92710000D02*
X103124000Y-92202000D01*
X110532000Y-94160000D02*
X110532000Y-94149000D01*
X103124000Y-92202000D02*
X89446100Y-92202000D01*
X89446100Y-92202000D02*
X88239600Y-90995500D01*
D44*
X84538600Y-88671400D02*
X86010000Y-87200000D01*
X86010000Y-87200000D02*
X89495100Y-87200000D01*
X89495100Y-87200000D02*
X98399600Y-78295500D01*
X83667600Y-88671400D02*
X84538600Y-88671400D01*
X84198600Y-91211400D02*
X86940000Y-88470000D01*
X86940000Y-88470000D02*
X90765100Y-88470000D01*
X90765100Y-88470000D02*
X100939600Y-78295500D01*
X83667600Y-91211400D02*
X84198600Y-91211400D01*
X88023700Y-86131400D02*
X95859600Y-78295500D01*
X83667600Y-86131400D02*
X88023700Y-86131400D01*
X88023700Y-83591400D02*
X93319600Y-78295500D01*
X83667600Y-83591400D02*
X88023700Y-83591400D01*
D41*
X107569000Y-90551000D02*
X105410000Y-88392000D01*
X109916000Y-94930000D02*
X107569000Y-92583000D01*
X107569000Y-92583000D02*
X107569000Y-90551000D01*
X110270000Y-94930000D02*
X109916000Y-94930000D01*
X98094800Y-87172800D02*
X95808800Y-87172800D01*
X99314000Y-88392000D02*
X98094800Y-87172800D01*
X105410000Y-88392000D02*
X99314000Y-88392000D01*
X90335100Y-77089000D02*
X88366600Y-75120500D01*
X111379000Y-77089000D02*
X90335100Y-77089000D01*
D44*
X90792300Y-70154800D02*
X98526600Y-62420500D01*
X83718400Y-70154800D02*
X90792300Y-70154800D01*
X95175200Y-72694800D02*
X83718400Y-72694800D01*
X95175200Y-72694800D02*
X101066600Y-66803400D01*
X101066600Y-62420500D02*
X101066600Y-66803400D01*
X90792300Y-67614800D02*
X95986600Y-62420500D01*
X83718400Y-67614800D02*
X90792300Y-67614800D01*
X84836000Y-65074800D02*
X85801200Y-64109600D01*
X85801200Y-64109600D02*
X91757500Y-64109600D01*
X91757500Y-64109600D02*
X93446600Y-62420500D01*
X83718400Y-65074800D02*
X84836000Y-65074800D01*
D41*
X109728000Y-75565000D02*
X108893000Y-76400000D01*
X104836100Y-76350000D02*
X103606600Y-75120500D01*
X108893000Y-76400000D02*
X104886100Y-76400000D01*
X104886100Y-76400000D02*
X104836100Y-76350000D01*
X110871000Y-75565000D02*
X109728000Y-75565000D01*
X109004100Y-60236100D02*
X107759500Y-58991500D01*
X107759500Y-58991500D02*
X106146600Y-58991500D01*
X125349000Y-60325000D02*
X109004100Y-60325000D01*
X125730000Y-60706000D02*
X125349000Y-60325000D01*
X109004100Y-60325000D02*
X109004100Y-60236100D01*
X88366600Y-58991500D02*
X89700100Y-60325000D01*
X107315000Y-60325000D02*
X89700100Y-60325000D01*
X108204000Y-61214000D02*
X107315000Y-60325000D01*
X125222000Y-61214000D02*
X125984000Y-61976000D01*
X108204000Y-61214000D02*
X125222000Y-61214000D01*
X125984000Y-61976000D02*
X127254000Y-61976000D01*
D44*
X93281500Y-51536600D02*
X98526600Y-46291500D01*
X83667600Y-51536600D02*
X93281500Y-51536600D01*
X93281500Y-54076600D02*
X101066600Y-46291500D01*
X83667600Y-54076600D02*
X93281500Y-54076600D01*
X93281500Y-48996600D02*
X95986600Y-46291500D01*
X83667600Y-48996600D02*
X93281500Y-48996600D01*
X83947000Y-46355000D02*
X85471000Y-47879000D01*
X85471000Y-47879000D02*
X91859100Y-47879000D01*
X91859100Y-47879000D02*
X93446600Y-46291500D01*
X83566000Y-46355000D02*
X83947000Y-46355000D01*
D41*
X159258000Y-120523000D02*
X159258000Y-120498078D01*
X152400000Y-127889000D02*
X152400000Y-127381000D01*
X152400000Y-127381000D02*
X159258000Y-120523000D01*
X160206078Y-110295078D02*
X159766000Y-109855000D01*
X160206078Y-119550000D02*
X160206078Y-110295078D01*
X159258000Y-120498078D02*
X160206078Y-119550000D01*
X152780000Y-66500000D02*
X153500000Y-65780000D01*
X153500000Y-65780000D02*
X153540000Y-65780000D01*
X152720000Y-66500000D02*
X152070000Y-65850000D01*
X152780000Y-66500000D02*
X152720000Y-66500000D01*
X152770000Y-66500000D02*
X152070000Y-67200000D01*
X152780000Y-66500000D02*
X152770000Y-66500000D01*
X152780000Y-66500000D02*
X152870000Y-66500000D01*
X152870000Y-66500000D02*
X153580000Y-67210000D01*
X162050000Y-119500000D02*
X162052000Y-119500000D01*
X162052000Y-119502000D02*
X162050000Y-119500000D01*
X162052000Y-119548000D02*
X162052000Y-119502000D01*
X158250000Y-123350000D02*
X162052000Y-119548000D01*
X158250000Y-124400000D02*
X158250000Y-123350000D01*
X156700000Y-125950000D02*
X158250000Y-124400000D01*
X155250000Y-125950000D02*
X156700000Y-125950000D01*
X152041000Y-129159000D02*
X155250000Y-125950000D01*
X152019000Y-129159000D02*
X152041000Y-129159000D01*
X162052000Y-119500000D02*
X162052000Y-116078000D01*
X152019000Y-129159000D02*
X152146000Y-129032000D01*
X150241000Y-129794000D02*
X150114000Y-129794000D01*
X150241000Y-129794000D02*
X148717000Y-129794000D01*
X156337000Y-129794000D02*
X156606000Y-129794000D01*
X153416000Y-129794000D02*
X156337000Y-129794000D01*
X150241000Y-129794000D02*
X153416000Y-129794000D01*
X159240000Y-127160000D02*
X159240000Y-127060000D01*
X156606000Y-129794000D02*
X159240000Y-127160000D01*
X146690000Y-124973000D02*
X147447000Y-125730000D01*
X147447000Y-125730000D02*
X147447000Y-127127000D01*
X147447000Y-127127000D02*
X146685000Y-127889000D01*
X146685000Y-127889000D02*
X146685000Y-131064000D01*
X146685000Y-131064000D02*
X150876000Y-135255000D01*
X150876000Y-135255000D02*
X151003000Y-135255000D01*
X146690000Y-109382640D02*
X147210780Y-108861860D01*
X146690000Y-109382640D02*
X146690000Y-123250000D01*
X146690000Y-123250000D02*
X146690000Y-124973000D01*
X166965000Y-124385000D02*
X166960000Y-124380000D01*
X130866950Y-38488620D02*
X158201448Y-38488620D01*
X130531031Y-38691820D02*
X158537633Y-38691820D01*
X130487323Y-38895020D02*
X158580123Y-38895020D01*
X130487286Y-39098220D02*
X158578305Y-39098220D01*
X130487249Y-39301420D02*
X158576487Y-39301420D01*
X130487212Y-39504620D02*
X158574669Y-39504620D01*
X130487175Y-39707820D02*
X158572851Y-39707820D01*
X130487138Y-39911020D02*
X158571033Y-39911020D01*
X130487101Y-40114220D02*
X158569214Y-40114220D01*
X130487064Y-40317420D02*
X158567396Y-40317420D01*
X130487028Y-40520620D02*
X158565578Y-40520620D01*
X130486991Y-40723820D02*
X158563760Y-40723820D01*
X130486954Y-40927020D02*
X158561942Y-40927020D01*
X130486917Y-41130220D02*
X158560124Y-41130220D01*
X130486880Y-41333420D02*
X158558306Y-41333420D01*
X130486843Y-41536620D02*
X158556488Y-41536620D01*
X130486806Y-41739820D02*
X158554670Y-41739820D01*
X130486769Y-41943020D02*
X158552852Y-41943020D01*
X130486732Y-42146220D02*
X139614247Y-42146220D01*
X140508030Y-42146220D02*
X158551034Y-42146220D01*
X130486696Y-42349420D02*
X139453943Y-42349420D01*
X140668217Y-42349420D02*
X158549216Y-42349420D01*
X130486659Y-42552620D02*
X139387938Y-42552620D01*
X140733020Y-42552620D02*
X158547398Y-42552620D01*
X130486622Y-42755820D02*
X139385808Y-42755820D01*
X140737425Y-42755820D02*
X158545580Y-42755820D01*
X130486585Y-42959020D02*
X139446177Y-42959020D01*
X140673539Y-42959020D02*
X158543762Y-42959020D01*
X130486548Y-43162220D02*
X139597538Y-43162220D01*
X140522366Y-43162220D02*
X158541944Y-43162220D01*
X130486511Y-43365420D02*
X158540125Y-43365420D01*
X130486474Y-43568620D02*
X158538307Y-43568620D01*
X130486438Y-43771820D02*
X158536489Y-43771820D01*
X130486401Y-43975020D02*
X158534671Y-43975020D01*
X130486364Y-44178220D02*
X158532853Y-44178220D01*
X130486327Y-44381420D02*
X158531035Y-44381420D01*
X130486290Y-44584620D02*
X158529217Y-44584620D01*
X130486253Y-44787820D02*
X158527399Y-44787820D01*
X130486217Y-44991020D02*
X158525581Y-44991020D01*
X130486180Y-45194220D02*
X158523763Y-45194220D01*
X130486143Y-45397420D02*
X158521945Y-45397420D01*
X130486106Y-45600620D02*
X158520127Y-45600620D01*
X130486069Y-45803820D02*
X158518309Y-45803820D01*
X130486032Y-46007020D02*
X158516491Y-46007020D01*
X130485995Y-46210220D02*
X158514673Y-46210220D01*
X130485959Y-46413420D02*
X158512855Y-46413420D01*
X130485922Y-46616620D02*
X158511036Y-46616620D01*
X130485885Y-46819820D02*
X158509218Y-46819820D01*
X130485848Y-47023020D02*
X158507400Y-47023020D01*
X130485811Y-47226220D02*
X158505582Y-47226220D01*
X130485774Y-47429420D02*
X136631588Y-47429420D01*
X137591880Y-47429420D02*
X158503764Y-47429420D01*
X130485738Y-47632620D02*
X136490850Y-47632620D01*
X137732887Y-47632620D02*
X158501946Y-47632620D01*
X130485701Y-47835820D02*
X136431989Y-47835820D01*
X137790618Y-47835820D02*
X158500128Y-47835820D01*
X130485664Y-48039020D02*
X136442929Y-48039020D01*
X137780983Y-48039020D02*
X158498310Y-48039020D01*
X130485627Y-48242220D02*
X136514670Y-48242220D01*
X137709898Y-48242220D02*
X158496492Y-48242220D01*
X130485590Y-48445420D02*
X136686397Y-48445420D01*
X137538752Y-48445420D02*
X158494674Y-48445420D01*
X130485553Y-48648620D02*
X158492856Y-48648620D01*
X130485516Y-48851820D02*
X158491038Y-48851820D01*
X130485479Y-49055020D02*
X152950745Y-49055020D01*
X153946860Y-49055020D02*
X154307540Y-49055020D01*
X155303656Y-49055020D02*
X158489220Y-49055020D01*
X130485442Y-49258220D02*
X152771607Y-49258220D01*
X154000200Y-49258220D02*
X154254200Y-49258220D01*
X155482794Y-49258220D02*
X158487402Y-49258220D01*
X130485406Y-49461420D02*
X152746710Y-49461420D01*
X154000200Y-49461420D02*
X154254200Y-49461420D01*
X155507690Y-49461420D02*
X158485584Y-49461420D01*
X130485369Y-49664620D02*
X134059660Y-49664620D01*
X134321902Y-49664620D02*
X152746710Y-49664620D01*
X154000200Y-49664620D02*
X154254200Y-49664620D01*
X155507690Y-49664620D02*
X158483765Y-49664620D01*
X130485332Y-49867820D02*
X133692432Y-49867820D01*
X134688537Y-49867820D02*
X152746710Y-49867820D01*
X154000200Y-49867820D02*
X154254200Y-49867820D01*
X155507690Y-49867820D02*
X158481947Y-49867820D01*
X130485295Y-50071020D02*
X133562230Y-50071020D01*
X134819216Y-50071020D02*
X152746710Y-50071020D01*
X154000200Y-50071020D02*
X154254200Y-50071020D01*
X155507690Y-50071020D02*
X158480129Y-50071020D01*
X130485258Y-50274220D02*
X133510741Y-50274220D01*
X134871372Y-50274220D02*
X158478311Y-50274220D01*
X130485222Y-50477420D02*
X133525192Y-50477420D01*
X134855944Y-50477420D02*
X158476493Y-50477420D01*
X130485185Y-50680620D02*
X133605128Y-50680620D01*
X134778350Y-50680620D02*
X152746710Y-50680620D01*
X154000200Y-50680620D02*
X154254200Y-50680620D01*
X155507690Y-50680620D02*
X158474675Y-50680620D01*
X130485148Y-50883820D02*
X133790979Y-50883820D01*
X134592684Y-50883820D02*
X152746710Y-50883820D01*
X154000200Y-50883820D02*
X154254200Y-50883820D01*
X155507690Y-50883820D02*
X158472857Y-50883820D01*
X130485111Y-51087020D02*
X152746710Y-51087020D01*
X154000200Y-51087020D02*
X154254200Y-51087020D01*
X155507690Y-51087020D02*
X158471039Y-51087020D01*
X130485075Y-51290220D02*
X152746710Y-51290220D01*
X154000200Y-51290220D02*
X154254200Y-51290220D01*
X155507690Y-51290220D02*
X158469221Y-51290220D01*
X130485038Y-51493420D02*
X152759202Y-51493420D01*
X154000200Y-51493420D02*
X154254200Y-51493420D01*
X155495197Y-51493420D02*
X158467403Y-51493420D01*
X130485001Y-51696620D02*
X152896193Y-51696620D01*
X153982420Y-51696620D02*
X154271980Y-51696620D01*
X155358206Y-51696620D02*
X158465585Y-51696620D01*
X130484964Y-51899820D02*
X158463767Y-51899820D01*
X130484927Y-52103020D02*
X158461949Y-52103020D01*
X130484891Y-52306220D02*
X158460131Y-52306220D01*
X130468239Y-52509420D02*
X158458313Y-52509420D01*
X130466853Y-52712620D02*
X133388795Y-52712620D01*
X133855793Y-52712620D02*
X158456495Y-52712620D01*
X130465466Y-52915820D02*
X133095881Y-52915820D01*
X134147322Y-52915820D02*
X138046476Y-52915820D01*
X138996536Y-52915820D02*
X158454676Y-52915820D01*
X130464080Y-53119020D02*
X132957434Y-53119020D01*
X134261772Y-53119020D02*
X137902728Y-53119020D01*
X139140493Y-53119020D02*
X158452858Y-53119020D01*
X130462694Y-53322220D02*
X132754234Y-53322220D01*
X134302022Y-53322220D02*
X137842759Y-53322220D01*
X139199312Y-53322220D02*
X158451040Y-53322220D01*
X130461308Y-53525420D02*
X132551034Y-53525420D01*
X134280635Y-53525420D02*
X137851696Y-53525420D01*
X139191837Y-53525420D02*
X158449222Y-53525420D01*
X130459922Y-53728620D02*
X132347834Y-53728620D01*
X134189680Y-53728620D02*
X137921096Y-53728620D01*
X139121860Y-53728620D02*
X158447404Y-53728620D01*
X130458535Y-53931820D02*
X132144634Y-53931820D01*
X133979698Y-53931820D02*
X138088788Y-53931820D01*
X138953786Y-53931820D02*
X158445586Y-53931820D01*
X130457149Y-54135020D02*
X131990201Y-54135020D01*
X133737486Y-54135020D02*
X158443768Y-54135020D01*
X130455763Y-54338220D02*
X131928015Y-54338220D01*
X133534286Y-54338220D02*
X158441950Y-54338220D01*
X130454377Y-54541420D02*
X131919980Y-54541420D01*
X133331086Y-54541420D02*
X158440132Y-54541420D01*
X130452991Y-54744620D02*
X131919980Y-54744620D01*
X133189980Y-54744620D02*
X158438314Y-54744620D01*
X130456345Y-54947820D02*
X131919980Y-54947820D01*
X133189980Y-54947820D02*
X158431000Y-54947820D01*
X130549107Y-55151020D02*
X131905875Y-55151020D01*
X133189980Y-55151020D02*
X158332921Y-55151020D01*
X158272137Y-38494840D02*
X158335260Y-38511855D01*
X158394428Y-38539624D01*
X158447847Y-38577306D01*
X158493860Y-38623734D01*
X158531061Y-38677485D01*
X158558303Y-38736905D01*
X158574751Y-38800169D01*
X158580338Y-38870919D01*
X158436997Y-54891751D01*
X158428607Y-54970187D01*
X158407018Y-55039551D01*
X158372383Y-55103414D01*
X158326019Y-55159346D01*
X158269687Y-55205223D01*
X158205531Y-55239300D01*
X158135976Y-55260288D01*
X158057476Y-55267996D01*
X133189980Y-55274724D01*
X133189980Y-54682526D01*
X133896008Y-53976498D01*
X133930187Y-53963241D01*
X134042901Y-53891710D01*
X134139575Y-53799649D01*
X134216527Y-53690563D01*
X134270824Y-53568608D01*
X134295331Y-53460737D01*
X137839825Y-53460737D01*
X137863924Y-53592040D01*
X137913067Y-53716161D01*
X137985383Y-53828374D01*
X138078117Y-53924403D01*
X138187737Y-54000591D01*
X138310068Y-54054036D01*
X138440450Y-54082702D01*
X138573917Y-54085498D01*
X138705385Y-54062317D01*
X138829847Y-54014041D01*
X138942561Y-53942510D01*
X139039235Y-53850449D01*
X139116187Y-53741363D01*
X139170484Y-53619408D01*
X139200060Y-53489230D01*
X139202189Y-53336752D01*
X139176260Y-53205798D01*
X139125389Y-53082375D01*
X139051513Y-52971183D01*
X138957447Y-52876458D01*
X138846774Y-52801808D01*
X138723708Y-52750076D01*
X138592939Y-52723233D01*
X138459446Y-52722301D01*
X138328314Y-52747316D01*
X138204539Y-52797324D01*
X138092834Y-52870422D01*
X137997455Y-52963824D01*
X137922034Y-53073974D01*
X137869444Y-53196675D01*
X137841689Y-53327254D01*
X137839825Y-53460737D01*
X134295331Y-53460737D01*
X134300400Y-53438430D01*
X134302529Y-53285952D01*
X134276600Y-53154998D01*
X134225729Y-53031575D01*
X134151853Y-52920383D01*
X134057787Y-52825658D01*
X133947114Y-52751008D01*
X133824048Y-52699276D01*
X133693279Y-52672433D01*
X133559786Y-52671501D01*
X133428654Y-52696516D01*
X133304879Y-52746524D01*
X133193174Y-52819622D01*
X133097795Y-52913024D01*
X133022374Y-53023174D01*
X132999192Y-53077262D01*
X132105967Y-53970487D01*
X132068693Y-54015865D01*
X132031033Y-54060746D01*
X132029427Y-54063668D01*
X132027304Y-54066252D01*
X131999559Y-54117997D01*
X131971329Y-54169347D01*
X131970320Y-54172529D01*
X131968741Y-54175473D01*
X131951596Y-54231554D01*
X131933856Y-54287476D01*
X131933483Y-54290797D01*
X131932508Y-54293988D01*
X131926583Y-54352316D01*
X131920042Y-54410634D01*
X131919996Y-54417162D01*
X131919984Y-54417284D01*
X131919995Y-54417397D01*
X131919980Y-54419500D01*
X131919980Y-55136915D01*
X131781790Y-55275105D01*
X130830973Y-55275362D01*
X130760364Y-55269176D01*
X130697314Y-55252220D01*
X130638187Y-55224527D01*
X130584793Y-55186941D01*
X130538780Y-55140626D01*
X130501544Y-55086985D01*
X130474239Y-55027679D01*
X130457697Y-54964519D01*
X130451973Y-54893869D01*
X130469008Y-52396746D01*
X130469665Y-52395745D01*
X130470013Y-52395083D01*
X130479280Y-52372357D01*
X130479494Y-52371641D01*
X130484208Y-52347658D01*
X130484281Y-52346913D01*
X130484886Y-52334551D01*
X130485238Y-50389877D01*
X133509125Y-50389877D01*
X133533224Y-50521180D01*
X133582367Y-50645301D01*
X133654683Y-50757514D01*
X133747417Y-50853543D01*
X133857037Y-50929731D01*
X133979368Y-50983176D01*
X134109750Y-51011842D01*
X134243217Y-51014638D01*
X134374685Y-50991457D01*
X134499147Y-50943181D01*
X134611861Y-50871650D01*
X134708535Y-50779589D01*
X134785487Y-50670503D01*
X134809819Y-50615850D01*
X152746710Y-50615850D01*
X152746710Y-51430615D01*
X152761352Y-51504224D01*
X152790072Y-51573561D01*
X152831768Y-51635964D01*
X152884837Y-51689032D01*
X152947239Y-51730728D01*
X153016577Y-51759448D01*
X153090185Y-51774090D01*
X153904950Y-51774090D01*
X154000200Y-51678840D01*
X154000200Y-50520600D01*
X154254200Y-50520600D01*
X154254200Y-51678840D01*
X154349450Y-51774090D01*
X155164215Y-51774090D01*
X155237823Y-51759448D01*
X155307161Y-51730728D01*
X155369563Y-51689032D01*
X155422632Y-51635964D01*
X155464328Y-51573561D01*
X155493048Y-51504224D01*
X155507690Y-51430615D01*
X155507690Y-50615850D01*
X155412440Y-50520600D01*
X154254200Y-50520600D01*
X154000200Y-50520600D01*
X152841960Y-50520600D01*
X152746710Y-50615850D01*
X134809819Y-50615850D01*
X134839784Y-50548548D01*
X134869360Y-50418370D01*
X134871489Y-50265892D01*
X134845560Y-50134938D01*
X134794689Y-50011515D01*
X134720813Y-49900323D01*
X134626747Y-49805598D01*
X134516074Y-49730948D01*
X134393008Y-49679216D01*
X134262239Y-49652373D01*
X134128746Y-49651441D01*
X133997614Y-49676456D01*
X133873839Y-49726464D01*
X133762134Y-49799562D01*
X133666755Y-49892964D01*
X133591334Y-50003114D01*
X133538744Y-50125815D01*
X133510989Y-50256394D01*
X133509125Y-50389877D01*
X130485238Y-50389877D01*
X130485425Y-49356585D01*
X152746710Y-49356585D01*
X152746710Y-50171350D01*
X152841960Y-50266600D01*
X154000200Y-50266600D01*
X154000200Y-49108360D01*
X154254200Y-49108360D01*
X154254200Y-50266600D01*
X155412440Y-50266600D01*
X155507690Y-50171350D01*
X155507690Y-49356585D01*
X155493048Y-49282976D01*
X155464328Y-49213639D01*
X155422632Y-49151236D01*
X155369563Y-49098168D01*
X155307161Y-49056472D01*
X155237823Y-49027752D01*
X155164215Y-49013110D01*
X154349450Y-49013110D01*
X154254200Y-49108360D01*
X154000200Y-49108360D01*
X153904950Y-49013110D01*
X153090185Y-49013110D01*
X153016577Y-49027752D01*
X152947239Y-49056472D01*
X152884837Y-49098168D01*
X152831768Y-49151236D01*
X152790072Y-49213639D01*
X152761352Y-49282976D01*
X152746710Y-49356585D01*
X130485425Y-49356585D01*
X130485677Y-47969257D01*
X136430125Y-47969257D01*
X136454224Y-48100560D01*
X136503367Y-48224681D01*
X136575683Y-48336894D01*
X136668417Y-48432923D01*
X136778037Y-48509111D01*
X136900368Y-48562556D01*
X137030750Y-48591222D01*
X137164217Y-48594018D01*
X137295685Y-48570837D01*
X137420147Y-48522561D01*
X137532861Y-48451030D01*
X137629535Y-48358969D01*
X137706487Y-48249883D01*
X137760784Y-48127928D01*
X137790360Y-47997750D01*
X137792489Y-47845272D01*
X137766560Y-47714318D01*
X137715689Y-47590895D01*
X137641813Y-47479703D01*
X137547747Y-47384978D01*
X137437074Y-47310328D01*
X137314008Y-47258596D01*
X137183239Y-47231753D01*
X137049746Y-47230821D01*
X136918614Y-47255836D01*
X136794839Y-47305844D01*
X136683134Y-47378942D01*
X136587755Y-47472344D01*
X136512334Y-47582494D01*
X136459744Y-47705195D01*
X136431989Y-47835774D01*
X136430125Y-47969257D01*
X130485677Y-47969257D01*
X130486629Y-42719077D01*
X139379065Y-42719077D01*
X139403164Y-42850380D01*
X139452307Y-42974501D01*
X139524623Y-43086714D01*
X139617357Y-43182743D01*
X139726977Y-43258931D01*
X139849308Y-43312376D01*
X139979690Y-43341042D01*
X140113157Y-43343838D01*
X140244625Y-43320657D01*
X140369087Y-43272381D01*
X140481801Y-43200850D01*
X140578475Y-43108789D01*
X140655427Y-42999703D01*
X140709724Y-42877748D01*
X140739300Y-42747570D01*
X140741429Y-42595092D01*
X140715500Y-42464138D01*
X140664629Y-42340715D01*
X140590753Y-42229523D01*
X140496687Y-42134798D01*
X140386014Y-42060148D01*
X140262948Y-42008416D01*
X140132179Y-41981573D01*
X139998686Y-41980641D01*
X139867554Y-42005656D01*
X139743779Y-42055664D01*
X139632074Y-42128762D01*
X139536695Y-42222164D01*
X139461274Y-42332314D01*
X139408684Y-42455015D01*
X139380929Y-42585594D01*
X139379065Y-42719077D01*
X130486629Y-42719077D01*
X130487328Y-38868167D01*
X130495117Y-38789221D01*
X130516338Y-38719301D01*
X130550789Y-38654868D01*
X130597148Y-38598391D01*
X130653634Y-38552041D01*
X130718070Y-38517604D01*
X130787994Y-38496395D01*
X130866950Y-38488620D01*
X158201448Y-38488620D01*
X158272137Y-38494840D01*
X154563384Y-73929556D02*
X154563384Y-73929556D01*
X138985677Y-74132756D02*
X140728867Y-74132756D01*
X142089499Y-74132756D02*
X142199397Y-74132756D01*
X143558940Y-74132756D02*
X154899678Y-74132756D01*
X138938414Y-74335956D02*
X140767298Y-74335956D01*
X142054570Y-74335956D02*
X142253135Y-74335956D01*
X143506761Y-74335956D02*
X154942540Y-74335956D01*
X138938575Y-74539156D02*
X140878078Y-74539156D01*
X141940346Y-74539156D02*
X142386705Y-74539156D01*
X143374475Y-74539156D02*
X154942540Y-74539156D01*
X138938736Y-74742356D02*
X141157015Y-74742356D01*
X141662165Y-74742356D02*
X142767872Y-74742356D01*
X142987160Y-74742356D02*
X154942540Y-74742356D01*
X138938897Y-74945556D02*
X154942540Y-74945556D01*
X138939058Y-75148756D02*
X154942540Y-75148756D01*
X138939219Y-75351956D02*
X154942540Y-75351956D01*
X138939379Y-75555156D02*
X154942540Y-75555156D01*
X138939540Y-75758356D02*
X154942540Y-75758356D01*
X138939701Y-75961556D02*
X154942540Y-75961556D01*
X138939862Y-76164756D02*
X154942540Y-76164756D01*
X138940023Y-76367956D02*
X154942540Y-76367956D01*
X138940184Y-76571156D02*
X154942540Y-76571156D01*
X138940344Y-76774356D02*
X154942540Y-76774356D01*
X138940505Y-76977556D02*
X154942540Y-76977556D01*
X138940666Y-77180756D02*
X154942540Y-77180756D01*
X138940827Y-77383956D02*
X154942540Y-77383956D01*
X138940988Y-77587156D02*
X154942540Y-77587156D01*
X138941148Y-77790356D02*
X154942540Y-77790356D01*
X138941309Y-77993556D02*
X154942540Y-77993556D01*
X138941470Y-78196756D02*
X154942540Y-78196756D01*
X138941631Y-78399956D02*
X154942540Y-78399956D01*
X138941792Y-78603156D02*
X154942540Y-78603156D01*
X138941953Y-78806356D02*
X154942540Y-78806356D01*
X138942113Y-79009556D02*
X154942540Y-79009556D01*
X138942274Y-79212756D02*
X154942540Y-79212756D01*
X138942435Y-79415956D02*
X154942540Y-79415956D01*
X138942596Y-79619156D02*
X154942540Y-79619156D01*
X138942757Y-79822356D02*
X154942540Y-79822356D01*
X138942917Y-80025556D02*
X154942540Y-80025556D01*
X138943078Y-80228756D02*
X154942540Y-80228756D01*
X138943239Y-80431956D02*
X154942540Y-80431956D01*
X138943400Y-80635156D02*
X154942540Y-80635156D01*
X138943561Y-80838356D02*
X154942540Y-80838356D01*
X138943722Y-81041556D02*
X154942540Y-81041556D01*
X138943882Y-81244756D02*
X154942540Y-81244756D01*
X138944043Y-81447956D02*
X149750531Y-81447956D01*
X150567941Y-81447956D02*
X154942540Y-81447956D01*
X138944204Y-81651156D02*
X149569255Y-81651156D01*
X150749412Y-81651156D02*
X154942540Y-81651156D01*
X138944365Y-81854356D02*
X149493390Y-81854356D01*
X150826088Y-81854356D02*
X154942156Y-81854356D01*
X138944526Y-82057556D02*
X149479312Y-82057556D01*
X150838645Y-82057556D02*
X154880799Y-82057556D01*
X138944687Y-82260756D02*
X149533274Y-82260756D01*
X150786009Y-82260756D02*
X154690385Y-82260756D01*
X138944847Y-82463956D02*
X149667449Y-82463956D01*
X150653082Y-82463956D02*
X154486400Y-82463956D01*
X138945008Y-82667156D02*
X150052413Y-82667156D01*
X150260868Y-82667156D02*
X154282414Y-82667156D01*
X138945169Y-82870356D02*
X154078429Y-82870356D01*
X138945330Y-83073556D02*
X153874443Y-83073556D01*
X138945490Y-83276756D02*
X153670458Y-83276756D01*
X138945651Y-83479956D02*
X153466472Y-83479956D01*
X138945812Y-83683156D02*
X153262487Y-83683156D01*
X138945973Y-83886356D02*
X153058501Y-83886356D01*
X138946134Y-84089556D02*
X152854516Y-84089556D01*
X138946294Y-84292756D02*
X152650531Y-84292756D01*
X138946455Y-84495956D02*
X152446545Y-84495956D01*
X138946616Y-84699156D02*
X152242560Y-84699156D01*
X138946777Y-84902356D02*
X147126999Y-84902356D01*
X147469503Y-84902356D02*
X152038574Y-84902356D01*
X138946938Y-85105556D02*
X146793268Y-85105556D01*
X147805357Y-85105556D02*
X151834589Y-85105556D01*
X138947098Y-85308756D02*
X146667768Y-85308756D01*
X147931427Y-85308756D02*
X151630603Y-85308756D01*
X138947259Y-85511956D02*
X146619570Y-85511956D01*
X147980201Y-85511956D02*
X151426618Y-85511956D01*
X138947420Y-85715156D02*
X146635588Y-85715156D01*
X147963081Y-85715156D02*
X151222632Y-85715156D01*
X138947580Y-85918356D02*
X146719182Y-85918356D01*
X147881691Y-85918356D02*
X151018647Y-85918356D01*
X138947741Y-86121556D02*
X146911338Y-86121556D01*
X147689119Y-86121556D02*
X150814661Y-86121556D01*
X138992756Y-86324756D02*
X150610676Y-86324756D01*
X142091317Y-86527956D02*
X150311765Y-86527956D01*
X154633705Y-73935666D02*
X154696528Y-73952465D01*
X154755474Y-73979920D01*
X154808752Y-74017195D01*
X154854747Y-74063161D01*
X154892056Y-74116417D01*
X154919550Y-74175350D01*
X154936385Y-74238154D01*
X154942540Y-74308476D01*
X154942540Y-81849482D01*
X154937530Y-81912982D01*
X154923800Y-81970025D01*
X154901297Y-82024206D01*
X154870574Y-82074190D01*
X154829126Y-82122549D01*
X150513223Y-86421833D01*
X150451883Y-86471989D01*
X150387471Y-86506291D01*
X150317612Y-86527386D01*
X150238745Y-86535074D01*
X139327051Y-86525541D01*
X139248178Y-86517712D01*
X139178336Y-86496483D01*
X139113970Y-86462049D01*
X139057546Y-86415730D01*
X139011235Y-86359307D01*
X138976808Y-86294940D01*
X138955582Y-86225091D01*
X138947760Y-86146220D01*
X138947344Y-85619677D01*
X146618065Y-85619677D01*
X146642164Y-85750980D01*
X146691307Y-85875101D01*
X146763623Y-85987314D01*
X146856357Y-86083343D01*
X146965977Y-86159531D01*
X147088308Y-86212976D01*
X147218690Y-86241642D01*
X147352157Y-86244438D01*
X147483625Y-86221257D01*
X147608087Y-86172981D01*
X147720801Y-86101450D01*
X147817475Y-86009389D01*
X147894427Y-85900303D01*
X147948724Y-85778348D01*
X147978300Y-85648170D01*
X147980429Y-85495692D01*
X147954500Y-85364738D01*
X147903629Y-85241315D01*
X147829753Y-85130123D01*
X147735687Y-85035398D01*
X147625014Y-84960748D01*
X147501948Y-84909016D01*
X147371179Y-84882173D01*
X147237686Y-84881241D01*
X147106554Y-84906256D01*
X146982779Y-84956264D01*
X146871074Y-85029362D01*
X146775695Y-85122764D01*
X146700274Y-85232914D01*
X146647684Y-85355615D01*
X146619929Y-85486194D01*
X146618065Y-85619677D01*
X138947344Y-85619677D01*
X138944520Y-82050977D01*
X149478105Y-82050977D01*
X149502204Y-82182280D01*
X149551347Y-82306401D01*
X149623663Y-82418614D01*
X149716397Y-82514643D01*
X149826017Y-82590831D01*
X149948348Y-82644276D01*
X150078730Y-82672942D01*
X150212197Y-82675738D01*
X150343665Y-82652557D01*
X150468127Y-82604281D01*
X150580841Y-82532750D01*
X150677515Y-82440689D01*
X150754467Y-82331603D01*
X150808764Y-82209648D01*
X150838340Y-82079470D01*
X150840469Y-81926992D01*
X150814540Y-81796038D01*
X150763669Y-81672615D01*
X150689793Y-81561423D01*
X150595727Y-81466698D01*
X150485054Y-81392048D01*
X150361988Y-81340316D01*
X150231219Y-81313473D01*
X150097726Y-81312541D01*
X149966594Y-81337556D01*
X149842819Y-81387564D01*
X149731114Y-81460662D01*
X149635735Y-81554064D01*
X149560314Y-81664214D01*
X149507724Y-81786915D01*
X149479969Y-81917494D01*
X149478105Y-82050977D01*
X138944520Y-82050977D01*
X138938400Y-74318304D01*
X138944496Y-74248004D01*
X138961276Y-74185189D01*
X138988701Y-74126259D01*
X139025950Y-74072980D01*
X139071884Y-74026981D01*
X139125109Y-73989658D01*
X139184008Y-73962145D01*
X139246785Y-73945280D01*
X139317091Y-73939084D01*
X140750562Y-73938188D01*
X140730249Y-74033754D01*
X140728385Y-74167237D01*
X140752484Y-74298540D01*
X140801627Y-74422661D01*
X140873943Y-74534874D01*
X140966677Y-74630903D01*
X141076297Y-74707091D01*
X141198628Y-74760536D01*
X141329010Y-74789202D01*
X141462477Y-74791998D01*
X141593945Y-74768817D01*
X141718407Y-74720541D01*
X141831121Y-74649010D01*
X141927795Y-74556949D01*
X142004747Y-74447863D01*
X142059044Y-74325908D01*
X142088620Y-74195730D01*
X142090749Y-74043252D01*
X142069783Y-73937364D01*
X142212254Y-73937275D01*
X142200249Y-73993754D01*
X142198385Y-74127237D01*
X142222484Y-74258540D01*
X142271627Y-74382661D01*
X142343943Y-74494874D01*
X142436677Y-74590903D01*
X142546297Y-74667091D01*
X142668628Y-74720536D01*
X142799010Y-74749202D01*
X142932477Y-74751998D01*
X143063945Y-74728817D01*
X143188407Y-74680541D01*
X143301121Y-74609010D01*
X143397795Y-74516949D01*
X143474747Y-74407863D01*
X143529044Y-74285908D01*
X143558620Y-74155730D01*
X143560749Y-74003252D01*
X143547520Y-73936440D01*
X154563384Y-73929556D01*
X154633705Y-73935666D01*
X136726615Y-57647000D02*
X138665889Y-57647000D01*
X139211708Y-57647000D02*
X149583385Y-57647000D01*
X136390703Y-57850200D02*
X149919296Y-57850200D01*
X136347000Y-58053400D02*
X149963000Y-58053400D01*
X136347000Y-58256600D02*
X149963000Y-58256600D01*
X136347000Y-58459800D02*
X149963000Y-58459800D01*
X136347000Y-58663000D02*
X149963000Y-58663000D01*
X136347000Y-58866200D02*
X149963000Y-58866200D01*
X136347000Y-59069400D02*
X149963000Y-59069400D01*
X136347000Y-59272600D02*
X149963000Y-59272600D01*
X136347000Y-59475800D02*
X149963000Y-59475800D01*
X136347000Y-59679000D02*
X149963000Y-59679000D01*
X136347000Y-59882200D02*
X149963000Y-59882200D01*
X136347000Y-60085400D02*
X149963000Y-60085400D01*
X136347000Y-60288600D02*
X149963000Y-60288600D01*
X136347000Y-60491800D02*
X149963000Y-60491800D01*
X136347000Y-60695000D02*
X149963000Y-60695000D01*
X136347000Y-60898200D02*
X149963000Y-60898200D01*
X136347000Y-61101400D02*
X149963000Y-61101400D01*
X136347000Y-61304600D02*
X149963000Y-61304600D01*
X136347000Y-61507800D02*
X149963000Y-61507800D01*
X136347000Y-61711000D02*
X149963000Y-61711000D01*
X136347000Y-61914200D02*
X149963000Y-61914200D01*
X136347000Y-62117400D02*
X149963000Y-62117400D01*
X136347000Y-62320600D02*
X149963000Y-62320600D01*
X136347000Y-62523800D02*
X149963000Y-62523800D01*
X136347000Y-62727000D02*
X149963000Y-62727000D01*
X136347000Y-62930200D02*
X149963000Y-62930200D01*
X136347000Y-63133400D02*
X149963000Y-63133400D01*
X136347000Y-63336600D02*
X149963000Y-63336600D01*
X136347000Y-63539800D02*
X149963000Y-63539800D01*
X136347000Y-63743000D02*
X149963000Y-63743000D01*
X136347000Y-63946200D02*
X143751920Y-63946200D01*
X144629227Y-63946200D02*
X149963000Y-63946200D01*
X136347000Y-64149400D02*
X143586769Y-64149400D01*
X144794166Y-64149400D02*
X149963000Y-64149400D01*
X136347000Y-64352600D02*
X143518997Y-64352600D01*
X144860720Y-64352600D02*
X149963000Y-64352600D01*
X136347000Y-64555800D02*
X143513627Y-64555800D01*
X144868604Y-64555800D02*
X149961778Y-64555800D01*
X136347000Y-64759000D02*
X143572258Y-64759000D01*
X144806501Y-64759000D02*
X149897691Y-64759000D01*
X136347000Y-64962200D02*
X143718958Y-64962200D01*
X144660276Y-64962200D02*
X147756391Y-64962200D01*
X136347000Y-65165400D02*
X147477837Y-65165400D01*
X136347000Y-65368600D02*
X139642160Y-65368600D01*
X140289350Y-65368600D02*
X140710650Y-65368600D01*
X141357841Y-65368600D02*
X142870887Y-65368600D01*
X143212854Y-65368600D02*
X147372430Y-65368600D01*
X136347000Y-65571800D02*
X139394451Y-65571800D01*
X140373000Y-65571800D02*
X140627000Y-65571800D01*
X141605550Y-65571800D02*
X142370920Y-65571800D01*
X143707992Y-65571800D02*
X147343000Y-65571800D01*
X136347000Y-65775000D02*
X139357000Y-65775000D01*
X140373000Y-65775000D02*
X140627000Y-65775000D01*
X141643000Y-65775000D02*
X142151095Y-65775000D01*
X143930649Y-65775000D02*
X147343000Y-65775000D01*
X136347000Y-65978200D02*
X139357000Y-65978200D01*
X140373000Y-65978200D02*
X140627000Y-65978200D01*
X141643000Y-65978200D02*
X142020031Y-65978200D01*
X144061265Y-65978200D02*
X147343000Y-65978200D01*
X136347000Y-66181400D02*
X139357000Y-66181400D01*
X140373000Y-66181400D02*
X140627000Y-66181400D01*
X141643000Y-66181400D02*
X141939136Y-66181400D01*
X144142156Y-66181400D02*
X147343000Y-66181400D01*
X136347000Y-66384600D02*
X141898452Y-66384600D01*
X144182392Y-66384600D02*
X147343000Y-66384600D01*
X136347000Y-66587800D02*
X141895615Y-66587800D01*
X144180257Y-66587800D02*
X147343000Y-66587800D01*
X136347000Y-66791000D02*
X139357000Y-66791000D01*
X140373000Y-66791000D02*
X140627000Y-66791000D01*
X141643000Y-66791000D02*
X141931267Y-66791000D01*
X144146064Y-66791000D02*
X147343000Y-66791000D01*
X136347000Y-66994200D02*
X139357000Y-66994200D01*
X140373000Y-66994200D02*
X140627000Y-66994200D01*
X141643000Y-66994200D02*
X142006287Y-66994200D01*
X144071190Y-66994200D02*
X147343000Y-66994200D01*
X136347000Y-67197400D02*
X139357000Y-67197400D01*
X140373000Y-67197400D02*
X140627000Y-67197400D01*
X141643000Y-67197400D02*
X142129589Y-67197400D01*
X143946870Y-67197400D02*
X147343000Y-67197400D01*
X136347000Y-67400600D02*
X139383018Y-67400600D01*
X140373000Y-67400600D02*
X140627000Y-67400600D01*
X141616981Y-67400600D02*
X142332952Y-67400600D01*
X143751783Y-67400600D02*
X147343000Y-67400600D01*
X136347000Y-67603800D02*
X139567577Y-67603800D01*
X140316950Y-67603800D02*
X140683050Y-67603800D01*
X141432422Y-67603800D02*
X142737312Y-67603800D01*
X143355103Y-67603800D02*
X147343000Y-67603800D01*
X136347000Y-67807000D02*
X147343000Y-67807000D01*
X136347000Y-68010200D02*
X147343000Y-68010200D01*
X136347000Y-68213400D02*
X147343000Y-68213400D01*
X136347000Y-68416600D02*
X147343000Y-68416600D01*
X136347000Y-68619800D02*
X147343000Y-68619800D01*
X136347000Y-68823000D02*
X147343000Y-68823000D01*
X136347000Y-69026200D02*
X147343000Y-69026200D01*
X136347000Y-69229400D02*
X147343000Y-69229400D01*
X136347000Y-69432600D02*
X147343000Y-69432600D01*
X136347000Y-69635800D02*
X147343000Y-69635800D01*
X136347000Y-69839000D02*
X147343000Y-69839000D01*
X136347000Y-70042200D02*
X147343000Y-70042200D01*
X136377662Y-70245400D02*
X147315953Y-70245400D01*
X136592861Y-70448600D02*
X147120563Y-70448600D01*
X138726628Y-57673536D02*
X138857010Y-57702202D01*
X138990477Y-57704998D01*
X139121945Y-57681817D01*
X139211708Y-57647000D01*
X149583385Y-57647000D01*
X149662338Y-57654777D01*
X149732275Y-57675991D01*
X149796717Y-57710436D01*
X149853205Y-57756795D01*
X149899564Y-57813283D01*
X149934009Y-57877725D01*
X149955223Y-57947662D01*
X149963000Y-58026615D01*
X149963000Y-64543385D01*
X149955223Y-64622338D01*
X149934009Y-64692275D01*
X149899564Y-64756717D01*
X149853205Y-64813205D01*
X149796717Y-64859564D01*
X149732275Y-64894009D01*
X149662338Y-64915223D01*
X149583385Y-64923000D01*
X147970380Y-64923000D01*
X147957931Y-64923612D01*
X147860312Y-64933227D01*
X147835895Y-64938083D01*
X147742027Y-64966557D01*
X147719026Y-64976085D01*
X147632517Y-65022325D01*
X147611816Y-65036157D01*
X147535990Y-65098386D01*
X147518386Y-65115990D01*
X147456157Y-65191816D01*
X147442325Y-65212517D01*
X147396085Y-65299026D01*
X147386557Y-65322027D01*
X147358083Y-65415895D01*
X147353227Y-65440312D01*
X147343612Y-65537931D01*
X147343000Y-65550380D01*
X147343000Y-70103567D01*
X147336842Y-70173909D01*
X147319997Y-70236732D01*
X147292495Y-70295670D01*
X147255166Y-70348935D01*
X147209151Y-70394903D01*
X147155848Y-70432177D01*
X147096885Y-70459620D01*
X147034040Y-70476403D01*
X146963698Y-70482489D01*
X137560380Y-70473000D01*
X136726615Y-70473000D01*
X136647662Y-70465223D01*
X136577725Y-70444009D01*
X136513283Y-70409564D01*
X136456795Y-70363205D01*
X136410436Y-70306717D01*
X136375991Y-70242275D01*
X136354777Y-70172338D01*
X136347000Y-70093385D01*
X136347000Y-66722250D01*
X139357000Y-66722250D01*
X139357000Y-67299525D01*
X139371642Y-67373134D01*
X139400362Y-67442471D01*
X139442058Y-67504874D01*
X139495127Y-67557942D01*
X139557529Y-67599638D01*
X139626867Y-67628358D01*
X139700475Y-67643000D01*
X140277750Y-67643000D01*
X140373000Y-67547750D01*
X140373000Y-66627000D01*
X140627000Y-66627000D01*
X140627000Y-67547750D01*
X140722250Y-67643000D01*
X141299525Y-67643000D01*
X141373133Y-67628358D01*
X141442471Y-67599638D01*
X141504873Y-67557942D01*
X141557942Y-67504874D01*
X141599638Y-67442471D01*
X141628358Y-67373134D01*
X141643000Y-67299525D01*
X141643000Y-66722250D01*
X141547750Y-66627000D01*
X140627000Y-66627000D01*
X140373000Y-66627000D01*
X139452250Y-66627000D01*
X139357000Y-66722250D01*
X136347000Y-66722250D01*
X136347000Y-66596107D01*
X141895498Y-66596107D01*
X141935962Y-66816578D01*
X142018479Y-67024991D01*
X142139905Y-67213407D01*
X142295615Y-67374650D01*
X142479679Y-67502577D01*
X142685085Y-67592317D01*
X142904009Y-67640451D01*
X143128114Y-67645145D01*
X143348862Y-67606221D01*
X143557846Y-67525162D01*
X143747106Y-67405054D01*
X143909432Y-67250473D01*
X144038641Y-67067307D01*
X144129813Y-66862532D01*
X144179473Y-66643949D01*
X144183049Y-66387923D01*
X144139510Y-66168038D01*
X144054092Y-65960798D01*
X143930047Y-65774095D01*
X143772101Y-65615042D01*
X143586269Y-65489697D01*
X143379630Y-65402834D01*
X143160054Y-65357762D01*
X142935906Y-65356197D01*
X142715722Y-65398199D01*
X142507891Y-65482169D01*
X142320327Y-65604907D01*
X142160175Y-65761739D01*
X142033535Y-65946691D01*
X141945232Y-66152719D01*
X141898628Y-66371975D01*
X141895498Y-66596107D01*
X136347000Y-66596107D01*
X136347000Y-65700475D01*
X139357000Y-65700475D01*
X139357000Y-66277750D01*
X139452250Y-66373000D01*
X140373000Y-66373000D01*
X140373000Y-65452250D01*
X140627000Y-65452250D01*
X140627000Y-66373000D01*
X141547750Y-66373000D01*
X141643000Y-66277750D01*
X141643000Y-65700475D01*
X141628358Y-65626866D01*
X141599638Y-65557529D01*
X141557942Y-65495126D01*
X141504873Y-65442058D01*
X141442471Y-65400362D01*
X141373133Y-65371642D01*
X141299525Y-65357000D01*
X140722250Y-65357000D01*
X140627000Y-65452250D01*
X140373000Y-65452250D01*
X140277750Y-65357000D01*
X139700475Y-65357000D01*
X139626867Y-65371642D01*
X139557529Y-65400362D01*
X139495127Y-65442058D01*
X139442058Y-65495126D01*
X139400362Y-65557529D01*
X139371642Y-65626866D01*
X139357000Y-65700475D01*
X136347000Y-65700475D01*
X136347000Y-64527237D01*
X143508385Y-64527237D01*
X143532484Y-64658540D01*
X143581627Y-64782661D01*
X143653943Y-64894874D01*
X143746677Y-64990903D01*
X143856297Y-65067091D01*
X143978628Y-65120536D01*
X144109010Y-65149202D01*
X144242477Y-65151998D01*
X144373945Y-65128817D01*
X144498407Y-65080541D01*
X144611121Y-65009010D01*
X144707795Y-64916949D01*
X144784747Y-64807863D01*
X144839044Y-64685908D01*
X144868620Y-64555730D01*
X144870749Y-64403252D01*
X144844820Y-64272298D01*
X144793949Y-64148875D01*
X144720073Y-64037683D01*
X144626007Y-63942958D01*
X144515334Y-63868308D01*
X144392268Y-63816576D01*
X144261499Y-63789733D01*
X144128006Y-63788801D01*
X143996874Y-63813816D01*
X143873099Y-63863824D01*
X143761394Y-63936922D01*
X143666015Y-64030324D01*
X143590594Y-64140474D01*
X143538004Y-64263175D01*
X143510249Y-64393754D01*
X143508385Y-64527237D01*
X136347000Y-64527237D01*
X136347000Y-58026615D01*
X136354777Y-57947662D01*
X136375991Y-57877725D01*
X136410436Y-57813283D01*
X136456795Y-57756795D01*
X136513283Y-57710436D01*
X136577725Y-57675991D01*
X136647662Y-57654777D01*
X136726615Y-57647000D01*
X138665889Y-57647000D01*
X138726628Y-57673536D01*
X150856615Y-65097000D02*
X153933385Y-65097000D01*
X150520703Y-65300200D02*
X154269296Y-65300200D01*
X150477000Y-65503400D02*
X154313000Y-65503400D01*
X150477000Y-65706600D02*
X154313000Y-65706600D01*
X150477000Y-65909800D02*
X154313000Y-65909800D01*
X150473341Y-66113000D02*
X154313000Y-66113000D01*
X150425892Y-66316200D02*
X154313000Y-66316200D01*
X150286224Y-66519400D02*
X154313000Y-66519400D01*
X148568904Y-66722600D02*
X154313000Y-66722600D01*
X148357019Y-66925800D02*
X154313000Y-66925800D01*
X148327000Y-67129000D02*
X154313000Y-67129000D01*
X148327000Y-67332200D02*
X154313000Y-67332200D01*
X148327000Y-67535400D02*
X154313000Y-67535400D01*
X148327000Y-67738600D02*
X154347646Y-67738600D01*
X148327000Y-67941800D02*
X154461951Y-67941800D01*
X148327000Y-68145000D02*
X154783092Y-68145000D01*
X148327000Y-68348200D02*
X157437537Y-68348200D01*
X148327000Y-68551400D02*
X157493000Y-68551400D01*
X148327000Y-68754600D02*
X157493000Y-68754600D01*
X148327000Y-68957800D02*
X157493000Y-68957800D01*
X148327000Y-69161000D02*
X157493000Y-69161000D01*
X148327000Y-69364200D02*
X157493000Y-69364200D01*
X148327000Y-69567400D02*
X157493000Y-69567400D01*
X148327000Y-69770600D02*
X157493000Y-69770600D01*
X148327000Y-69973800D02*
X157493000Y-69973800D01*
X148329327Y-70177000D02*
X157490674Y-70177000D01*
X148401502Y-70380200D02*
X157418499Y-70380200D01*
X154012338Y-65104777D02*
X154082275Y-65125991D01*
X154146717Y-65160436D01*
X154203205Y-65206795D01*
X154249564Y-65263283D01*
X154284009Y-65327725D01*
X154305223Y-65397662D01*
X154313000Y-65476615D01*
X154313000Y-67539620D01*
X154313612Y-67552069D01*
X154323227Y-67649688D01*
X154328083Y-67674105D01*
X154356557Y-67767973D01*
X154366085Y-67790974D01*
X154412325Y-67877483D01*
X154426157Y-67898184D01*
X154488386Y-67974010D01*
X154505990Y-67991614D01*
X154581816Y-68053843D01*
X154602517Y-68067675D01*
X154689026Y-68113915D01*
X154712027Y-68123443D01*
X154805895Y-68151917D01*
X154830312Y-68156773D01*
X154927931Y-68166388D01*
X154940380Y-68167000D01*
X157113385Y-68167000D01*
X157192338Y-68174777D01*
X157262275Y-68195991D01*
X157326717Y-68230436D01*
X157383205Y-68276795D01*
X157429564Y-68333283D01*
X157464009Y-68397725D01*
X157485223Y-68467662D01*
X157493000Y-68546615D01*
X157493000Y-70153385D01*
X157485223Y-70232338D01*
X157464009Y-70302275D01*
X157429564Y-70366717D01*
X157383205Y-70423205D01*
X157326717Y-70469564D01*
X157262275Y-70504009D01*
X157192338Y-70525223D01*
X157113385Y-70533000D01*
X148706615Y-70533000D01*
X148627662Y-70525223D01*
X148557725Y-70504009D01*
X148493283Y-70469564D01*
X148436795Y-70423205D01*
X148390436Y-70366717D01*
X148355991Y-70302275D01*
X148334777Y-70232338D01*
X148327000Y-70153385D01*
X148327000Y-67076615D01*
X148334777Y-66997662D01*
X148355991Y-66927725D01*
X148390436Y-66863283D01*
X148436795Y-66806795D01*
X148493283Y-66760436D01*
X148557725Y-66725991D01*
X148627662Y-66704777D01*
X148706615Y-66697000D01*
X149849620Y-66697000D01*
X149862069Y-66696388D01*
X149959688Y-66686773D01*
X149984105Y-66681917D01*
X150077973Y-66653443D01*
X150100974Y-66643915D01*
X150187483Y-66597675D01*
X150208184Y-66583843D01*
X150284010Y-66521614D01*
X150301614Y-66504010D01*
X150363843Y-66428184D01*
X150377675Y-66407483D01*
X150423915Y-66320974D01*
X150433443Y-66297973D01*
X150461917Y-66204105D01*
X150466773Y-66179688D01*
X150476388Y-66082069D01*
X150477000Y-66069620D01*
X150477000Y-65476615D01*
X150484777Y-65397662D01*
X150505991Y-65327725D01*
X150540436Y-65263283D01*
X150586795Y-65206795D01*
X150643283Y-65160436D01*
X150707725Y-65125991D01*
X150777662Y-65104777D01*
X150856615Y-65097000D01*
X153933385Y-65097000D01*
X154012338Y-65104777D01*
G36*
X95551580Y-117458420D02*
X95881194Y-117678662D01*
X96270000Y-117756000D01*
X98933000Y-117756000D01*
X98933000Y-121777095D01*
X98666013Y-121666232D01*
X98135514Y-121665769D01*
X97645220Y-121868354D01*
X97269773Y-122243147D01*
X97129506Y-122580946D01*
X96990746Y-122245120D01*
X96615953Y-121869673D01*
X96126013Y-121666232D01*
X95595514Y-121665769D01*
X95105220Y-121868354D01*
X94729773Y-122243147D01*
X94589506Y-122580946D01*
X94450746Y-122245120D01*
X94075953Y-121869673D01*
X93586013Y-121666232D01*
X93055514Y-121665769D01*
X92565220Y-121868354D01*
X92189773Y-122243147D01*
X92049506Y-122580946D01*
X91910746Y-122245120D01*
X91535953Y-121869673D01*
X91046013Y-121666232D01*
X90515514Y-121665769D01*
X90025220Y-121868354D01*
X89649773Y-122243147D01*
X89585540Y-122397837D01*
X89585540Y-122301000D01*
X89541262Y-122065683D01*
X89402190Y-121849559D01*
X89189990Y-121704569D01*
X88938100Y-121653560D01*
X87541100Y-121653560D01*
X87305783Y-121697838D01*
X87089659Y-121836910D01*
X86944669Y-122049110D01*
X86893660Y-122301000D01*
X86893660Y-123698000D01*
X86937938Y-123933317D01*
X87077010Y-124149441D01*
X87289210Y-124294431D01*
X87541100Y-124345440D01*
X88938100Y-124345440D01*
X89173417Y-124301162D01*
X89389541Y-124162090D01*
X89534531Y-123949890D01*
X89585540Y-123698000D01*
X89585540Y-123601616D01*
X89648454Y-123753880D01*
X90023247Y-124129327D01*
X90513187Y-124332768D01*
X91043686Y-124333231D01*
X91533980Y-124130646D01*
X91909427Y-123755853D01*
X92049694Y-123418054D01*
X92188454Y-123753880D01*
X92563247Y-124129327D01*
X93053187Y-124332768D01*
X93583686Y-124333231D01*
X94073980Y-124130646D01*
X94449427Y-123755853D01*
X94589694Y-123418054D01*
X94728454Y-123753880D01*
X95103247Y-124129327D01*
X95593187Y-124332768D01*
X96123686Y-124333231D01*
X96613980Y-124130646D01*
X96989427Y-123755853D01*
X97129694Y-123418054D01*
X97268454Y-123753880D01*
X97643247Y-124129327D01*
X98133187Y-124332768D01*
X98663686Y-124333231D01*
X98933000Y-124221953D01*
X98933000Y-126654105D01*
X98738743Y-126573443D01*
X98366888Y-126573118D01*
X98023216Y-126715121D01*
X97760045Y-126977832D01*
X97617443Y-127321257D01*
X97617118Y-127693112D01*
X97759121Y-128036784D01*
X98021832Y-128299955D01*
X98365257Y-128442557D01*
X98737112Y-128442882D01*
X98933000Y-128361942D01*
X98933000Y-135711151D01*
X98776045Y-135867832D01*
X98633443Y-136211257D01*
X98633118Y-136583112D01*
X98775121Y-136926784D01*
X98933000Y-137084939D01*
X98933000Y-138429316D01*
X98906348Y-141074500D01*
X82037250Y-141074500D01*
X82037729Y-138573991D01*
X82654735Y-138573991D01*
X82887932Y-139138371D01*
X83319357Y-139570551D01*
X83883330Y-139804733D01*
X84493991Y-139805265D01*
X85058371Y-139572068D01*
X85490551Y-139140643D01*
X85724733Y-138576670D01*
X85725265Y-137966009D01*
X85492068Y-137401629D01*
X85060643Y-136969449D01*
X84496670Y-136735267D01*
X83886009Y-136734735D01*
X83321629Y-136967932D01*
X82889449Y-137399357D01*
X82655267Y-137963330D01*
X82654735Y-138573991D01*
X82037729Y-138573991D01*
X82038632Y-133870000D01*
X82642560Y-133870000D01*
X82642560Y-135670000D01*
X82686838Y-135905317D01*
X82825910Y-136121441D01*
X83038110Y-136266431D01*
X83290000Y-136317440D01*
X85090000Y-136317440D01*
X85325317Y-136273162D01*
X85541441Y-136134090D01*
X85686431Y-135921890D01*
X85737440Y-135670000D01*
X85737440Y-133870000D01*
X85693162Y-133634683D01*
X85554090Y-133418559D01*
X85341890Y-133273569D01*
X85090000Y-133222560D01*
X83290000Y-133222560D01*
X83054683Y-133266838D01*
X82838559Y-133405910D01*
X82693569Y-133618110D01*
X82642560Y-133870000D01*
X82038632Y-133870000D01*
X82039104Y-131410159D01*
X83279446Y-131410159D01*
X83365852Y-131666643D01*
X83939336Y-131876458D01*
X84549460Y-131850839D01*
X84994148Y-131666643D01*
X85080554Y-131410159D01*
X84180000Y-130509605D01*
X83279446Y-131410159D01*
X82039104Y-131410159D01*
X82039358Y-130089336D01*
X82633542Y-130089336D01*
X82659161Y-130699460D01*
X82843357Y-131144148D01*
X83099841Y-131230554D01*
X84000395Y-130330000D01*
X84359605Y-130330000D01*
X85260159Y-131230554D01*
X85516643Y-131144148D01*
X85726458Y-130570664D01*
X85700839Y-129960540D01*
X85516643Y-129515852D01*
X85260159Y-129429446D01*
X84359605Y-130330000D01*
X84000395Y-130330000D01*
X83099841Y-129429446D01*
X82843357Y-129515852D01*
X82633542Y-130089336D01*
X82039358Y-130089336D01*
X82039519Y-129249841D01*
X83279446Y-129249841D01*
X84180000Y-130150395D01*
X85080554Y-129249841D01*
X84994148Y-128993357D01*
X84420664Y-128783542D01*
X83810540Y-128809161D01*
X83365852Y-128993357D01*
X83279446Y-129249841D01*
X82039519Y-129249841D01*
X82040157Y-125930000D01*
X82632560Y-125930000D01*
X82632560Y-127730000D01*
X82676838Y-127965317D01*
X82815910Y-128181441D01*
X83028110Y-128326431D01*
X83280000Y-128377440D01*
X85080000Y-128377440D01*
X85315317Y-128333162D01*
X85531441Y-128194090D01*
X85676431Y-127981890D01*
X85727440Y-127730000D01*
X85727440Y-125930000D01*
X85683162Y-125694683D01*
X85544090Y-125478559D01*
X85331890Y-125333569D01*
X85080000Y-125282560D01*
X83280000Y-125282560D01*
X83044683Y-125326838D01*
X82828559Y-125465910D01*
X82683569Y-125678110D01*
X82632560Y-125930000D01*
X82040157Y-125930000D01*
X82041035Y-121358574D01*
X82255585Y-121679670D01*
X82741766Y-122004526D01*
X83315255Y-122118600D01*
X83684745Y-122118600D01*
X84258234Y-122004526D01*
X84744415Y-121679670D01*
X85069271Y-121193489D01*
X85183345Y-120620000D01*
X85115902Y-120280938D01*
X86730840Y-118666000D01*
X93589100Y-118666000D01*
X93913400Y-118601493D01*
X93977907Y-118588662D01*
X94307520Y-118368420D01*
X95417774Y-117258166D01*
X95551580Y-117458420D01*
X95551580Y-117458420D01*
G37*
X95551580Y-117458420D02*
X95881194Y-117678662D01*
X96270000Y-117756000D01*
X98933000Y-117756000D01*
X98933000Y-121777095D01*
X98666013Y-121666232D01*
X98135514Y-121665769D01*
X97645220Y-121868354D01*
X97269773Y-122243147D01*
X97129506Y-122580946D01*
X96990746Y-122245120D01*
X96615953Y-121869673D01*
X96126013Y-121666232D01*
X95595514Y-121665769D01*
X95105220Y-121868354D01*
X94729773Y-122243147D01*
X94589506Y-122580946D01*
X94450746Y-122245120D01*
X94075953Y-121869673D01*
X93586013Y-121666232D01*
X93055514Y-121665769D01*
X92565220Y-121868354D01*
X92189773Y-122243147D01*
X92049506Y-122580946D01*
X91910746Y-122245120D01*
X91535953Y-121869673D01*
X91046013Y-121666232D01*
X90515514Y-121665769D01*
X90025220Y-121868354D01*
X89649773Y-122243147D01*
X89585540Y-122397837D01*
X89585540Y-122301000D01*
X89541262Y-122065683D01*
X89402190Y-121849559D01*
X89189990Y-121704569D01*
X88938100Y-121653560D01*
X87541100Y-121653560D01*
X87305783Y-121697838D01*
X87089659Y-121836910D01*
X86944669Y-122049110D01*
X86893660Y-122301000D01*
X86893660Y-123698000D01*
X86937938Y-123933317D01*
X87077010Y-124149441D01*
X87289210Y-124294431D01*
X87541100Y-124345440D01*
X88938100Y-124345440D01*
X89173417Y-124301162D01*
X89389541Y-124162090D01*
X89534531Y-123949890D01*
X89585540Y-123698000D01*
X89585540Y-123601616D01*
X89648454Y-123753880D01*
X90023247Y-124129327D01*
X90513187Y-124332768D01*
X91043686Y-124333231D01*
X91533980Y-124130646D01*
X91909427Y-123755853D01*
X92049694Y-123418054D01*
X92188454Y-123753880D01*
X92563247Y-124129327D01*
X93053187Y-124332768D01*
X93583686Y-124333231D01*
X94073980Y-124130646D01*
X94449427Y-123755853D01*
X94589694Y-123418054D01*
X94728454Y-123753880D01*
X95103247Y-124129327D01*
X95593187Y-124332768D01*
X96123686Y-124333231D01*
X96613980Y-124130646D01*
X96989427Y-123755853D01*
X97129694Y-123418054D01*
X97268454Y-123753880D01*
X97643247Y-124129327D01*
X98133187Y-124332768D01*
X98663686Y-124333231D01*
X98933000Y-124221953D01*
X98933000Y-126654105D01*
X98738743Y-126573443D01*
X98366888Y-126573118D01*
X98023216Y-126715121D01*
X97760045Y-126977832D01*
X97617443Y-127321257D01*
X97617118Y-127693112D01*
X97759121Y-128036784D01*
X98021832Y-128299955D01*
X98365257Y-128442557D01*
X98737112Y-128442882D01*
X98933000Y-128361942D01*
X98933000Y-135711151D01*
X98776045Y-135867832D01*
X98633443Y-136211257D01*
X98633118Y-136583112D01*
X98775121Y-136926784D01*
X98933000Y-137084939D01*
X98933000Y-138429316D01*
X98906348Y-141074500D01*
X82037250Y-141074500D01*
X82037729Y-138573991D01*
X82654735Y-138573991D01*
X82887932Y-139138371D01*
X83319357Y-139570551D01*
X83883330Y-139804733D01*
X84493991Y-139805265D01*
X85058371Y-139572068D01*
X85490551Y-139140643D01*
X85724733Y-138576670D01*
X85725265Y-137966009D01*
X85492068Y-137401629D01*
X85060643Y-136969449D01*
X84496670Y-136735267D01*
X83886009Y-136734735D01*
X83321629Y-136967932D01*
X82889449Y-137399357D01*
X82655267Y-137963330D01*
X82654735Y-138573991D01*
X82037729Y-138573991D01*
X82038632Y-133870000D01*
X82642560Y-133870000D01*
X82642560Y-135670000D01*
X82686838Y-135905317D01*
X82825910Y-136121441D01*
X83038110Y-136266431D01*
X83290000Y-136317440D01*
X85090000Y-136317440D01*
X85325317Y-136273162D01*
X85541441Y-136134090D01*
X85686431Y-135921890D01*
X85737440Y-135670000D01*
X85737440Y-133870000D01*
X85693162Y-133634683D01*
X85554090Y-133418559D01*
X85341890Y-133273569D01*
X85090000Y-133222560D01*
X83290000Y-133222560D01*
X83054683Y-133266838D01*
X82838559Y-133405910D01*
X82693569Y-133618110D01*
X82642560Y-133870000D01*
X82038632Y-133870000D01*
X82039104Y-131410159D01*
X83279446Y-131410159D01*
X83365852Y-131666643D01*
X83939336Y-131876458D01*
X84549460Y-131850839D01*
X84994148Y-131666643D01*
X85080554Y-131410159D01*
X84180000Y-130509605D01*
X83279446Y-131410159D01*
X82039104Y-131410159D01*
X82039358Y-130089336D01*
X82633542Y-130089336D01*
X82659161Y-130699460D01*
X82843357Y-131144148D01*
X83099841Y-131230554D01*
X84000395Y-130330000D01*
X84359605Y-130330000D01*
X85260159Y-131230554D01*
X85516643Y-131144148D01*
X85726458Y-130570664D01*
X85700839Y-129960540D01*
X85516643Y-129515852D01*
X85260159Y-129429446D01*
X84359605Y-130330000D01*
X84000395Y-130330000D01*
X83099841Y-129429446D01*
X82843357Y-129515852D01*
X82633542Y-130089336D01*
X82039358Y-130089336D01*
X82039519Y-129249841D01*
X83279446Y-129249841D01*
X84180000Y-130150395D01*
X85080554Y-129249841D01*
X84994148Y-128993357D01*
X84420664Y-128783542D01*
X83810540Y-128809161D01*
X83365852Y-128993357D01*
X83279446Y-129249841D01*
X82039519Y-129249841D01*
X82040157Y-125930000D01*
X82632560Y-125930000D01*
X82632560Y-127730000D01*
X82676838Y-127965317D01*
X82815910Y-128181441D01*
X83028110Y-128326431D01*
X83280000Y-128377440D01*
X85080000Y-128377440D01*
X85315317Y-128333162D01*
X85531441Y-128194090D01*
X85676431Y-127981890D01*
X85727440Y-127730000D01*
X85727440Y-125930000D01*
X85683162Y-125694683D01*
X85544090Y-125478559D01*
X85331890Y-125333569D01*
X85080000Y-125282560D01*
X83280000Y-125282560D01*
X83044683Y-125326838D01*
X82828559Y-125465910D01*
X82683569Y-125678110D01*
X82632560Y-125930000D01*
X82040157Y-125930000D01*
X82041035Y-121358574D01*
X82255585Y-121679670D01*
X82741766Y-122004526D01*
X83315255Y-122118600D01*
X83684745Y-122118600D01*
X84258234Y-122004526D01*
X84744415Y-121679670D01*
X85069271Y-121193489D01*
X85183345Y-120620000D01*
X85115902Y-120280938D01*
X86730840Y-118666000D01*
X93589100Y-118666000D01*
X93913400Y-118601493D01*
X93977907Y-118588662D01*
X94307520Y-118368420D01*
X95417774Y-117258166D01*
X95551580Y-117458420D01*
G36*
X106881580Y-121118421D02*
X107211193Y-121338662D01*
X107600000Y-121416000D01*
X115775394Y-121416000D01*
X117221000Y-122861606D01*
X117221000Y-125169929D01*
X117191045Y-125199832D01*
X117048443Y-125543257D01*
X117048118Y-125915112D01*
X117190121Y-126258784D01*
X117221000Y-126289717D01*
X117221000Y-126319169D01*
X117162888Y-126319118D01*
X116819216Y-126461121D01*
X116556045Y-126723832D01*
X116413443Y-127067257D01*
X116413118Y-127439112D01*
X116555121Y-127782784D01*
X116817832Y-128045955D01*
X117161257Y-128188557D01*
X117221000Y-128188609D01*
X117221000Y-141074500D01*
X100984069Y-141074500D01*
X101039627Y-136837112D01*
X114635118Y-136837112D01*
X114777121Y-137180784D01*
X115039832Y-137443955D01*
X115383257Y-137586557D01*
X115755112Y-137586882D01*
X116098784Y-137444879D01*
X116361955Y-137182168D01*
X116504557Y-136838743D01*
X116504882Y-136466888D01*
X116362879Y-136123216D01*
X116100168Y-135860045D01*
X115756743Y-135717443D01*
X115384888Y-135717118D01*
X115041216Y-135859121D01*
X114778045Y-136121832D01*
X114635443Y-136465257D01*
X114635118Y-136837112D01*
X101039627Y-136837112D01*
X101081257Y-133662112D01*
X114381118Y-133662112D01*
X114523121Y-134005784D01*
X114785832Y-134268955D01*
X115129257Y-134411557D01*
X115501112Y-134411882D01*
X115844784Y-134269879D01*
X116107955Y-134007168D01*
X116250557Y-133663743D01*
X116250882Y-133291888D01*
X116108879Y-132948216D01*
X115846168Y-132685045D01*
X115502743Y-132542443D01*
X115130888Y-132542118D01*
X114787216Y-132684121D01*
X114524045Y-132946832D01*
X114381443Y-133290257D01*
X114381118Y-133662112D01*
X101081257Y-133662112D01*
X101091989Y-132843665D01*
X101092000Y-132842000D01*
X101092000Y-130741112D01*
X104475118Y-130741112D01*
X104617121Y-131084784D01*
X104879832Y-131347955D01*
X105223257Y-131490557D01*
X105595112Y-131490882D01*
X105938784Y-131348879D01*
X106201955Y-131086168D01*
X106344557Y-130742743D01*
X106344882Y-130370888D01*
X106202879Y-130027216D01*
X105940168Y-129764045D01*
X105596743Y-129621443D01*
X105224888Y-129621118D01*
X104881216Y-129763121D01*
X104618045Y-130025832D01*
X104475443Y-130369257D01*
X104475118Y-130741112D01*
X101092000Y-130741112D01*
X101092000Y-124333134D01*
X101203686Y-124333231D01*
X101693980Y-124130646D01*
X102069427Y-123755853D01*
X102209694Y-123418054D01*
X102348454Y-123753880D01*
X102723247Y-124129327D01*
X103213187Y-124332768D01*
X103743686Y-124333231D01*
X104013000Y-124221953D01*
X104013000Y-124841000D01*
X104071004Y-125132605D01*
X104100079Y-125176118D01*
X104236185Y-125379815D01*
X107385211Y-128528841D01*
X107285045Y-128628832D01*
X107142443Y-128972257D01*
X107142118Y-129344112D01*
X107284121Y-129687784D01*
X107546832Y-129950955D01*
X107890257Y-130093557D01*
X108262112Y-130093882D01*
X108585370Y-129960314D01*
X108906257Y-130093557D01*
X109278112Y-130093882D01*
X109621784Y-129951879D01*
X109855000Y-129719071D01*
X109855000Y-129751543D01*
X109809443Y-129861257D01*
X109809118Y-130233112D01*
X109951121Y-130576784D01*
X110213832Y-130839955D01*
X110557257Y-130982557D01*
X110929112Y-130982882D01*
X111272784Y-130840879D01*
X111535955Y-130578168D01*
X111678557Y-130234743D01*
X111678882Y-129862888D01*
X111536879Y-129519216D01*
X111379000Y-129361061D01*
X111379000Y-126671071D01*
X111408955Y-126641168D01*
X111551557Y-126297743D01*
X111551882Y-125925888D01*
X111409879Y-125582216D01*
X111147168Y-125319045D01*
X110803743Y-125176443D01*
X110431888Y-125176118D01*
X110088216Y-125318121D01*
X109825045Y-125580832D01*
X109682443Y-125924257D01*
X109682118Y-126296112D01*
X109824121Y-126639784D01*
X109855000Y-126670717D01*
X109855000Y-128599283D01*
X109623168Y-128367045D01*
X109279743Y-128224443D01*
X109236035Y-128224405D01*
X105537000Y-124525370D01*
X105537000Y-124242999D01*
X105753187Y-124332768D01*
X106283686Y-124333231D01*
X106450967Y-124264112D01*
X114635118Y-124264112D01*
X114777121Y-124607784D01*
X115039832Y-124870955D01*
X115383257Y-125013557D01*
X115755112Y-125013882D01*
X116098784Y-124871879D01*
X116361955Y-124609168D01*
X116504557Y-124265743D01*
X116504882Y-123893888D01*
X116362879Y-123550216D01*
X116100168Y-123287045D01*
X115756743Y-123144443D01*
X115384888Y-123144118D01*
X115041216Y-123286121D01*
X114778045Y-123548832D01*
X114635443Y-123892257D01*
X114635118Y-124264112D01*
X106450967Y-124264112D01*
X106773980Y-124130646D01*
X107149427Y-123755853D01*
X107352868Y-123265913D01*
X107353331Y-122735414D01*
X107150746Y-122245120D01*
X106775953Y-121869673D01*
X106286013Y-121666232D01*
X105755514Y-121665769D01*
X105537000Y-121756057D01*
X105537000Y-121083071D01*
X105566955Y-121053168D01*
X105709557Y-120709743D01*
X105709882Y-120337888D01*
X105567879Y-119994216D01*
X105305168Y-119731045D01*
X104961743Y-119588443D01*
X104589888Y-119588118D01*
X104246216Y-119730121D01*
X103983045Y-119992832D01*
X103840443Y-120336257D01*
X103840118Y-120708112D01*
X103982121Y-121051784D01*
X104013000Y-121082717D01*
X104013000Y-121777095D01*
X103746013Y-121666232D01*
X103215514Y-121665769D01*
X102725220Y-121868354D01*
X102349773Y-122243147D01*
X102209506Y-122580946D01*
X102070746Y-122245120D01*
X101695953Y-121869673D01*
X101206013Y-121666232D01*
X101092000Y-121666132D01*
X101092000Y-117756000D01*
X103519160Y-117756000D01*
X106881580Y-121118421D01*
X106881580Y-121118421D01*
G37*
X106881580Y-121118421D02*
X107211193Y-121338662D01*
X107600000Y-121416000D01*
X115775394Y-121416000D01*
X117221000Y-122861606D01*
X117221000Y-125169929D01*
X117191045Y-125199832D01*
X117048443Y-125543257D01*
X117048118Y-125915112D01*
X117190121Y-126258784D01*
X117221000Y-126289717D01*
X117221000Y-126319169D01*
X117162888Y-126319118D01*
X116819216Y-126461121D01*
X116556045Y-126723832D01*
X116413443Y-127067257D01*
X116413118Y-127439112D01*
X116555121Y-127782784D01*
X116817832Y-128045955D01*
X117161257Y-128188557D01*
X117221000Y-128188609D01*
X117221000Y-141074500D01*
X100984069Y-141074500D01*
X101039627Y-136837112D01*
X114635118Y-136837112D01*
X114777121Y-137180784D01*
X115039832Y-137443955D01*
X115383257Y-137586557D01*
X115755112Y-137586882D01*
X116098784Y-137444879D01*
X116361955Y-137182168D01*
X116504557Y-136838743D01*
X116504882Y-136466888D01*
X116362879Y-136123216D01*
X116100168Y-135860045D01*
X115756743Y-135717443D01*
X115384888Y-135717118D01*
X115041216Y-135859121D01*
X114778045Y-136121832D01*
X114635443Y-136465257D01*
X114635118Y-136837112D01*
X101039627Y-136837112D01*
X101081257Y-133662112D01*
X114381118Y-133662112D01*
X114523121Y-134005784D01*
X114785832Y-134268955D01*
X115129257Y-134411557D01*
X115501112Y-134411882D01*
X115844784Y-134269879D01*
X116107955Y-134007168D01*
X116250557Y-133663743D01*
X116250882Y-133291888D01*
X116108879Y-132948216D01*
X115846168Y-132685045D01*
X115502743Y-132542443D01*
X115130888Y-132542118D01*
X114787216Y-132684121D01*
X114524045Y-132946832D01*
X114381443Y-133290257D01*
X114381118Y-133662112D01*
X101081257Y-133662112D01*
X101091989Y-132843665D01*
X101092000Y-132842000D01*
X101092000Y-130741112D01*
X104475118Y-130741112D01*
X104617121Y-131084784D01*
X104879832Y-131347955D01*
X105223257Y-131490557D01*
X105595112Y-131490882D01*
X105938784Y-131348879D01*
X106201955Y-131086168D01*
X106344557Y-130742743D01*
X106344882Y-130370888D01*
X106202879Y-130027216D01*
X105940168Y-129764045D01*
X105596743Y-129621443D01*
X105224888Y-129621118D01*
X104881216Y-129763121D01*
X104618045Y-130025832D01*
X104475443Y-130369257D01*
X104475118Y-130741112D01*
X101092000Y-130741112D01*
X101092000Y-124333134D01*
X101203686Y-124333231D01*
X101693980Y-124130646D01*
X102069427Y-123755853D01*
X102209694Y-123418054D01*
X102348454Y-123753880D01*
X102723247Y-124129327D01*
X103213187Y-124332768D01*
X103743686Y-124333231D01*
X104013000Y-124221953D01*
X104013000Y-124841000D01*
X104071004Y-125132605D01*
X104100079Y-125176118D01*
X104236185Y-125379815D01*
X107385211Y-128528841D01*
X107285045Y-128628832D01*
X107142443Y-128972257D01*
X107142118Y-129344112D01*
X107284121Y-129687784D01*
X107546832Y-129950955D01*
X107890257Y-130093557D01*
X108262112Y-130093882D01*
X108585370Y-129960314D01*
X108906257Y-130093557D01*
X109278112Y-130093882D01*
X109621784Y-129951879D01*
X109855000Y-129719071D01*
X109855000Y-129751543D01*
X109809443Y-129861257D01*
X109809118Y-130233112D01*
X109951121Y-130576784D01*
X110213832Y-130839955D01*
X110557257Y-130982557D01*
X110929112Y-130982882D01*
X111272784Y-130840879D01*
X111535955Y-130578168D01*
X111678557Y-130234743D01*
X111678882Y-129862888D01*
X111536879Y-129519216D01*
X111379000Y-129361061D01*
X111379000Y-126671071D01*
X111408955Y-126641168D01*
X111551557Y-126297743D01*
X111551882Y-125925888D01*
X111409879Y-125582216D01*
X111147168Y-125319045D01*
X110803743Y-125176443D01*
X110431888Y-125176118D01*
X110088216Y-125318121D01*
X109825045Y-125580832D01*
X109682443Y-125924257D01*
X109682118Y-126296112D01*
X109824121Y-126639784D01*
X109855000Y-126670717D01*
X109855000Y-128599283D01*
X109623168Y-128367045D01*
X109279743Y-128224443D01*
X109236035Y-128224405D01*
X105537000Y-124525370D01*
X105537000Y-124242999D01*
X105753187Y-124332768D01*
X106283686Y-124333231D01*
X106450967Y-124264112D01*
X114635118Y-124264112D01*
X114777121Y-124607784D01*
X115039832Y-124870955D01*
X115383257Y-125013557D01*
X115755112Y-125013882D01*
X116098784Y-124871879D01*
X116361955Y-124609168D01*
X116504557Y-124265743D01*
X116504882Y-123893888D01*
X116362879Y-123550216D01*
X116100168Y-123287045D01*
X115756743Y-123144443D01*
X115384888Y-123144118D01*
X115041216Y-123286121D01*
X114778045Y-123548832D01*
X114635443Y-123892257D01*
X114635118Y-124264112D01*
X106450967Y-124264112D01*
X106773980Y-124130646D01*
X107149427Y-123755853D01*
X107352868Y-123265913D01*
X107353331Y-122735414D01*
X107150746Y-122245120D01*
X106775953Y-121869673D01*
X106286013Y-121666232D01*
X105755514Y-121665769D01*
X105537000Y-121756057D01*
X105537000Y-121083071D01*
X105566955Y-121053168D01*
X105709557Y-120709743D01*
X105709882Y-120337888D01*
X105567879Y-119994216D01*
X105305168Y-119731045D01*
X104961743Y-119588443D01*
X104589888Y-119588118D01*
X104246216Y-119730121D01*
X103983045Y-119992832D01*
X103840443Y-120336257D01*
X103840118Y-120708112D01*
X103982121Y-121051784D01*
X104013000Y-121082717D01*
X104013000Y-121777095D01*
X103746013Y-121666232D01*
X103215514Y-121665769D01*
X102725220Y-121868354D01*
X102349773Y-122243147D01*
X102209506Y-122580946D01*
X102070746Y-122245120D01*
X101695953Y-121869673D01*
X101206013Y-121666232D01*
X101092000Y-121666132D01*
X101092000Y-117756000D01*
X103519160Y-117756000D01*
X106881580Y-121118421D01*
M02*
