G04 #@! TF.FileFunction,Soldermask,Bot*
%FSLAX46Y46*%
G04 Gerber Fmt 4.6, Leading zero omitted, Abs format (unit mm)*
G04 Created by KiCad (PCBNEW 4.0.2-stable) date 05/09/2016 12:26:53*
%MOMM*%
G01*
G04 APERTURE LIST*
%ADD10C,0.150000*%
%ADD11C,0.300000*%
%ADD12C,0.400000*%
%ADD13R,2.308000X2.308000*%
%ADD14C,2.308000*%
%ADD15O,1.219200X1.558000*%
%ADD16O,1.808000X2.658000*%
%ADD17C,1.905000*%
%ADD18R,1.905000X1.905000*%
%ADD19R,2.506980X2.506980*%
%ADD20C,3.007360*%
%ADD21R,2.032000X2.032000*%
%ADD22C,2.032000*%
%ADD23C,5.509260*%
%ADD24C,1.308000*%
%ADD25R,2.235200X2.235200*%
%ADD26O,2.235200X2.235200*%
%ADD27R,2.540000X2.235200*%
%ADD28O,2.540000X2.235200*%
%ADD29C,2.009140*%
%ADD30C,3.507740*%
%ADD31R,2.743200X2.743200*%
%ADD32R,2.540000X2.540000*%
%ADD33O,2.540000X2.540000*%
%ADD34R,2.235200X2.540000*%
%ADD35O,2.235200X2.540000*%
%ADD36R,2.508000X3.108000*%
%ADD37O,2.508000X3.108000*%
%ADD38R,3.108000X2.508000*%
%ADD39O,3.108000X2.508000*%
G04 APERTURE END LIST*
D10*
X177002200Y-166007200D02*
X177002200Y-198007200D01*
X285002200Y-198007200D01*
X285002200Y-166007200D01*
X177002200Y-166007200D01*
X10000000Y-10000000D02*
X10000000Y-200007200D01*
X287002200Y-200007200D01*
X287002200Y-10000000D01*
X10000000Y-10000000D01*
X12000000Y-12000000D02*
X12000000Y-198007200D01*
X285002200Y-198007200D01*
X285002200Y-12000000D01*
X12000000Y-12000000D01*
X60000000Y-12000000D02*
X60000000Y-10000000D01*
X110000000Y-12000000D02*
X110000000Y-10000000D01*
X160000000Y-12000000D02*
X160000000Y-10000000D01*
X210000000Y-12000000D02*
X210000000Y-10000000D01*
X260000000Y-12000000D02*
X260000000Y-10000000D01*
X35990476Y-11588095D02*
X35247619Y-11588095D01*
X35619048Y-11588095D02*
X35619048Y-10288095D01*
X35495238Y-10473810D01*
X35371429Y-10597619D01*
X35247619Y-10659524D01*
X85247619Y-10411905D02*
X85309524Y-10350000D01*
X85433333Y-10288095D01*
X85742857Y-10288095D01*
X85866667Y-10350000D01*
X85928571Y-10411905D01*
X85990476Y-10535714D01*
X85990476Y-10659524D01*
X85928571Y-10845238D01*
X85185714Y-11588095D01*
X85990476Y-11588095D01*
X135185714Y-10288095D02*
X135990476Y-10288095D01*
X135557143Y-10783333D01*
X135742857Y-10783333D01*
X135866667Y-10845238D01*
X135928571Y-10907143D01*
X135990476Y-11030952D01*
X135990476Y-11340476D01*
X135928571Y-11464286D01*
X135866667Y-11526190D01*
X135742857Y-11588095D01*
X135371429Y-11588095D01*
X135247619Y-11526190D01*
X135185714Y-11464286D01*
X185866667Y-10721429D02*
X185866667Y-11588095D01*
X185557143Y-10226190D02*
X185247619Y-11154762D01*
X186052381Y-11154762D01*
X235928571Y-10288095D02*
X235309524Y-10288095D01*
X235247619Y-10907143D01*
X235309524Y-10845238D01*
X235433333Y-10783333D01*
X235742857Y-10783333D01*
X235866667Y-10845238D01*
X235928571Y-10907143D01*
X235990476Y-11030952D01*
X235990476Y-11340476D01*
X235928571Y-11464286D01*
X235866667Y-11526190D01*
X235742857Y-11588095D01*
X235433333Y-11588095D01*
X235309524Y-11526190D01*
X235247619Y-11464286D01*
X285866667Y-10288095D02*
X285619048Y-10288095D01*
X285495238Y-10350000D01*
X285433333Y-10411905D01*
X285309524Y-10597619D01*
X285247619Y-10845238D01*
X285247619Y-11340476D01*
X285309524Y-11464286D01*
X285371429Y-11526190D01*
X285495238Y-11588095D01*
X285742857Y-11588095D01*
X285866667Y-11526190D01*
X285928571Y-11464286D01*
X285990476Y-11340476D01*
X285990476Y-11030952D01*
X285928571Y-10907143D01*
X285866667Y-10845238D01*
X285742857Y-10783333D01*
X285495238Y-10783333D01*
X285371429Y-10845238D01*
X285309524Y-10907143D01*
X285247619Y-11030952D01*
X60000000Y-198007200D02*
X60000000Y-200007200D01*
X110000000Y-198007200D02*
X110000000Y-200007200D01*
X160000000Y-198007200D02*
X160000000Y-200007200D01*
X210000000Y-198007200D02*
X210000000Y-200007200D01*
X260000000Y-198007200D02*
X260000000Y-200007200D01*
X35990476Y-199595295D02*
X35247619Y-199595295D01*
X35619048Y-199595295D02*
X35619048Y-198295295D01*
X35495238Y-198481010D01*
X35371429Y-198604819D01*
X35247619Y-198666724D01*
X85247619Y-198419105D02*
X85309524Y-198357200D01*
X85433333Y-198295295D01*
X85742857Y-198295295D01*
X85866667Y-198357200D01*
X85928571Y-198419105D01*
X85990476Y-198542914D01*
X85990476Y-198666724D01*
X85928571Y-198852438D01*
X85185714Y-199595295D01*
X85990476Y-199595295D01*
X135185714Y-198295295D02*
X135990476Y-198295295D01*
X135557143Y-198790533D01*
X135742857Y-198790533D01*
X135866667Y-198852438D01*
X135928571Y-198914343D01*
X135990476Y-199038152D01*
X135990476Y-199347676D01*
X135928571Y-199471486D01*
X135866667Y-199533390D01*
X135742857Y-199595295D01*
X135371429Y-199595295D01*
X135247619Y-199533390D01*
X135185714Y-199471486D01*
X185866667Y-198728629D02*
X185866667Y-199595295D01*
X185557143Y-198233390D02*
X185247619Y-199161962D01*
X186052381Y-199161962D01*
X235928571Y-198295295D02*
X235309524Y-198295295D01*
X235247619Y-198914343D01*
X235309524Y-198852438D01*
X235433333Y-198790533D01*
X235742857Y-198790533D01*
X235866667Y-198852438D01*
X235928571Y-198914343D01*
X235990476Y-199038152D01*
X235990476Y-199347676D01*
X235928571Y-199471486D01*
X235866667Y-199533390D01*
X235742857Y-199595295D01*
X235433333Y-199595295D01*
X235309524Y-199533390D01*
X235247619Y-199471486D01*
X285866667Y-198295295D02*
X285619048Y-198295295D01*
X285495238Y-198357200D01*
X285433333Y-198419105D01*
X285309524Y-198604819D01*
X285247619Y-198852438D01*
X285247619Y-199347676D01*
X285309524Y-199471486D01*
X285371429Y-199533390D01*
X285495238Y-199595295D01*
X285742857Y-199595295D01*
X285866667Y-199533390D01*
X285928571Y-199471486D01*
X285990476Y-199347676D01*
X285990476Y-199038152D01*
X285928571Y-198914343D01*
X285866667Y-198852438D01*
X285742857Y-198790533D01*
X285495238Y-198790533D01*
X285371429Y-198852438D01*
X285309524Y-198914343D01*
X285247619Y-199038152D01*
X10000000Y-60000000D02*
X12000000Y-60000000D01*
X10000000Y-110000000D02*
X12000000Y-110000000D01*
X10000000Y-160000000D02*
X12000000Y-160000000D01*
X10690476Y-35216667D02*
X11309524Y-35216667D01*
X10566667Y-35588095D02*
X11000000Y-34288095D01*
X11433333Y-35588095D01*
X11092857Y-84907143D02*
X11278571Y-84969048D01*
X11340476Y-85030952D01*
X11402381Y-85154762D01*
X11402381Y-85340476D01*
X11340476Y-85464286D01*
X11278571Y-85526190D01*
X11154762Y-85588095D01*
X10659524Y-85588095D01*
X10659524Y-84288095D01*
X11092857Y-84288095D01*
X11216667Y-84350000D01*
X11278571Y-84411905D01*
X11340476Y-84535714D01*
X11340476Y-84659524D01*
X11278571Y-84783333D01*
X11216667Y-84845238D01*
X11092857Y-84907143D01*
X10659524Y-84907143D01*
X11402381Y-135464286D02*
X11340476Y-135526190D01*
X11154762Y-135588095D01*
X11030952Y-135588095D01*
X10845238Y-135526190D01*
X10721429Y-135402381D01*
X10659524Y-135278571D01*
X10597619Y-135030952D01*
X10597619Y-134845238D01*
X10659524Y-134597619D01*
X10721429Y-134473810D01*
X10845238Y-134350000D01*
X11030952Y-134288095D01*
X11154762Y-134288095D01*
X11340476Y-134350000D01*
X11402381Y-134411905D01*
X10659524Y-185588095D02*
X10659524Y-184288095D01*
X10969048Y-184288095D01*
X11154762Y-184350000D01*
X11278571Y-184473810D01*
X11340476Y-184597619D01*
X11402381Y-184845238D01*
X11402381Y-185030952D01*
X11340476Y-185278571D01*
X11278571Y-185402381D01*
X11154762Y-185526190D01*
X10969048Y-185588095D01*
X10659524Y-185588095D01*
X287002200Y-60000000D02*
X285002200Y-60000000D01*
X287002200Y-110000000D02*
X285002200Y-110000000D01*
X287002200Y-160000000D02*
X285002200Y-160000000D01*
X285692676Y-35216667D02*
X286311724Y-35216667D01*
X285568867Y-35588095D02*
X286002200Y-34288095D01*
X286435533Y-35588095D01*
X286095057Y-84907143D02*
X286280771Y-84969048D01*
X286342676Y-85030952D01*
X286404581Y-85154762D01*
X286404581Y-85340476D01*
X286342676Y-85464286D01*
X286280771Y-85526190D01*
X286156962Y-85588095D01*
X285661724Y-85588095D01*
X285661724Y-84288095D01*
X286095057Y-84288095D01*
X286218867Y-84350000D01*
X286280771Y-84411905D01*
X286342676Y-84535714D01*
X286342676Y-84659524D01*
X286280771Y-84783333D01*
X286218867Y-84845238D01*
X286095057Y-84907143D01*
X285661724Y-84907143D01*
X286404581Y-135464286D02*
X286342676Y-135526190D01*
X286156962Y-135588095D01*
X286033152Y-135588095D01*
X285847438Y-135526190D01*
X285723629Y-135402381D01*
X285661724Y-135278571D01*
X285599819Y-135030952D01*
X285599819Y-134845238D01*
X285661724Y-134597619D01*
X285723629Y-134473810D01*
X285847438Y-134350000D01*
X286033152Y-134288095D01*
X286156962Y-134288095D01*
X286342676Y-134350000D01*
X286404581Y-134411905D01*
X285661724Y-185588095D02*
X285661724Y-184288095D01*
X285971248Y-184288095D01*
X286156962Y-184350000D01*
X286280771Y-184473810D01*
X286342676Y-184597619D01*
X286404581Y-184845238D01*
X286404581Y-185030952D01*
X286342676Y-185278571D01*
X286280771Y-185402381D01*
X286156962Y-185526190D01*
X285971248Y-185588095D01*
X285661724Y-185588095D01*
X200359343Y-193785771D02*
X200359343Y-192285771D01*
X200716486Y-192285771D01*
X200930771Y-192357200D01*
X201073629Y-192500057D01*
X201145057Y-192642914D01*
X201216486Y-192928629D01*
X201216486Y-193142914D01*
X201145057Y-193428629D01*
X201073629Y-193571486D01*
X200930771Y-193714343D01*
X200716486Y-193785771D01*
X200359343Y-193785771D01*
X202502200Y-193785771D02*
X202502200Y-193000057D01*
X202430771Y-192857200D01*
X202287914Y-192785771D01*
X202002200Y-192785771D01*
X201859343Y-192857200D01*
X202502200Y-193714343D02*
X202359343Y-193785771D01*
X202002200Y-193785771D01*
X201859343Y-193714343D01*
X201787914Y-193571486D01*
X201787914Y-193428629D01*
X201859343Y-193285771D01*
X202002200Y-193214343D01*
X202359343Y-193214343D01*
X202502200Y-193142914D01*
X203002200Y-192785771D02*
X203573629Y-192785771D01*
X203216486Y-192285771D02*
X203216486Y-193571486D01*
X203287914Y-193714343D01*
X203430772Y-193785771D01*
X203573629Y-193785771D01*
X204645057Y-193714343D02*
X204502200Y-193785771D01*
X204216486Y-193785771D01*
X204073629Y-193714343D01*
X204002200Y-193571486D01*
X204002200Y-193000057D01*
X204073629Y-192857200D01*
X204216486Y-192785771D01*
X204502200Y-192785771D01*
X204645057Y-192857200D01*
X204716486Y-193000057D01*
X204716486Y-193142914D01*
X204002200Y-193285771D01*
X205359343Y-193642914D02*
X205430771Y-193714343D01*
X205359343Y-193785771D01*
X205287914Y-193714343D01*
X205359343Y-193642914D01*
X205359343Y-193785771D01*
X205359343Y-192857200D02*
X205430771Y-192928629D01*
X205359343Y-193000057D01*
X205287914Y-192928629D01*
X205359343Y-192857200D01*
X205359343Y-193000057D01*
X207145057Y-192428629D02*
X207216486Y-192357200D01*
X207359343Y-192285771D01*
X207716486Y-192285771D01*
X207859343Y-192357200D01*
X207930772Y-192428629D01*
X208002200Y-192571486D01*
X208002200Y-192714343D01*
X207930772Y-192928629D01*
X207073629Y-193785771D01*
X208002200Y-193785771D01*
X208930771Y-192285771D02*
X209073628Y-192285771D01*
X209216485Y-192357200D01*
X209287914Y-192428629D01*
X209359343Y-192571486D01*
X209430771Y-192857200D01*
X209430771Y-193214343D01*
X209359343Y-193500057D01*
X209287914Y-193642914D01*
X209216485Y-193714343D01*
X209073628Y-193785771D01*
X208930771Y-193785771D01*
X208787914Y-193714343D01*
X208716485Y-193642914D01*
X208645057Y-193500057D01*
X208573628Y-193214343D01*
X208573628Y-192857200D01*
X208645057Y-192571486D01*
X208716485Y-192428629D01*
X208787914Y-192357200D01*
X208930771Y-192285771D01*
X210859342Y-193785771D02*
X210002199Y-193785771D01*
X210430771Y-193785771D02*
X210430771Y-192285771D01*
X210287914Y-192500057D01*
X210145056Y-192642914D01*
X210002199Y-192714343D01*
X212145056Y-192285771D02*
X211859342Y-192285771D01*
X211716485Y-192357200D01*
X211645056Y-192428629D01*
X211502199Y-192642914D01*
X211430770Y-192928629D01*
X211430770Y-193500057D01*
X211502199Y-193642914D01*
X211573627Y-193714343D01*
X211716485Y-193785771D01*
X212002199Y-193785771D01*
X212145056Y-193714343D01*
X212216485Y-193642914D01*
X212287913Y-193500057D01*
X212287913Y-193142914D01*
X212216485Y-193000057D01*
X212145056Y-192928629D01*
X212002199Y-192857200D01*
X211716485Y-192857200D01*
X211573627Y-192928629D01*
X211502199Y-193000057D01*
X211430770Y-193142914D01*
X212930770Y-193214343D02*
X214073627Y-193214343D01*
X215073627Y-192285771D02*
X215216484Y-192285771D01*
X215359341Y-192357200D01*
X215430770Y-192428629D01*
X215502199Y-192571486D01*
X215573627Y-192857200D01*
X215573627Y-193214343D01*
X215502199Y-193500057D01*
X215430770Y-193642914D01*
X215359341Y-193714343D01*
X215216484Y-193785771D01*
X215073627Y-193785771D01*
X214930770Y-193714343D01*
X214859341Y-193642914D01*
X214787913Y-193500057D01*
X214716484Y-193214343D01*
X214716484Y-192857200D01*
X214787913Y-192571486D01*
X214859341Y-192428629D01*
X214930770Y-192357200D01*
X215073627Y-192285771D01*
X216430770Y-192928629D02*
X216287912Y-192857200D01*
X216216484Y-192785771D01*
X216145055Y-192642914D01*
X216145055Y-192571486D01*
X216216484Y-192428629D01*
X216287912Y-192357200D01*
X216430770Y-192285771D01*
X216716484Y-192285771D01*
X216859341Y-192357200D01*
X216930770Y-192428629D01*
X217002198Y-192571486D01*
X217002198Y-192642914D01*
X216930770Y-192785771D01*
X216859341Y-192857200D01*
X216716484Y-192928629D01*
X216430770Y-192928629D01*
X216287912Y-193000057D01*
X216216484Y-193071486D01*
X216145055Y-193214343D01*
X216145055Y-193500057D01*
X216216484Y-193642914D01*
X216287912Y-193714343D01*
X216430770Y-193785771D01*
X216716484Y-193785771D01*
X216859341Y-193714343D01*
X216930770Y-193642914D01*
X217002198Y-193500057D01*
X217002198Y-193214343D01*
X216930770Y-193071486D01*
X216859341Y-193000057D01*
X216716484Y-192928629D01*
X217645055Y-193214343D02*
X218787912Y-193214343D01*
X219430769Y-192428629D02*
X219502198Y-192357200D01*
X219645055Y-192285771D01*
X220002198Y-192285771D01*
X220145055Y-192357200D01*
X220216484Y-192428629D01*
X220287912Y-192571486D01*
X220287912Y-192714343D01*
X220216484Y-192928629D01*
X219359341Y-193785771D01*
X220287912Y-193785771D01*
X220787912Y-192285771D02*
X221716483Y-192285771D01*
X221216483Y-192857200D01*
X221430769Y-192857200D01*
X221573626Y-192928629D01*
X221645055Y-193000057D01*
X221716483Y-193142914D01*
X221716483Y-193500057D01*
X221645055Y-193642914D01*
X221573626Y-193714343D01*
X221430769Y-193785771D01*
X221002197Y-193785771D01*
X220859340Y-193714343D01*
X220787912Y-193642914D01*
X177002200Y-194507200D02*
X285002200Y-194507200D01*
X178359343Y-196585771D02*
X178359343Y-195085771D01*
X179216486Y-196585771D02*
X178573629Y-195728629D01*
X179216486Y-195085771D02*
X178359343Y-195942914D01*
X179859343Y-196585771D02*
X179859343Y-195585771D01*
X179859343Y-195085771D02*
X179787914Y-195157200D01*
X179859343Y-195228629D01*
X179930771Y-195157200D01*
X179859343Y-195085771D01*
X179859343Y-195228629D01*
X181430772Y-196442914D02*
X181359343Y-196514343D01*
X181145057Y-196585771D01*
X181002200Y-196585771D01*
X180787915Y-196514343D01*
X180645057Y-196371486D01*
X180573629Y-196228629D01*
X180502200Y-195942914D01*
X180502200Y-195728629D01*
X180573629Y-195442914D01*
X180645057Y-195300057D01*
X180787915Y-195157200D01*
X181002200Y-195085771D01*
X181145057Y-195085771D01*
X181359343Y-195157200D01*
X181430772Y-195228629D01*
X182716486Y-196585771D02*
X182716486Y-195800057D01*
X182645057Y-195657200D01*
X182502200Y-195585771D01*
X182216486Y-195585771D01*
X182073629Y-195657200D01*
X182716486Y-196514343D02*
X182573629Y-196585771D01*
X182216486Y-196585771D01*
X182073629Y-196514343D01*
X182002200Y-196371486D01*
X182002200Y-196228629D01*
X182073629Y-196085771D01*
X182216486Y-196014343D01*
X182573629Y-196014343D01*
X182716486Y-195942914D01*
X184073629Y-196585771D02*
X184073629Y-195085771D01*
X184073629Y-196514343D02*
X183930772Y-196585771D01*
X183645058Y-196585771D01*
X183502200Y-196514343D01*
X183430772Y-196442914D01*
X183359343Y-196300057D01*
X183359343Y-195871486D01*
X183430772Y-195728629D01*
X183502200Y-195657200D01*
X183645058Y-195585771D01*
X183930772Y-195585771D01*
X184073629Y-195657200D01*
X185930772Y-195800057D02*
X186430772Y-195800057D01*
X186645058Y-196585771D02*
X185930772Y-196585771D01*
X185930772Y-195085771D01*
X186645058Y-195085771D01*
X187287915Y-196442914D02*
X187359343Y-196514343D01*
X187287915Y-196585771D01*
X187216486Y-196514343D01*
X187287915Y-196442914D01*
X187287915Y-196585771D01*
X188002201Y-196585771D02*
X188002201Y-195085771D01*
X188359344Y-195085771D01*
X188573629Y-195157200D01*
X188716487Y-195300057D01*
X188787915Y-195442914D01*
X188859344Y-195728629D01*
X188859344Y-195942914D01*
X188787915Y-196228629D01*
X188716487Y-196371486D01*
X188573629Y-196514343D01*
X188359344Y-196585771D01*
X188002201Y-196585771D01*
X189502201Y-196442914D02*
X189573629Y-196514343D01*
X189502201Y-196585771D01*
X189430772Y-196514343D01*
X189502201Y-196442914D01*
X189502201Y-196585771D01*
X190145058Y-196157200D02*
X190859344Y-196157200D01*
X190002201Y-196585771D02*
X190502201Y-195085771D01*
X191002201Y-196585771D01*
X191502201Y-196442914D02*
X191573629Y-196514343D01*
X191502201Y-196585771D01*
X191430772Y-196514343D01*
X191502201Y-196442914D01*
X191502201Y-196585771D01*
X194502201Y-196585771D02*
X194502201Y-195085771D01*
X194645058Y-196014343D02*
X195073629Y-196585771D01*
X195073629Y-195585771D02*
X194502201Y-196157200D01*
X195716487Y-196585771D02*
X195716487Y-195585771D01*
X195716487Y-195085771D02*
X195645058Y-195157200D01*
X195716487Y-195228629D01*
X195787915Y-195157200D01*
X195716487Y-195085771D01*
X195716487Y-195228629D01*
X197073630Y-196514343D02*
X196930773Y-196585771D01*
X196645059Y-196585771D01*
X196502201Y-196514343D01*
X196430773Y-196442914D01*
X196359344Y-196300057D01*
X196359344Y-195871486D01*
X196430773Y-195728629D01*
X196502201Y-195657200D01*
X196645059Y-195585771D01*
X196930773Y-195585771D01*
X197073630Y-195657200D01*
X198359344Y-196585771D02*
X198359344Y-195800057D01*
X198287915Y-195657200D01*
X198145058Y-195585771D01*
X197859344Y-195585771D01*
X197716487Y-195657200D01*
X198359344Y-196514343D02*
X198216487Y-196585771D01*
X197859344Y-196585771D01*
X197716487Y-196514343D01*
X197645058Y-196371486D01*
X197645058Y-196228629D01*
X197716487Y-196085771D01*
X197859344Y-196014343D01*
X198216487Y-196014343D01*
X198359344Y-195942914D01*
X199716487Y-196585771D02*
X199716487Y-195085771D01*
X199716487Y-196514343D02*
X199573630Y-196585771D01*
X199287916Y-196585771D01*
X199145058Y-196514343D01*
X199073630Y-196442914D01*
X199002201Y-196300057D01*
X199002201Y-195871486D01*
X199073630Y-195728629D01*
X199145058Y-195657200D01*
X199287916Y-195585771D01*
X199573630Y-195585771D01*
X199716487Y-195657200D01*
X202216487Y-195585771D02*
X202216487Y-196585771D01*
X201859344Y-195014343D02*
X201502201Y-196085771D01*
X202430773Y-196085771D01*
X203002201Y-196442914D02*
X203073629Y-196514343D01*
X203002201Y-196585771D01*
X202930772Y-196514343D01*
X203002201Y-196442914D01*
X203002201Y-196585771D01*
X204002201Y-195085771D02*
X204145058Y-195085771D01*
X204287915Y-195157200D01*
X204359344Y-195228629D01*
X204430773Y-195371486D01*
X204502201Y-195657200D01*
X204502201Y-196014343D01*
X204430773Y-196300057D01*
X204359344Y-196442914D01*
X204287915Y-196514343D01*
X204145058Y-196585771D01*
X204002201Y-196585771D01*
X203859344Y-196514343D01*
X203787915Y-196442914D01*
X203716487Y-196300057D01*
X203645058Y-196014343D01*
X203645058Y-195657200D01*
X203716487Y-195371486D01*
X203787915Y-195228629D01*
X203859344Y-195157200D01*
X204002201Y-195085771D01*
X205145058Y-196442914D02*
X205216486Y-196514343D01*
X205145058Y-196585771D01*
X205073629Y-196514343D01*
X205145058Y-196442914D01*
X205145058Y-196585771D01*
X205787915Y-195228629D02*
X205859344Y-195157200D01*
X206002201Y-195085771D01*
X206359344Y-195085771D01*
X206502201Y-195157200D01*
X206573630Y-195228629D01*
X206645058Y-195371486D01*
X206645058Y-195514343D01*
X206573630Y-195728629D01*
X205716487Y-196585771D01*
X206645058Y-196585771D01*
X207287915Y-196014343D02*
X208430772Y-196014343D01*
X209073629Y-196514343D02*
X209216486Y-196585771D01*
X209502201Y-196585771D01*
X209645058Y-196514343D01*
X209716486Y-196371486D01*
X209716486Y-196300057D01*
X209645058Y-196157200D01*
X209502201Y-196085771D01*
X209287915Y-196085771D01*
X209145058Y-196014343D01*
X209073629Y-195871486D01*
X209073629Y-195800057D01*
X209145058Y-195657200D01*
X209287915Y-195585771D01*
X209502201Y-195585771D01*
X209645058Y-195657200D01*
X210145058Y-195585771D02*
X210716487Y-195585771D01*
X210359344Y-195085771D02*
X210359344Y-196371486D01*
X210430772Y-196514343D01*
X210573630Y-196585771D01*
X210716487Y-196585771D01*
X211859344Y-196585771D02*
X211859344Y-195800057D01*
X211787915Y-195657200D01*
X211645058Y-195585771D01*
X211359344Y-195585771D01*
X211216487Y-195657200D01*
X211859344Y-196514343D02*
X211716487Y-196585771D01*
X211359344Y-196585771D01*
X211216487Y-196514343D01*
X211145058Y-196371486D01*
X211145058Y-196228629D01*
X211216487Y-196085771D01*
X211359344Y-196014343D01*
X211716487Y-196014343D01*
X211859344Y-195942914D01*
X212573630Y-196585771D02*
X212573630Y-195085771D01*
X212573630Y-195657200D02*
X212716487Y-195585771D01*
X213002201Y-195585771D01*
X213145058Y-195657200D01*
X213216487Y-195728629D01*
X213287916Y-195871486D01*
X213287916Y-196300057D01*
X213216487Y-196442914D01*
X213145058Y-196514343D01*
X213002201Y-196585771D01*
X212716487Y-196585771D01*
X212573630Y-196514343D01*
X214145059Y-196585771D02*
X214002201Y-196514343D01*
X213930773Y-196371486D01*
X213930773Y-195085771D01*
X215287915Y-196514343D02*
X215145058Y-196585771D01*
X214859344Y-196585771D01*
X214716487Y-196514343D01*
X214645058Y-196371486D01*
X214645058Y-195800057D01*
X214716487Y-195657200D01*
X214859344Y-195585771D01*
X215145058Y-195585771D01*
X215287915Y-195657200D01*
X215359344Y-195800057D01*
X215359344Y-195942914D01*
X214645058Y-196085771D01*
X177002200Y-191507200D02*
X285002200Y-191507200D01*
D11*
X264216486Y-193785771D02*
X263716486Y-193071486D01*
X263359343Y-193785771D02*
X263359343Y-192285771D01*
X263930771Y-192285771D01*
X264073629Y-192357200D01*
X264145057Y-192428629D01*
X264216486Y-192571486D01*
X264216486Y-192785771D01*
X264145057Y-192928629D01*
X264073629Y-193000057D01*
X263930771Y-193071486D01*
X263359343Y-193071486D01*
X265430771Y-193714343D02*
X265287914Y-193785771D01*
X265002200Y-193785771D01*
X264859343Y-193714343D01*
X264787914Y-193571486D01*
X264787914Y-193000057D01*
X264859343Y-192857200D01*
X265002200Y-192785771D01*
X265287914Y-192785771D01*
X265430771Y-192857200D01*
X265502200Y-193000057D01*
X265502200Y-193142914D01*
X264787914Y-193285771D01*
X266002200Y-192785771D02*
X266359343Y-193785771D01*
X266716485Y-192785771D01*
X267287914Y-193642914D02*
X267359342Y-193714343D01*
X267287914Y-193785771D01*
X267216485Y-193714343D01*
X267287914Y-193642914D01*
X267287914Y-193785771D01*
X267287914Y-192857200D02*
X267359342Y-192928629D01*
X267287914Y-193000057D01*
X267216485Y-192928629D01*
X267287914Y-192857200D01*
X267287914Y-193000057D01*
X269930771Y-193785771D02*
X269073628Y-193785771D01*
X269502200Y-193785771D02*
X269502200Y-192285771D01*
X269359343Y-192500057D01*
X269216485Y-192642914D01*
X269073628Y-192714343D01*
X270573628Y-193642914D02*
X270645056Y-193714343D01*
X270573628Y-193785771D01*
X270502199Y-193714343D01*
X270573628Y-193642914D01*
X270573628Y-193785771D01*
X271573628Y-192285771D02*
X271716485Y-192285771D01*
X271859342Y-192357200D01*
X271930771Y-192428629D01*
X272002200Y-192571486D01*
X272073628Y-192857200D01*
X272073628Y-193214343D01*
X272002200Y-193500057D01*
X271930771Y-193642914D01*
X271859342Y-193714343D01*
X271716485Y-193785771D01*
X271573628Y-193785771D01*
X271430771Y-193714343D01*
X271359342Y-193642914D01*
X271287914Y-193500057D01*
X271216485Y-193214343D01*
X271216485Y-192857200D01*
X271287914Y-192571486D01*
X271359342Y-192428629D01*
X271430771Y-192357200D01*
X271573628Y-192285771D01*
D10*
X178287914Y-193714343D02*
X178502200Y-193785771D01*
X178859343Y-193785771D01*
X179002200Y-193714343D01*
X179073629Y-193642914D01*
X179145057Y-193500057D01*
X179145057Y-193357200D01*
X179073629Y-193214343D01*
X179002200Y-193142914D01*
X178859343Y-193071486D01*
X178573629Y-193000057D01*
X178430771Y-192928629D01*
X178359343Y-192857200D01*
X178287914Y-192714343D01*
X178287914Y-192571486D01*
X178359343Y-192428629D01*
X178430771Y-192357200D01*
X178573629Y-192285771D01*
X178930771Y-192285771D01*
X179145057Y-192357200D01*
X179787914Y-193785771D02*
X179787914Y-192785771D01*
X179787914Y-192285771D02*
X179716485Y-192357200D01*
X179787914Y-192428629D01*
X179859342Y-192357200D01*
X179787914Y-192285771D01*
X179787914Y-192428629D01*
X180359343Y-192785771D02*
X181145057Y-192785771D01*
X180359343Y-193785771D01*
X181145057Y-193785771D01*
X182287914Y-193714343D02*
X182145057Y-193785771D01*
X181859343Y-193785771D01*
X181716486Y-193714343D01*
X181645057Y-193571486D01*
X181645057Y-193000057D01*
X181716486Y-192857200D01*
X181859343Y-192785771D01*
X182145057Y-192785771D01*
X182287914Y-192857200D01*
X182359343Y-193000057D01*
X182359343Y-193142914D01*
X181645057Y-193285771D01*
X183002200Y-193642914D02*
X183073628Y-193714343D01*
X183002200Y-193785771D01*
X182930771Y-193714343D01*
X183002200Y-193642914D01*
X183002200Y-193785771D01*
X183002200Y-192857200D02*
X183073628Y-192928629D01*
X183002200Y-193000057D01*
X182930771Y-192928629D01*
X183002200Y-192857200D01*
X183002200Y-193000057D01*
X184787914Y-193357200D02*
X185502200Y-193357200D01*
X184645057Y-193785771D02*
X185145057Y-192285771D01*
X185645057Y-193785771D01*
X186787914Y-192785771D02*
X186787914Y-193785771D01*
X186430771Y-192214343D02*
X186073628Y-193285771D01*
X187002200Y-193285771D01*
X263359343Y-196585771D02*
X263359343Y-195085771D01*
X264716486Y-196585771D02*
X264716486Y-195085771D01*
X264716486Y-196514343D02*
X264573629Y-196585771D01*
X264287915Y-196585771D01*
X264145057Y-196514343D01*
X264073629Y-196442914D01*
X264002200Y-196300057D01*
X264002200Y-195871486D01*
X264073629Y-195728629D01*
X264145057Y-195657200D01*
X264287915Y-195585771D01*
X264573629Y-195585771D01*
X264716486Y-195657200D01*
X265430772Y-196442914D02*
X265502200Y-196514343D01*
X265430772Y-196585771D01*
X265359343Y-196514343D01*
X265430772Y-196442914D01*
X265430772Y-196585771D01*
X265430772Y-195657200D02*
X265502200Y-195728629D01*
X265430772Y-195800057D01*
X265359343Y-195728629D01*
X265430772Y-195657200D01*
X265430772Y-195800057D01*
X268073629Y-196585771D02*
X267216486Y-196585771D01*
X267645058Y-196585771D02*
X267645058Y-195085771D01*
X267502201Y-195300057D01*
X267359343Y-195442914D01*
X267216486Y-195514343D01*
X269787914Y-195014343D02*
X268502200Y-196942914D01*
X271073629Y-196585771D02*
X270216486Y-196585771D01*
X270645058Y-196585771D02*
X270645058Y-195085771D01*
X270502201Y-195300057D01*
X270359343Y-195442914D01*
X270216486Y-195514343D01*
X177002200Y-187507200D02*
X285002200Y-187507200D01*
D12*
X178454581Y-188211962D02*
X179597438Y-188211962D01*
X178776010Y-190211962D02*
X179026010Y-188211962D01*
X180014105Y-190211962D02*
X180180771Y-188878629D01*
X180264105Y-188211962D02*
X180156962Y-188307200D01*
X180240295Y-188402438D01*
X180347439Y-188307200D01*
X180264105Y-188211962D01*
X180240295Y-188402438D01*
X180847438Y-188878629D02*
X181609343Y-188878629D01*
X181216486Y-188211962D02*
X181002200Y-189926248D01*
X181073630Y-190116724D01*
X181252201Y-190211962D01*
X181442677Y-190211962D01*
X182395058Y-190211962D02*
X182216487Y-190116724D01*
X182145057Y-189926248D01*
X182359343Y-188211962D01*
X183930772Y-190116724D02*
X183728391Y-190211962D01*
X183347439Y-190211962D01*
X183168867Y-190116724D01*
X183097438Y-189926248D01*
X183192676Y-189164343D01*
X183311724Y-188973867D01*
X183514105Y-188878629D01*
X183895057Y-188878629D01*
X184073629Y-188973867D01*
X184145057Y-189164343D01*
X184121248Y-189354819D01*
X183145057Y-189545295D01*
X184895057Y-190021486D02*
X184978392Y-190116724D01*
X184871248Y-190211962D01*
X184787915Y-190116724D01*
X184895057Y-190021486D01*
X184871248Y-190211962D01*
X185026010Y-188973867D02*
X185109344Y-189069105D01*
X185002200Y-189164343D01*
X184918867Y-189069105D01*
X185026010Y-188973867D01*
X185002200Y-189164343D01*
X187323629Y-189640533D02*
X188276010Y-189640533D01*
X187061725Y-190211962D02*
X187978392Y-188211962D01*
X188395059Y-190211962D01*
X189121249Y-188211962D02*
X190454583Y-188211962D01*
X188871249Y-190211962D01*
X190204583Y-190211962D01*
X191597440Y-188211962D02*
X191978392Y-188211962D01*
X192156963Y-188307200D01*
X192323631Y-188497676D01*
X192371249Y-188878629D01*
X192287916Y-189545295D01*
X192145059Y-189926248D01*
X191930773Y-190116724D01*
X191728392Y-190211962D01*
X191347440Y-190211962D01*
X191168869Y-190116724D01*
X191002201Y-189926248D01*
X190954582Y-189545295D01*
X191037915Y-188878629D01*
X191180773Y-188497676D01*
X191395059Y-188307200D01*
X191597440Y-188211962D01*
X194204583Y-190211962D02*
X193656963Y-189259581D01*
X193061725Y-190211962D02*
X193311725Y-188211962D01*
X194073630Y-188211962D01*
X194252201Y-188307200D01*
X194335535Y-188402438D01*
X194406964Y-188592914D01*
X194371249Y-188878629D01*
X194252202Y-189069105D01*
X194145058Y-189164343D01*
X193942677Y-189259581D01*
X193180772Y-189259581D01*
D10*
X178859343Y-185600057D02*
X178359343Y-185600057D01*
X178359343Y-186385771D02*
X178359343Y-184885771D01*
X179073629Y-184885771D01*
X179645057Y-186385771D02*
X179645057Y-185385771D01*
X179645057Y-184885771D02*
X179573628Y-184957200D01*
X179645057Y-185028629D01*
X179716485Y-184957200D01*
X179645057Y-184885771D01*
X179645057Y-185028629D01*
X180573629Y-186385771D02*
X180430771Y-186314343D01*
X180359343Y-186171486D01*
X180359343Y-184885771D01*
X181716485Y-186314343D02*
X181573628Y-186385771D01*
X181287914Y-186385771D01*
X181145057Y-186314343D01*
X181073628Y-186171486D01*
X181073628Y-185600057D01*
X181145057Y-185457200D01*
X181287914Y-185385771D01*
X181573628Y-185385771D01*
X181716485Y-185457200D01*
X181787914Y-185600057D01*
X181787914Y-185742914D01*
X181073628Y-185885771D01*
X182430771Y-186242914D02*
X182502199Y-186314343D01*
X182430771Y-186385771D01*
X182359342Y-186314343D01*
X182430771Y-186242914D01*
X182430771Y-186385771D01*
X182430771Y-185457200D02*
X182502199Y-185528629D01*
X182430771Y-185600057D01*
X182359342Y-185528629D01*
X182430771Y-185457200D01*
X182430771Y-185600057D01*
X184216485Y-185957200D02*
X184930771Y-185957200D01*
X184073628Y-186385771D02*
X184573628Y-184885771D01*
X185073628Y-186385771D01*
X185430771Y-185385771D02*
X186216485Y-185385771D01*
X185430771Y-186385771D01*
X186216485Y-186385771D01*
X187002200Y-186385771D02*
X186859342Y-186314343D01*
X186787914Y-186242914D01*
X186716485Y-186100057D01*
X186716485Y-185671486D01*
X186787914Y-185528629D01*
X186859342Y-185457200D01*
X187002200Y-185385771D01*
X187216485Y-185385771D01*
X187359342Y-185457200D01*
X187430771Y-185528629D01*
X187502200Y-185671486D01*
X187502200Y-186100057D01*
X187430771Y-186242914D01*
X187359342Y-186314343D01*
X187216485Y-186385771D01*
X187002200Y-186385771D01*
X188145057Y-186385771D02*
X188145057Y-185385771D01*
X188145057Y-185671486D02*
X188216485Y-185528629D01*
X188287914Y-185457200D01*
X188430771Y-185385771D01*
X188573628Y-185385771D01*
X188716485Y-186528629D02*
X189859342Y-186528629D01*
X191002199Y-186385771D02*
X190145056Y-186385771D01*
X190573628Y-186385771D02*
X190573628Y-184885771D01*
X190430771Y-185100057D01*
X190287913Y-185242914D01*
X190145056Y-185314343D01*
X191645056Y-186242914D02*
X191716484Y-186314343D01*
X191645056Y-186385771D01*
X191573627Y-186314343D01*
X191645056Y-186242914D01*
X191645056Y-186385771D01*
X192645056Y-184885771D02*
X192787913Y-184885771D01*
X192930770Y-184957200D01*
X193002199Y-185028629D01*
X193073628Y-185171486D01*
X193145056Y-185457200D01*
X193145056Y-185814343D01*
X193073628Y-186100057D01*
X193002199Y-186242914D01*
X192930770Y-186314343D01*
X192787913Y-186385771D01*
X192645056Y-186385771D01*
X192502199Y-186314343D01*
X192430770Y-186242914D01*
X192359342Y-186100057D01*
X192287913Y-185814343D01*
X192287913Y-185457200D01*
X192359342Y-185171486D01*
X192430770Y-185028629D01*
X192502199Y-184957200D01*
X192645056Y-184885771D01*
X193787913Y-186242914D02*
X193859341Y-186314343D01*
X193787913Y-186385771D01*
X193716484Y-186314343D01*
X193787913Y-186242914D01*
X193787913Y-186385771D01*
X194502199Y-186385771D02*
X194502199Y-184885771D01*
X194645056Y-185814343D02*
X195073627Y-186385771D01*
X195073627Y-185385771D02*
X194502199Y-185957200D01*
X195716485Y-186385771D02*
X195716485Y-185385771D01*
X195716485Y-184885771D02*
X195645056Y-184957200D01*
X195716485Y-185028629D01*
X195787913Y-184957200D01*
X195716485Y-184885771D01*
X195716485Y-185028629D01*
X197073628Y-186314343D02*
X196930771Y-186385771D01*
X196645057Y-186385771D01*
X196502199Y-186314343D01*
X196430771Y-186242914D01*
X196359342Y-186100057D01*
X196359342Y-185671486D01*
X196430771Y-185528629D01*
X196502199Y-185457200D01*
X196645057Y-185385771D01*
X196930771Y-185385771D01*
X197073628Y-185457200D01*
X198359342Y-186385771D02*
X198359342Y-185600057D01*
X198287913Y-185457200D01*
X198145056Y-185385771D01*
X197859342Y-185385771D01*
X197716485Y-185457200D01*
X198359342Y-186314343D02*
X198216485Y-186385771D01*
X197859342Y-186385771D01*
X197716485Y-186314343D01*
X197645056Y-186171486D01*
X197645056Y-186028629D01*
X197716485Y-185885771D01*
X197859342Y-185814343D01*
X198216485Y-185814343D01*
X198359342Y-185742914D01*
X199716485Y-186385771D02*
X199716485Y-184885771D01*
X199716485Y-186314343D02*
X199573628Y-186385771D01*
X199287914Y-186385771D01*
X199145056Y-186314343D01*
X199073628Y-186242914D01*
X199002199Y-186100057D01*
X199002199Y-185671486D01*
X199073628Y-185528629D01*
X199145056Y-185457200D01*
X199287914Y-185385771D01*
X199573628Y-185385771D01*
X199716485Y-185457200D01*
X200073628Y-186528629D02*
X201216485Y-186528629D01*
X201573628Y-185385771D02*
X201573628Y-186885771D01*
X201573628Y-185457200D02*
X201716485Y-185385771D01*
X202002199Y-185385771D01*
X202145056Y-185457200D01*
X202216485Y-185528629D01*
X202287914Y-185671486D01*
X202287914Y-186100057D01*
X202216485Y-186242914D01*
X202145056Y-186314343D01*
X202002199Y-186385771D01*
X201716485Y-186385771D01*
X201573628Y-186314343D01*
X203573628Y-186314343D02*
X203430771Y-186385771D01*
X203145057Y-186385771D01*
X203002199Y-186314343D01*
X202930771Y-186242914D01*
X202859342Y-186100057D01*
X202859342Y-185671486D01*
X202930771Y-185528629D01*
X203002199Y-185457200D01*
X203145057Y-185385771D01*
X203430771Y-185385771D01*
X203573628Y-185457200D01*
X204216485Y-186385771D02*
X204216485Y-184885771D01*
X204216485Y-185457200D02*
X204359342Y-185385771D01*
X204645056Y-185385771D01*
X204787913Y-185457200D01*
X204859342Y-185528629D01*
X204930771Y-185671486D01*
X204930771Y-186100057D01*
X204859342Y-186242914D01*
X204787913Y-186314343D01*
X204645056Y-186385771D01*
X204359342Y-186385771D01*
X204216485Y-186314343D01*
X177002200Y-181507200D02*
X285002200Y-181507200D01*
X178287914Y-183614343D02*
X178502200Y-183685771D01*
X178859343Y-183685771D01*
X179002200Y-183614343D01*
X179073629Y-183542914D01*
X179145057Y-183400057D01*
X179145057Y-183257200D01*
X179073629Y-183114343D01*
X179002200Y-183042914D01*
X178859343Y-182971486D01*
X178573629Y-182900057D01*
X178430771Y-182828629D01*
X178359343Y-182757200D01*
X178287914Y-182614343D01*
X178287914Y-182471486D01*
X178359343Y-182328629D01*
X178430771Y-182257200D01*
X178573629Y-182185771D01*
X178930771Y-182185771D01*
X179145057Y-182257200D01*
X179787914Y-183685771D02*
X179787914Y-182185771D01*
X180430771Y-183685771D02*
X180430771Y-182900057D01*
X180359342Y-182757200D01*
X180216485Y-182685771D01*
X180002200Y-182685771D01*
X179859342Y-182757200D01*
X179787914Y-182828629D01*
X181716485Y-183614343D02*
X181573628Y-183685771D01*
X181287914Y-183685771D01*
X181145057Y-183614343D01*
X181073628Y-183471486D01*
X181073628Y-182900057D01*
X181145057Y-182757200D01*
X181287914Y-182685771D01*
X181573628Y-182685771D01*
X181716485Y-182757200D01*
X181787914Y-182900057D01*
X181787914Y-183042914D01*
X181073628Y-183185771D01*
X183002199Y-183614343D02*
X182859342Y-183685771D01*
X182573628Y-183685771D01*
X182430771Y-183614343D01*
X182359342Y-183471486D01*
X182359342Y-182900057D01*
X182430771Y-182757200D01*
X182573628Y-182685771D01*
X182859342Y-182685771D01*
X183002199Y-182757200D01*
X183073628Y-182900057D01*
X183073628Y-183042914D01*
X182359342Y-183185771D01*
X183502199Y-182685771D02*
X184073628Y-182685771D01*
X183716485Y-182185771D02*
X183716485Y-183471486D01*
X183787913Y-183614343D01*
X183930771Y-183685771D01*
X184073628Y-183685771D01*
X184573628Y-183542914D02*
X184645056Y-183614343D01*
X184573628Y-183685771D01*
X184502199Y-183614343D01*
X184573628Y-183542914D01*
X184573628Y-183685771D01*
X184573628Y-182757200D02*
X184645056Y-182828629D01*
X184573628Y-182900057D01*
X184502199Y-182828629D01*
X184573628Y-182757200D01*
X184573628Y-182900057D01*
D11*
X178359343Y-180685771D02*
X178359343Y-179185771D01*
X178930771Y-179185771D01*
X179073629Y-179257200D01*
X179145057Y-179328629D01*
X179216486Y-179471486D01*
X179216486Y-179685771D01*
X179145057Y-179828629D01*
X179073629Y-179900057D01*
X178930771Y-179971486D01*
X178359343Y-179971486D01*
X179859343Y-180685771D02*
X179859343Y-179685771D01*
X179859343Y-179971486D02*
X179930771Y-179828629D01*
X180002200Y-179757200D01*
X180145057Y-179685771D01*
X180287914Y-179685771D01*
X181359342Y-180614343D02*
X181216485Y-180685771D01*
X180930771Y-180685771D01*
X180787914Y-180614343D01*
X180716485Y-180471486D01*
X180716485Y-179900057D01*
X180787914Y-179757200D01*
X180930771Y-179685771D01*
X181216485Y-179685771D01*
X181359342Y-179757200D01*
X181430771Y-179900057D01*
X181430771Y-180042914D01*
X180716485Y-180185771D01*
X182002199Y-180614343D02*
X182145056Y-180685771D01*
X182430771Y-180685771D01*
X182573628Y-180614343D01*
X182645056Y-180471486D01*
X182645056Y-180400057D01*
X182573628Y-180257200D01*
X182430771Y-180185771D01*
X182216485Y-180185771D01*
X182073628Y-180114343D01*
X182002199Y-179971486D01*
X182002199Y-179900057D01*
X182073628Y-179757200D01*
X182216485Y-179685771D01*
X182430771Y-179685771D01*
X182573628Y-179757200D01*
X183502200Y-180685771D02*
X183359342Y-180614343D01*
X183287914Y-180542914D01*
X183216485Y-180400057D01*
X183216485Y-179971486D01*
X183287914Y-179828629D01*
X183359342Y-179757200D01*
X183502200Y-179685771D01*
X183716485Y-179685771D01*
X183859342Y-179757200D01*
X183930771Y-179828629D01*
X184002200Y-179971486D01*
X184002200Y-180400057D01*
X183930771Y-180542914D01*
X183859342Y-180614343D01*
X183716485Y-180685771D01*
X183502200Y-180685771D01*
X184859343Y-180685771D02*
X184716485Y-180614343D01*
X184645057Y-180471486D01*
X184645057Y-179185771D01*
X185430771Y-180685771D02*
X185430771Y-179685771D01*
X185430771Y-179185771D02*
X185359342Y-179257200D01*
X185430771Y-179328629D01*
X185502199Y-179257200D01*
X185430771Y-179185771D01*
X185430771Y-179328629D01*
X186787914Y-180685771D02*
X186787914Y-179185771D01*
X186787914Y-180614343D02*
X186645057Y-180685771D01*
X186359343Y-180685771D01*
X186216485Y-180614343D01*
X186145057Y-180542914D01*
X186073628Y-180400057D01*
X186073628Y-179971486D01*
X186145057Y-179828629D01*
X186216485Y-179757200D01*
X186359343Y-179685771D01*
X186645057Y-179685771D01*
X186787914Y-179757200D01*
X187287914Y-179185771D02*
X188145057Y-179185771D01*
X187716486Y-180685771D02*
X187716486Y-179185771D01*
X189216485Y-180614343D02*
X189073628Y-180685771D01*
X188787914Y-180685771D01*
X188645057Y-180614343D01*
X188573628Y-180471486D01*
X188573628Y-179900057D01*
X188645057Y-179757200D01*
X188787914Y-179685771D01*
X189073628Y-179685771D01*
X189216485Y-179757200D01*
X189287914Y-179900057D01*
X189287914Y-180042914D01*
X188573628Y-180185771D01*
X190573628Y-180614343D02*
X190430771Y-180685771D01*
X190145057Y-180685771D01*
X190002199Y-180614343D01*
X189930771Y-180542914D01*
X189859342Y-180400057D01*
X189859342Y-179971486D01*
X189930771Y-179828629D01*
X190002199Y-179757200D01*
X190145057Y-179685771D01*
X190430771Y-179685771D01*
X190573628Y-179757200D01*
X191216485Y-179685771D02*
X191216485Y-180685771D01*
X191216485Y-179828629D02*
X191287913Y-179757200D01*
X191430771Y-179685771D01*
X191645056Y-179685771D01*
X191787913Y-179757200D01*
X191859342Y-179900057D01*
X191859342Y-180685771D01*
X192787914Y-180685771D02*
X192645056Y-180614343D01*
X192573628Y-180542914D01*
X192502199Y-180400057D01*
X192502199Y-179971486D01*
X192573628Y-179828629D01*
X192645056Y-179757200D01*
X192787914Y-179685771D01*
X193002199Y-179685771D01*
X193145056Y-179757200D01*
X193216485Y-179828629D01*
X193287914Y-179971486D01*
X193287914Y-180400057D01*
X193216485Y-180542914D01*
X193145056Y-180614343D01*
X193002199Y-180685771D01*
X192787914Y-180685771D01*
X194145057Y-180685771D02*
X194002199Y-180614343D01*
X193930771Y-180471486D01*
X193930771Y-179185771D01*
X194930771Y-180685771D02*
X194787913Y-180614343D01*
X194716485Y-180542914D01*
X194645056Y-180400057D01*
X194645056Y-179971486D01*
X194716485Y-179828629D01*
X194787913Y-179757200D01*
X194930771Y-179685771D01*
X195145056Y-179685771D01*
X195287913Y-179757200D01*
X195359342Y-179828629D01*
X195430771Y-179971486D01*
X195430771Y-180400057D01*
X195359342Y-180542914D01*
X195287913Y-180614343D01*
X195145056Y-180685771D01*
X194930771Y-180685771D01*
X196716485Y-179685771D02*
X196716485Y-180900057D01*
X196645056Y-181042914D01*
X196573628Y-181114343D01*
X196430771Y-181185771D01*
X196216485Y-181185771D01*
X196073628Y-181114343D01*
X196716485Y-180614343D02*
X196573628Y-180685771D01*
X196287914Y-180685771D01*
X196145056Y-180614343D01*
X196073628Y-180542914D01*
X196002199Y-180400057D01*
X196002199Y-179971486D01*
X196073628Y-179828629D01*
X196145056Y-179757200D01*
X196287914Y-179685771D01*
X196573628Y-179685771D01*
X196716485Y-179757200D01*
X197430771Y-180685771D02*
X197430771Y-179685771D01*
X197430771Y-179185771D02*
X197359342Y-179257200D01*
X197430771Y-179328629D01*
X197502199Y-179257200D01*
X197430771Y-179185771D01*
X197430771Y-179328629D01*
X198716485Y-180614343D02*
X198573628Y-180685771D01*
X198287914Y-180685771D01*
X198145057Y-180614343D01*
X198073628Y-180471486D01*
X198073628Y-179900057D01*
X198145057Y-179757200D01*
X198287914Y-179685771D01*
X198573628Y-179685771D01*
X198716485Y-179757200D01*
X198787914Y-179900057D01*
X198787914Y-180042914D01*
X198073628Y-180185771D01*
X199359342Y-180614343D02*
X199502199Y-180685771D01*
X199787914Y-180685771D01*
X199930771Y-180614343D01*
X200002199Y-180471486D01*
X200002199Y-180400057D01*
X199930771Y-180257200D01*
X199787914Y-180185771D01*
X199573628Y-180185771D01*
X199430771Y-180114343D01*
X199359342Y-179971486D01*
X199359342Y-179900057D01*
X199430771Y-179757200D01*
X199573628Y-179685771D01*
X199787914Y-179685771D01*
X199930771Y-179757200D01*
D10*
X197002200Y-191507200D02*
X197002200Y-194507200D01*
X261002200Y-191507200D02*
X261002200Y-198007200D01*
D13*
X84180000Y-126830000D03*
D14*
X84180000Y-130330000D03*
D15*
X143275000Y-137490000D03*
D16*
X142475000Y-139770000D03*
X148125000Y-139770000D03*
D15*
X147325000Y-137490000D03*
D17*
X106019600Y-94297500D03*
X103479600Y-94297500D03*
X100939600Y-94297500D03*
X98399600Y-94297500D03*
X95859600Y-94297500D03*
X93319600Y-94297500D03*
X90779600Y-94297500D03*
X88239600Y-94297500D03*
X88239600Y-94297500D03*
X90779600Y-94297500D03*
X93319600Y-94297500D03*
X95859600Y-94297500D03*
X98399600Y-94297500D03*
X100939600Y-94297500D03*
X103479600Y-94297500D03*
X106019600Y-94297500D03*
X106019600Y-106997500D03*
X103479600Y-106997500D03*
X100939600Y-106997500D03*
X98399600Y-106997500D03*
X95859600Y-106997500D03*
X93319600Y-106997500D03*
X90779600Y-106997500D03*
D18*
X88239600Y-106997500D03*
X88239600Y-106997500D03*
D17*
X90779600Y-106997500D03*
X93319600Y-106997500D03*
X95859600Y-106997500D03*
X98399600Y-106997500D03*
X100939600Y-106997500D03*
X103479600Y-106997500D03*
X106019600Y-106997500D03*
X106019600Y-110299500D03*
X103479600Y-110299500D03*
X100939600Y-110299500D03*
X98399600Y-110299500D03*
X95859600Y-110299500D03*
X93319600Y-110299500D03*
X90779600Y-110299500D03*
X88239600Y-110299500D03*
X88239600Y-110299500D03*
X90779600Y-110299500D03*
X93319600Y-110299500D03*
X95859600Y-110299500D03*
X98399600Y-110299500D03*
X100939600Y-110299500D03*
X103479600Y-110299500D03*
X106019600Y-110299500D03*
X106019600Y-122999500D03*
X103479600Y-122999500D03*
X100939600Y-122999500D03*
X98399600Y-122999500D03*
X95859600Y-122999500D03*
X93319600Y-122999500D03*
X90779600Y-122999500D03*
D18*
X88239600Y-122999500D03*
X88239600Y-122999500D03*
D17*
X90779600Y-122999500D03*
X93319600Y-122999500D03*
X95859600Y-122999500D03*
X98399600Y-122999500D03*
X100939600Y-122999500D03*
X103479600Y-122999500D03*
X106019600Y-122999500D03*
X106146600Y-46291500D03*
X103606600Y-46291500D03*
X101066600Y-46291500D03*
X98526600Y-46291500D03*
X95986600Y-46291500D03*
X93446600Y-46291500D03*
X90906600Y-46291500D03*
X88366600Y-46291500D03*
X88366600Y-46291500D03*
X90906600Y-46291500D03*
X93446600Y-46291500D03*
X95986600Y-46291500D03*
X98526600Y-46291500D03*
X101066600Y-46291500D03*
X103606600Y-46291500D03*
X106146600Y-46291500D03*
X106146600Y-58991500D03*
X103606600Y-58991500D03*
X101066600Y-58991500D03*
X98526600Y-58991500D03*
X95986600Y-58991500D03*
X93446600Y-58991500D03*
X90906600Y-58991500D03*
D18*
X88366600Y-58991500D03*
X88366600Y-58991500D03*
D17*
X90906600Y-58991500D03*
X93446600Y-58991500D03*
X95986600Y-58991500D03*
X98526600Y-58991500D03*
X101066600Y-58991500D03*
X103606600Y-58991500D03*
X106146600Y-58991500D03*
D19*
X120243600Y-50342800D03*
D20*
X126593600Y-50342800D03*
D21*
X140500000Y-66500000D03*
D22*
X143040000Y-66500000D03*
D19*
X154127200Y-50393600D03*
D20*
X160477200Y-50393600D03*
D23*
X176209960Y-40863520D03*
X176109960Y-137662020D03*
X84211160Y-40863520D03*
D17*
X106019600Y-78295500D03*
X103479600Y-78295500D03*
X100939600Y-78295500D03*
X98399600Y-78295500D03*
X95859600Y-78295500D03*
X93319600Y-78295500D03*
X90779600Y-78295500D03*
X88239600Y-78295500D03*
X88239600Y-78295500D03*
X90779600Y-78295500D03*
X93319600Y-78295500D03*
X95859600Y-78295500D03*
X98399600Y-78295500D03*
X100939600Y-78295500D03*
X103479600Y-78295500D03*
X106019600Y-78295500D03*
X106019600Y-90995500D03*
X103479600Y-90995500D03*
X100939600Y-90995500D03*
X98399600Y-90995500D03*
X95859600Y-90995500D03*
X93319600Y-90995500D03*
X90779600Y-90995500D03*
D18*
X88239600Y-90995500D03*
X88239600Y-90995500D03*
D17*
X90779600Y-90995500D03*
X93319600Y-90995500D03*
X95859600Y-90995500D03*
X98399600Y-90995500D03*
X100939600Y-90995500D03*
X103479600Y-90995500D03*
X106019600Y-90995500D03*
X106146600Y-62420500D03*
X103606600Y-62420500D03*
X101066600Y-62420500D03*
X98526600Y-62420500D03*
X95986600Y-62420500D03*
X93446600Y-62420500D03*
X90906600Y-62420500D03*
X88366600Y-62420500D03*
X88366600Y-62420500D03*
X90906600Y-62420500D03*
X93446600Y-62420500D03*
X95986600Y-62420500D03*
X98526600Y-62420500D03*
X101066600Y-62420500D03*
X103606600Y-62420500D03*
X106146600Y-62420500D03*
X106146600Y-75120500D03*
X103606600Y-75120500D03*
X101066600Y-75120500D03*
X98526600Y-75120500D03*
X95986600Y-75120500D03*
X93446600Y-75120500D03*
X90906600Y-75120500D03*
D18*
X88366600Y-75120500D03*
X88366600Y-75120500D03*
D17*
X90906600Y-75120500D03*
X93446600Y-75120500D03*
X95986600Y-75120500D03*
X98526600Y-75120500D03*
X101066600Y-75120500D03*
X103606600Y-75120500D03*
X106146600Y-75120500D03*
D13*
X84190000Y-134770000D03*
D14*
X84190000Y-138270000D03*
D24*
X132550000Y-140750000D03*
X134250000Y-140750000D03*
X152460000Y-140750000D03*
X154160000Y-140750000D03*
D25*
X174950000Y-52450000D03*
D26*
X177490000Y-52450000D03*
X174950000Y-54990000D03*
X177490000Y-54990000D03*
X174950000Y-57530000D03*
X177490000Y-57530000D03*
X174950000Y-60070000D03*
X177490000Y-60070000D03*
X174950000Y-62610000D03*
X177490000Y-62610000D03*
X174950000Y-65150000D03*
X177490000Y-65150000D03*
X174950000Y-67690000D03*
X177490000Y-67690000D03*
X174950000Y-70230000D03*
X177490000Y-70230000D03*
X174950000Y-72770000D03*
X177490000Y-72770000D03*
X174950000Y-75310000D03*
X177490000Y-75310000D03*
X174950000Y-77850000D03*
X177490000Y-77850000D03*
X174950000Y-80390000D03*
X177490000Y-80390000D03*
X174950000Y-82930000D03*
X177490000Y-82930000D03*
X174950000Y-85470000D03*
X177490000Y-85470000D03*
X174950000Y-88010000D03*
X177490000Y-88010000D03*
X174950000Y-90550000D03*
X177490000Y-90550000D03*
X174950000Y-93090000D03*
X177490000Y-93090000D03*
X174950000Y-95630000D03*
X177490000Y-95630000D03*
D27*
X83500000Y-46400000D03*
D28*
X83500000Y-48940000D03*
X83500000Y-51480000D03*
X83500000Y-54020000D03*
X83500000Y-56560000D03*
X83500000Y-59100000D03*
X83500000Y-61640000D03*
D27*
X83500000Y-65100000D03*
D28*
X83500000Y-67640000D03*
X83500000Y-70180000D03*
X83500000Y-72720000D03*
X83500000Y-75260000D03*
X83500000Y-77800000D03*
X83500000Y-80340000D03*
D27*
X83500000Y-83600000D03*
D28*
X83500000Y-86140000D03*
X83500000Y-88680000D03*
X83500000Y-91220000D03*
X83500000Y-93760000D03*
X83500000Y-96300000D03*
X83500000Y-98840000D03*
D27*
X83500000Y-113000000D03*
D28*
X83500000Y-115540000D03*
X83500000Y-118080000D03*
X83500000Y-120620000D03*
D27*
X83500000Y-102050000D03*
D28*
X83500000Y-104590000D03*
X83500000Y-107130000D03*
X83500000Y-109670000D03*
D29*
X168362860Y-132497880D03*
X165822860Y-132497880D03*
X163790860Y-132497880D03*
X161250860Y-132497880D03*
D30*
X171410860Y-135164880D03*
X157694860Y-135164880D03*
D31*
X134500000Y-62300000D03*
X169350000Y-103200000D03*
D32*
X116650000Y-85900000D03*
D33*
X116650000Y-88440000D03*
D32*
X116700000Y-93600000D03*
D33*
X116700000Y-96140000D03*
D32*
X168450000Y-40700000D03*
D33*
X165910000Y-40700000D03*
D32*
X176300000Y-99300000D03*
D33*
X176300000Y-101840000D03*
D32*
X176300000Y-105150000D03*
D33*
X176300000Y-107690000D03*
D34*
X89610000Y-40930000D03*
D35*
X92150000Y-40930000D03*
X94690000Y-40930000D03*
X97230000Y-40930000D03*
D36*
X100700000Y-40900000D03*
D37*
X103240000Y-40900000D03*
X105780000Y-40900000D03*
X108320000Y-40900000D03*
D38*
X176750000Y-121750000D03*
D39*
X176750000Y-124290000D03*
X176750000Y-126830000D03*
X176750000Y-129370000D03*
X176750000Y-131910000D03*
M02*
