M48
;DRILL file {KiCad 4.0.2-stable} date 05/09/2016 12:28:45
;FORMAT={-:-/ absolute / metric / decimal}
FMAT,2
METRIC,TZ
T1C0.399
T2C0.711
T3C0.800
T4C0.813
T5C1.001
T6C1.016
T7C1.199
T8C1.200
T9C1.300
T10C2.301
T11C4.201
%
G90
G05
M71
T1
X82.57Y-125.1
X85.471Y-114.3
X85.598Y-98.298
X85.725Y-82.55
X85.979Y-50.419
X86.Y-129.
X86.Y-132.
X86.Y-133.
X86.Y-134.
X86.106Y-66.294
X87.Y-128.
X87.Y-129.
X87.Y-132.
X87.Y-133.
X87.Y-134.
X87.249Y-84.836
X87.757Y-68.961
X87.884Y-100.711
X88.Y-128.
X88.Y-129.
X88.Y-132.
X88.Y-133.
X88.Y-134.
X89.154Y-52.832
X90.678Y-98.425
X90.678Y-114.3
X90.678Y-129.413
X90.678Y-130.175
X90.678Y-131.064
X90.678Y-131.826
X90.678Y-132.715
X90.932Y-50.419
X91.Y-135.65
X91.Y-136.65
X91.694Y-129.413
X91.694Y-130.175
X91.694Y-130.937
X91.694Y-131.826
X91.694Y-132.715
X92.05Y-135.65
X92.05Y-136.65
X92.71Y-71.247
X92.964Y-131.699
X93.091Y-88.519
X93.091Y-135.636
X93.1Y-136.65
X93.17Y-56.4
X94.107Y-135.636
X94.15Y-136.65
X94.996Y-129.413
X94.996Y-130.175
X94.996Y-131.064
X94.996Y-131.826
X94.996Y-132.715
X95.25Y-135.636
X95.25Y-136.65
X95.758Y-129.413
X95.758Y-130.175
X95.758Y-131.064
X95.758Y-131.826
X95.758Y-132.715
X95.809Y-87.173
X96.27Y-116.74
X96.393Y-135.636
X96.4Y-136.65
X97.536Y-135.636
X97.536Y-136.65
X98.552Y-127.508
X99.568Y-136.398
X101.6Y-136.144
X101.6Y-137.287
X101.6Y-138.557
X102.743Y-136.144
X102.743Y-137.287
X102.743Y-138.557
X103.38Y-101.07
X103.632Y-92.71
X103.886Y-136.144
X103.886Y-137.287
X103.886Y-138.557
X104.775Y-120.523
X105.029Y-132.461
X105.41Y-130.556
X106.045Y-134.874
X106.045Y-135.763
X106.045Y-136.779
X106.045Y-137.668
X106.045Y-138.557
X106.299Y-132.461
X106.426Y-53.34
X106.68Y-69.596
X106.934Y-134.874
X106.934Y-135.763
X106.934Y-136.779
X106.934Y-137.668
X106.934Y-138.557
X107.188Y-56.388
X107.696Y-132.461
X107.95Y-86.868
X108.077Y-129.159
X108.331Y-118.237
X108.966Y-132.461
X109.093Y-55.753
X109.093Y-129.159
X109.474Y-79.502
X109.601Y-134.874
X109.601Y-135.763
X109.601Y-136.652
X109.601Y-137.541
X109.601Y-138.43
X110.236Y-132.461
X110.27Y-94.93
X110.363Y-134.874
X110.363Y-135.763
X110.363Y-136.652
X110.363Y-137.541
X110.363Y-138.43
X110.532Y-94.16
X110.617Y-126.111
X110.744Y-74.295
X110.744Y-130.048
X110.871Y-75.565
X110.998Y-92.71
X111.379Y-77.089
X111.379Y-91.186
X115.316Y-133.477
X115.57Y-124.079
X115.57Y-136.652
X117.348Y-127.254
X117.983Y-125.73
X118.11Y-116.967
X118.364Y-113.538
X119.253Y-131.064
X119.405Y-58.445
X120.65Y-130.302
X120.85Y-67.05
X121.35Y-104.25
X121.412Y-137.16
X121.46Y-107.864
X121.62Y-118.85
X121.68Y-130.43
X121.961Y-120.112
X122.45Y-82.1
X122.82Y-99.47
X122.94Y-127.
X123.03Y-104.82
X123.25Y-100.81
X123.711Y-111.862
X123.89Y-127.75
X124.2Y-86.35
X124.53Y-104.33
X124.54Y-105.72
X125.212Y-123.863
X125.212Y-125.862
X125.35Y-97.45
X125.65Y-83.35
X125.65Y-115.8
X125.69Y-137.58
X125.69Y-138.61
X125.73Y-60.706
X125.961Y-99.362
X126.03Y-65.49
X126.21Y-59.863
X126.21Y-94.612
X126.21Y-96.114
X126.21Y-100.612
X126.21Y-106.362
X126.21Y-107.864
X126.238Y-133.2
X126.492Y-127.508
X126.71Y-95.362
X126.71Y-101.364
X126.71Y-107.112
X127.254Y-61.976
X127.254Y-133.858
X127.28Y-102.11
X127.711Y-113.111
X127.711Y-117.864
X127.85Y-139.25
X127.96Y-122.862
X128.143Y-134.874
X128.46Y-64.112
X128.524Y-137.414
X128.873Y-92.05
X128.961Y-109.362
X128.961Y-128.613
X129.26Y-136.23
X129.461Y-122.362
X129.5Y-93.85
X130.Y-92.95
X130.1Y-87.7
X130.429Y-137.287
X130.459Y-122.362
X130.9Y-86.8
X130.96Y-111.613
X131.46Y-115.862
X131.5Y-118.
X131.572Y-134.874
X131.95Y-81.7
X132.011Y-119.362
X132.05Y-97.35
X132.38Y-135.58
X132.4Y-96.55
X132.42Y-134.15
X132.461Y-124.612
X132.461Y-128.862
X133.18Y-137.48
X133.622Y-53.353
X133.985Y-132.588
X133.99Y-113.82
X134.191Y-50.333
X134.2Y-87.6
X134.436Y-126.18
X134.747Y-133.604
X135.Y-87.9
X135.212Y-100.863
X135.212Y-122.362
X135.212Y-127.612
X135.71Y-104.562
X135.71Y-129.113
X135.763Y-56.261
X135.763Y-57.15
X135.961Y-119.362
X136.Y-97.15
X136.034Y-133.083
X136.1Y-79.55
X136.24Y-122.865
X136.462Y-99.863
X136.5Y-91.29
X136.58Y-89.38
X136.65Y-82.45
X136.75Y-111.6
X137.01Y-104.762
X137.112Y-47.912
X137.211Y-124.612
X137.211Y-129.113
X137.71Y-109.76
X138.303Y-140.589
X138.521Y-53.404
X138.61Y-125.854
X138.811Y-56.134
X138.938Y-57.023
X139.35Y-100.65
X139.4Y-126.61
X139.83Y-115.19
X140.061Y-42.662
X140.5Y-111.4
X140.711Y-97.561
X140.711Y-108.113
X140.82Y-88.72
X140.861Y-78.041
X140.94Y-87.6
X141.011Y-124.663
X141.25Y-128.05
X141.402Y-81.422
X141.41Y-74.11
X141.447Y-108.928
X141.45Y-79.522
X141.961Y-76.914
X141.981Y-80.533
X142.042Y-82.192
X142.21Y-108.113
X142.392Y-54.762
X142.601Y-81.402
X142.611Y-79.532
X142.672Y-51.003
X142.71Y-104.861
X142.71Y-106.114
X142.88Y-58.66
X142.88Y-74.07
X142.911Y-77.993
X143.15Y-117.13
X143.764Y-133.477
X144.041Y-76.843
X144.102Y-79.301
X144.17Y-81.493
X144.19Y-64.47
X144.361Y-84.102
X144.52Y-102.217
X144.521Y-41.412
X144.55Y-87.63
X144.551Y-52.603
X144.567Y-46.2
X144.6Y-88.47
X144.7Y-126.63
X144.704Y-44.714
X144.78Y-133.477
X144.818Y-43.
X144.991Y-78.003
X145.161Y-48.616
X145.219Y-80.523
X145.44Y-106.25
X145.55Y-82.903
X145.585Y-45.573
X145.618Y-42.212
X145.631Y-43.777
X145.92Y-102.01
X146.111Y-41.445
X146.2Y-76.904
X146.291Y-79.322
X146.291Y-81.473
X146.317Y-44.658
X146.38Y-54.864
X146.408Y-43.
X146.44Y-102.73
X146.454Y-46.246
X146.54Y-62.94
X146.59Y-64.42
X146.685Y-126.111
X146.939Y-132.461
X146.962Y-103.612
X147.112Y-43.762
X147.142Y-50.673
X147.173Y-42.189
X147.211Y-108.862
X147.218Y-45.537
X147.3Y-85.562
X147.371Y-63.701
X147.41Y-117.12
X147.627Y-98.928
X147.881Y-41.399
X147.96Y-111.613
X147.963Y-42.989
X148.041Y-44.681
X148.041Y-46.291
X148.082Y-130.683
X148.1Y-64.4
X148.13Y-62.94
X148.212Y-113.111
X148.212Y-114.612
X148.26Y-48.362
X148.46Y-117.864
X148.694Y-43.744
X148.712Y-112.362
X148.712Y-113.863
X148.717Y-129.794
X148.773Y-42.258
X148.773Y-45.56
X148.844Y-52.476
X149.31Y-117.77
X149.48Y-123.28
X149.54Y-97.88
X149.654Y-42.977
X149.66Y-101.4
X149.664Y-41.377
X149.71Y-44.613
X149.814Y-46.223
X149.97Y-118.3
X150.16Y-81.994
X150.317Y-50.165
X150.411Y-121.963
X150.459Y-99.863
X150.459Y-100.863
X150.81Y-118.11
X150.825Y-54.94
X150.85Y-137.66
X151.003Y-135.255
X151.105Y-111.798
X151.45Y-118.8
X151.66Y-113.32
X151.714Y-42.697
X151.765Y-106.172
X152.019Y-129.159
X152.07Y-65.85
X152.07Y-67.2
X152.4Y-118.8
X152.4Y-127.889
X152.78Y-66.5
X153.035Y-52.629
X153.035Y-105.029
X153.391Y-47.092
X153.54Y-65.78
X153.58Y-67.21
X153.62Y-99.17
X153.645Y-40.996
X153.716Y-98.232
X154.211Y-103.863
X154.35Y-118.25
X154.56Y-134.23
X154.61Y-54.915
X154.752Y-95.482
X155.38Y-132.99
X155.448Y-42.57
X155.55Y-125.25
X155.77Y-65.14
X155.78Y-126.75
X155.981Y-50.063
X156.2Y-95.33
X156.306Y-122.078
X156.356Y-125.24
X156.57Y-131.01
X156.65Y-126.95
X156.95Y-94.27
X156.972Y-40.767
X157.201Y-52.07
X157.251Y-45.136
X157.33Y-127.42
X157.45Y-120.7
X157.709Y-48.031
X157.83Y-92.4
X158.166Y-42.57
X158.3Y-120.05
X158.35Y-116.2
X158.369Y-110.871
X159.24Y-127.06
X159.766Y-109.855
X159.8Y-128.15
X160.95Y-124.5
X161.29Y-111.76
X162.052Y-116.078
X162.4Y-120.25
X162.5Y-110.95
X162.687Y-121.158
X162.9Y-114.85
X162.94Y-124.3
X164.465Y-106.553
X164.59Y-57.46
X164.637Y-88.285
X164.65Y-121.45
X164.719Y-109.855
X165.567Y-85.735
X165.78Y-60.88
X165.862Y-103.886
X166.17Y-57.64
X166.965Y-124.385
X166.991Y-84.262
X167.32Y-97.59
X167.35Y-119.16
X167.513Y-106.553
X168.275Y-114.046
X169.14Y-97.6
X169.545Y-88.265
X169.545Y-111.506
X170.79Y-73.61
X171.196Y-93.091
X171.323Y-94.615
X171.5Y-122.75
X171.6Y-48.75
X171.632Y-53.031
X172.48Y-97.62
X172.57Y-87.37
X172.72Y-78.613
X173.Y-48.75
X173.Y-53.
X173.302Y-60.363
X174.32Y-116.68
X174.33Y-113.49
X178.74Y-108.59
X178.88Y-46.86
T3
X132.55Y-140.75
X134.25Y-140.75
X152.46Y-140.75
X154.16Y-140.75
T4
X88.24Y-78.295
X88.24Y-78.295
X88.24Y-90.995
X88.24Y-90.995
X88.24Y-94.297
X88.24Y-94.297
X88.24Y-106.997
X88.24Y-106.997
X88.24Y-110.299
X88.24Y-110.299
X88.24Y-122.999
X88.24Y-122.999
X88.367Y-46.291
X88.367Y-46.291
X88.367Y-58.991
X88.367Y-58.991
X88.367Y-62.42
X88.367Y-62.42
X88.367Y-75.12
X88.367Y-75.12
X90.78Y-78.295
X90.78Y-78.295
X90.78Y-90.995
X90.78Y-90.995
X90.78Y-94.297
X90.78Y-94.297
X90.78Y-106.997
X90.78Y-106.997
X90.78Y-110.299
X90.78Y-110.299
X90.78Y-122.999
X90.78Y-122.999
X90.907Y-46.291
X90.907Y-46.291
X90.907Y-58.991
X90.907Y-58.991
X90.907Y-62.42
X90.907Y-62.42
X90.907Y-75.12
X90.907Y-75.12
X93.32Y-78.295
X93.32Y-78.295
X93.32Y-90.995
X93.32Y-90.995
X93.32Y-94.297
X93.32Y-94.297
X93.32Y-106.997
X93.32Y-106.997
X93.32Y-110.299
X93.32Y-110.299
X93.32Y-122.999
X93.32Y-122.999
X93.447Y-46.291
X93.447Y-46.291
X93.447Y-58.991
X93.447Y-58.991
X93.447Y-62.42
X93.447Y-62.42
X93.447Y-75.12
X93.447Y-75.12
X95.86Y-78.295
X95.86Y-78.295
X95.86Y-90.995
X95.86Y-90.995
X95.86Y-94.297
X95.86Y-94.297
X95.86Y-106.997
X95.86Y-106.997
X95.86Y-110.299
X95.86Y-110.299
X95.86Y-122.999
X95.86Y-122.999
X95.987Y-46.291
X95.987Y-46.291
X95.987Y-58.991
X95.987Y-58.991
X95.987Y-62.42
X95.987Y-62.42
X95.987Y-75.12
X95.987Y-75.12
X98.4Y-78.295
X98.4Y-78.295
X98.4Y-90.995
X98.4Y-90.995
X98.4Y-94.297
X98.4Y-94.297
X98.4Y-106.997
X98.4Y-106.997
X98.4Y-110.299
X98.4Y-110.299
X98.4Y-122.999
X98.4Y-122.999
X98.527Y-46.291
X98.527Y-46.291
X98.527Y-58.991
X98.527Y-58.991
X98.527Y-62.42
X98.527Y-62.42
X98.527Y-75.12
X98.527Y-75.12
X100.94Y-78.295
X100.94Y-78.295
X100.94Y-90.995
X100.94Y-90.995
X100.94Y-94.297
X100.94Y-94.297
X100.94Y-106.997
X100.94Y-106.997
X100.94Y-110.299
X100.94Y-110.299
X100.94Y-122.999
X100.94Y-122.999
X101.067Y-46.291
X101.067Y-46.291
X101.067Y-58.991
X101.067Y-58.991
X101.067Y-62.42
X101.067Y-62.42
X101.067Y-75.12
X101.067Y-75.12
X103.48Y-78.295
X103.48Y-78.295
X103.48Y-90.995
X103.48Y-90.995
X103.48Y-94.297
X103.48Y-94.297
X103.48Y-106.997
X103.48Y-106.997
X103.48Y-110.299
X103.48Y-110.299
X103.48Y-122.999
X103.48Y-122.999
X103.607Y-46.291
X103.607Y-46.291
X103.607Y-58.991
X103.607Y-58.991
X103.607Y-62.42
X103.607Y-62.42
X103.607Y-75.12
X103.607Y-75.12
X106.02Y-78.295
X106.02Y-78.295
X106.02Y-90.995
X106.02Y-90.995
X106.02Y-94.297
X106.02Y-94.297
X106.02Y-106.997
X106.02Y-106.997
X106.02Y-110.299
X106.02Y-110.299
X106.02Y-122.999
X106.02Y-122.999
X106.147Y-46.291
X106.147Y-46.291
X106.147Y-58.991
X106.147Y-58.991
X106.147Y-62.42
X106.147Y-62.42
X106.147Y-75.12
X106.147Y-75.12
T5
X161.251Y-132.498
X163.791Y-132.498
X165.823Y-132.498
X168.363Y-132.498
T6
X83.5Y-46.4
X83.5Y-48.94
X83.5Y-51.48
X83.5Y-54.02
X83.5Y-56.56
X83.5Y-59.1
X83.5Y-61.64
X83.5Y-65.1
X83.5Y-67.64
X83.5Y-70.18
X83.5Y-72.72
X83.5Y-75.26
X83.5Y-77.8
X83.5Y-80.34
X83.5Y-83.6
X83.5Y-86.14
X83.5Y-88.68
X83.5Y-91.22
X83.5Y-93.76
X83.5Y-96.3
X83.5Y-98.84
X83.5Y-102.05
X83.5Y-104.59
X83.5Y-107.13
X83.5Y-109.67
X83.5Y-113.
X83.5Y-115.54
X83.5Y-118.08
X83.5Y-120.62
X89.61Y-40.93
X92.15Y-40.93
X94.69Y-40.93
X97.23Y-40.93
X116.65Y-85.9
X116.65Y-88.44
X116.7Y-93.6
X116.7Y-96.14
X134.5Y-62.3
X165.91Y-40.7
X168.45Y-40.7
X169.35Y-103.2
X174.95Y-52.45
X174.95Y-54.99
X174.95Y-57.53
X174.95Y-60.07
X174.95Y-62.61
X174.95Y-65.15
X174.95Y-67.69
X174.95Y-70.23
X174.95Y-72.77
X174.95Y-75.31
X174.95Y-77.85
X174.95Y-80.39
X174.95Y-82.93
X174.95Y-85.47
X174.95Y-88.01
X174.95Y-90.55
X174.95Y-93.09
X174.95Y-95.63
X176.3Y-99.3
X176.3Y-101.84
X176.3Y-105.15
X176.3Y-107.69
X177.49Y-52.45
X177.49Y-54.99
X177.49Y-57.53
X177.49Y-60.07
X177.49Y-62.61
X177.49Y-65.15
X177.49Y-67.69
X177.49Y-70.23
X177.49Y-72.77
X177.49Y-75.31
X177.49Y-77.85
X177.49Y-80.39
X177.49Y-82.93
X177.49Y-85.47
X177.49Y-88.01
X177.49Y-90.55
X177.49Y-93.09
X177.49Y-95.63
T7
X84.18Y-126.83
X84.18Y-130.33
X84.19Y-134.77
X84.19Y-138.27
X140.5Y-66.5
X143.04Y-66.5
T8
X100.7Y-40.9
X103.24Y-40.9
X105.78Y-40.9
X108.32Y-40.9
X176.75Y-121.75
X176.75Y-124.29
X176.75Y-126.83
X176.75Y-129.37
X176.75Y-131.91
T9
X120.244Y-50.343
X126.594Y-50.343
X154.127Y-50.394
X160.477Y-50.394
T10
X157.695Y-135.165
X171.411Y-135.165
T11
X84.211Y-40.864
X176.11Y-137.662
X176.21Y-40.864
T2
X142.475Y-139.351G85X142.475Y-140.189
G05
X143.275Y-137.321G85X143.275Y-137.659
G05
X147.325Y-137.321G85X147.325Y-137.659
G05
X148.125Y-139.351G85X148.125Y-140.189
G05
T0
M30
