  0
SECTION
  2
HEADER
  9
$ANGBASE
  50
0.0
  9
$ANGDIR
  70
  1
  9
$MEASUREMENT
  70
0
  0
ENDSEC
  0
SECTION
  2
TABLES
  0
TABLE
  2
LTYPE
  70
1
  0
LTYPE
  2
CONTINUOUS
  70
0
  3
Solid line
  72
65
  73
0
  40
0.0
  0
ENDTAB
  0
TABLE
  2
STYLE
  70
4
  0
STYLE
  2
KICAD
  70
0
  40
0
  41
1
  42
1
  50
0
  71
0
  3
isocp.shx
  0
STYLE
  2
KICADB
  70
0
  40
0
  41
1
  42
1
  50
0
  71
0
  3
isocp.shx
  0
STYLE
  2
KICADI
  70
0
  40
0
  41
1
  42
1
  50
15
  71
0
  3
isocp.shx
  0
STYLE
  2
KICADBI
  70
0
  40
0
  41
1
  42
1
  50
15
  71
0
  3
isocp.shx
  0
ENDTAB
  0
TABLE
  2
LAYER
  70
30
  0
LAYER
  2
BLACK
  70
0
  62
7
  6
CONTINUOUS
  0
LAYER
  2
GRAY1
  70
0
  62
251
  6
CONTINUOUS
  0
LAYER
  2
GRAY2
  70
0
  62
8
  6
CONTINUOUS
  0
LAYER
  2
GRAY3
  70
0
  62
9
  6
CONTINUOUS
  0
LAYER
  2
WHITE
  70
0
  62
7
  6
CONTINUOUS
  0
LAYER
  2
LYELLOW
  70
0
  62
51
  6
CONTINUOUS
  0
LAYER
  2
BLUE1
  70
0
  62
178
  6
CONTINUOUS
  0
LAYER
  2
GREEN1
  70
0
  62
98
  6
CONTINUOUS
  0
LAYER
  2
CYAN1
  70
0
  62
138
  6
CONTINUOUS
  0
LAYER
  2
RED1
  70
0
  62
18
  6
CONTINUOUS
  0
LAYER
  2
MAGENTA1
  70
0
  62
228
  6
CONTINUOUS
  0
LAYER
  2
BROWN1
  70
0
  62
58
  6
CONTINUOUS
  0
LAYER
  2
BLUE2
  70
0
  62
5
  6
CONTINUOUS
  0
LAYER
  2
GREEN2
  70
0
  62
3
  6
CONTINUOUS
  0
LAYER
  2
CYAN2
  70
0
  62
4
  6
CONTINUOUS
  0
LAYER
  2
RED2
  70
0
  62
1
  6
CONTINUOUS
  0
LAYER
  2
MAGENTA2
  70
0
  62
6
  6
CONTINUOUS
  0
LAYER
  2
BROWN2
  70
0
  62
54
  6
CONTINUOUS
  0
LAYER
  2
BLUE3
  70
0
  62
171
  6
CONTINUOUS
  0
LAYER
  2
GREEN3
  70
0
  62
91
  6
CONTINUOUS
  0
LAYER
  2
CYAN3
  70
0
  62
131
  6
CONTINUOUS
  0
LAYER
  2
RED3
  70
0
  62
11
  6
CONTINUOUS
  0
LAYER
  2
MAGENTA3
  70
0
  62
221
  6
CONTINUOUS
  0
LAYER
  2
YELLOW3
  70
0
  62
2
  6
CONTINUOUS
  0
LAYER
  2
BLUE4
  70
0
  62
5
  6
CONTINUOUS
  0
LAYER
  2
GREEN4
  70
0
  62
3
  6
CONTINUOUS
  0
LAYER
  2
CYAN4
  70
0
  62
4
  6
CONTINUOUS
  0
LAYER
  2
RED4
  70
0
  62
1
  6
CONTINUOUS
  0
LAYER
  2
MAGENTA4
  70
0
  62
6
  6
CONTINUOUS
  0
LAYER
  2
YELLOW4
  70
0
  62
2
  6
CONTINUOUS
  0
ENDTAB
  0
ENDSEC
  0
SECTION
  2
ENTITIES
0
LINE
8
Black
10
177.002
20
-166.007
11
177.002
21
-198.007
0
LINE
8
Black
10
177.002
20
-198.007
11
285.002
21
-198.007
0
LINE
8
Black
10
285.002
20
-198.007
11
285.002
21
-166.007
0
LINE
8
Black
10
285.002
20
-166.007
11
177.002
21
-166.007
0
LINE
8
Black
10
10
20
-10
11
10
21
-200.007
0
LINE
8
Black
10
10
20
-200.007
11
287.002
21
-200.007
0
LINE
8
Black
10
287.002
20
-200.007
11
287.002
21
-10
0
LINE
8
Black
10
287.002
20
-10
11
10
21
-10
0
LINE
8
Black
10
12
20
-12
11
12
21
-198.007
0
LINE
8
Black
10
12
20
-198.007
11
285.002
21
-198.007
0
LINE
8
Black
10
285.002
20
-198.007
11
285.002
21
-12
0
LINE
8
Black
10
285.002
20
-12
11
12
21
-12
0
LINE
8
Black
10
60
20
-12
11
60
21
-10
0
LINE
8
Black
10
110
20
-12
11
110
21
-10
0
LINE
8
Black
10
160
20
-12
11
160
21
-10
0
LINE
8
Black
10
210
20
-12
11
210
21
-10
0
LINE
8
Black
10
260
20
-12
11
260
21
-10
0
LINE
8
Black
10
35.9905
20
-11.5881
11
35.2476
21
-11.5881
0
LINE
8
Black
10
35.619
20
-11.5881
11
35.619
21
-10.2881
0
LINE
8
Black
10
35.619
20
-10.2881
11
35.4952
21
-10.4738
0
LINE
8
Black
10
35.4952
20
-10.4738
11
35.3714
21
-10.5976
0
LINE
8
Black
10
35.3714
20
-10.5976
11
35.2476
21
-10.6595
0
LINE
8
Black
10
85.2476
20
-10.4119
11
85.3095
21
-10.35
0
LINE
8
Black
10
85.3095
20
-10.35
11
85.4333
21
-10.2881
0
LINE
8
Black
10
85.4333
20
-10.2881
11
85.7429
21
-10.2881
0
LINE
8
Black
10
85.7429
20
-10.2881
11
85.8667
21
-10.35
0
LINE
8
Black
10
85.8667
20
-10.35
11
85.9286
21
-10.4119
0
LINE
8
Black
10
85.9286
20
-10.4119
11
85.9905
21
-10.5357
0
LINE
8
Black
10
85.9905
20
-10.5357
11
85.9905
21
-10.6595
0
LINE
8
Black
10
85.9905
20
-10.6595
11
85.9286
21
-10.8452
0
LINE
8
Black
10
85.9286
20
-10.8452
11
85.1857
21
-11.5881
0
LINE
8
Black
10
85.1857
20
-11.5881
11
85.9905
21
-11.5881
0
LINE
8
Black
10
135.186
20
-10.2881
11
135.99
21
-10.2881
0
LINE
8
Black
10
135.99
20
-10.2881
11
135.557
21
-10.7833
0
LINE
8
Black
10
135.557
20
-10.7833
11
135.743
21
-10.7833
0
LINE
8
Black
10
135.743
20
-10.7833
11
135.867
21
-10.8452
0
LINE
8
Black
10
135.867
20
-10.8452
11
135.929
21
-10.9071
0
LINE
8
Black
10
135.929
20
-10.9071
11
135.99
21
-11.031
0
LINE
8
Black
10
135.99
20
-11.031
11
135.99
21
-11.3405
0
LINE
8
Black
10
135.99
20
-11.3405
11
135.929
21
-11.4643
0
LINE
8
Black
10
135.929
20
-11.4643
11
135.867
21
-11.5262
0
LINE
8
Black
10
135.867
20
-11.5262
11
135.743
21
-11.5881
0
LINE
8
Black
10
135.743
20
-11.5881
11
135.371
21
-11.5881
0
LINE
8
Black
10
135.371
20
-11.5881
11
135.248
21
-11.5262
0
LINE
8
Black
10
135.248
20
-11.5262
11
135.186
21
-11.4643
0
LINE
8
Black
10
185.867
20
-10.7214
11
185.867
21
-11.5881
0
LINE
8
Black
10
185.557
20
-10.2262
11
185.248
21
-11.1548
0
LINE
8
Black
10
185.248
20
-11.1548
11
186.052
21
-11.1548
0
LINE
8
Black
10
235.929
20
-10.2881
11
235.31
21
-10.2881
0
LINE
8
Black
10
235.31
20
-10.2881
11
235.248
21
-10.9071
0
LINE
8
Black
10
235.248
20
-10.9071
11
235.31
21
-10.8452
0
LINE
8
Black
10
235.31
20
-10.8452
11
235.433
21
-10.7833
0
LINE
8
Black
10
235.433
20
-10.7833
11
235.743
21
-10.7833
0
LINE
8
Black
10
235.743
20
-10.7833
11
235.867
21
-10.8452
0
LINE
8
Black
10
235.867
20
-10.8452
11
235.929
21
-10.9071
0
LINE
8
Black
10
235.929
20
-10.9071
11
235.99
21
-11.031
0
LINE
8
Black
10
235.99
20
-11.031
11
235.99
21
-11.3405
0
LINE
8
Black
10
235.99
20
-11.3405
11
235.929
21
-11.4643
0
LINE
8
Black
10
235.929
20
-11.4643
11
235.867
21
-11.5262
0
LINE
8
Black
10
235.867
20
-11.5262
11
235.743
21
-11.5881
0
LINE
8
Black
10
235.743
20
-11.5881
11
235.433
21
-11.5881
0
LINE
8
Black
10
235.433
20
-11.5881
11
235.31
21
-11.5262
0
LINE
8
Black
10
235.31
20
-11.5262
11
235.248
21
-11.4643
0
LINE
8
Black
10
285.867
20
-10.2881
11
285.619
21
-10.2881
0
LINE
8
Black
10
285.619
20
-10.2881
11
285.495
21
-10.35
0
LINE
8
Black
10
285.495
20
-10.35
11
285.433
21
-10.4119
0
LINE
8
Black
10
285.433
20
-10.4119
11
285.31
21
-10.5976
0
LINE
8
Black
10
285.31
20
-10.5976
11
285.248
21
-10.8452
0
LINE
8
Black
10
285.248
20
-10.8452
11
285.248
21
-11.3405
0
LINE
8
Black
10
285.248
20
-11.3405
11
285.31
21
-11.4643
0
LINE
8
Black
10
285.31
20
-11.4643
11
285.371
21
-11.5262
0
LINE
8
Black
10
285.371
20
-11.5262
11
285.495
21
-11.5881
0
LINE
8
Black
10
285.495
20
-11.5881
11
285.743
21
-11.5881
0
LINE
8
Black
10
285.743
20
-11.5881
11
285.867
21
-11.5262
0
LINE
8
Black
10
285.867
20
-11.5262
11
285.929
21
-11.4643
0
LINE
8
Black
10
285.929
20
-11.4643
11
285.99
21
-11.3405
0
LINE
8
Black
10
285.99
20
-11.3405
11
285.99
21
-11.031
0
LINE
8
Black
10
285.99
20
-11.031
11
285.929
21
-10.9071
0
LINE
8
Black
10
285.929
20
-10.9071
11
285.867
21
-10.8452
0
LINE
8
Black
10
285.867
20
-10.8452
11
285.743
21
-10.7833
0
LINE
8
Black
10
285.743
20
-10.7833
11
285.495
21
-10.7833
0
LINE
8
Black
10
285.495
20
-10.7833
11
285.371
21
-10.8452
0
LINE
8
Black
10
285.371
20
-10.8452
11
285.31
21
-10.9071
0
LINE
8
Black
10
285.31
20
-10.9071
11
285.248
21
-11.031
0
LINE
8
Black
10
60
20
-198.007
11
60
21
-200.007
0
LINE
8
Black
10
110
20
-198.007
11
110
21
-200.007
0
LINE
8
Black
10
160
20
-198.007
11
160
21
-200.007
0
LINE
8
Black
10
210
20
-198.007
11
210
21
-200.007
0
LINE
8
Black
10
260
20
-198.007
11
260
21
-200.007
0
LINE
8
Black
10
35.9905
20
-199.595
11
35.2476
21
-199.595
0
LINE
8
Black
10
35.619
20
-199.595
11
35.619
21
-198.295
0
LINE
8
Black
10
35.619
20
-198.295
11
35.4952
21
-198.481
0
LINE
8
Black
10
35.4952
20
-198.481
11
35.3714
21
-198.605
0
LINE
8
Black
10
35.3714
20
-198.605
11
35.2476
21
-198.667
0
LINE
8
Black
10
85.2476
20
-198.419
11
85.3095
21
-198.357
0
LINE
8
Black
10
85.3095
20
-198.357
11
85.4333
21
-198.295
0
LINE
8
Black
10
85.4333
20
-198.295
11
85.7429
21
-198.295
0
LINE
8
Black
10
85.7429
20
-198.295
11
85.8667
21
-198.357
0
LINE
8
Black
10
85.8667
20
-198.357
11
85.9286
21
-198.419
0
LINE
8
Black
10
85.9286
20
-198.419
11
85.9905
21
-198.543
0
LINE
8
Black
10
85.9905
20
-198.543
11
85.9905
21
-198.667
0
LINE
8
Black
10
85.9905
20
-198.667
11
85.9286
21
-198.852
0
LINE
8
Black
10
85.9286
20
-198.852
11
85.1857
21
-199.595
0
LINE
8
Black
10
85.1857
20
-199.595
11
85.9905
21
-199.595
0
LINE
8
Black
10
135.186
20
-198.295
11
135.99
21
-198.295
0
LINE
8
Black
10
135.99
20
-198.295
11
135.557
21
-198.791
0
LINE
8
Black
10
135.557
20
-198.791
11
135.743
21
-198.791
0
LINE
8
Black
10
135.743
20
-198.791
11
135.867
21
-198.852
0
LINE
8
Black
10
135.867
20
-198.852
11
135.929
21
-198.914
0
LINE
8
Black
10
135.929
20
-198.914
11
135.99
21
-199.038
0
LINE
8
Black
10
135.99
20
-199.038
11
135.99
21
-199.348
0
LINE
8
Black
10
135.99
20
-199.348
11
135.929
21
-199.471
0
LINE
8
Black
10
135.929
20
-199.471
11
135.867
21
-199.533
0
LINE
8
Black
10
135.867
20
-199.533
11
135.743
21
-199.595
0
LINE
8
Black
10
135.743
20
-199.595
11
135.371
21
-199.595
0
LINE
8
Black
10
135.371
20
-199.595
11
135.248
21
-199.533
0
LINE
8
Black
10
135.248
20
-199.533
11
135.186
21
-199.471
0
LINE
8
Black
10
185.867
20
-198.729
11
185.867
21
-199.595
0
LINE
8
Black
10
185.557
20
-198.233
11
185.248
21
-199.162
0
LINE
8
Black
10
185.248
20
-199.162
11
186.052
21
-199.162
0
LINE
8
Black
10
235.929
20
-198.295
11
235.31
21
-198.295
0
LINE
8
Black
10
235.31
20
-198.295
11
235.248
21
-198.914
0
LINE
8
Black
10
235.248
20
-198.914
11
235.31
21
-198.852
0
LINE
8
Black
10
235.31
20
-198.852
11
235.433
21
-198.791
0
LINE
8
Black
10
235.433
20
-198.791
11
235.743
21
-198.791
0
LINE
8
Black
10
235.743
20
-198.791
11
235.867
21
-198.852
0
LINE
8
Black
10
235.867
20
-198.852
11
235.929
21
-198.914
0
LINE
8
Black
10
235.929
20
-198.914
11
235.99
21
-199.038
0
LINE
8
Black
10
235.99
20
-199.038
11
235.99
21
-199.348
0
LINE
8
Black
10
235.99
20
-199.348
11
235.929
21
-199.471
0
LINE
8
Black
10
235.929
20
-199.471
11
235.867
21
-199.533
0
LINE
8
Black
10
235.867
20
-199.533
11
235.743
21
-199.595
0
LINE
8
Black
10
235.743
20
-199.595
11
235.433
21
-199.595
0
LINE
8
Black
10
235.433
20
-199.595
11
235.31
21
-199.533
0
LINE
8
Black
10
235.31
20
-199.533
11
235.248
21
-199.471
0
LINE
8
Black
10
285.867
20
-198.295
11
285.619
21
-198.295
0
LINE
8
Black
10
285.619
20
-198.295
11
285.495
21
-198.357
0
LINE
8
Black
10
285.495
20
-198.357
11
285.433
21
-198.419
0
LINE
8
Black
10
285.433
20
-198.419
11
285.31
21
-198.605
0
LINE
8
Black
10
285.31
20
-198.605
11
285.248
21
-198.852
0
LINE
8
Black
10
285.248
20
-198.852
11
285.248
21
-199.348
0
LINE
8
Black
10
285.248
20
-199.348
11
285.31
21
-199.471
0
LINE
8
Black
10
285.31
20
-199.471
11
285.371
21
-199.533
0
LINE
8
Black
10
285.371
20
-199.533
11
285.495
21
-199.595
0
LINE
8
Black
10
285.495
20
-199.595
11
285.743
21
-199.595
0
LINE
8
Black
10
285.743
20
-199.595
11
285.867
21
-199.533
0
LINE
8
Black
10
285.867
20
-199.533
11
285.929
21
-199.471
0
LINE
8
Black
10
285.929
20
-199.471
11
285.99
21
-199.348
0
LINE
8
Black
10
285.99
20
-199.348
11
285.99
21
-199.038
0
LINE
8
Black
10
285.99
20
-199.038
11
285.929
21
-198.914
0
LINE
8
Black
10
285.929
20
-198.914
11
285.867
21
-198.852
0
LINE
8
Black
10
285.867
20
-198.852
11
285.743
21
-198.791
0
LINE
8
Black
10
285.743
20
-198.791
11
285.495
21
-198.791
0
LINE
8
Black
10
285.495
20
-198.791
11
285.371
21
-198.852
0
LINE
8
Black
10
285.371
20
-198.852
11
285.31
21
-198.914
0
LINE
8
Black
10
285.31
20
-198.914
11
285.248
21
-199.038
0
LINE
8
Black
10
10
20
-60
11
12
21
-60
0
LINE
8
Black
10
10
20
-110
11
12
21
-110
0
LINE
8
Black
10
10
20
-160
11
12
21
-160
0
LINE
8
Black
10
10.6905
20
-35.2167
11
11.3095
21
-35.2167
0
LINE
8
Black
10
10.5667
20
-35.5881
11
11
21
-34.2881
0
LINE
8
Black
10
11
20
-34.2881
11
11.4333
21
-35.5881
0
LINE
8
Black
10
11.0929
20
-84.9071
11
11.2786
21
-84.969
0
LINE
8
Black
10
11.2786
20
-84.969
11
11.3405
21
-85.031
0
LINE
8
Black
10
11.3405
20
-85.031
11
11.4024
21
-85.1548
0
LINE
8
Black
10
11.4024
20
-85.1548
11
11.4024
21
-85.3405
0
LINE
8
Black
10
11.4024
20
-85.3405
11
11.3405
21
-85.4643
0
LINE
8
Black
10
11.3405
20
-85.4643
11
11.2786
21
-85.5262
0
LINE
8
Black
10
11.2786
20
-85.5262
11
11.1548
21
-85.5881
0
LINE
8
Black
10
11.1548
20
-85.5881
11
10.6595
21
-85.5881
0
LINE
8
Black
10
10.6595
20
-85.5881
11
10.6595
21
-84.2881
0
LINE
8
Black
10
10.6595
20
-84.2881
11
11.0929
21
-84.2881
0
LINE
8
Black
10
11.0929
20
-84.2881
11
11.2167
21
-84.35
0
LINE
8
Black
10
11.2167
20
-84.35
11
11.2786
21
-84.4119
0
LINE
8
Black
10
11.2786
20
-84.4119
11
11.3405
21
-84.5357
0
LINE
8
Black
10
11.3405
20
-84.5357
11
11.3405
21
-84.6595
0
LINE
8
Black
10
11.3405
20
-84.6595
11
11.2786
21
-84.7833
0
LINE
8
Black
10
11.2786
20
-84.7833
11
11.2167
21
-84.8452
0
LINE
8
Black
10
11.2167
20
-84.8452
11
11.0929
21
-84.9071
0
LINE
8
Black
10
11.0929
20
-84.9071
11
10.6595
21
-84.9071
0
LINE
8
Black
10
11.4024
20
-135.464
11
11.3405
21
-135.526
0
LINE
8
Black
10
11.3405
20
-135.526
11
11.1548
21
-135.588
0
LINE
8
Black
10
11.1548
20
-135.588
11
11.031
21
-135.588
0
LINE
8
Black
10
11.031
20
-135.588
11
10.8452
21
-135.526
0
LINE
8
Black
10
10.8452
20
-135.526
11
10.7214
21
-135.402
0
LINE
8
Black
10
10.7214
20
-135.402
11
10.6595
21
-135.279
0
LINE
8
Black
10
10.6595
20
-135.279
11
10.5976
21
-135.031
0
LINE
8
Black
10
10.5976
20
-135.031
11
10.5976
21
-134.845
0
LINE
8
Black
10
10.5976
20
-134.845
11
10.6595
21
-134.598
0
LINE
8
Black
10
10.6595
20
-134.598
11
10.7214
21
-134.474
0
LINE
8
Black
10
10.7214
20
-134.474
11
10.8452
21
-134.35
0
LINE
8
Black
10
10.8452
20
-134.35
11
11.031
21
-134.288
0
LINE
8
Black
10
11.031
20
-134.288
11
11.1548
21
-134.288
0
LINE
8
Black
10
11.1548
20
-134.288
11
11.3405
21
-134.35
0
LINE
8
Black
10
11.3405
20
-134.35
11
11.4024
21
-134.412
0
LINE
8
Black
10
10.6595
20
-185.588
11
10.6595
21
-184.288
0
LINE
8
Black
10
10.6595
20
-184.288
11
10.969
21
-184.288
0
LINE
8
Black
10
10.969
20
-184.288
11
11.1548
21
-184.35
0
LINE
8
Black
10
11.1548
20
-184.35
11
11.2786
21
-184.474
0
LINE
8
Black
10
11.2786
20
-184.474
11
11.3405
21
-184.598
0
LINE
8
Black
10
11.3405
20
-184.598
11
11.4024
21
-184.845
0
LINE
8
Black
10
11.4024
20
-184.845
11
11.4024
21
-185.031
0
LINE
8
Black
10
11.4024
20
-185.031
11
11.3405
21
-185.279
0
LINE
8
Black
10
11.3405
20
-185.279
11
11.2786
21
-185.402
0
LINE
8
Black
10
11.2786
20
-185.402
11
11.1548
21
-185.526
0
LINE
8
Black
10
11.1548
20
-185.526
11
10.969
21
-185.588
0
LINE
8
Black
10
10.969
20
-185.588
11
10.6595
21
-185.588
0
LINE
8
Black
10
287.002
20
-60
11
285.002
21
-60
0
LINE
8
Black
10
287.002
20
-110
11
285.002
21
-110
0
LINE
8
Black
10
287.002
20
-160
11
285.002
21
-160
0
LINE
8
Black
10
285.693
20
-35.2167
11
286.312
21
-35.2167
0
LINE
8
Black
10
285.569
20
-35.5881
11
286.002
21
-34.2881
0
LINE
8
Black
10
286.002
20
-34.2881
11
286.436
21
-35.5881
0
LINE
8
Black
10
286.095
20
-84.9071
11
286.281
21
-84.969
0
LINE
8
Black
10
286.281
20
-84.969
11
286.343
21
-85.031
0
LINE
8
Black
10
286.343
20
-85.031
11
286.405
21
-85.1548
0
LINE
8
Black
10
286.405
20
-85.1548
11
286.405
21
-85.3405
0
LINE
8
Black
10
286.405
20
-85.3405
11
286.343
21
-85.4643
0
LINE
8
Black
10
286.343
20
-85.4643
11
286.281
21
-85.5262
0
LINE
8
Black
10
286.281
20
-85.5262
11
286.157
21
-85.5881
0
LINE
8
Black
10
286.157
20
-85.5881
11
285.662
21
-85.5881
0
LINE
8
Black
10
285.662
20
-85.5881
11
285.662
21
-84.2881
0
LINE
8
Black
10
285.662
20
-84.2881
11
286.095
21
-84.2881
0
LINE
8
Black
10
286.095
20
-84.2881
11
286.219
21
-84.35
0
LINE
8
Black
10
286.219
20
-84.35
11
286.281
21
-84.4119
0
LINE
8
Black
10
286.281
20
-84.4119
11
286.343
21
-84.5357
0
LINE
8
Black
10
286.343
20
-84.5357
11
286.343
21
-84.6595
0
LINE
8
Black
10
286.343
20
-84.6595
11
286.281
21
-84.7833
0
LINE
8
Black
10
286.281
20
-84.7833
11
286.219
21
-84.8452
0
LINE
8
Black
10
286.219
20
-84.8452
11
286.095
21
-84.9071
0
LINE
8
Black
10
286.095
20
-84.9071
11
285.662
21
-84.9071
0
LINE
8
Black
10
286.405
20
-135.464
11
286.343
21
-135.526
0
LINE
8
Black
10
286.343
20
-135.526
11
286.157
21
-135.588
0
LINE
8
Black
10
286.157
20
-135.588
11
286.033
21
-135.588
0
LINE
8
Black
10
286.033
20
-135.588
11
285.847
21
-135.526
0
LINE
8
Black
10
285.847
20
-135.526
11
285.724
21
-135.402
0
LINE
8
Black
10
285.724
20
-135.402
11
285.662
21
-135.279
0
LINE
8
Black
10
285.662
20
-135.279
11
285.6
21
-135.031
0
LINE
8
Black
10
285.6
20
-135.031
11
285.6
21
-134.845
0
LINE
8
Black
10
285.6
20
-134.845
11
285.662
21
-134.598
0
LINE
8
Black
10
285.662
20
-134.598
11
285.724
21
-134.474
0
LINE
8
Black
10
285.724
20
-134.474
11
285.847
21
-134.35
0
LINE
8
Black
10
285.847
20
-134.35
11
286.033
21
-134.288
0
LINE
8
Black
10
286.033
20
-134.288
11
286.157
21
-134.288
0
LINE
8
Black
10
286.157
20
-134.288
11
286.343
21
-134.35
0
LINE
8
Black
10
286.343
20
-134.35
11
286.405
21
-134.412
0
LINE
8
Black
10
285.662
20
-185.588
11
285.662
21
-184.288
0
LINE
8
Black
10
285.662
20
-184.288
11
285.971
21
-184.288
0
LINE
8
Black
10
285.971
20
-184.288
11
286.157
21
-184.35
0
LINE
8
Black
10
286.157
20
-184.35
11
286.281
21
-184.474
0
LINE
8
Black
10
286.281
20
-184.474
11
286.343
21
-184.598
0
LINE
8
Black
10
286.343
20
-184.598
11
286.405
21
-184.845
0
LINE
8
Black
10
286.405
20
-184.845
11
286.405
21
-185.031
0
LINE
8
Black
10
286.405
20
-185.031
11
286.343
21
-185.279
0
LINE
8
Black
10
286.343
20
-185.279
11
286.281
21
-185.402
0
LINE
8
Black
10
286.281
20
-185.402
11
286.157
21
-185.526
0
LINE
8
Black
10
286.157
20
-185.526
11
285.971
21
-185.588
0
LINE
8
Black
10
285.971
20
-185.588
11
285.662
21
-185.588
0
LINE
8
Black
10
200.359
20
-193.786
11
200.359
21
-192.286
0
LINE
8
Black
10
200.359
20
-192.286
11
200.716
21
-192.286
0
LINE
8
Black
10
200.716
20
-192.286
11
200.931
21
-192.357
0
LINE
8
Black
10
200.931
20
-192.357
11
201.074
21
-192.5
0
LINE
8
Black
10
201.074
20
-192.5
11
201.145
21
-192.643
0
LINE
8
Black
10
201.145
20
-192.643
11
201.216
21
-192.929
0
LINE
8
Black
10
201.216
20
-192.929
11
201.216
21
-193.143
0
LINE
8
Black
10
201.216
20
-193.143
11
201.145
21
-193.429
0
LINE
8
Black
10
201.145
20
-193.429
11
201.074
21
-193.571
0
LINE
8
Black
10
201.074
20
-193.571
11
200.931
21
-193.714
0
LINE
8
Black
10
200.931
20
-193.714
11
200.716
21
-193.786
0
LINE
8
Black
10
200.716
20
-193.786
11
200.359
21
-193.786
0
LINE
8
Black
10
202.502
20
-193.786
11
202.502
21
-193
0
LINE
8
Black
10
202.502
20
-193
11
202.431
21
-192.857
0
LINE
8
Black
10
202.431
20
-192.857
11
202.288
21
-192.786
0
LINE
8
Black
10
202.288
20
-192.786
11
202.002
21
-192.786
0
LINE
8
Black
10
202.002
20
-192.786
11
201.859
21
-192.857
0
LINE
8
Black
10
202.502
20
-193.714
11
202.359
21
-193.786
0
LINE
8
Black
10
202.359
20
-193.786
11
202.002
21
-193.786
0
LINE
8
Black
10
202.002
20
-193.786
11
201.859
21
-193.714
0
LINE
8
Black
10
201.859
20
-193.714
11
201.788
21
-193.571
0
LINE
8
Black
10
201.788
20
-193.571
11
201.788
21
-193.429
0
LINE
8
Black
10
201.788
20
-193.429
11
201.859
21
-193.286
0
LINE
8
Black
10
201.859
20
-193.286
11
202.002
21
-193.214
0
LINE
8
Black
10
202.002
20
-193.214
11
202.359
21
-193.214
0
LINE
8
Black
10
202.359
20
-193.214
11
202.502
21
-193.143
0
LINE
8
Black
10
203.002
20
-192.786
11
203.574
21
-192.786
0
LINE
8
Black
10
203.216
20
-192.286
11
203.216
21
-193.571
0
LINE
8
Black
10
203.216
20
-193.571
11
203.288
21
-193.714
0
LINE
8
Black
10
203.288
20
-193.714
11
203.431
21
-193.786
0
LINE
8
Black
10
203.431
20
-193.786
11
203.574
21
-193.786
0
LINE
8
Black
10
204.645
20
-193.714
11
204.502
21
-193.786
0
LINE
8
Black
10
204.502
20
-193.786
11
204.216
21
-193.786
0
LINE
8
Black
10
204.216
20
-193.786
11
204.074
21
-193.714
0
LINE
8
Black
10
204.074
20
-193.714
11
204.002
21
-193.571
0
LINE
8
Black
10
204.002
20
-193.571
11
204.002
21
-193
0
LINE
8
Black
10
204.002
20
-193
11
204.074
21
-192.857
0
LINE
8
Black
10
204.074
20
-192.857
11
204.216
21
-192.786
0
LINE
8
Black
10
204.216
20
-192.786
11
204.502
21
-192.786
0
LINE
8
Black
10
204.502
20
-192.786
11
204.645
21
-192.857
0
LINE
8
Black
10
204.645
20
-192.857
11
204.716
21
-193
0
LINE
8
Black
10
204.716
20
-193
11
204.716
21
-193.143
0
LINE
8
Black
10
204.716
20
-193.143
11
204.002
21
-193.286
0
LINE
8
Black
10
205.359
20
-193.643
11
205.431
21
-193.714
0
LINE
8
Black
10
205.431
20
-193.714
11
205.359
21
-193.786
0
LINE
8
Black
10
205.359
20
-193.786
11
205.288
21
-193.714
0
LINE
8
Black
10
205.288
20
-193.714
11
205.359
21
-193.643
0
LINE
8
Black
10
205.359
20
-193.643
11
205.359
21
-193.786
0
LINE
8
Black
10
205.359
20
-192.857
11
205.431
21
-192.929
0
LINE
8
Black
10
205.431
20
-192.929
11
205.359
21
-193
0
LINE
8
Black
10
205.359
20
-193
11
205.288
21
-192.929
0
LINE
8
Black
10
205.288
20
-192.929
11
205.359
21
-192.857
0
LINE
8
Black
10
205.359
20
-192.857
11
205.359
21
-193
0
LINE
8
Black
10
207.145
20
-192.429
11
207.216
21
-192.357
0
LINE
8
Black
10
207.216
20
-192.357
11
207.359
21
-192.286
0
LINE
8
Black
10
207.359
20
-192.286
11
207.716
21
-192.286
0
LINE
8
Black
10
207.716
20
-192.286
11
207.859
21
-192.357
0
LINE
8
Black
10
207.859
20
-192.357
11
207.931
21
-192.429
0
LINE
8
Black
10
207.931
20
-192.429
11
208.002
21
-192.571
0
LINE
8
Black
10
208.002
20
-192.571
11
208.002
21
-192.714
0
LINE
8
Black
10
208.002
20
-192.714
11
207.931
21
-192.929
0
LINE
8
Black
10
207.931
20
-192.929
11
207.074
21
-193.786
0
LINE
8
Black
10
207.074
20
-193.786
11
208.002
21
-193.786
0
LINE
8
Black
10
208.931
20
-192.286
11
209.074
21
-192.286
0
LINE
8
Black
10
209.074
20
-192.286
11
209.216
21
-192.357
0
LINE
8
Black
10
209.216
20
-192.357
11
209.288
21
-192.429
0
LINE
8
Black
10
209.288
20
-192.429
11
209.359
21
-192.571
0
LINE
8
Black
10
209.359
20
-192.571
11
209.431
21
-192.857
0
LINE
8
Black
10
209.431
20
-192.857
11
209.431
21
-193.214
0
LINE
8
Black
10
209.431
20
-193.214
11
209.359
21
-193.5
0
LINE
8
Black
10
209.359
20
-193.5
11
209.288
21
-193.643
0
LINE
8
Black
10
209.288
20
-193.643
11
209.216
21
-193.714
0
LINE
8
Black
10
209.216
20
-193.714
11
209.074
21
-193.786
0
LINE
8
Black
10
209.074
20
-193.786
11
208.931
21
-193.786
0
LINE
8
Black
10
208.931
20
-193.786
11
208.788
21
-193.714
0
LINE
8
Black
10
208.788
20
-193.714
11
208.716
21
-193.643
0
LINE
8
Black
10
208.716
20
-193.643
11
208.645
21
-193.5
0
LINE
8
Black
10
208.645
20
-193.5
11
208.574
21
-193.214
0
LINE
8
Black
10
208.574
20
-193.214
11
208.574
21
-192.857
0
LINE
8
Black
10
208.574
20
-192.857
11
208.645
21
-192.571
0
LINE
8
Black
10
208.645
20
-192.571
11
208.716
21
-192.429
0
LINE
8
Black
10
208.716
20
-192.429
11
208.788
21
-192.357
0
LINE
8
Black
10
208.788
20
-192.357
11
208.931
21
-192.286
0
LINE
8
Black
10
210.859
20
-193.786
11
210.002
21
-193.786
0
LINE
8
Black
10
210.431
20
-193.786
11
210.431
21
-192.286
0
LINE
8
Black
10
210.431
20
-192.286
11
210.288
21
-192.5
0
LINE
8
Black
10
210.288
20
-192.5
11
210.145
21
-192.643
0
LINE
8
Black
10
210.145
20
-192.643
11
210.002
21
-192.714
0
LINE
8
Black
10
212.145
20
-192.286
11
211.859
21
-192.286
0
LINE
8
Black
10
211.859
20
-192.286
11
211.716
21
-192.357
0
LINE
8
Black
10
211.716
20
-192.357
11
211.645
21
-192.429
0
LINE
8
Black
10
211.645
20
-192.429
11
211.502
21
-192.643
0
LINE
8
Black
10
211.502
20
-192.643
11
211.431
21
-192.929
0
LINE
8
Black
10
211.431
20
-192.929
11
211.431
21
-193.5
0
LINE
8
Black
10
211.431
20
-193.5
11
211.502
21
-193.643
0
LINE
8
Black
10
211.502
20
-193.643
11
211.574
21
-193.714
0
LINE
8
Black
10
211.574
20
-193.714
11
211.716
21
-193.786
0
LINE
8
Black
10
211.716
20
-193.786
11
212.002
21
-193.786
0
LINE
8
Black
10
212.002
20
-193.786
11
212.145
21
-193.714
0
LINE
8
Black
10
212.145
20
-193.714
11
212.216
21
-193.643
0
LINE
8
Black
10
212.216
20
-193.643
11
212.288
21
-193.5
0
LINE
8
Black
10
212.288
20
-193.5
11
212.288
21
-193.143
0
LINE
8
Black
10
212.288
20
-193.143
11
212.216
21
-193
0
LINE
8
Black
10
212.216
20
-193
11
212.145
21
-192.929
0
LINE
8
Black
10
212.145
20
-192.929
11
212.002
21
-192.857
0
LINE
8
Black
10
212.002
20
-192.857
11
211.716
21
-192.857
0
LINE
8
Black
10
211.716
20
-192.857
11
211.574
21
-192.929
0
LINE
8
Black
10
211.574
20
-192.929
11
211.502
21
-193
0
LINE
8
Black
10
211.502
20
-193
11
211.431
21
-193.143
0
LINE
8
Black
10
212.931
20
-193.214
11
214.074
21
-193.214
0
LINE
8
Black
10
215.074
20
-192.286
11
215.216
21
-192.286
0
LINE
8
Black
10
215.216
20
-192.286
11
215.359
21
-192.357
0
LINE
8
Black
10
215.359
20
-192.357
11
215.431
21
-192.429
0
LINE
8
Black
10
215.431
20
-192.429
11
215.502
21
-192.571
0
LINE
8
Black
10
215.502
20
-192.571
11
215.574
21
-192.857
0
LINE
8
Black
10
215.574
20
-192.857
11
215.574
21
-193.214
0
LINE
8
Black
10
215.574
20
-193.214
11
215.502
21
-193.5
0
LINE
8
Black
10
215.502
20
-193.5
11
215.431
21
-193.643
0
LINE
8
Black
10
215.431
20
-193.643
11
215.359
21
-193.714
0
LINE
8
Black
10
215.359
20
-193.714
11
215.216
21
-193.786
0
LINE
8
Black
10
215.216
20
-193.786
11
215.074
21
-193.786
0
LINE
8
Black
10
215.074
20
-193.786
11
214.931
21
-193.714
0
LINE
8
Black
10
214.931
20
-193.714
11
214.859
21
-193.643
0
LINE
8
Black
10
214.859
20
-193.643
11
214.788
21
-193.5
0
LINE
8
Black
10
214.788
20
-193.5
11
214.716
21
-193.214
0
LINE
8
Black
10
214.716
20
-193.214
11
214.716
21
-192.857
0
LINE
8
Black
10
214.716
20
-192.857
11
214.788
21
-192.571
0
LINE
8
Black
10
214.788
20
-192.571
11
214.859
21
-192.429
0
LINE
8
Black
10
214.859
20
-192.429
11
214.931
21
-192.357
0
LINE
8
Black
10
214.931
20
-192.357
11
215.074
21
-192.286
0
LINE
8
Black
10
216.431
20
-192.929
11
216.288
21
-192.857
0
LINE
8
Black
10
216.288
20
-192.857
11
216.216
21
-192.786
0
LINE
8
Black
10
216.216
20
-192.786
11
216.145
21
-192.643
0
LINE
8
Black
10
216.145
20
-192.643
11
216.145
21
-192.571
0
LINE
8
Black
10
216.145
20
-192.571
11
216.216
21
-192.429
0
LINE
8
Black
10
216.216
20
-192.429
11
216.288
21
-192.357
0
LINE
8
Black
10
216.288
20
-192.357
11
216.431
21
-192.286
0
LINE
8
Black
10
216.431
20
-192.286
11
216.716
21
-192.286
0
LINE
8
Black
10
216.716
20
-192.286
11
216.859
21
-192.357
0
LINE
8
Black
10
216.859
20
-192.357
11
216.931
21
-192.429
0
LINE
8
Black
10
216.931
20
-192.429
11
217.002
21
-192.571
0
LINE
8
Black
10
217.002
20
-192.571
11
217.002
21
-192.643
0
LINE
8
Black
10
217.002
20
-192.643
11
216.931
21
-192.786
0
LINE
8
Black
10
216.931
20
-192.786
11
216.859
21
-192.857
0
LINE
8
Black
10
216.859
20
-192.857
11
216.716
21
-192.929
0
LINE
8
Black
10
216.716
20
-192.929
11
216.431
21
-192.929
0
LINE
8
Black
10
216.431
20
-192.929
11
216.288
21
-193
0
LINE
8
Black
10
216.288
20
-193
11
216.216
21
-193.071
0
LINE
8
Black
10
216.216
20
-193.071
11
216.145
21
-193.214
0
LINE
8
Black
10
216.145
20
-193.214
11
216.145
21
-193.5
0
LINE
8
Black
10
216.145
20
-193.5
11
216.216
21
-193.643
0
LINE
8
Black
10
216.216
20
-193.643
11
216.288
21
-193.714
0
LINE
8
Black
10
216.288
20
-193.714
11
216.431
21
-193.786
0
LINE
8
Black
10
216.431
20
-193.786
11
216.716
21
-193.786
0
LINE
8
Black
10
216.716
20
-193.786
11
216.859
21
-193.714
0
LINE
8
Black
10
216.859
20
-193.714
11
216.931
21
-193.643
0
LINE
8
Black
10
216.931
20
-193.643
11
217.002
21
-193.5
0
LINE
8
Black
10
217.002
20
-193.5
11
217.002
21
-193.214
0
LINE
8
Black
10
217.002
20
-193.214
11
216.931
21
-193.071
0
LINE
8
Black
10
216.931
20
-193.071
11
216.859
21
-193
0
LINE
8
Black
10
216.859
20
-193
11
216.716
21
-192.929
0
LINE
8
Black
10
217.645
20
-193.214
11
218.788
21
-193.214
0
LINE
8
Black
10
219.431
20
-192.429
11
219.502
21
-192.357
0
LINE
8
Black
10
219.502
20
-192.357
11
219.645
21
-192.286
0
LINE
8
Black
10
219.645
20
-192.286
11
220.002
21
-192.286
0
LINE
8
Black
10
220.002
20
-192.286
11
220.145
21
-192.357
0
LINE
8
Black
10
220.145
20
-192.357
11
220.216
21
-192.429
0
LINE
8
Black
10
220.216
20
-192.429
11
220.288
21
-192.571
0
LINE
8
Black
10
220.288
20
-192.571
11
220.288
21
-192.714
0
LINE
8
Black
10
220.288
20
-192.714
11
220.216
21
-192.929
0
LINE
8
Black
10
220.216
20
-192.929
11
219.359
21
-193.786
0
LINE
8
Black
10
219.359
20
-193.786
11
220.288
21
-193.786
0
LINE
8
Black
10
220.788
20
-192.286
11
221.716
21
-192.286
0
LINE
8
Black
10
221.716
20
-192.286
11
221.216
21
-192.857
0
LINE
8
Black
10
221.216
20
-192.857
11
221.431
21
-192.857
0
LINE
8
Black
10
221.431
20
-192.857
11
221.574
21
-192.929
0
LINE
8
Black
10
221.574
20
-192.929
11
221.645
21
-193
0
LINE
8
Black
10
221.645
20
-193
11
221.716
21
-193.143
0
LINE
8
Black
10
221.716
20
-193.143
11
221.716
21
-193.5
0
LINE
8
Black
10
221.716
20
-193.5
11
221.645
21
-193.643
0
LINE
8
Black
10
221.645
20
-193.643
11
221.574
21
-193.714
0
LINE
8
Black
10
221.574
20
-193.714
11
221.431
21
-193.786
0
LINE
8
Black
10
221.431
20
-193.786
11
221.002
21
-193.786
0
LINE
8
Black
10
221.002
20
-193.786
11
220.859
21
-193.714
0
LINE
8
Black
10
220.859
20
-193.714
11
220.788
21
-193.643
0
LINE
8
Black
10
177.002
20
-194.507
11
285.002
21
-194.507
0
LINE
8
Black
10
178.359
20
-196.586
11
178.359
21
-195.086
0
LINE
8
Black
10
179.216
20
-196.586
11
178.574
21
-195.729
0
LINE
8
Black
10
179.216
20
-195.086
11
178.359
21
-195.943
0
LINE
8
Black
10
179.859
20
-196.586
11
179.859
21
-195.586
0
LINE
8
Black
10
179.859
20
-195.086
11
179.788
21
-195.157
0
LINE
8
Black
10
179.788
20
-195.157
11
179.859
21
-195.229
0
LINE
8
Black
10
179.859
20
-195.229
11
179.931
21
-195.157
0
LINE
8
Black
10
179.931
20
-195.157
11
179.859
21
-195.086
0
LINE
8
Black
10
179.859
20
-195.086
11
179.859
21
-195.229
0
LINE
8
Black
10
181.431
20
-196.443
11
181.359
21
-196.514
0
LINE
8
Black
10
181.359
20
-196.514
11
181.145
21
-196.586
0
LINE
8
Black
10
181.145
20
-196.586
11
181.002
21
-196.586
0
LINE
8
Black
10
181.002
20
-196.586
11
180.788
21
-196.514
0
LINE
8
Black
10
180.788
20
-196.514
11
180.645
21
-196.371
0
LINE
8
Black
10
180.645
20
-196.371
11
180.574
21
-196.229
0
LINE
8
Black
10
180.574
20
-196.229
11
180.502
21
-195.943
0
LINE
8
Black
10
180.502
20
-195.943
11
180.502
21
-195.729
0
LINE
8
Black
10
180.502
20
-195.729
11
180.574
21
-195.443
0
LINE
8
Black
10
180.574
20
-195.443
11
180.645
21
-195.3
0
LINE
8
Black
10
180.645
20
-195.3
11
180.788
21
-195.157
0
LINE
8
Black
10
180.788
20
-195.157
11
181.002
21
-195.086
0
LINE
8
Black
10
181.002
20
-195.086
11
181.145
21
-195.086
0
LINE
8
Black
10
181.145
20
-195.086
11
181.359
21
-195.157
0
LINE
8
Black
10
181.359
20
-195.157
11
181.431
21
-195.229
0
LINE
8
Black
10
182.716
20
-196.586
11
182.716
21
-195.8
0
LINE
8
Black
10
182.716
20
-195.8
11
182.645
21
-195.657
0
LINE
8
Black
10
182.645
20
-195.657
11
182.502
21
-195.586
0
LINE
8
Black
10
182.502
20
-195.586
11
182.216
21
-195.586
0
LINE
8
Black
10
182.216
20
-195.586
11
182.074
21
-195.657
0
LINE
8
Black
10
182.716
20
-196.514
11
182.574
21
-196.586
0
LINE
8
Black
10
182.574
20
-196.586
11
182.216
21
-196.586
0
LINE
8
Black
10
182.216
20
-196.586
11
182.074
21
-196.514
0
LINE
8
Black
10
182.074
20
-196.514
11
182.002
21
-196.371
0
LINE
8
Black
10
182.002
20
-196.371
11
182.002
21
-196.229
0
LINE
8
Black
10
182.002
20
-196.229
11
182.074
21
-196.086
0
LINE
8
Black
10
182.074
20
-196.086
11
182.216
21
-196.014
0
LINE
8
Black
10
182.216
20
-196.014
11
182.574
21
-196.014
0
LINE
8
Black
10
182.574
20
-196.014
11
182.716
21
-195.943
0
LINE
8
Black
10
184.074
20
-196.586
11
184.074
21
-195.086
0
LINE
8
Black
10
184.074
20
-196.514
11
183.931
21
-196.586
0
LINE
8
Black
10
183.931
20
-196.586
11
183.645
21
-196.586
0
LINE
8
Black
10
183.645
20
-196.586
11
183.502
21
-196.514
0
LINE
8
Black
10
183.502
20
-196.514
11
183.431
21
-196.443
0
LINE
8
Black
10
183.431
20
-196.443
11
183.359
21
-196.3
0
LINE
8
Black
10
183.359
20
-196.3
11
183.359
21
-195.871
0
LINE
8
Black
10
183.359
20
-195.871
11
183.431
21
-195.729
0
LINE
8
Black
10
183.431
20
-195.729
11
183.502
21
-195.657
0
LINE
8
Black
10
183.502
20
-195.657
11
183.645
21
-195.586
0
LINE
8
Black
10
183.645
20
-195.586
11
183.931
21
-195.586
0
LINE
8
Black
10
183.931
20
-195.586
11
184.074
21
-195.657
0
LINE
8
Black
10
185.931
20
-195.8
11
186.431
21
-195.8
0
LINE
8
Black
10
186.645
20
-196.586
11
185.931
21
-196.586
0
LINE
8
Black
10
185.931
20
-196.586
11
185.931
21
-195.086
0
LINE
8
Black
10
185.931
20
-195.086
11
186.645
21
-195.086
0
LINE
8
Black
10
187.288
20
-196.443
11
187.359
21
-196.514
0
LINE
8
Black
10
187.359
20
-196.514
11
187.288
21
-196.586
0
LINE
8
Black
10
187.288
20
-196.586
11
187.216
21
-196.514
0
LINE
8
Black
10
187.216
20
-196.514
11
187.288
21
-196.443
0
LINE
8
Black
10
187.288
20
-196.443
11
187.288
21
-196.586
0
LINE
8
Black
10
188.002
20
-196.586
11
188.002
21
-195.086
0
LINE
8
Black
10
188.002
20
-195.086
11
188.359
21
-195.086
0
LINE
8
Black
10
188.359
20
-195.086
11
188.574
21
-195.157
0
LINE
8
Black
10
188.574
20
-195.157
11
188.716
21
-195.3
0
LINE
8
Black
10
188.716
20
-195.3
11
188.788
21
-195.443
0
LINE
8
Black
10
188.788
20
-195.443
11
188.859
21
-195.729
0
LINE
8
Black
10
188.859
20
-195.729
11
188.859
21
-195.943
0
LINE
8
Black
10
188.859
20
-195.943
11
188.788
21
-196.229
0
LINE
8
Black
10
188.788
20
-196.229
11
188.716
21
-196.371
0
LINE
8
Black
10
188.716
20
-196.371
11
188.574
21
-196.514
0
LINE
8
Black
10
188.574
20
-196.514
11
188.359
21
-196.586
0
LINE
8
Black
10
188.359
20
-196.586
11
188.002
21
-196.586
0
LINE
8
Black
10
189.502
20
-196.443
11
189.574
21
-196.514
0
LINE
8
Black
10
189.574
20
-196.514
11
189.502
21
-196.586
0
LINE
8
Black
10
189.502
20
-196.586
11
189.431
21
-196.514
0
LINE
8
Black
10
189.431
20
-196.514
11
189.502
21
-196.443
0
LINE
8
Black
10
189.502
20
-196.443
11
189.502
21
-196.586
0
LINE
8
Black
10
190.145
20
-196.157
11
190.859
21
-196.157
0
LINE
8
Black
10
190.002
20
-196.586
11
190.502
21
-195.086
0
LINE
8
Black
10
190.502
20
-195.086
11
191.002
21
-196.586
0
LINE
8
Black
10
191.502
20
-196.443
11
191.574
21
-196.514
0
LINE
8
Black
10
191.574
20
-196.514
11
191.502
21
-196.586
0
LINE
8
Black
10
191.502
20
-196.586
11
191.431
21
-196.514
0
LINE
8
Black
10
191.431
20
-196.514
11
191.502
21
-196.443
0
LINE
8
Black
10
191.502
20
-196.443
11
191.502
21
-196.586
0
LINE
8
Black
10
194.502
20
-196.586
11
194.502
21
-195.086
0
LINE
8
Black
10
194.645
20
-196.014
11
195.074
21
-196.586
0
LINE
8
Black
10
195.074
20
-195.586
11
194.502
21
-196.157
0
LINE
8
Black
10
195.716
20
-196.586
11
195.716
21
-195.586
0
LINE
8
Black
10
195.716
20
-195.086
11
195.645
21
-195.157
0
LINE
8
Black
10
195.645
20
-195.157
11
195.716
21
-195.229
0
LINE
8
Black
10
195.716
20
-195.229
11
195.788
21
-195.157
0
LINE
8
Black
10
195.788
20
-195.157
11
195.716
21
-195.086
0
LINE
8
Black
10
195.716
20
-195.086
11
195.716
21
-195.229
0
LINE
8
Black
10
197.074
20
-196.514
11
196.931
21
-196.586
0
LINE
8
Black
10
196.931
20
-196.586
11
196.645
21
-196.586
0
LINE
8
Black
10
196.645
20
-196.586
11
196.502
21
-196.514
0
LINE
8
Black
10
196.502
20
-196.514
11
196.431
21
-196.443
0
LINE
8
Black
10
196.431
20
-196.443
11
196.359
21
-196.3
0
LINE
8
Black
10
196.359
20
-196.3
11
196.359
21
-195.871
0
LINE
8
Black
10
196.359
20
-195.871
11
196.431
21
-195.729
0
LINE
8
Black
10
196.431
20
-195.729
11
196.502
21
-195.657
0
LINE
8
Black
10
196.502
20
-195.657
11
196.645
21
-195.586
0
LINE
8
Black
10
196.645
20
-195.586
11
196.931
21
-195.586
0
LINE
8
Black
10
196.931
20
-195.586
11
197.074
21
-195.657
0
LINE
8
Black
10
198.359
20
-196.586
11
198.359
21
-195.8
0
LINE
8
Black
10
198.359
20
-195.8
11
198.288
21
-195.657
0
LINE
8
Black
10
198.288
20
-195.657
11
198.145
21
-195.586
0
LINE
8
Black
10
198.145
20
-195.586
11
197.859
21
-195.586
0
LINE
8
Black
10
197.859
20
-195.586
11
197.716
21
-195.657
0
LINE
8
Black
10
198.359
20
-196.514
11
198.216
21
-196.586
0
LINE
8
Black
10
198.216
20
-196.586
11
197.859
21
-196.586
0
LINE
8
Black
10
197.859
20
-196.586
11
197.716
21
-196.514
0
LINE
8
Black
10
197.716
20
-196.514
11
197.645
21
-196.371
0
LINE
8
Black
10
197.645
20
-196.371
11
197.645
21
-196.229
0
LINE
8
Black
10
197.645
20
-196.229
11
197.716
21
-196.086
0
LINE
8
Black
10
197.716
20
-196.086
11
197.859
21
-196.014
0
LINE
8
Black
10
197.859
20
-196.014
11
198.216
21
-196.014
0
LINE
8
Black
10
198.216
20
-196.014
11
198.359
21
-195.943
0
LINE
8
Black
10
199.716
20
-196.586
11
199.716
21
-195.086
0
LINE
8
Black
10
199.716
20
-196.514
11
199.574
21
-196.586
0
LINE
8
Black
10
199.574
20
-196.586
11
199.288
21
-196.586
0
LINE
8
Black
10
199.288
20
-196.586
11
199.145
21
-196.514
0
LINE
8
Black
10
199.145
20
-196.514
11
199.074
21
-196.443
0
LINE
8
Black
10
199.074
20
-196.443
11
199.002
21
-196.3
0
LINE
8
Black
10
199.002
20
-196.3
11
199.002
21
-195.871
0
LINE
8
Black
10
199.002
20
-195.871
11
199.074
21
-195.729
0
LINE
8
Black
10
199.074
20
-195.729
11
199.145
21
-195.657
0
LINE
8
Black
10
199.145
20
-195.657
11
199.288
21
-195.586
0
LINE
8
Black
10
199.288
20
-195.586
11
199.574
21
-195.586
0
LINE
8
Black
10
199.574
20
-195.586
11
199.716
21
-195.657
0
LINE
8
Black
10
202.216
20
-195.586
11
202.216
21
-196.586
0
LINE
8
Black
10
201.859
20
-195.014
11
201.502
21
-196.086
0
LINE
8
Black
10
201.502
20
-196.086
11
202.431
21
-196.086
0
LINE
8
Black
10
203.002
20
-196.443
11
203.074
21
-196.514
0
LINE
8
Black
10
203.074
20
-196.514
11
203.002
21
-196.586
0
LINE
8
Black
10
203.002
20
-196.586
11
202.931
21
-196.514
0
LINE
8
Black
10
202.931
20
-196.514
11
203.002
21
-196.443
0
LINE
8
Black
10
203.002
20
-196.443
11
203.002
21
-196.586
0
LINE
8
Black
10
204.002
20
-195.086
11
204.145
21
-195.086
0
LINE
8
Black
10
204.145
20
-195.086
11
204.288
21
-195.157
0
LINE
8
Black
10
204.288
20
-195.157
11
204.359
21
-195.229
0
LINE
8
Black
10
204.359
20
-195.229
11
204.431
21
-195.371
0
LINE
8
Black
10
204.431
20
-195.371
11
204.502
21
-195.657
0
LINE
8
Black
10
204.502
20
-195.657
11
204.502
21
-196.014
0
LINE
8
Black
10
204.502
20
-196.014
11
204.431
21
-196.3
0
LINE
8
Black
10
204.431
20
-196.3
11
204.359
21
-196.443
0
LINE
8
Black
10
204.359
20
-196.443
11
204.288
21
-196.514
0
LINE
8
Black
10
204.288
20
-196.514
11
204.145
21
-196.586
0
LINE
8
Black
10
204.145
20
-196.586
11
204.002
21
-196.586
0
LINE
8
Black
10
204.002
20
-196.586
11
203.859
21
-196.514
0
LINE
8
Black
10
203.859
20
-196.514
11
203.788
21
-196.443
0
LINE
8
Black
10
203.788
20
-196.443
11
203.716
21
-196.3
0
LINE
8
Black
10
203.716
20
-196.3
11
203.645
21
-196.014
0
LINE
8
Black
10
203.645
20
-196.014
11
203.645
21
-195.657
0
LINE
8
Black
10
203.645
20
-195.657
11
203.716
21
-195.371
0
LINE
8
Black
10
203.716
20
-195.371
11
203.788
21
-195.229
0
LINE
8
Black
10
203.788
20
-195.229
11
203.859
21
-195.157
0
LINE
8
Black
10
203.859
20
-195.157
11
204.002
21
-195.086
0
LINE
8
Black
10
205.145
20
-196.443
11
205.216
21
-196.514
0
LINE
8
Black
10
205.216
20
-196.514
11
205.145
21
-196.586
0
LINE
8
Black
10
205.145
20
-196.586
11
205.074
21
-196.514
0
LINE
8
Black
10
205.074
20
-196.514
11
205.145
21
-196.443
0
LINE
8
Black
10
205.145
20
-196.443
11
205.145
21
-196.586
0
LINE
8
Black
10
205.788
20
-195.229
11
205.859
21
-195.157
0
LINE
8
Black
10
205.859
20
-195.157
11
206.002
21
-195.086
0
LINE
8
Black
10
206.002
20
-195.086
11
206.359
21
-195.086
0
LINE
8
Black
10
206.359
20
-195.086
11
206.502
21
-195.157
0
LINE
8
Black
10
206.502
20
-195.157
11
206.574
21
-195.229
0
LINE
8
Black
10
206.574
20
-195.229
11
206.645
21
-195.371
0
LINE
8
Black
10
206.645
20
-195.371
11
206.645
21
-195.514
0
LINE
8
Black
10
206.645
20
-195.514
11
206.574
21
-195.729
0
LINE
8
Black
10
206.574
20
-195.729
11
205.716
21
-196.586
0
LINE
8
Black
10
205.716
20
-196.586
11
206.645
21
-196.586
0
LINE
8
Black
10
207.288
20
-196.014
11
208.431
21
-196.014
0
LINE
8
Black
10
209.074
20
-196.514
11
209.216
21
-196.586
0
LINE
8
Black
10
209.216
20
-196.586
11
209.502
21
-196.586
0
LINE
8
Black
10
209.502
20
-196.586
11
209.645
21
-196.514
0
LINE
8
Black
10
209.645
20
-196.514
11
209.716
21
-196.371
0
LINE
8
Black
10
209.716
20
-196.371
11
209.716
21
-196.3
0
LINE
8
Black
10
209.716
20
-196.3
11
209.645
21
-196.157
0
LINE
8
Black
10
209.645
20
-196.157
11
209.502
21
-196.086
0
LINE
8
Black
10
209.502
20
-196.086
11
209.288
21
-196.086
0
LINE
8
Black
10
209.288
20
-196.086
11
209.145
21
-196.014
0
LINE
8
Black
10
209.145
20
-196.014
11
209.074
21
-195.871
0
LINE
8
Black
10
209.074
20
-195.871
11
209.074
21
-195.8
0
LINE
8
Black
10
209.074
20
-195.8
11
209.145
21
-195.657
0
LINE
8
Black
10
209.145
20
-195.657
11
209.288
21
-195.586
0
LINE
8
Black
10
209.288
20
-195.586
11
209.502
21
-195.586
0
LINE
8
Black
10
209.502
20
-195.586
11
209.645
21
-195.657
0
LINE
8
Black
10
210.145
20
-195.586
11
210.716
21
-195.586
0
LINE
8
Black
10
210.359
20
-195.086
11
210.359
21
-196.371
0
LINE
8
Black
10
210.359
20
-196.371
11
210.431
21
-196.514
0
LINE
8
Black
10
210.431
20
-196.514
11
210.574
21
-196.586
0
LINE
8
Black
10
210.574
20
-196.586
11
210.716
21
-196.586
0
LINE
8
Black
10
211.859
20
-196.586
11
211.859
21
-195.8
0
LINE
8
Black
10
211.859
20
-195.8
11
211.788
21
-195.657
0
LINE
8
Black
10
211.788
20
-195.657
11
211.645
21
-195.586
0
LINE
8
Black
10
211.645
20
-195.586
11
211.359
21
-195.586
0
LINE
8
Black
10
211.359
20
-195.586
11
211.216
21
-195.657
0
LINE
8
Black
10
211.859
20
-196.514
11
211.716
21
-196.586
0
LINE
8
Black
10
211.716
20
-196.586
11
211.359
21
-196.586
0
LINE
8
Black
10
211.359
20
-196.586
11
211.216
21
-196.514
0
LINE
8
Black
10
211.216
20
-196.514
11
211.145
21
-196.371
0
LINE
8
Black
10
211.145
20
-196.371
11
211.145
21
-196.229
0
LINE
8
Black
10
211.145
20
-196.229
11
211.216
21
-196.086
0
LINE
8
Black
10
211.216
20
-196.086
11
211.359
21
-196.014
0
LINE
8
Black
10
211.359
20
-196.014
11
211.716
21
-196.014
0
LINE
8
Black
10
211.716
20
-196.014
11
211.859
21
-195.943
0
LINE
8
Black
10
212.574
20
-196.586
11
212.574
21
-195.086
0
LINE
8
Black
10
212.574
20
-195.657
11
212.716
21
-195.586
0
LINE
8
Black
10
212.716
20
-195.586
11
213.002
21
-195.586
0
LINE
8
Black
10
213.002
20
-195.586
11
213.145
21
-195.657
0
LINE
8
Black
10
213.145
20
-195.657
11
213.216
21
-195.729
0
LINE
8
Black
10
213.216
20
-195.729
11
213.288
21
-195.871
0
LINE
8
Black
10
213.288
20
-195.871
11
213.288
21
-196.3
0
LINE
8
Black
10
213.288
20
-196.3
11
213.216
21
-196.443
0
LINE
8
Black
10
213.216
20
-196.443
11
213.145
21
-196.514
0
LINE
8
Black
10
213.145
20
-196.514
11
213.002
21
-196.586
0
LINE
8
Black
10
213.002
20
-196.586
11
212.716
21
-196.586
0
LINE
8
Black
10
212.716
20
-196.586
11
212.574
21
-196.514
0
LINE
8
Black
10
214.145
20
-196.586
11
214.002
21
-196.514
0
LINE
8
Black
10
214.002
20
-196.514
11
213.931
21
-196.371
0
LINE
8
Black
10
213.931
20
-196.371
11
213.931
21
-195.086
0
LINE
8
Black
10
215.288
20
-196.514
11
215.145
21
-196.586
0
LINE
8
Black
10
215.145
20
-196.586
11
214.859
21
-196.586
0
LINE
8
Black
10
214.859
20
-196.586
11
214.716
21
-196.514
0
LINE
8
Black
10
214.716
20
-196.514
11
214.645
21
-196.371
0
LINE
8
Black
10
214.645
20
-196.371
11
214.645
21
-195.8
0
LINE
8
Black
10
214.645
20
-195.8
11
214.716
21
-195.657
0
LINE
8
Black
10
214.716
20
-195.657
11
214.859
21
-195.586
0
LINE
8
Black
10
214.859
20
-195.586
11
215.145
21
-195.586
0
LINE
8
Black
10
215.145
20
-195.586
11
215.288
21
-195.657
0
LINE
8
Black
10
215.288
20
-195.657
11
215.359
21
-195.8
0
LINE
8
Black
10
215.359
20
-195.8
11
215.359
21
-195.943
0
LINE
8
Black
10
215.359
20
-195.943
11
214.645
21
-196.086
0
LINE
8
Black
10
177.002
20
-191.507
11
285.002
21
-191.507
0
LINE
8
Black
10
264.216
20
-193.786
11
263.716
21
-193.071
0
LINE
8
Black
10
263.359
20
-193.786
11
263.359
21
-192.286
0
LINE
8
Black
10
263.359
20
-192.286
11
263.931
21
-192.286
0
LINE
8
Black
10
263.931
20
-192.286
11
264.074
21
-192.357
0
LINE
8
Black
10
264.074
20
-192.357
11
264.145
21
-192.429
0
LINE
8
Black
10
264.145
20
-192.429
11
264.216
21
-192.571
0
LINE
8
Black
10
264.216
20
-192.571
11
264.216
21
-192.786
0
LINE
8
Black
10
264.216
20
-192.786
11
264.145
21
-192.929
0
LINE
8
Black
10
264.145
20
-192.929
11
264.074
21
-193
0
LINE
8
Black
10
264.074
20
-193
11
263.931
21
-193.071
0
LINE
8
Black
10
263.931
20
-193.071
11
263.359
21
-193.071
0
LINE
8
Black
10
265.431
20
-193.714
11
265.288
21
-193.786
0
LINE
8
Black
10
265.288
20
-193.786
11
265.002
21
-193.786
0
LINE
8
Black
10
265.002
20
-193.786
11
264.859
21
-193.714
0
LINE
8
Black
10
264.859
20
-193.714
11
264.788
21
-193.571
0
LINE
8
Black
10
264.788
20
-193.571
11
264.788
21
-193
0
LINE
8
Black
10
264.788
20
-193
11
264.859
21
-192.857
0
LINE
8
Black
10
264.859
20
-192.857
11
265.002
21
-192.786
0
LINE
8
Black
10
265.002
20
-192.786
11
265.288
21
-192.786
0
LINE
8
Black
10
265.288
20
-192.786
11
265.431
21
-192.857
0
LINE
8
Black
10
265.431
20
-192.857
11
265.502
21
-193
0
LINE
8
Black
10
265.502
20
-193
11
265.502
21
-193.143
0
LINE
8
Black
10
265.502
20
-193.143
11
264.788
21
-193.286
0
LINE
8
Black
10
266.002
20
-192.786
11
266.359
21
-193.786
0
LINE
8
Black
10
266.359
20
-193.786
11
266.716
21
-192.786
0
LINE
8
Black
10
267.288
20
-193.643
11
267.359
21
-193.714
0
LINE
8
Black
10
267.359
20
-193.714
11
267.288
21
-193.786
0
LINE
8
Black
10
267.288
20
-193.786
11
267.216
21
-193.714
0
LINE
8
Black
10
267.216
20
-193.714
11
267.288
21
-193.643
0
LINE
8
Black
10
267.288
20
-193.643
11
267.288
21
-193.786
0
LINE
8
Black
10
267.288
20
-192.857
11
267.359
21
-192.929
0
LINE
8
Black
10
267.359
20
-192.929
11
267.288
21
-193
0
LINE
8
Black
10
267.288
20
-193
11
267.216
21
-192.929
0
LINE
8
Black
10
267.216
20
-192.929
11
267.288
21
-192.857
0
LINE
8
Black
10
267.288
20
-192.857
11
267.288
21
-193
0
LINE
8
Black
10
269.931
20
-193.786
11
269.074
21
-193.786
0
LINE
8
Black
10
269.502
20
-193.786
11
269.502
21
-192.286
0
LINE
8
Black
10
269.502
20
-192.286
11
269.359
21
-192.5
0
LINE
8
Black
10
269.359
20
-192.5
11
269.216
21
-192.643
0
LINE
8
Black
10
269.216
20
-192.643
11
269.074
21
-192.714
0
LINE
8
Black
10
270.574
20
-193.643
11
270.645
21
-193.714
0
LINE
8
Black
10
270.645
20
-193.714
11
270.574
21
-193.786
0
LINE
8
Black
10
270.574
20
-193.786
11
270.502
21
-193.714
0
LINE
8
Black
10
270.502
20
-193.714
11
270.574
21
-193.643
0
LINE
8
Black
10
270.574
20
-193.643
11
270.574
21
-193.786
0
LINE
8
Black
10
271.574
20
-192.286
11
271.716
21
-192.286
0
LINE
8
Black
10
271.716
20
-192.286
11
271.859
21
-192.357
0
LINE
8
Black
10
271.859
20
-192.357
11
271.931
21
-192.429
0
LINE
8
Black
10
271.931
20
-192.429
11
272.002
21
-192.571
0
LINE
8
Black
10
272.002
20
-192.571
11
272.074
21
-192.857
0
LINE
8
Black
10
272.074
20
-192.857
11
272.074
21
-193.214
0
LINE
8
Black
10
272.074
20
-193.214
11
272.002
21
-193.5
0
LINE
8
Black
10
272.002
20
-193.5
11
271.931
21
-193.643
0
LINE
8
Black
10
271.931
20
-193.643
11
271.859
21
-193.714
0
LINE
8
Black
10
271.859
20
-193.714
11
271.716
21
-193.786
0
LINE
8
Black
10
271.716
20
-193.786
11
271.574
21
-193.786
0
LINE
8
Black
10
271.574
20
-193.786
11
271.431
21
-193.714
0
LINE
8
Black
10
271.431
20
-193.714
11
271.359
21
-193.643
0
LINE
8
Black
10
271.359
20
-193.643
11
271.288
21
-193.5
0
LINE
8
Black
10
271.288
20
-193.5
11
271.216
21
-193.214
0
LINE
8
Black
10
271.216
20
-193.214
11
271.216
21
-192.857
0
LINE
8
Black
10
271.216
20
-192.857
11
271.288
21
-192.571
0
LINE
8
Black
10
271.288
20
-192.571
11
271.359
21
-192.429
0
LINE
8
Black
10
271.359
20
-192.429
11
271.431
21
-192.357
0
LINE
8
Black
10
271.431
20
-192.357
11
271.574
21
-192.286
0
LINE
8
Black
10
178.288
20
-193.714
11
178.502
21
-193.786
0
LINE
8
Black
10
178.502
20
-193.786
11
178.859
21
-193.786
0
LINE
8
Black
10
178.859
20
-193.786
11
179.002
21
-193.714
0
LINE
8
Black
10
179.002
20
-193.714
11
179.074
21
-193.643
0
LINE
8
Black
10
179.074
20
-193.643
11
179.145
21
-193.5
0
LINE
8
Black
10
179.145
20
-193.5
11
179.145
21
-193.357
0
LINE
8
Black
10
179.145
20
-193.357
11
179.074
21
-193.214
0
LINE
8
Black
10
179.074
20
-193.214
11
179.002
21
-193.143
0
LINE
8
Black
10
179.002
20
-193.143
11
178.859
21
-193.071
0
LINE
8
Black
10
178.859
20
-193.071
11
178.574
21
-193
0
LINE
8
Black
10
178.574
20
-193
11
178.431
21
-192.929
0
LINE
8
Black
10
178.431
20
-192.929
11
178.359
21
-192.857
0
LINE
8
Black
10
178.359
20
-192.857
11
178.288
21
-192.714
0
LINE
8
Black
10
178.288
20
-192.714
11
178.288
21
-192.571
0
LINE
8
Black
10
178.288
20
-192.571
11
178.359
21
-192.429
0
LINE
8
Black
10
178.359
20
-192.429
11
178.431
21
-192.357
0
LINE
8
Black
10
178.431
20
-192.357
11
178.574
21
-192.286
0
LINE
8
Black
10
178.574
20
-192.286
11
178.931
21
-192.286
0
LINE
8
Black
10
178.931
20
-192.286
11
179.145
21
-192.357
0
LINE
8
Black
10
179.788
20
-193.786
11
179.788
21
-192.786
0
LINE
8
Black
10
179.788
20
-192.286
11
179.716
21
-192.357
0
LINE
8
Black
10
179.716
20
-192.357
11
179.788
21
-192.429
0
LINE
8
Black
10
179.788
20
-192.429
11
179.859
21
-192.357
0
LINE
8
Black
10
179.859
20
-192.357
11
179.788
21
-192.286
0
LINE
8
Black
10
179.788
20
-192.286
11
179.788
21
-192.429
0
LINE
8
Black
10
180.359
20
-192.786
11
181.145
21
-192.786
0
LINE
8
Black
10
181.145
20
-192.786
11
180.359
21
-193.786
0
LINE
8
Black
10
180.359
20
-193.786
11
181.145
21
-193.786
0
LINE
8
Black
10
182.288
20
-193.714
11
182.145
21
-193.786
0
LINE
8
Black
10
182.145
20
-193.786
11
181.859
21
-193.786
0
LINE
8
Black
10
181.859
20
-193.786
11
181.716
21
-193.714
0
LINE
8
Black
10
181.716
20
-193.714
11
181.645
21
-193.571
0
LINE
8
Black
10
181.645
20
-193.571
11
181.645
21
-193
0
LINE
8
Black
10
181.645
20
-193
11
181.716
21
-192.857
0
LINE
8
Black
10
181.716
20
-192.857
11
181.859
21
-192.786
0
LINE
8
Black
10
181.859
20
-192.786
11
182.145
21
-192.786
0
LINE
8
Black
10
182.145
20
-192.786
11
182.288
21
-192.857
0
LINE
8
Black
10
182.288
20
-192.857
11
182.359
21
-193
0
LINE
8
Black
10
182.359
20
-193
11
182.359
21
-193.143
0
LINE
8
Black
10
182.359
20
-193.143
11
181.645
21
-193.286
0
LINE
8
Black
10
183.002
20
-193.643
11
183.074
21
-193.714
0
LINE
8
Black
10
183.074
20
-193.714
11
183.002
21
-193.786
0
LINE
8
Black
10
183.002
20
-193.786
11
182.931
21
-193.714
0
LINE
8
Black
10
182.931
20
-193.714
11
183.002
21
-193.643
0
LINE
8
Black
10
183.002
20
-193.643
11
183.002
21
-193.786
0
LINE
8
Black
10
183.002
20
-192.857
11
183.074
21
-192.929
0
LINE
8
Black
10
183.074
20
-192.929
11
183.002
21
-193
0
LINE
8
Black
10
183.002
20
-193
11
182.931
21
-192.929
0
LINE
8
Black
10
182.931
20
-192.929
11
183.002
21
-192.857
0
LINE
8
Black
10
183.002
20
-192.857
11
183.002
21
-193
0
LINE
8
Black
10
184.788
20
-193.357
11
185.502
21
-193.357
0
LINE
8
Black
10
184.645
20
-193.786
11
185.145
21
-192.286
0
LINE
8
Black
10
185.145
20
-192.286
11
185.645
21
-193.786
0
LINE
8
Black
10
186.788
20
-192.786
11
186.788
21
-193.786
0
LINE
8
Black
10
186.431
20
-192.214
11
186.074
21
-193.286
0
LINE
8
Black
10
186.074
20
-193.286
11
187.002
21
-193.286
0
LINE
8
Black
10
263.359
20
-196.586
11
263.359
21
-195.086
0
LINE
8
Black
10
264.716
20
-196.586
11
264.716
21
-195.086
0
LINE
8
Black
10
264.716
20
-196.514
11
264.574
21
-196.586
0
LINE
8
Black
10
264.574
20
-196.586
11
264.288
21
-196.586
0
LINE
8
Black
10
264.288
20
-196.586
11
264.145
21
-196.514
0
LINE
8
Black
10
264.145
20
-196.514
11
264.074
21
-196.443
0
LINE
8
Black
10
264.074
20
-196.443
11
264.002
21
-196.3
0
LINE
8
Black
10
264.002
20
-196.3
11
264.002
21
-195.871
0
LINE
8
Black
10
264.002
20
-195.871
11
264.074
21
-195.729
0
LINE
8
Black
10
264.074
20
-195.729
11
264.145
21
-195.657
0
LINE
8
Black
10
264.145
20
-195.657
11
264.288
21
-195.586
0
LINE
8
Black
10
264.288
20
-195.586
11
264.574
21
-195.586
0
LINE
8
Black
10
264.574
20
-195.586
11
264.716
21
-195.657
0
LINE
8
Black
10
265.431
20
-196.443
11
265.502
21
-196.514
0
LINE
8
Black
10
265.502
20
-196.514
11
265.431
21
-196.586
0
LINE
8
Black
10
265.431
20
-196.586
11
265.359
21
-196.514
0
LINE
8
Black
10
265.359
20
-196.514
11
265.431
21
-196.443
0
LINE
8
Black
10
265.431
20
-196.443
11
265.431
21
-196.586
0
LINE
8
Black
10
265.431
20
-195.657
11
265.502
21
-195.729
0
LINE
8
Black
10
265.502
20
-195.729
11
265.431
21
-195.8
0
LINE
8
Black
10
265.431
20
-195.8
11
265.359
21
-195.729
0
LINE
8
Black
10
265.359
20
-195.729
11
265.431
21
-195.657
0
LINE
8
Black
10
265.431
20
-195.657
11
265.431
21
-195.8
0
LINE
8
Black
10
268.074
20
-196.586
11
267.216
21
-196.586
0
LINE
8
Black
10
267.645
20
-196.586
11
267.645
21
-195.086
0
LINE
8
Black
10
267.645
20
-195.086
11
267.502
21
-195.3
0
LINE
8
Black
10
267.502
20
-195.3
11
267.359
21
-195.443
0
LINE
8
Black
10
267.359
20
-195.443
11
267.216
21
-195.514
0
LINE
8
Black
10
269.788
20
-195.014
11
268.502
21
-196.943
0
LINE
8
Black
10
271.074
20
-196.586
11
270.216
21
-196.586
0
LINE
8
Black
10
270.645
20
-196.586
11
270.645
21
-195.086
0
LINE
8
Black
10
270.645
20
-195.086
11
270.502
21
-195.3
0
LINE
8
Black
10
270.502
20
-195.3
11
270.359
21
-195.443
0
LINE
8
Black
10
270.359
20
-195.443
11
270.216
21
-195.514
0
LINE
8
Black
10
177.002
20
-187.507
11
285.002
21
-187.507
0
LINE
8
Black
10
178.455
20
-188.212
11
179.597
21
-188.212
0
LINE
8
Black
10
178.776
20
-190.212
11
179.026
21
-188.212
0
LINE
8
Black
10
180.014
20
-190.212
11
180.181
21
-188.879
0
LINE
8
Black
10
180.264
20
-188.212
11
180.157
21
-188.307
0
LINE
8
Black
10
180.157
20
-188.307
11
180.24
21
-188.402
0
LINE
8
Black
10
180.24
20
-188.402
11
180.347
21
-188.307
0
LINE
8
Black
10
180.347
20
-188.307
11
180.264
21
-188.212
0
LINE
8
Black
10
180.264
20
-188.212
11
180.24
21
-188.402
0
LINE
8
Black
10
180.847
20
-188.879
11
181.609
21
-188.879
0
LINE
8
Black
10
181.216
20
-188.212
11
181.002
21
-189.926
0
LINE
8
Black
10
181.002
20
-189.926
11
181.074
21
-190.117
0
LINE
8
Black
10
181.074
20
-190.117
11
181.252
21
-190.212
0
LINE
8
Black
10
181.252
20
-190.212
11
181.443
21
-190.212
0
LINE
8
Black
10
182.395
20
-190.212
11
182.216
21
-190.117
0
LINE
8
Black
10
182.216
20
-190.117
11
182.145
21
-189.926
0
LINE
8
Black
10
182.145
20
-189.926
11
182.359
21
-188.212
0
LINE
8
Black
10
183.931
20
-190.117
11
183.728
21
-190.212
0
LINE
8
Black
10
183.728
20
-190.212
11
183.347
21
-190.212
0
LINE
8
Black
10
183.347
20
-190.212
11
183.169
21
-190.117
0
LINE
8
Black
10
183.169
20
-190.117
11
183.097
21
-189.926
0
LINE
8
Black
10
183.097
20
-189.926
11
183.193
21
-189.164
0
LINE
8
Black
10
183.193
20
-189.164
11
183.312
21
-188.974
0
LINE
8
Black
10
183.312
20
-188.974
11
183.514
21
-188.879
0
LINE
8
Black
10
183.514
20
-188.879
11
183.895
21
-188.879
0
LINE
8
Black
10
183.895
20
-188.879
11
184.074
21
-188.974
0
LINE
8
Black
10
184.074
20
-188.974
11
184.145
21
-189.164
0
LINE
8
Black
10
184.145
20
-189.164
11
184.121
21
-189.355
0
LINE
8
Black
10
184.121
20
-189.355
11
183.145
21
-189.545
0
LINE
8
Black
10
184.895
20
-190.021
11
184.978
21
-190.117
0
LINE
8
Black
10
184.978
20
-190.117
11
184.871
21
-190.212
0
LINE
8
Black
10
184.871
20
-190.212
11
184.788
21
-190.117
0
LINE
8
Black
10
184.788
20
-190.117
11
184.895
21
-190.021
0
LINE
8
Black
10
184.895
20
-190.021
11
184.871
21
-190.212
0
LINE
8
Black
10
185.026
20
-188.974
11
185.109
21
-189.069
0
LINE
8
Black
10
185.109
20
-189.069
11
185.002
21
-189.164
0
LINE
8
Black
10
185.002
20
-189.164
11
184.919
21
-189.069
0
LINE
8
Black
10
184.919
20
-189.069
11
185.026
21
-188.974
0
LINE
8
Black
10
185.026
20
-188.974
11
185.002
21
-189.164
0
LINE
8
Black
10
187.324
20
-189.641
11
188.276
21
-189.641
0
LINE
8
Black
10
187.062
20
-190.212
11
187.978
21
-188.212
0
LINE
8
Black
10
187.978
20
-188.212
11
188.395
21
-190.212
0
LINE
8
Black
10
189.121
20
-188.212
11
190.455
21
-188.212
0
LINE
8
Black
10
190.455
20
-188.212
11
188.871
21
-190.212
0
LINE
8
Black
10
188.871
20
-190.212
11
190.205
21
-190.212
0
LINE
8
Black
10
191.597
20
-188.212
11
191.978
21
-188.212
0
LINE
8
Black
10
191.978
20
-188.212
11
192.157
21
-188.307
0
LINE
8
Black
10
192.157
20
-188.307
11
192.324
21
-188.498
0
LINE
8
Black
10
192.324
20
-188.498
11
192.371
21
-188.879
0
LINE
8
Black
10
192.371
20
-188.879
11
192.288
21
-189.545
0
LINE
8
Black
10
192.288
20
-189.545
11
192.145
21
-189.926
0
LINE
8
Black
10
192.145
20
-189.926
11
191.931
21
-190.117
0
LINE
8
Black
10
191.931
20
-190.117
11
191.728
21
-190.212
0
LINE
8
Black
10
191.728
20
-190.212
11
191.347
21
-190.212
0
LINE
8
Black
10
191.347
20
-190.212
11
191.169
21
-190.117
0
LINE
8
Black
10
191.169
20
-190.117
11
191.002
21
-189.926
0
LINE
8
Black
10
191.002
20
-189.926
11
190.955
21
-189.545
0
LINE
8
Black
10
190.955
20
-189.545
11
191.038
21
-188.879
0
LINE
8
Black
10
191.038
20
-188.879
11
191.181
21
-188.498
0
LINE
8
Black
10
191.181
20
-188.498
11
191.395
21
-188.307
0
LINE
8
Black
10
191.395
20
-188.307
11
191.597
21
-188.212
0
LINE
8
Black
10
194.205
20
-190.212
11
193.657
21
-189.26
0
LINE
8
Black
10
193.062
20
-190.212
11
193.312
21
-188.212
0
LINE
8
Black
10
193.312
20
-188.212
11
194.074
21
-188.212
0
LINE
8
Black
10
194.074
20
-188.212
11
194.252
21
-188.307
0
LINE
8
Black
10
194.252
20
-188.307
11
194.336
21
-188.402
0
LINE
8
Black
10
194.336
20
-188.402
11
194.407
21
-188.593
0
LINE
8
Black
10
194.407
20
-188.593
11
194.371
21
-188.879
0
LINE
8
Black
10
194.371
20
-188.879
11
194.252
21
-189.069
0
LINE
8
Black
10
194.252
20
-189.069
11
194.145
21
-189.164
0
LINE
8
Black
10
194.145
20
-189.164
11
193.943
21
-189.26
0
LINE
8
Black
10
193.943
20
-189.26
11
193.181
21
-189.26
0
LINE
8
Black
10
178.859
20
-185.6
11
178.359
21
-185.6
0
LINE
8
Black
10
178.359
20
-186.386
11
178.359
21
-184.886
0
LINE
8
Black
10
178.359
20
-184.886
11
179.074
21
-184.886
0
LINE
8
Black
10
179.645
20
-186.386
11
179.645
21
-185.386
0
LINE
8
Black
10
179.645
20
-184.886
11
179.574
21
-184.957
0
LINE
8
Black
10
179.574
20
-184.957
11
179.645
21
-185.029
0
LINE
8
Black
10
179.645
20
-185.029
11
179.716
21
-184.957
0
LINE
8
Black
10
179.716
20
-184.957
11
179.645
21
-184.886
0
LINE
8
Black
10
179.645
20
-184.886
11
179.645
21
-185.029
0
LINE
8
Black
10
180.574
20
-186.386
11
180.431
21
-186.314
0
LINE
8
Black
10
180.431
20
-186.314
11
180.359
21
-186.171
0
LINE
8
Black
10
180.359
20
-186.171
11
180.359
21
-184.886
0
LINE
8
Black
10
181.716
20
-186.314
11
181.574
21
-186.386
0
LINE
8
Black
10
181.574
20
-186.386
11
181.288
21
-186.386
0
LINE
8
Black
10
181.288
20
-186.386
11
181.145
21
-186.314
0
LINE
8
Black
10
181.145
20
-186.314
11
181.074
21
-186.171
0
LINE
8
Black
10
181.074
20
-186.171
11
181.074
21
-185.6
0
LINE
8
Black
10
181.074
20
-185.6
11
181.145
21
-185.457
0
LINE
8
Black
10
181.145
20
-185.457
11
181.288
21
-185.386
0
LINE
8
Black
10
181.288
20
-185.386
11
181.574
21
-185.386
0
LINE
8
Black
10
181.574
20
-185.386
11
181.716
21
-185.457
0
LINE
8
Black
10
181.716
20
-185.457
11
181.788
21
-185.6
0
LINE
8
Black
10
181.788
20
-185.6
11
181.788
21
-185.743
0
LINE
8
Black
10
181.788
20
-185.743
11
181.074
21
-185.886
0
LINE
8
Black
10
182.431
20
-186.243
11
182.502
21
-186.314
0
LINE
8
Black
10
182.502
20
-186.314
11
182.431
21
-186.386
0
LINE
8
Black
10
182.431
20
-186.386
11
182.359
21
-186.314
0
LINE
8
Black
10
182.359
20
-186.314
11
182.431
21
-186.243
0
LINE
8
Black
10
182.431
20
-186.243
11
182.431
21
-186.386
0
LINE
8
Black
10
182.431
20
-185.457
11
182.502
21
-185.529
0
LINE
8
Black
10
182.502
20
-185.529
11
182.431
21
-185.6
0
LINE
8
Black
10
182.431
20
-185.6
11
182.359
21
-185.529
0
LINE
8
Black
10
182.359
20
-185.529
11
182.431
21
-185.457
0
LINE
8
Black
10
182.431
20
-185.457
11
182.431
21
-185.6
0
LINE
8
Black
10
184.216
20
-185.957
11
184.931
21
-185.957
0
LINE
8
Black
10
184.074
20
-186.386
11
184.574
21
-184.886
0
LINE
8
Black
10
184.574
20
-184.886
11
185.074
21
-186.386
0
LINE
8
Black
10
185.431
20
-185.386
11
186.216
21
-185.386
0
LINE
8
Black
10
186.216
20
-185.386
11
185.431
21
-186.386
0
LINE
8
Black
10
185.431
20
-186.386
11
186.216
21
-186.386
0
LINE
8
Black
10
187.002
20
-186.386
11
186.859
21
-186.314
0
LINE
8
Black
10
186.859
20
-186.314
11
186.788
21
-186.243
0
LINE
8
Black
10
186.788
20
-186.243
11
186.716
21
-186.1
0
LINE
8
Black
10
186.716
20
-186.1
11
186.716
21
-185.671
0
LINE
8
Black
10
186.716
20
-185.671
11
186.788
21
-185.529
0
LINE
8
Black
10
186.788
20
-185.529
11
186.859
21
-185.457
0
LINE
8
Black
10
186.859
20
-185.457
11
187.002
21
-185.386
0
LINE
8
Black
10
187.002
20
-185.386
11
187.216
21
-185.386
0
LINE
8
Black
10
187.216
20
-185.386
11
187.359
21
-185.457
0
LINE
8
Black
10
187.359
20
-185.457
11
187.431
21
-185.529
0
LINE
8
Black
10
187.431
20
-185.529
11
187.502
21
-185.671
0
LINE
8
Black
10
187.502
20
-185.671
11
187.502
21
-186.1
0
LINE
8
Black
10
187.502
20
-186.1
11
187.431
21
-186.243
0
LINE
8
Black
10
187.431
20
-186.243
11
187.359
21
-186.314
0
LINE
8
Black
10
187.359
20
-186.314
11
187.216
21
-186.386
0
LINE
8
Black
10
187.216
20
-186.386
11
187.002
21
-186.386
0
LINE
8
Black
10
188.145
20
-186.386
11
188.145
21
-185.386
0
LINE
8
Black
10
188.145
20
-185.671
11
188.216
21
-185.529
0
LINE
8
Black
10
188.216
20
-185.529
11
188.288
21
-185.457
0
LINE
8
Black
10
188.288
20
-185.457
11
188.431
21
-185.386
0
LINE
8
Black
10
188.431
20
-185.386
11
188.574
21
-185.386
0
LINE
8
Black
10
188.716
20
-186.529
11
189.859
21
-186.529
0
LINE
8
Black
10
191.002
20
-186.386
11
190.145
21
-186.386
0
LINE
8
Black
10
190.574
20
-186.386
11
190.574
21
-184.886
0
LINE
8
Black
10
190.574
20
-184.886
11
190.431
21
-185.1
0
LINE
8
Black
10
190.431
20
-185.1
11
190.288
21
-185.243
0
LINE
8
Black
10
190.288
20
-185.243
11
190.145
21
-185.314
0
LINE
8
Black
10
191.645
20
-186.243
11
191.716
21
-186.314
0
LINE
8
Black
10
191.716
20
-186.314
11
191.645
21
-186.386
0
LINE
8
Black
10
191.645
20
-186.386
11
191.574
21
-186.314
0
LINE
8
Black
10
191.574
20
-186.314
11
191.645
21
-186.243
0
LINE
8
Black
10
191.645
20
-186.243
11
191.645
21
-186.386
0
LINE
8
Black
10
192.645
20
-184.886
11
192.788
21
-184.886
0
LINE
8
Black
10
192.788
20
-184.886
11
192.931
21
-184.957
0
LINE
8
Black
10
192.931
20
-184.957
11
193.002
21
-185.029
0
LINE
8
Black
10
193.002
20
-185.029
11
193.074
21
-185.171
0
LINE
8
Black
10
193.074
20
-185.171
11
193.145
21
-185.457
0
LINE
8
Black
10
193.145
20
-185.457
11
193.145
21
-185.814
0
LINE
8
Black
10
193.145
20
-185.814
11
193.074
21
-186.1
0
LINE
8
Black
10
193.074
20
-186.1
11
193.002
21
-186.243
0
LINE
8
Black
10
193.002
20
-186.243
11
192.931
21
-186.314
0
LINE
8
Black
10
192.931
20
-186.314
11
192.788
21
-186.386
0
LINE
8
Black
10
192.788
20
-186.386
11
192.645
21
-186.386
0
LINE
8
Black
10
192.645
20
-186.386
11
192.502
21
-186.314
0
LINE
8
Black
10
192.502
20
-186.314
11
192.431
21
-186.243
0
LINE
8
Black
10
192.431
20
-186.243
11
192.359
21
-186.1
0
LINE
8
Black
10
192.359
20
-186.1
11
192.288
21
-185.814
0
LINE
8
Black
10
192.288
20
-185.814
11
192.288
21
-185.457
0
LINE
8
Black
10
192.288
20
-185.457
11
192.359
21
-185.171
0
LINE
8
Black
10
192.359
20
-185.171
11
192.431
21
-185.029
0
LINE
8
Black
10
192.431
20
-185.029
11
192.502
21
-184.957
0
LINE
8
Black
10
192.502
20
-184.957
11
192.645
21
-184.886
0
LINE
8
Black
10
193.788
20
-186.243
11
193.859
21
-186.314
0
LINE
8
Black
10
193.859
20
-186.314
11
193.788
21
-186.386
0
LINE
8
Black
10
193.788
20
-186.386
11
193.716
21
-186.314
0
LINE
8
Black
10
193.716
20
-186.314
11
193.788
21
-186.243
0
LINE
8
Black
10
193.788
20
-186.243
11
193.788
21
-186.386
0
LINE
8
Black
10
194.502
20
-186.386
11
194.502
21
-184.886
0
LINE
8
Black
10
194.645
20
-185.814
11
195.074
21
-186.386
0
LINE
8
Black
10
195.074
20
-185.386
11
194.502
21
-185.957
0
LINE
8
Black
10
195.716
20
-186.386
11
195.716
21
-185.386
0
LINE
8
Black
10
195.716
20
-184.886
11
195.645
21
-184.957
0
LINE
8
Black
10
195.645
20
-184.957
11
195.716
21
-185.029
0
LINE
8
Black
10
195.716
20
-185.029
11
195.788
21
-184.957
0
LINE
8
Black
10
195.788
20
-184.957
11
195.716
21
-184.886
0
LINE
8
Black
10
195.716
20
-184.886
11
195.716
21
-185.029
0
LINE
8
Black
10
197.074
20
-186.314
11
196.931
21
-186.386
0
LINE
8
Black
10
196.931
20
-186.386
11
196.645
21
-186.386
0
LINE
8
Black
10
196.645
20
-186.386
11
196.502
21
-186.314
0
LINE
8
Black
10
196.502
20
-186.314
11
196.431
21
-186.243
0
LINE
8
Black
10
196.431
20
-186.243
11
196.359
21
-186.1
0
LINE
8
Black
10
196.359
20
-186.1
11
196.359
21
-185.671
0
LINE
8
Black
10
196.359
20
-185.671
11
196.431
21
-185.529
0
LINE
8
Black
10
196.431
20
-185.529
11
196.502
21
-185.457
0
LINE
8
Black
10
196.502
20
-185.457
11
196.645
21
-185.386
0
LINE
8
Black
10
196.645
20
-185.386
11
196.931
21
-185.386
0
LINE
8
Black
10
196.931
20
-185.386
11
197.074
21
-185.457
0
LINE
8
Black
10
198.359
20
-186.386
11
198.359
21
-185.6
0
LINE
8
Black
10
198.359
20
-185.6
11
198.288
21
-185.457
0
LINE
8
Black
10
198.288
20
-185.457
11
198.145
21
-185.386
0
LINE
8
Black
10
198.145
20
-185.386
11
197.859
21
-185.386
0
LINE
8
Black
10
197.859
20
-185.386
11
197.716
21
-185.457
0
LINE
8
Black
10
198.359
20
-186.314
11
198.216
21
-186.386
0
LINE
8
Black
10
198.216
20
-186.386
11
197.859
21
-186.386
0
LINE
8
Black
10
197.859
20
-186.386
11
197.716
21
-186.314
0
LINE
8
Black
10
197.716
20
-186.314
11
197.645
21
-186.171
0
LINE
8
Black
10
197.645
20
-186.171
11
197.645
21
-186.029
0
LINE
8
Black
10
197.645
20
-186.029
11
197.716
21
-185.886
0
LINE
8
Black
10
197.716
20
-185.886
11
197.859
21
-185.814
0
LINE
8
Black
10
197.859
20
-185.814
11
198.216
21
-185.814
0
LINE
8
Black
10
198.216
20
-185.814
11
198.359
21
-185.743
0
LINE
8
Black
10
199.716
20
-186.386
11
199.716
21
-184.886
0
LINE
8
Black
10
199.716
20
-186.314
11
199.574
21
-186.386
0
LINE
8
Black
10
199.574
20
-186.386
11
199.288
21
-186.386
0
LINE
8
Black
10
199.288
20
-186.386
11
199.145
21
-186.314
0
LINE
8
Black
10
199.145
20
-186.314
11
199.074
21
-186.243
0
LINE
8
Black
10
199.074
20
-186.243
11
199.002
21
-186.1
0
LINE
8
Black
10
199.002
20
-186.1
11
199.002
21
-185.671
0
LINE
8
Black
10
199.002
20
-185.671
11
199.074
21
-185.529
0
LINE
8
Black
10
199.074
20
-185.529
11
199.145
21
-185.457
0
LINE
8
Black
10
199.145
20
-185.457
11
199.288
21
-185.386
0
LINE
8
Black
10
199.288
20
-185.386
11
199.574
21
-185.386
0
LINE
8
Black
10
199.574
20
-185.386
11
199.716
21
-185.457
0
LINE
8
Black
10
200.074
20
-186.529
11
201.216
21
-186.529
0
LINE
8
Black
10
201.574
20
-185.386
11
201.574
21
-186.886
0
LINE
8
Black
10
201.574
20
-185.457
11
201.716
21
-185.386
0
LINE
8
Black
10
201.716
20
-185.386
11
202.002
21
-185.386
0
LINE
8
Black
10
202.002
20
-185.386
11
202.145
21
-185.457
0
LINE
8
Black
10
202.145
20
-185.457
11
202.216
21
-185.529
0
LINE
8
Black
10
202.216
20
-185.529
11
202.288
21
-185.671
0
LINE
8
Black
10
202.288
20
-185.671
11
202.288
21
-186.1
0
LINE
8
Black
10
202.288
20
-186.1
11
202.216
21
-186.243
0
LINE
8
Black
10
202.216
20
-186.243
11
202.145
21
-186.314
0
LINE
8
Black
10
202.145
20
-186.314
11
202.002
21
-186.386
0
LINE
8
Black
10
202.002
20
-186.386
11
201.716
21
-186.386
0
LINE
8
Black
10
201.716
20
-186.386
11
201.574
21
-186.314
0
LINE
8
Black
10
203.574
20
-186.314
11
203.431
21
-186.386
0
LINE
8
Black
10
203.431
20
-186.386
11
203.145
21
-186.386
0
LINE
8
Black
10
203.145
20
-186.386
11
203.002
21
-186.314
0
LINE
8
Black
10
203.002
20
-186.314
11
202.931
21
-186.243
0
LINE
8
Black
10
202.931
20
-186.243
11
202.859
21
-186.1
0
LINE
8
Black
10
202.859
20
-186.1
11
202.859
21
-185.671
0
LINE
8
Black
10
202.859
20
-185.671
11
202.931
21
-185.529
0
LINE
8
Black
10
202.931
20
-185.529
11
203.002
21
-185.457
0
LINE
8
Black
10
203.002
20
-185.457
11
203.145
21
-185.386
0
LINE
8
Black
10
203.145
20
-185.386
11
203.431
21
-185.386
0
LINE
8
Black
10
203.431
20
-185.386
11
203.574
21
-185.457
0
LINE
8
Black
10
204.216
20
-186.386
11
204.216
21
-184.886
0
LINE
8
Black
10
204.216
20
-185.457
11
204.359
21
-185.386
0
LINE
8
Black
10
204.359
20
-185.386
11
204.645
21
-185.386
0
LINE
8
Black
10
204.645
20
-185.386
11
204.788
21
-185.457
0
LINE
8
Black
10
204.788
20
-185.457
11
204.859
21
-185.529
0
LINE
8
Black
10
204.859
20
-185.529
11
204.931
21
-185.671
0
LINE
8
Black
10
204.931
20
-185.671
11
204.931
21
-186.1
0
LINE
8
Black
10
204.931
20
-186.1
11
204.859
21
-186.243
0
LINE
8
Black
10
204.859
20
-186.243
11
204.788
21
-186.314
0
LINE
8
Black
10
204.788
20
-186.314
11
204.645
21
-186.386
0
LINE
8
Black
10
204.645
20
-186.386
11
204.359
21
-186.386
0
LINE
8
Black
10
204.359
20
-186.386
11
204.216
21
-186.314
0
LINE
8
Black
10
177.002
20
-181.507
11
285.002
21
-181.507
0
LINE
8
Black
10
178.288
20
-183.614
11
178.502
21
-183.686
0
LINE
8
Black
10
178.502
20
-183.686
11
178.859
21
-183.686
0
LINE
8
Black
10
178.859
20
-183.686
11
179.002
21
-183.614
0
LINE
8
Black
10
179.002
20
-183.614
11
179.074
21
-183.543
0
LINE
8
Black
10
179.074
20
-183.543
11
179.145
21
-183.4
0
LINE
8
Black
10
179.145
20
-183.4
11
179.145
21
-183.257
0
LINE
8
Black
10
179.145
20
-183.257
11
179.074
21
-183.114
0
LINE
8
Black
10
179.074
20
-183.114
11
179.002
21
-183.043
0
LINE
8
Black
10
179.002
20
-183.043
11
178.859
21
-182.971
0
LINE
8
Black
10
178.859
20
-182.971
11
178.574
21
-182.9
0
LINE
8
Black
10
178.574
20
-182.9
11
178.431
21
-182.829
0
LINE
8
Black
10
178.431
20
-182.829
11
178.359
21
-182.757
0
LINE
8
Black
10
178.359
20
-182.757
11
178.288
21
-182.614
0
LINE
8
Black
10
178.288
20
-182.614
11
178.288
21
-182.471
0
LINE
8
Black
10
178.288
20
-182.471
11
178.359
21
-182.329
0
LINE
8
Black
10
178.359
20
-182.329
11
178.431
21
-182.257
0
LINE
8
Black
10
178.431
20
-182.257
11
178.574
21
-182.186
0
LINE
8
Black
10
178.574
20
-182.186
11
178.931
21
-182.186
0
LINE
8
Black
10
178.931
20
-182.186
11
179.145
21
-182.257
0
LINE
8
Black
10
179.788
20
-183.686
11
179.788
21
-182.186
0
LINE
8
Black
10
180.431
20
-183.686
11
180.431
21
-182.9
0
LINE
8
Black
10
180.431
20
-182.9
11
180.359
21
-182.757
0
LINE
8
Black
10
180.359
20
-182.757
11
180.216
21
-182.686
0
LINE
8
Black
10
180.216
20
-182.686
11
180.002
21
-182.686
0
LINE
8
Black
10
180.002
20
-182.686
11
179.859
21
-182.757
0
LINE
8
Black
10
179.859
20
-182.757
11
179.788
21
-182.829
0
LINE
8
Black
10
181.716
20
-183.614
11
181.574
21
-183.686
0
LINE
8
Black
10
181.574
20
-183.686
11
181.288
21
-183.686
0
LINE
8
Black
10
181.288
20
-183.686
11
181.145
21
-183.614
0
LINE
8
Black
10
181.145
20
-183.614
11
181.074
21
-183.471
0
LINE
8
Black
10
181.074
20
-183.471
11
181.074
21
-182.9
0
LINE
8
Black
10
181.074
20
-182.9
11
181.145
21
-182.757
0
LINE
8
Black
10
181.145
20
-182.757
11
181.288
21
-182.686
0
LINE
8
Black
10
181.288
20
-182.686
11
181.574
21
-182.686
0
LINE
8
Black
10
181.574
20
-182.686
11
181.716
21
-182.757
0
LINE
8
Black
10
181.716
20
-182.757
11
181.788
21
-182.9
0
LINE
8
Black
10
181.788
20
-182.9
11
181.788
21
-183.043
0
LINE
8
Black
10
181.788
20
-183.043
11
181.074
21
-183.186
0
LINE
8
Black
10
183.002
20
-183.614
11
182.859
21
-183.686
0
LINE
8
Black
10
182.859
20
-183.686
11
182.574
21
-183.686
0
LINE
8
Black
10
182.574
20
-183.686
11
182.431
21
-183.614
0
LINE
8
Black
10
182.431
20
-183.614
11
182.359
21
-183.471
0
LINE
8
Black
10
182.359
20
-183.471
11
182.359
21
-182.9
0
LINE
8
Black
10
182.359
20
-182.9
11
182.431
21
-182.757
0
LINE
8
Black
10
182.431
20
-182.757
11
182.574
21
-182.686
0
LINE
8
Black
10
182.574
20
-182.686
11
182.859
21
-182.686
0
LINE
8
Black
10
182.859
20
-182.686
11
183.002
21
-182.757
0
LINE
8
Black
10
183.002
20
-182.757
11
183.074
21
-182.9
0
LINE
8
Black
10
183.074
20
-182.9
11
183.074
21
-183.043
0
LINE
8
Black
10
183.074
20
-183.043
11
182.359
21
-183.186
0
LINE
8
Black
10
183.502
20
-182.686
11
184.074
21
-182.686
0
LINE
8
Black
10
183.716
20
-182.186
11
183.716
21
-183.471
0
LINE
8
Black
10
183.716
20
-183.471
11
183.788
21
-183.614
0
LINE
8
Black
10
183.788
20
-183.614
11
183.931
21
-183.686
0
LINE
8
Black
10
183.931
20
-183.686
11
184.074
21
-183.686
0
LINE
8
Black
10
184.574
20
-183.543
11
184.645
21
-183.614
0
LINE
8
Black
10
184.645
20
-183.614
11
184.574
21
-183.686
0
LINE
8
Black
10
184.574
20
-183.686
11
184.502
21
-183.614
0
LINE
8
Black
10
184.502
20
-183.614
11
184.574
21
-183.543
0
LINE
8
Black
10
184.574
20
-183.543
11
184.574
21
-183.686
0
LINE
8
Black
10
184.574
20
-182.757
11
184.645
21
-182.829
0
LINE
8
Black
10
184.645
20
-182.829
11
184.574
21
-182.9
0
LINE
8
Black
10
184.574
20
-182.9
11
184.502
21
-182.829
0
LINE
8
Black
10
184.502
20
-182.829
11
184.574
21
-182.757
0
LINE
8
Black
10
184.574
20
-182.757
11
184.574
21
-182.9
0
LINE
8
Black
10
178.359
20
-180.686
11
178.359
21
-179.186
0
LINE
8
Black
10
178.359
20
-179.186
11
178.931
21
-179.186
0
LINE
8
Black
10
178.931
20
-179.186
11
179.074
21
-179.257
0
LINE
8
Black
10
179.074
20
-179.257
11
179.145
21
-179.329
0
LINE
8
Black
10
179.145
20
-179.329
11
179.216
21
-179.471
0
LINE
8
Black
10
179.216
20
-179.471
11
179.216
21
-179.686
0
LINE
8
Black
10
179.216
20
-179.686
11
179.145
21
-179.829
0
LINE
8
Black
10
179.145
20
-179.829
11
179.074
21
-179.9
0
LINE
8
Black
10
179.074
20
-179.9
11
178.931
21
-179.971
0
LINE
8
Black
10
178.931
20
-179.971
11
178.359
21
-179.971
0
LINE
8
Black
10
179.859
20
-180.686
11
179.859
21
-179.686
0
LINE
8
Black
10
179.859
20
-179.971
11
179.931
21
-179.829
0
LINE
8
Black
10
179.931
20
-179.829
11
180.002
21
-179.757
0
LINE
8
Black
10
180.002
20
-179.757
11
180.145
21
-179.686
0
LINE
8
Black
10
180.145
20
-179.686
11
180.288
21
-179.686
0
LINE
8
Black
10
181.359
20
-180.614
11
181.216
21
-180.686
0
LINE
8
Black
10
181.216
20
-180.686
11
180.931
21
-180.686
0
LINE
8
Black
10
180.931
20
-180.686
11
180.788
21
-180.614
0
LINE
8
Black
10
180.788
20
-180.614
11
180.716
21
-180.471
0
LINE
8
Black
10
180.716
20
-180.471
11
180.716
21
-179.9
0
LINE
8
Black
10
180.716
20
-179.9
11
180.788
21
-179.757
0
LINE
8
Black
10
180.788
20
-179.757
11
180.931
21
-179.686
0
LINE
8
Black
10
180.931
20
-179.686
11
181.216
21
-179.686
0
LINE
8
Black
10
181.216
20
-179.686
11
181.359
21
-179.757
0
LINE
8
Black
10
181.359
20
-179.757
11
181.431
21
-179.9
0
LINE
8
Black
10
181.431
20
-179.9
11
181.431
21
-180.043
0
LINE
8
Black
10
181.431
20
-180.043
11
180.716
21
-180.186
0
LINE
8
Black
10
182.002
20
-180.614
11
182.145
21
-180.686
0
LINE
8
Black
10
182.145
20
-180.686
11
182.431
21
-180.686
0
LINE
8
Black
10
182.431
20
-180.686
11
182.574
21
-180.614
0
LINE
8
Black
10
182.574
20
-180.614
11
182.645
21
-180.471
0
LINE
8
Black
10
182.645
20
-180.471
11
182.645
21
-180.4
0
LINE
8
Black
10
182.645
20
-180.4
11
182.574
21
-180.257
0
LINE
8
Black
10
182.574
20
-180.257
11
182.431
21
-180.186
0
LINE
8
Black
10
182.431
20
-180.186
11
182.216
21
-180.186
0
LINE
8
Black
10
182.216
20
-180.186
11
182.074
21
-180.114
0
LINE
8
Black
10
182.074
20
-180.114
11
182.002
21
-179.971
0
LINE
8
Black
10
182.002
20
-179.971
11
182.002
21
-179.9
0
LINE
8
Black
10
182.002
20
-179.9
11
182.074
21
-179.757
0
LINE
8
Black
10
182.074
20
-179.757
11
182.216
21
-179.686
0
LINE
8
Black
10
182.216
20
-179.686
11
182.431
21
-179.686
0
LINE
8
Black
10
182.431
20
-179.686
11
182.574
21
-179.757
0
LINE
8
Black
10
183.502
20
-180.686
11
183.359
21
-180.614
0
LINE
8
Black
10
183.359
20
-180.614
11
183.288
21
-180.543
0
LINE
8
Black
10
183.288
20
-180.543
11
183.216
21
-180.4
0
LINE
8
Black
10
183.216
20
-180.4
11
183.216
21
-179.971
0
LINE
8
Black
10
183.216
20
-179.971
11
183.288
21
-179.829
0
LINE
8
Black
10
183.288
20
-179.829
11
183.359
21
-179.757
0
LINE
8
Black
10
183.359
20
-179.757
11
183.502
21
-179.686
0
LINE
8
Black
10
183.502
20
-179.686
11
183.716
21
-179.686
0
LINE
8
Black
10
183.716
20
-179.686
11
183.859
21
-179.757
0
LINE
8
Black
10
183.859
20
-179.757
11
183.931
21
-179.829
0
LINE
8
Black
10
183.931
20
-179.829
11
184.002
21
-179.971
0
LINE
8
Black
10
184.002
20
-179.971
11
184.002
21
-180.4
0
LINE
8
Black
10
184.002
20
-180.4
11
183.931
21
-180.543
0
LINE
8
Black
10
183.931
20
-180.543
11
183.859
21
-180.614
0
LINE
8
Black
10
183.859
20
-180.614
11
183.716
21
-180.686
0
LINE
8
Black
10
183.716
20
-180.686
11
183.502
21
-180.686
0
LINE
8
Black
10
184.859
20
-180.686
11
184.716
21
-180.614
0
LINE
8
Black
10
184.716
20
-180.614
11
184.645
21
-180.471
0
LINE
8
Black
10
184.645
20
-180.471
11
184.645
21
-179.186
0
LINE
8
Black
10
185.431
20
-180.686
11
185.431
21
-179.686
0
LINE
8
Black
10
185.431
20
-179.186
11
185.359
21
-179.257
0
LINE
8
Black
10
185.359
20
-179.257
11
185.431
21
-179.329
0
LINE
8
Black
10
185.431
20
-179.329
11
185.502
21
-179.257
0
LINE
8
Black
10
185.502
20
-179.257
11
185.431
21
-179.186
0
LINE
8
Black
10
185.431
20
-179.186
11
185.431
21
-179.329
0
LINE
8
Black
10
186.788
20
-180.686
11
186.788
21
-179.186
0
LINE
8
Black
10
186.788
20
-180.614
11
186.645
21
-180.686
0
LINE
8
Black
10
186.645
20
-180.686
11
186.359
21
-180.686
0
LINE
8
Black
10
186.359
20
-180.686
11
186.216
21
-180.614
0
LINE
8
Black
10
186.216
20
-180.614
11
186.145
21
-180.543
0
LINE
8
Black
10
186.145
20
-180.543
11
186.074
21
-180.4
0
LINE
8
Black
10
186.074
20
-180.4
11
186.074
21
-179.971
0
LINE
8
Black
10
186.074
20
-179.971
11
186.145
21
-179.829
0
LINE
8
Black
10
186.145
20
-179.829
11
186.216
21
-179.757
0
LINE
8
Black
10
186.216
20
-179.757
11
186.359
21
-179.686
0
LINE
8
Black
10
186.359
20
-179.686
11
186.645
21
-179.686
0
LINE
8
Black
10
186.645
20
-179.686
11
186.788
21
-179.757
0
LINE
8
Black
10
187.288
20
-179.186
11
188.145
21
-179.186
0
LINE
8
Black
10
187.716
20
-180.686
11
187.716
21
-179.186
0
LINE
8
Black
10
189.216
20
-180.614
11
189.074
21
-180.686
0
LINE
8
Black
10
189.074
20
-180.686
11
188.788
21
-180.686
0
LINE
8
Black
10
188.788
20
-180.686
11
188.645
21
-180.614
0
LINE
8
Black
10
188.645
20
-180.614
11
188.574
21
-180.471
0
LINE
8
Black
10
188.574
20
-180.471
11
188.574
21
-179.9
0
LINE
8
Black
10
188.574
20
-179.9
11
188.645
21
-179.757
0
LINE
8
Black
10
188.645
20
-179.757
11
188.788
21
-179.686
0
LINE
8
Black
10
188.788
20
-179.686
11
189.074
21
-179.686
0
LINE
8
Black
10
189.074
20
-179.686
11
189.216
21
-179.757
0
LINE
8
Black
10
189.216
20
-179.757
11
189.288
21
-179.9
0
LINE
8
Black
10
189.288
20
-179.9
11
189.288
21
-180.043
0
LINE
8
Black
10
189.288
20
-180.043
11
188.574
21
-180.186
0
LINE
8
Black
10
190.574
20
-180.614
11
190.431
21
-180.686
0
LINE
8
Black
10
190.431
20
-180.686
11
190.145
21
-180.686
0
LINE
8
Black
10
190.145
20
-180.686
11
190.002
21
-180.614
0
LINE
8
Black
10
190.002
20
-180.614
11
189.931
21
-180.543
0
LINE
8
Black
10
189.931
20
-180.543
11
189.859
21
-180.4
0
LINE
8
Black
10
189.859
20
-180.4
11
189.859
21
-179.971
0
LINE
8
Black
10
189.859
20
-179.971
11
189.931
21
-179.829
0
LINE
8
Black
10
189.931
20
-179.829
11
190.002
21
-179.757
0
LINE
8
Black
10
190.002
20
-179.757
11
190.145
21
-179.686
0
LINE
8
Black
10
190.145
20
-179.686
11
190.431
21
-179.686
0
LINE
8
Black
10
190.431
20
-179.686
11
190.574
21
-179.757
0
LINE
8
Black
10
191.216
20
-179.686
11
191.216
21
-180.686
0
LINE
8
Black
10
191.216
20
-179.829
11
191.288
21
-179.757
0
LINE
8
Black
10
191.288
20
-179.757
11
191.431
21
-179.686
0
LINE
8
Black
10
191.431
20
-179.686
11
191.645
21
-179.686
0
LINE
8
Black
10
191.645
20
-179.686
11
191.788
21
-179.757
0
LINE
8
Black
10
191.788
20
-179.757
11
191.859
21
-179.9
0
LINE
8
Black
10
191.859
20
-179.9
11
191.859
21
-180.686
0
LINE
8
Black
10
192.788
20
-180.686
11
192.645
21
-180.614
0
LINE
8
Black
10
192.645
20
-180.614
11
192.574
21
-180.543
0
LINE
8
Black
10
192.574
20
-180.543
11
192.502
21
-180.4
0
LINE
8
Black
10
192.502
20
-180.4
11
192.502
21
-179.971
0
LINE
8
Black
10
192.502
20
-179.971
11
192.574
21
-179.829
0
LINE
8
Black
10
192.574
20
-179.829
11
192.645
21
-179.757
0
LINE
8
Black
10
192.645
20
-179.757
11
192.788
21
-179.686
0
LINE
8
Black
10
192.788
20
-179.686
11
193.002
21
-179.686
0
LINE
8
Black
10
193.002
20
-179.686
11
193.145
21
-179.757
0
LINE
8
Black
10
193.145
20
-179.757
11
193.216
21
-179.829
0
LINE
8
Black
10
193.216
20
-179.829
11
193.288
21
-179.971
0
LINE
8
Black
10
193.288
20
-179.971
11
193.288
21
-180.4
0
LINE
8
Black
10
193.288
20
-180.4
11
193.216
21
-180.543
0
LINE
8
Black
10
193.216
20
-180.543
11
193.145
21
-180.614
0
LINE
8
Black
10
193.145
20
-180.614
11
193.002
21
-180.686
0
LINE
8
Black
10
193.002
20
-180.686
11
192.788
21
-180.686
0
LINE
8
Black
10
194.145
20
-180.686
11
194.002
21
-180.614
0
LINE
8
Black
10
194.002
20
-180.614
11
193.931
21
-180.471
0
LINE
8
Black
10
193.931
20
-180.471
11
193.931
21
-179.186
0
LINE
8
Black
10
194.931
20
-180.686
11
194.788
21
-180.614
0
LINE
8
Black
10
194.788
20
-180.614
11
194.716
21
-180.543
0
LINE
8
Black
10
194.716
20
-180.543
11
194.645
21
-180.4
0
LINE
8
Black
10
194.645
20
-180.4
11
194.645
21
-179.971
0
LINE
8
Black
10
194.645
20
-179.971
11
194.716
21
-179.829
0
LINE
8
Black
10
194.716
20
-179.829
11
194.788
21
-179.757
0
LINE
8
Black
10
194.788
20
-179.757
11
194.931
21
-179.686
0
LINE
8
Black
10
194.931
20
-179.686
11
195.145
21
-179.686
0
LINE
8
Black
10
195.145
20
-179.686
11
195.288
21
-179.757
0
LINE
8
Black
10
195.288
20
-179.757
11
195.359
21
-179.829
0
LINE
8
Black
10
195.359
20
-179.829
11
195.431
21
-179.971
0
LINE
8
Black
10
195.431
20
-179.971
11
195.431
21
-180.4
0
LINE
8
Black
10
195.431
20
-180.4
11
195.359
21
-180.543
0
LINE
8
Black
10
195.359
20
-180.543
11
195.288
21
-180.614
0
LINE
8
Black
10
195.288
20
-180.614
11
195.145
21
-180.686
0
LINE
8
Black
10
195.145
20
-180.686
11
194.931
21
-180.686
0
LINE
8
Black
10
196.716
20
-179.686
11
196.716
21
-180.9
0
LINE
8
Black
10
196.716
20
-180.9
11
196.645
21
-181.043
0
LINE
8
Black
10
196.645
20
-181.043
11
196.574
21
-181.114
0
LINE
8
Black
10
196.574
20
-181.114
11
196.431
21
-181.186
0
LINE
8
Black
10
196.431
20
-181.186
11
196.216
21
-181.186
0
LINE
8
Black
10
196.216
20
-181.186
11
196.074
21
-181.114
0
LINE
8
Black
10
196.716
20
-180.614
11
196.574
21
-180.686
0
LINE
8
Black
10
196.574
20
-180.686
11
196.288
21
-180.686
0
LINE
8
Black
10
196.288
20
-180.686
11
196.145
21
-180.614
0
LINE
8
Black
10
196.145
20
-180.614
11
196.074
21
-180.543
0
LINE
8
Black
10
196.074
20
-180.543
11
196.002
21
-180.4
0
LINE
8
Black
10
196.002
20
-180.4
11
196.002
21
-179.971
0
LINE
8
Black
10
196.002
20
-179.971
11
196.074
21
-179.829
0
LINE
8
Black
10
196.074
20
-179.829
11
196.145
21
-179.757
0
LINE
8
Black
10
196.145
20
-179.757
11
196.288
21
-179.686
0
LINE
8
Black
10
196.288
20
-179.686
11
196.574
21
-179.686
0
LINE
8
Black
10
196.574
20
-179.686
11
196.716
21
-179.757
0
LINE
8
Black
10
197.431
20
-180.686
11
197.431
21
-179.686
0
LINE
8
Black
10
197.431
20
-179.186
11
197.359
21
-179.257
0
LINE
8
Black
10
197.359
20
-179.257
11
197.431
21
-179.329
0
LINE
8
Black
10
197.431
20
-179.329
11
197.502
21
-179.257
0
LINE
8
Black
10
197.502
20
-179.257
11
197.431
21
-179.186
0
LINE
8
Black
10
197.431
20
-179.186
11
197.431
21
-179.329
0
LINE
8
Black
10
198.716
20
-180.614
11
198.574
21
-180.686
0
LINE
8
Black
10
198.574
20
-180.686
11
198.288
21
-180.686
0
LINE
8
Black
10
198.288
20
-180.686
11
198.145
21
-180.614
0
LINE
8
Black
10
198.145
20
-180.614
11
198.074
21
-180.471
0
LINE
8
Black
10
198.074
20
-180.471
11
198.074
21
-179.9
0
LINE
8
Black
10
198.074
20
-179.9
11
198.145
21
-179.757
0
LINE
8
Black
10
198.145
20
-179.757
11
198.288
21
-179.686
0
LINE
8
Black
10
198.288
20
-179.686
11
198.574
21
-179.686
0
LINE
8
Black
10
198.574
20
-179.686
11
198.716
21
-179.757
0
LINE
8
Black
10
198.716
20
-179.757
11
198.788
21
-179.9
0
LINE
8
Black
10
198.788
20
-179.9
11
198.788
21
-180.043
0
LINE
8
Black
10
198.788
20
-180.043
11
198.074
21
-180.186
0
LINE
8
Black
10
199.359
20
-180.614
11
199.502
21
-180.686
0
LINE
8
Black
10
199.502
20
-180.686
11
199.788
21
-180.686
0
LINE
8
Black
10
199.788
20
-180.686
11
199.931
21
-180.614
0
LINE
8
Black
10
199.931
20
-180.614
11
200.002
21
-180.471
0
LINE
8
Black
10
200.002
20
-180.471
11
200.002
21
-180.4
0
LINE
8
Black
10
200.002
20
-180.4
11
199.931
21
-180.257
0
LINE
8
Black
10
199.931
20
-180.257
11
199.788
21
-180.186
0
LINE
8
Black
10
199.788
20
-180.186
11
199.574
21
-180.186
0
LINE
8
Black
10
199.574
20
-180.186
11
199.431
21
-180.114
0
LINE
8
Black
10
199.431
20
-180.114
11
199.359
21
-179.971
0
LINE
8
Black
10
199.359
20
-179.971
11
199.359
21
-179.9
0
LINE
8
Black
10
199.359
20
-179.9
11
199.431
21
-179.757
0
LINE
8
Black
10
199.431
20
-179.757
11
199.574
21
-179.686
0
LINE
8
Black
10
199.574
20
-179.686
11
199.788
21
-179.686
0
LINE
8
Black
10
199.788
20
-179.686
11
199.931
21
-179.757
0
LINE
8
Black
10
197.002
20
-191.507
11
197.002
21
-194.507
0
LINE
8
Black
10
261.002
20
-191.507
11
261.002
21
-198.007
0
LINE
8
Black
10
178.089
20
-129.013
11
178.105
21
-129.015
0
LINE
8
Black
10
178.105
20
-129.015
11
178.11
21
-129.017
0
LINE
8
Black
10
178.11
20
-129.017
11
178.116
21
-129.019
0
LINE
8
Black
10
178.116
20
-129.019
11
178.13
21
-129.027
0
LINE
8
Black
10
178.13
20
-129.027
11
178.144
21
-129.033
0
LINE
8
Black
10
178.144
20
-129.033
11
178.148
21
-129.038
0
LINE
8
Black
10
178.148
20
-129.038
11
178.154
21
-129.041
0
LINE
8
Black
10
178.154
20
-129.041
11
178.163
21
-129.053
0
LINE
8
Black
10
178.163
20
-129.053
11
178.174
21
-129.064
0
LINE
8
Black
10
178.174
20
-129.064
11
178.177
21
-129.07
0
LINE
8
Black
10
178.177
20
-129.07
11
178.181
21
-129.075
0
LINE
8
Black
10
178.181
20
-129.075
11
178.186
21
-129.09
0
LINE
8
Black
10
178.186
20
-129.09
11
178.192
21
-129.104
0
LINE
8
Black
10
178.192
20
-129.104
11
178.193
21
-129.11
0
LINE
8
Black
10
178.193
20
-129.11
11
178.195
21
-129.116
0
LINE
8
Black
10
178.195
20
-129.116
11
178.195
21
-129.131
0
LINE
8
Black
10
178.195
20
-129.131
11
178.196
21
-129.147
0
LINE
8
Black
10
178.196
20
-129.147
11
178.194
21
-129.153
0
LINE
8
Black
10
178.194
20
-129.153
11
178.194
21
-129.159
0
LINE
8
Black
10
178.194
20
-129.159
11
178.188
21
-129.174
0
LINE
8
Black
10
178.188
20
-129.174
11
178.184
21
-129.189
0
LINE
8
Black
10
178.184
20
-129.189
11
178.181
21
-129.194
0
LINE
8
Black
10
178.181
20
-129.194
11
178.178
21
-129.2
0
LINE
8
Black
10
178.178
20
-129.2
11
178.168
21
-129.212
0
LINE
8
Black
10
178.168
20
-129.212
11
178.159
21
-129.224
0
LINE
8
Black
10
178.159
20
-129.224
11
178.154
21
-129.228
0
LINE
8
Black
10
178.154
20
-129.228
11
178.15
21
-129.233
0
LINE
8
Black
10
178.15
20
-129.233
11
178.107
21
-129.267
0
LINE
8
Black
10
178.107
20
-129.267
11
178.078
21
-129.314
0
LINE
8
Black
10
178.078
20
-129.314
11
178.078
21
-129.481
0
LINE
8
Black
10
178.078
20
-129.481
11
178.107
21
-129.527
0
LINE
8
Black
10
178.107
20
-129.527
11
178.135
21
-129.55
0
LINE
8
Black
10
178.135
20
-129.55
11
178.214
21
-129.582
0
LINE
8
Black
10
178.214
20
-129.582
11
178.461
21
-129.582
0
LINE
8
Black
10
178.461
20
-129.582
11
178.539
21
-129.55
0
LINE
8
Black
10
178.539
20
-129.55
11
178.567
21
-129.527
0
LINE
8
Black
10
178.567
20
-129.527
11
178.596
21
-129.481
0
LINE
8
Black
10
178.596
20
-129.481
11
178.596
21
-129.314
0
LINE
8
Black
10
178.596
20
-129.314
11
178.567
21
-129.267
0
LINE
8
Black
10
178.567
20
-129.267
11
178.524
21
-129.233
0
LINE
8
Black
10
178.524
20
-129.233
11
178.496
21
-129.2
0
LINE
8
Black
10
178.496
20
-129.2
11
178.48
21
-129.159
0
LINE
8
Black
10
178.48
20
-129.159
11
178.479
21
-129.116
0
LINE
8
Black
10
178.479
20
-129.116
11
178.493
21
-129.075
0
LINE
8
Black
10
178.493
20
-129.075
11
178.521
21
-129.041
0
LINE
8
Black
10
178.521
20
-129.041
11
178.558
21
-129.019
0
LINE
8
Black
10
178.558
20
-129.019
11
178.6
21
-129.01
0
LINE
8
Black
10
178.6
20
-129.01
11
178.643
21
-129.017
0
LINE
8
Black
10
178.643
20
-129.017
11
178.681
21
-129.038
0
LINE
8
Black
10
178.681
20
-129.038
11
178.74
21
-129.086
0
LINE
8
Black
10
178.74
20
-129.086
11
178.754
21
-129.101
0
LINE
8
Black
10
178.754
20
-129.101
11
178.768
21
-129.117
0
LINE
8
Black
10
178.768
20
-129.117
11
178.827
21
-129.212
0
LINE
8
Black
10
178.827
20
-129.212
11
178.832
21
-129.224
0
LINE
8
Black
10
178.832
20
-129.224
11
178.838
21
-129.235
0
LINE
8
Black
10
178.838
20
-129.235
11
178.84
21
-129.244
0
LINE
8
Black
10
178.84
20
-129.244
11
178.843
21
-129.253
0
LINE
8
Black
10
178.843
20
-129.253
11
178.844
21
-129.265
0
LINE
8
Black
10
178.844
20
-129.265
11
178.846
21
-129.278
0
LINE
8
Black
10
178.846
20
-129.278
11
178.846
21
-129.516
0
LINE
8
Black
10
178.846
20
-129.516
11
178.844
21
-129.529
0
LINE
8
Black
10
178.844
20
-129.529
11
178.843
21
-129.542
0
LINE
8
Black
10
178.843
20
-129.542
11
178.84
21
-129.55
0
LINE
8
Black
10
178.84
20
-129.55
11
178.838
21
-129.559
0
LINE
8
Black
10
178.838
20
-129.559
11
178.832
21
-129.57
0
LINE
8
Black
10
178.832
20
-129.57
11
178.827
21
-129.582
0
LINE
8
Black
10
178.827
20
-129.582
11
178.768
21
-129.677
0
LINE
8
Black
10
178.768
20
-129.677
11
178.754
21
-129.693
0
LINE
8
Black
10
178.754
20
-129.693
11
178.74
21
-129.709
0
LINE
8
Black
10
178.74
20
-129.709
11
178.681
21
-129.756
0
LINE
8
Black
10
178.681
20
-129.756
11
178.665
21
-129.765
0
LINE
8
Black
10
178.665
20
-129.765
11
178.65
21
-129.775
0
LINE
8
Black
10
178.65
20
-129.775
11
178.532
21
-129.823
0
LINE
8
Black
10
178.532
20
-129.823
11
178.529
21
-129.823
0
LINE
8
Black
10
178.529
20
-129.823
11
178.528
21
-129.824
0
LINE
8
Black
10
178.528
20
-129.824
11
178.508
21
-129.828
0
LINE
8
Black
10
178.508
20
-129.828
11
178.489
21
-129.832
0
LINE
8
Black
10
178.489
20
-129.832
11
178.487
21
-129.831
0
LINE
8
Black
10
178.487
20
-129.831
11
178.485
21
-129.832
0
LINE
8
Black
10
178.485
20
-129.832
11
178.19
21
-129.832
0
LINE
8
Black
10
178.19
20
-129.832
11
178.187
21
-129.831
0
LINE
8
Black
10
178.187
20
-129.831
11
178.185
21
-129.832
0
LINE
8
Black
10
178.185
20
-129.832
11
178.166
21
-129.828
0
LINE
8
Black
10
178.166
20
-129.828
11
178.147
21
-129.824
0
LINE
8
Black
10
178.147
20
-129.824
11
178.145
21
-129.823
0
LINE
8
Black
10
178.145
20
-129.823
11
178.143
21
-129.823
0
LINE
8
Black
10
178.143
20
-129.823
11
178.025
21
-129.775
0
LINE
8
Black
10
178.025
20
-129.775
11
178.009
21
-129.765
0
LINE
8
Black
10
178.009
20
-129.765
11
177.993
21
-129.756
0
LINE
8
Black
10
177.993
20
-129.756
11
177.934
21
-129.709
0
LINE
8
Black
10
177.934
20
-129.709
11
177.92
21
-129.693
0
LINE
8
Black
10
177.92
20
-129.693
11
177.906
21
-129.677
0
LINE
8
Black
10
177.906
20
-129.677
11
177.847
21
-129.582
0
LINE
8
Black
10
177.847
20
-129.582
11
177.842
21
-129.57
0
LINE
8
Black
10
177.842
20
-129.57
11
177.836
21
-129.559
0
LINE
8
Black
10
177.836
20
-129.559
11
177.834
21
-129.55
0
LINE
8
Black
10
177.834
20
-129.55
11
177.831
21
-129.542
0
LINE
8
Black
10
177.831
20
-129.542
11
177.831
21
-129.529
0
LINE
8
Black
10
177.831
20
-129.529
11
177.828
21
-129.516
0
LINE
8
Black
10
177.828
20
-129.516
11
177.828
21
-129.28
0
LINE
8
Black
10
177.828
20
-129.28
11
177.606
21
-129.298
0
LINE
8
Black
10
177.606
20
-129.298
11
177.606
21
-129.659
0
LINE
8
Black
10
177.606
20
-129.659
11
177.598
21
-129.702
0
LINE
8
Black
10
177.598
20
-129.702
11
177.577
21
-129.739
0
LINE
8
Black
10
177.577
20
-129.739
11
177.543
21
-129.767
0
LINE
8
Black
10
177.543
20
-129.767
11
177.503
21
-129.782
0
LINE
8
Black
10
177.503
20
-129.782
11
177.459
21
-129.782
0
LINE
8
Black
10
177.459
20
-129.782
11
177.418
21
-129.767
0
LINE
8
Black
10
177.418
20
-129.767
11
177.385
21
-129.739
0
LINE
8
Black
10
177.385
20
-129.739
11
177.363
21
-129.702
0
LINE
8
Black
10
177.363
20
-129.702
11
177.356
21
-129.659
0
LINE
8
Black
10
177.356
20
-129.659
11
177.356
21
-129.183
0
LINE
8
Black
10
177.356
20
-129.183
11
177.357
21
-129.177
0
LINE
8
Black
10
177.357
20
-129.177
11
177.357
21
-129.171
0
LINE
8
Black
10
177.357
20
-129.171
11
177.361
21
-129.156
0
LINE
8
Black
10
177.361
20
-129.156
11
177.363
21
-129.14
0
LINE
8
Black
10
177.363
20
-129.14
11
177.366
21
-129.135
0
LINE
8
Black
10
177.366
20
-129.135
11
177.368
21
-129.129
0
LINE
8
Black
10
177.368
20
-129.129
11
177.377
21
-129.116
0
LINE
8
Black
10
177.377
20
-129.116
11
177.385
21
-129.103
0
LINE
8
Black
10
177.385
20
-129.103
11
177.39
21
-129.099
0
LINE
8
Black
10
177.39
20
-129.099
11
177.393
21
-129.094
0
LINE
8
Black
10
177.393
20
-129.094
11
177.406
21
-129.085
0
LINE
8
Black
10
177.406
20
-129.085
11
177.418
21
-129.075
0
LINE
8
Black
10
177.418
20
-129.075
11
177.424
21
-129.073
0
LINE
8
Black
10
177.424
20
-129.073
11
177.429
21
-129.069
0
LINE
8
Black
10
177.429
20
-129.069
11
177.444
21
-129.065
0
LINE
8
Black
10
177.444
20
-129.065
11
177.459
21
-129.06
0
LINE
8
Black
10
177.459
20
-129.06
11
177.465
21
-129.06
0
LINE
8
Black
10
177.465
20
-129.06
11
177.471
21
-129.058
0
LINE
8
Black
10
177.471
20
-129.058
11
178.061
21
-129.011
0
LINE
8
Black
10
178.061
20
-129.011
11
178.068
21
-129.011
0
LINE
8
Black
10
178.068
20
-129.011
11
178.074
21
-129.01
0
LINE
8
Black
10
178.074
20
-129.01
11
178.089
21
-129.013
0
LINE
8
Black
10
178.683
20
-128.538
11
178.702
21
-128.541
0
LINE
8
Black
10
178.702
20
-128.541
11
178.705
21
-128.542
0
LINE
8
Black
10
178.705
20
-128.542
11
178.707
21
-128.542
0
LINE
8
Black
10
178.707
20
-128.542
11
178.723
21
-128.552
0
LINE
8
Black
10
178.723
20
-128.552
11
178.74
21
-128.562
0
LINE
8
Black
10
178.74
20
-128.562
11
178.799
21
-128.609
0
LINE
8
Black
10
178.799
20
-128.609
11
178.8
21
-128.61
0
LINE
8
Black
10
178.8
20
-128.61
11
178.801
21
-128.611
0
LINE
8
Black
10
178.801
20
-128.611
11
178.802
21
-128.612
0
LINE
8
Black
10
178.802
20
-128.612
11
178.803
21
-128.612
0
LINE
8
Black
10
178.803
20
-128.612
11
178.815
21
-128.628
0
LINE
8
Black
10
178.815
20
-128.628
11
178.828
21
-128.642
0
LINE
8
Black
10
178.828
20
-128.642
11
178.828
21
-128.643
0
LINE
8
Black
10
178.828
20
-128.643
11
178.829
21
-128.644
0
LINE
8
Black
10
178.829
20
-128.644
11
178.83
21
-128.645
0
LINE
8
Black
10
178.83
20
-128.645
11
178.83
21
-128.646
0
LINE
8
Black
10
178.83
20
-128.646
11
178.837
21
-128.665
0
LINE
8
Black
10
178.837
20
-128.665
11
178.844
21
-128.683
0
LINE
8
Black
10
178.844
20
-128.683
11
178.844
21
-128.684
0
LINE
8
Black
10
178.844
20
-128.684
11
178.844
21
-128.685
0
LINE
8
Black
10
178.844
20
-128.685
11
178.844
21
-128.686
0
LINE
8
Black
10
178.844
20
-128.686
11
178.844
21
-128.687
0
LINE
8
Black
10
178.844
20
-128.687
11
178.844
21
-128.707
0
LINE
8
Black
10
178.844
20
-128.707
11
178.844
21
-128.726
0
LINE
8
Black
10
178.844
20
-128.726
11
178.844
21
-128.727
0
LINE
8
Black
10
178.844
20
-128.727
11
178.844
21
-128.728
0
LINE
8
Black
10
178.844
20
-128.728
11
178.844
21
-128.73
0
LINE
8
Black
10
178.844
20
-128.73
11
178.844
21
-128.731
0
LINE
8
Black
10
178.844
20
-128.731
11
178.837
21
-128.749
0
LINE
8
Black
10
178.837
20
-128.749
11
178.83
21
-128.767
0
LINE
8
Black
10
178.83
20
-128.767
11
178.83
21
-128.768
0
LINE
8
Black
10
178.83
20
-128.768
11
178.829
21
-128.769
0
LINE
8
Black
10
178.829
20
-128.769
11
178.828
21
-128.77
0
LINE
8
Black
10
178.828
20
-128.77
11
178.828
21
-128.771
0
LINE
8
Black
10
178.828
20
-128.771
11
178.815
21
-128.786
0
LINE
8
Black
10
178.815
20
-128.786
11
178.803
21
-128.801
0
LINE
8
Black
10
178.803
20
-128.801
11
178.802
21
-128.801
0
LINE
8
Black
10
178.802
20
-128.801
11
178.801
21
-128.802
0
LINE
8
Black
10
178.801
20
-128.802
11
178.8
21
-128.803
0
LINE
8
Black
10
178.8
20
-128.803
11
178.799
21
-128.804
0
LINE
8
Black
10
178.799
20
-128.804
11
178.74
21
-128.852
0
LINE
8
Black
10
178.74
20
-128.852
11
178.723
21
-128.861
0
LINE
8
Black
10
178.723
20
-128.861
11
178.707
21
-128.871
0
LINE
8
Black
10
178.707
20
-128.871
11
178.705
21
-128.871
0
LINE
8
Black
10
178.705
20
-128.871
11
178.702
21
-128.873
0
LINE
8
Black
10
178.702
20
-128.873
11
178.683
21
-128.876
0
LINE
8
Black
10
178.683
20
-128.876
11
178.664
21
-128.879
0
LINE
8
Black
10
178.664
20
-128.879
11
178.662
21
-128.879
0
LINE
8
Black
10
178.662
20
-128.879
11
178.659
21
-128.879
0
LINE
8
Black
10
178.659
20
-128.879
11
178.641
21
-128.876
0
LINE
8
Black
10
178.641
20
-128.876
11
178.621
21
-128.873
0
LINE
8
Black
10
178.621
20
-128.873
11
178.619
21
-128.871
0
LINE
8
Black
10
178.619
20
-128.871
11
178.617
21
-128.871
0
LINE
8
Black
10
178.617
20
-128.871
11
178.6
21
-128.861
0
LINE
8
Black
10
178.6
20
-128.861
11
178.583
21
-128.852
0
LINE
8
Black
10
178.583
20
-128.852
11
178.524
21
-128.804
0
LINE
8
Black
10
178.524
20
-128.804
11
178.524
21
-128.803
0
LINE
8
Black
10
178.524
20
-128.803
11
178.523
21
-128.802
0
LINE
8
Black
10
178.523
20
-128.802
11
178.522
21
-128.801
0
LINE
8
Black
10
178.522
20
-128.801
11
178.521
21
-128.801
0
LINE
8
Black
10
178.521
20
-128.801
11
178.509
21
-128.786
0
LINE
8
Black
10
178.509
20
-128.786
11
178.496
21
-128.771
0
LINE
8
Black
10
178.496
20
-128.771
11
178.495
21
-128.77
0
LINE
8
Black
10
178.495
20
-128.77
11
178.495
21
-128.769
0
LINE
8
Black
10
178.495
20
-128.769
11
178.494
21
-128.768
0
LINE
8
Black
10
178.494
20
-128.768
11
178.493
21
-128.767
0
LINE
8
Black
10
178.493
20
-128.767
11
178.487
21
-128.749
0
LINE
8
Black
10
178.487
20
-128.749
11
178.48
21
-128.731
0
LINE
8
Black
10
178.48
20
-128.731
11
178.48
21
-128.73
0
LINE
8
Black
10
178.48
20
-128.73
11
178.48
21
-128.728
0
LINE
8
Black
10
178.48
20
-128.728
11
178.48
21
-128.727
0
LINE
8
Black
10
178.48
20
-128.727
11
178.479
21
-128.726
0
LINE
8
Black
10
178.479
20
-128.726
11
178.48
21
-128.707
0
LINE
8
Black
10
178.48
20
-128.707
11
178.479
21
-128.687
0
LINE
8
Black
10
178.479
20
-128.687
11
178.48
21
-128.686
0
LINE
8
Black
10
178.48
20
-128.686
11
178.48
21
-128.685
0
LINE
8
Black
10
178.48
20
-128.685
11
178.48
21
-128.684
0
LINE
8
Black
10
178.48
20
-128.684
11
178.48
21
-128.683
0
LINE
8
Black
10
178.48
20
-128.683
11
178.487
21
-128.665
0
LINE
8
Black
10
178.487
20
-128.665
11
178.493
21
-128.646
0
LINE
8
Black
10
178.493
20
-128.646
11
178.494
21
-128.645
0
LINE
8
Black
10
178.494
20
-128.645
11
178.495
21
-128.644
0
LINE
8
Black
10
178.495
20
-128.644
11
178.495
21
-128.643
0
LINE
8
Black
10
178.495
20
-128.643
11
178.496
21
-128.642
0
LINE
8
Black
10
178.496
20
-128.642
11
178.509
21
-128.628
0
LINE
8
Black
10
178.509
20
-128.628
11
178.521
21
-128.612
0
LINE
8
Black
10
178.521
20
-128.612
11
178.522
21
-128.612
0
LINE
8
Black
10
178.522
20
-128.612
11
178.523
21
-128.611
0
LINE
8
Black
10
178.523
20
-128.611
11
178.524
21
-128.61
0
LINE
8
Black
10
178.524
20
-128.61
11
178.524
21
-128.609
0
LINE
8
Black
10
178.524
20
-128.609
11
178.583
21
-128.562
0
LINE
8
Black
10
178.583
20
-128.562
11
178.6
21
-128.552
0
LINE
8
Black
10
178.6
20
-128.552
11
178.617
21
-128.542
0
LINE
8
Black
10
178.617
20
-128.542
11
178.619
21
-128.542
0
LINE
8
Black
10
178.619
20
-128.542
11
178.621
21
-128.541
0
LINE
8
Black
10
178.621
20
-128.541
11
178.641
21
-128.538
0
LINE
8
Black
10
178.641
20
-128.538
11
178.659
21
-128.534
0
LINE
8
Black
10
178.659
20
-128.534
11
178.662
21
-128.534
0
LINE
8
Black
10
178.662
20
-128.534
11
178.664
21
-128.534
0
LINE
8
Black
10
178.664
20
-128.534
11
178.683
21
-128.538
0
LINE
8
Black
10
177.778
20
-127.582
11
177.78
21
-127.582
0
LINE
8
Black
10
177.78
20
-127.582
11
177.8
21
-127.586
0
LINE
8
Black
10
177.8
20
-127.586
11
177.819
21
-127.589
0
LINE
8
Black
10
177.819
20
-127.589
11
177.821
21
-127.59
0
LINE
8
Black
10
177.821
20
-127.59
11
177.823
21
-127.591
0
LINE
8
Black
10
177.823
20
-127.591
11
177.941
21
-127.638
0
LINE
8
Black
10
177.941
20
-127.638
11
177.957
21
-127.648
0
LINE
8
Black
10
177.957
20
-127.648
11
177.973
21
-127.657
0
LINE
8
Black
10
177.973
20
-127.657
11
178.012
21
-127.689
0
LINE
8
Black
10
178.012
20
-127.689
11
178.052
21
-127.657
0
LINE
8
Black
10
178.052
20
-127.657
11
178.068
21
-127.648
0
LINE
8
Black
10
178.068
20
-127.648
11
178.084
21
-127.638
0
LINE
8
Black
10
178.084
20
-127.638
11
178.202
21
-127.591
0
LINE
8
Black
10
178.202
20
-127.591
11
178.204
21
-127.59
0
LINE
8
Black
10
178.204
20
-127.59
11
178.206
21
-127.589
0
LINE
8
Black
10
178.206
20
-127.589
11
178.225
21
-127.586
0
LINE
8
Black
10
178.225
20
-127.586
11
178.244
21
-127.582
0
LINE
8
Black
10
178.244
20
-127.582
11
178.246
21
-127.582
0
LINE
8
Black
10
178.246
20
-127.582
11
178.249
21
-127.582
0
LINE
8
Black
10
178.249
20
-127.582
11
178.485
21
-127.582
0
LINE
8
Black
10
178.485
20
-127.582
11
178.487
21
-127.582
0
LINE
8
Black
10
178.487
20
-127.582
11
178.489
21
-127.582
0
LINE
8
Black
10
178.489
20
-127.582
11
178.508
21
-127.586
0
LINE
8
Black
10
178.508
20
-127.586
11
178.528
21
-127.589
0
LINE
8
Black
10
178.528
20
-127.589
11
178.529
21
-127.59
0
LINE
8
Black
10
178.529
20
-127.59
11
178.532
21
-127.591
0
LINE
8
Black
10
178.532
20
-127.591
11
178.65
21
-127.638
0
LINE
8
Black
10
178.65
20
-127.638
11
178.665
21
-127.648
0
LINE
8
Black
10
178.665
20
-127.648
11
178.681
21
-127.657
0
LINE
8
Black
10
178.681
20
-127.657
11
178.74
21
-127.705
0
LINE
8
Black
10
178.74
20
-127.705
11
178.754
21
-127.72
0
LINE
8
Black
10
178.754
20
-127.72
11
178.768
21
-127.736
0
LINE
8
Black
10
178.768
20
-127.736
11
178.827
21
-127.831
0
LINE
8
Black
10
178.827
20
-127.831
11
178.832
21
-127.843
0
LINE
8
Black
10
178.832
20
-127.843
11
178.838
21
-127.854
0
LINE
8
Black
10
178.838
20
-127.854
11
178.84
21
-127.863
0
LINE
8
Black
10
178.84
20
-127.863
11
178.843
21
-127.872
0
LINE
8
Black
10
178.843
20
-127.872
11
178.844
21
-127.884
0
LINE
8
Black
10
178.844
20
-127.884
11
178.846
21
-127.897
0
LINE
8
Black
10
178.846
20
-127.897
11
178.846
21
-128.088
0
LINE
8
Black
10
178.846
20
-128.088
11
178.844
21
-128.1
0
LINE
8
Black
10
178.844
20
-128.1
11
178.843
21
-128.113
0
LINE
8
Black
10
178.843
20
-128.113
11
178.84
21
-128.122
0
LINE
8
Black
10
178.84
20
-128.122
11
178.838
21
-128.13
0
LINE
8
Black
10
178.838
20
-128.13
11
178.832
21
-128.142
0
LINE
8
Black
10
178.832
20
-128.142
11
178.827
21
-128.153
0
LINE
8
Black
10
178.827
20
-128.153
11
178.768
21
-128.249
0
LINE
8
Black
10
178.768
20
-128.249
11
178.754
21
-128.264
0
LINE
8
Black
10
178.754
20
-128.264
11
178.74
21
-128.28
0
LINE
8
Black
10
178.74
20
-128.28
11
178.681
21
-128.328
0
LINE
8
Black
10
178.681
20
-128.328
11
178.665
21
-128.337
0
LINE
8
Black
10
178.665
20
-128.337
11
178.65
21
-128.346
0
LINE
8
Black
10
178.65
20
-128.346
11
178.532
21
-128.394
0
LINE
8
Black
10
178.532
20
-128.394
11
178.529
21
-128.394
0
LINE
8
Black
10
178.529
20
-128.394
11
178.528
21
-128.396
0
LINE
8
Black
10
178.528
20
-128.396
11
178.508
21
-128.399
0
LINE
8
Black
10
178.508
20
-128.399
11
178.489
21
-128.403
0
LINE
8
Black
10
178.489
20
-128.403
11
178.487
21
-128.403
0
LINE
8
Black
10
178.487
20
-128.403
11
178.485
21
-128.403
0
LINE
8
Black
10
178.485
20
-128.403
11
178.249
21
-128.403
0
LINE
8
Black
10
178.249
20
-128.403
11
178.246
21
-128.403
0
LINE
8
Black
10
178.246
20
-128.403
11
178.244
21
-128.403
0
LINE
8
Black
10
178.244
20
-128.403
11
178.225
21
-128.399
0
LINE
8
Black
10
178.225
20
-128.399
11
178.206
21
-128.396
0
LINE
8
Black
10
178.206
20
-128.396
11
178.204
21
-128.394
0
LINE
8
Black
10
178.204
20
-128.394
11
178.202
21
-128.394
0
LINE
8
Black
10
178.202
20
-128.394
11
178.084
21
-128.346
0
LINE
8
Black
10
178.084
20
-128.346
11
178.068
21
-128.337
0
LINE
8
Black
10
178.068
20
-128.337
11
178.052
21
-128.328
0
LINE
8
Black
10
178.052
20
-128.328
11
178.012
21
-128.296
0
LINE
8
Black
10
178.012
20
-128.296
11
177.973
21
-128.328
0
LINE
8
Black
10
177.973
20
-128.328
11
177.957
21
-128.337
0
LINE
8
Black
10
177.957
20
-128.337
11
177.941
21
-128.346
0
LINE
8
Black
10
177.941
20
-128.346
11
177.823
21
-128.394
0
LINE
8
Black
10
177.823
20
-128.394
11
177.821
21
-128.394
0
LINE
8
Black
10
177.821
20
-128.394
11
177.819
21
-128.396
0
LINE
8
Black
10
177.819
20
-128.396
11
177.8
21
-128.399
0
LINE
8
Black
10
177.8
20
-128.399
11
177.78
21
-128.403
0
LINE
8
Black
10
177.78
20
-128.403
11
177.778
21
-128.403
0
LINE
8
Black
10
177.778
20
-128.403
11
177.776
21
-128.403
0
LINE
8
Black
10
177.776
20
-128.403
11
177.717
21
-128.403
0
LINE
8
Black
10
177.717
20
-128.403
11
177.715
21
-128.403
0
LINE
8
Black
10
177.715
20
-128.403
11
177.713
21
-128.403
0
LINE
8
Black
10
177.713
20
-128.403
11
177.694
21
-128.399
0
LINE
8
Black
10
177.694
20
-128.399
11
177.674
21
-128.396
0
LINE
8
Black
10
177.674
20
-128.396
11
177.673
21
-128.394
0
LINE
8
Black
10
177.673
20
-128.394
11
177.67
21
-128.394
0
LINE
8
Black
10
177.67
20
-128.394
11
177.552
21
-128.346
0
LINE
8
Black
10
177.552
20
-128.346
11
177.537
21
-128.337
0
LINE
8
Black
10
177.537
20
-128.337
11
177.521
21
-128.328
0
LINE
8
Black
10
177.521
20
-128.328
11
177.462
21
-128.28
0
LINE
8
Black
10
177.462
20
-128.28
11
177.448
21
-128.264
0
LINE
8
Black
10
177.448
20
-128.264
11
177.434
21
-128.249
0
LINE
8
Black
10
177.434
20
-128.249
11
177.375
21
-128.153
0
LINE
8
Black
10
177.375
20
-128.153
11
177.37
21
-128.142
0
LINE
8
Black
10
177.37
20
-128.142
11
177.363
21
-128.13
0
LINE
8
Black
10
177.363
20
-128.13
11
177.362
21
-128.122
0
LINE
8
Black
10
177.362
20
-128.122
11
177.359
21
-128.113
0
LINE
8
Black
10
177.359
20
-128.113
11
177.358
21
-128.1
0
LINE
8
Black
10
177.358
20
-128.1
11
177.356
21
-128.088
0
LINE
8
Black
10
177.356
20
-128.088
11
177.356
21
-127.897
0
LINE
8
Black
10
177.356
20
-127.897
11
177.358
21
-127.884
0
LINE
8
Black
10
177.358
20
-127.884
11
177.359
21
-127.872
0
LINE
8
Black
10
177.359
20
-127.872
11
177.362
21
-127.863
0
LINE
8
Black
10
177.362
20
-127.863
11
177.363
21
-127.854
0
LINE
8
Black
10
177.363
20
-127.854
11
177.37
21
-127.843
0
LINE
8
Black
10
177.37
20
-127.843
11
177.375
21
-127.831
0
LINE
8
Black
10
177.375
20
-127.831
11
177.434
21
-127.736
0
LINE
8
Black
10
177.434
20
-127.736
11
177.448
21
-127.72
0
LINE
8
Black
10
177.448
20
-127.72
11
177.462
21
-127.705
0
LINE
8
Black
10
177.462
20
-127.705
11
177.521
21
-127.657
0
LINE
8
Black
10
177.521
20
-127.657
11
177.537
21
-127.648
0
LINE
8
Black
10
177.537
20
-127.648
11
177.552
21
-127.638
0
LINE
8
Black
10
177.552
20
-127.638
11
177.67
21
-127.591
0
LINE
8
Black
10
177.67
20
-127.591
11
177.673
21
-127.59
0
LINE
8
Black
10
177.673
20
-127.59
11
177.674
21
-127.589
0
LINE
8
Black
10
177.674
20
-127.589
11
177.694
21
-127.586
0
LINE
8
Black
10
177.694
20
-127.586
11
177.713
21
-127.582
0
LINE
8
Black
10
177.713
20
-127.582
11
177.715
21
-127.582
0
LINE
8
Black
10
177.715
20
-127.582
11
177.717
21
-127.582
0
LINE
8
Black
10
177.717
20
-127.582
11
177.776
21
-127.582
0
LINE
8
Black
10
177.776
20
-127.582
11
177.778
21
-127.582
0
LINE
8
Black
10
178.273
20
-127.832
11
178.194
21
-127.863
0
LINE
8
Black
10
178.194
20
-127.863
11
178.166
21
-127.886
0
LINE
8
Black
10
178.166
20
-127.886
11
178.137
21
-127.933
0
LINE
8
Black
10
178.137
20
-127.933
11
178.137
21
-128.052
0
LINE
8
Black
10
178.137
20
-128.052
11
178.166
21
-128.099
0
LINE
8
Black
10
178.166
20
-128.099
11
178.194
21
-128.122
0
LINE
8
Black
10
178.194
20
-128.122
11
178.273
21
-128.153
0
LINE
8
Black
10
178.273
20
-128.153
11
178.461
21
-128.153
0
LINE
8
Black
10
178.461
20
-128.153
11
178.539
21
-128.122
0
LINE
8
Black
10
178.539
20
-128.122
11
178.567
21
-128.099
0
LINE
8
Black
10
178.567
20
-128.099
11
178.596
21
-128.052
0
LINE
8
Black
10
178.596
20
-128.052
11
178.596
21
-127.933
0
LINE
8
Black
10
178.596
20
-127.933
11
178.567
21
-127.886
0
LINE
8
Black
10
178.567
20
-127.886
11
178.539
21
-127.863
0
LINE
8
Black
10
178.539
20
-127.863
11
178.461
21
-127.832
0
LINE
8
Black
10
178.461
20
-127.832
11
178.273
21
-127.832
0
LINE
8
Black
10
177.741
20
-127.832
11
177.663
21
-127.863
0
LINE
8
Black
10
177.663
20
-127.863
11
177.635
21
-127.886
0
LINE
8
Black
10
177.635
20
-127.886
11
177.606
21
-127.933
0
LINE
8
Black
10
177.606
20
-127.933
11
177.606
21
-128.052
0
LINE
8
Black
10
177.606
20
-128.052
11
177.635
21
-128.099
0
LINE
8
Black
10
177.635
20
-128.099
11
177.663
21
-128.122
0
LINE
8
Black
10
177.663
20
-128.122
11
177.741
21
-128.153
0
LINE
8
Black
10
177.741
20
-128.153
11
177.752
21
-128.153
0
LINE
8
Black
10
177.752
20
-128.153
11
177.83
21
-128.122
0
LINE
8
Black
10
177.83
20
-128.122
11
177.858
21
-128.099
0
LINE
8
Black
10
177.858
20
-128.099
11
177.887
21
-128.052
0
LINE
8
Black
10
177.887
20
-128.052
11
177.887
21
-127.933
0
LINE
8
Black
10
177.887
20
-127.933
11
177.858
21
-127.886
0
LINE
8
Black
10
177.858
20
-127.886
11
177.83
21
-127.863
0
LINE
8
Black
10
177.83
20
-127.863
11
177.752
21
-127.832
0
LINE
8
Black
10
177.752
20
-127.832
11
177.741
21
-127.832
0
LINE
8
Black
10
178.683
20
-127.109
11
178.702
21
-127.112
0
LINE
8
Black
10
178.702
20
-127.112
11
178.705
21
-127.113
0
LINE
8
Black
10
178.705
20
-127.113
11
178.707
21
-127.114
0
LINE
8
Black
10
178.707
20
-127.114
11
178.723
21
-127.124
0
LINE
8
Black
10
178.723
20
-127.124
11
178.74
21
-127.133
0
LINE
8
Black
10
178.74
20
-127.133
11
178.799
21
-127.181
0
LINE
8
Black
10
178.799
20
-127.181
11
178.8
21
-127.182
0
LINE
8
Black
10
178.8
20
-127.182
11
178.801
21
-127.182
0
LINE
8
Black
10
178.801
20
-127.182
11
178.802
21
-127.183
0
LINE
8
Black
10
178.802
20
-127.183
11
178.803
21
-127.184
0
LINE
8
Black
10
178.803
20
-127.184
11
178.815
21
-127.199
0
LINE
8
Black
10
178.815
20
-127.199
11
178.828
21
-127.214
0
LINE
8
Black
10
178.828
20
-127.214
11
178.828
21
-127.215
0
LINE
8
Black
10
178.828
20
-127.215
11
178.829
21
-127.216
0
LINE
8
Black
10
178.829
20
-127.216
11
178.83
21
-127.217
0
LINE
8
Black
10
178.83
20
-127.217
11
178.83
21
-127.218
0
LINE
8
Black
10
178.83
20
-127.218
11
178.837
21
-127.236
0
LINE
8
Black
10
178.837
20
-127.236
11
178.844
21
-127.254
0
LINE
8
Black
10
178.844
20
-127.254
11
178.844
21
-127.255
0
LINE
8
Black
10
178.844
20
-127.255
11
178.844
21
-127.256
0
LINE
8
Black
10
178.844
20
-127.256
11
178.844
21
-127.258
0
LINE
8
Black
10
178.844
20
-127.258
11
178.844
21
-127.259
0
LINE
8
Black
10
178.844
20
-127.259
11
178.844
21
-127.278
0
LINE
8
Black
10
178.844
20
-127.278
11
178.844
21
-127.297
0
LINE
8
Black
10
178.844
20
-127.297
11
178.844
21
-127.299
0
LINE
8
Black
10
178.844
20
-127.299
11
178.844
21
-127.3
0
LINE
8
Black
10
178.844
20
-127.3
11
178.844
21
-127.301
0
LINE
8
Black
10
178.844
20
-127.301
11
178.844
21
-127.302
0
LINE
8
Black
10
178.844
20
-127.302
11
178.837
21
-127.32
0
LINE
8
Black
10
178.837
20
-127.32
11
178.83
21
-127.338
0
LINE
8
Black
10
178.83
20
-127.338
11
178.83
21
-127.339
0
LINE
8
Black
10
178.83
20
-127.339
11
178.829
21
-127.341
0
LINE
8
Black
10
178.829
20
-127.341
11
178.828
21
-127.342
0
LINE
8
Black
10
178.828
20
-127.342
11
178.828
21
-127.343
0
LINE
8
Black
10
178.828
20
-127.343
11
178.815
21
-127.357
0
LINE
8
Black
10
178.815
20
-127.357
11
178.803
21
-127.372
0
LINE
8
Black
10
178.803
20
-127.372
11
178.802
21
-127.373
0
LINE
8
Black
10
178.802
20
-127.373
11
178.801
21
-127.374
0
LINE
8
Black
10
178.801
20
-127.374
11
178.8
21
-127.374
0
LINE
8
Black
10
178.8
20
-127.374
11
178.799
21
-127.375
0
LINE
8
Black
10
178.799
20
-127.375
11
178.74
21
-127.423
0
LINE
8
Black
10
178.74
20
-127.423
11
178.723
21
-127.432
0
LINE
8
Black
10
178.723
20
-127.432
11
178.707
21
-127.442
0
LINE
8
Black
10
178.707
20
-127.442
11
178.705
21
-127.443
0
LINE
8
Black
10
178.705
20
-127.443
11
178.702
21
-127.444
0
LINE
8
Black
10
178.702
20
-127.444
11
178.683
21
-127.447
0
LINE
8
Black
10
178.683
20
-127.447
11
178.664
21
-127.451
0
LINE
8
Black
10
178.664
20
-127.451
11
178.662
21
-127.45
0
LINE
8
Black
10
178.662
20
-127.45
11
178.659
21
-127.451
0
LINE
8
Black
10
178.659
20
-127.451
11
178.641
21
-127.447
0
LINE
8
Black
10
178.641
20
-127.447
11
178.621
21
-127.444
0
LINE
8
Black
10
178.621
20
-127.444
11
178.619
21
-127.443
0
LINE
8
Black
10
178.619
20
-127.443
11
178.617
21
-127.442
0
LINE
8
Black
10
178.617
20
-127.442
11
178.6
21
-127.432
0
LINE
8
Black
10
178.6
20
-127.432
11
178.583
21
-127.423
0
LINE
8
Black
10
178.583
20
-127.423
11
178.524
21
-127.375
0
LINE
8
Black
10
178.524
20
-127.375
11
178.524
21
-127.374
0
LINE
8
Black
10
178.524
20
-127.374
11
178.523
21
-127.374
0
LINE
8
Black
10
178.523
20
-127.374
11
178.522
21
-127.373
0
LINE
8
Black
10
178.522
20
-127.373
11
178.521
21
-127.372
0
LINE
8
Black
10
178.521
20
-127.372
11
178.509
21
-127.357
0
LINE
8
Black
10
178.509
20
-127.357
11
178.496
21
-127.343
0
LINE
8
Black
10
178.496
20
-127.343
11
178.495
21
-127.342
0
LINE
8
Black
10
178.495
20
-127.342
11
178.495
21
-127.341
0
LINE
8
Black
10
178.495
20
-127.341
11
178.494
21
-127.339
0
LINE
8
Black
10
178.494
20
-127.339
11
178.493
21
-127.338
0
LINE
8
Black
10
178.493
20
-127.338
11
178.487
21
-127.32
0
LINE
8
Black
10
178.487
20
-127.32
11
178.48
21
-127.302
0
LINE
8
Black
10
178.48
20
-127.302
11
178.48
21
-127.301
0
LINE
8
Black
10
178.48
20
-127.301
11
178.48
21
-127.3
0
LINE
8
Black
10
178.48
20
-127.3
11
178.48
21
-127.299
0
LINE
8
Black
10
178.48
20
-127.299
11
178.479
21
-127.297
0
LINE
8
Black
10
178.479
20
-127.297
11
178.48
21
-127.278
0
LINE
8
Black
10
178.48
20
-127.278
11
178.479
21
-127.259
0
LINE
8
Black
10
178.479
20
-127.259
11
178.48
21
-127.258
0
LINE
8
Black
10
178.48
20
-127.258
11
178.48
21
-127.256
0
LINE
8
Black
10
178.48
20
-127.256
11
178.48
21
-127.255
0
LINE
8
Black
10
178.48
20
-127.255
11
178.48
21
-127.254
0
LINE
8
Black
10
178.48
20
-127.254
11
178.487
21
-127.236
0
LINE
8
Black
10
178.487
20
-127.236
11
178.493
21
-127.218
0
LINE
8
Black
10
178.493
20
-127.218
11
178.494
21
-127.217
0
LINE
8
Black
10
178.494
20
-127.217
11
178.495
21
-127.216
0
LINE
8
Black
10
178.495
20
-127.216
11
178.495
21
-127.215
0
LINE
8
Black
10
178.495
20
-127.215
11
178.496
21
-127.213
0
LINE
8
Black
10
178.496
20
-127.213
11
178.509
21
-127.199
0
LINE
8
Black
10
178.509
20
-127.199
11
178.521
21
-127.184
0
LINE
8
Black
10
178.521
20
-127.184
11
178.522
21
-127.183
0
LINE
8
Black
10
178.522
20
-127.183
11
178.523
21
-127.182
0
LINE
8
Black
10
178.523
20
-127.182
11
178.524
21
-127.182
0
LINE
8
Black
10
178.524
20
-127.182
11
178.524
21
-127.181
0
LINE
8
Black
10
178.524
20
-127.181
11
178.583
21
-127.133
0
LINE
8
Black
10
178.583
20
-127.133
11
178.6
21
-127.124
0
LINE
8
Black
10
178.6
20
-127.124
11
178.617
21
-127.114
0
LINE
8
Black
10
178.617
20
-127.114
11
178.619
21
-127.113
0
LINE
8
Black
10
178.619
20
-127.113
11
178.621
21
-127.112
0
LINE
8
Black
10
178.621
20
-127.112
11
178.641
21
-127.109
0
LINE
8
Black
10
178.641
20
-127.109
11
178.659
21
-127.106
0
LINE
8
Black
10
178.659
20
-127.106
11
178.662
21
-127.106
0
LINE
8
Black
10
178.662
20
-127.106
11
178.664
21
-127.105
0
LINE
8
Black
10
178.664
20
-127.105
11
178.683
21
-127.109
0
LINE
8
Black
10
178.261
20
-126.155
11
178.273
21
-126.156
0
LINE
8
Black
10
178.273
20
-126.156
11
178.509
21
-126.203
0
LINE
8
Black
10
178.509
20
-126.203
11
178.52
21
-126.207
0
LINE
8
Black
10
178.52
20
-126.207
11
178.532
21
-126.21
0
LINE
8
Black
10
178.532
20
-126.21
11
178.65
21
-126.257
0
LINE
8
Black
10
178.65
20
-126.257
11
178.665
21
-126.267
0
LINE
8
Black
10
178.665
20
-126.267
11
178.681
21
-126.276
0
LINE
8
Black
10
178.681
20
-126.276
11
178.74
21
-126.324
0
LINE
8
Black
10
178.74
20
-126.324
11
178.754
21
-126.339
0
LINE
8
Black
10
178.754
20
-126.339
11
178.768
21
-126.355
0
LINE
8
Black
10
178.768
20
-126.355
11
178.827
21
-126.45
0
LINE
8
Black
10
178.827
20
-126.45
11
178.832
21
-126.462
0
LINE
8
Black
10
178.832
20
-126.462
11
178.838
21
-126.473
0
LINE
8
Black
10
178.838
20
-126.473
11
178.84
21
-126.482
0
LINE
8
Black
10
178.84
20
-126.482
11
178.843
21
-126.491
0
LINE
8
Black
10
178.843
20
-126.491
11
178.844
21
-126.504
0
LINE
8
Black
10
178.844
20
-126.504
11
178.846
21
-126.516
0
LINE
8
Black
10
178.846
20
-126.516
11
178.846
21
-126.611
0
LINE
8
Black
10
178.846
20
-126.611
11
178.844
21
-126.624
0
LINE
8
Black
10
178.844
20
-126.624
11
178.843
21
-126.637
0
LINE
8
Black
10
178.843
20
-126.637
11
178.84
21
-126.645
0
LINE
8
Black
10
178.84
20
-126.645
11
178.838
21
-126.654
0
LINE
8
Black
10
178.838
20
-126.654
11
178.832
21
-126.665
0
LINE
8
Black
10
178.832
20
-126.665
11
178.827
21
-126.677
0
LINE
8
Black
10
178.827
20
-126.677
11
178.768
21
-126.773
0
LINE
8
Black
10
178.768
20
-126.773
11
178.754
21
-126.788
0
LINE
8
Black
10
178.754
20
-126.788
11
178.74
21
-126.804
0
LINE
8
Black
10
178.74
20
-126.804
11
178.681
21
-126.852
0
LINE
8
Black
10
178.681
20
-126.852
11
178.665
21
-126.86
0
LINE
8
Black
10
178.665
20
-126.86
11
178.65
21
-126.87
0
LINE
8
Black
10
178.65
20
-126.87
11
178.532
21
-126.918
0
LINE
8
Black
10
178.532
20
-126.918
11
178.52
21
-126.92
0
LINE
8
Black
10
178.52
20
-126.92
11
178.509
21
-126.924
0
LINE
8
Black
10
178.509
20
-126.924
11
178.273
21
-126.972
0
LINE
8
Black
10
178.273
20
-126.972
11
178.261
21
-126.972
0
LINE
8
Black
10
178.261
20
-126.972
11
178.249
21
-126.975
0
LINE
8
Black
10
178.249
20
-126.975
11
177.953
21
-126.975
0
LINE
8
Black
10
177.953
20
-126.975
11
177.941
21
-126.972
0
LINE
8
Black
10
177.941
20
-126.972
11
177.929
21
-126.972
0
LINE
8
Black
10
177.929
20
-126.972
11
177.692
21
-126.924
0
LINE
8
Black
10
177.692
20
-126.924
11
177.682
21
-126.92
0
LINE
8
Black
10
177.682
20
-126.92
11
177.67
21
-126.918
0
LINE
8
Black
10
177.67
20
-126.918
11
177.552
21
-126.87
0
LINE
8
Black
10
177.552
20
-126.87
11
177.537
21
-126.86
0
LINE
8
Black
10
177.537
20
-126.86
11
177.521
21
-126.852
0
LINE
8
Black
10
177.521
20
-126.852
11
177.462
21
-126.804
0
LINE
8
Black
10
177.462
20
-126.804
11
177.448
21
-126.788
0
LINE
8
Black
10
177.448
20
-126.788
11
177.434
21
-126.773
0
LINE
8
Black
10
177.434
20
-126.773
11
177.375
21
-126.677
0
LINE
8
Black
10
177.375
20
-126.677
11
177.37
21
-126.665
0
LINE
8
Black
10
177.37
20
-126.665
11
177.363
21
-126.654
0
LINE
8
Black
10
177.363
20
-126.654
11
177.362
21
-126.645
0
LINE
8
Black
10
177.362
20
-126.645
11
177.359
21
-126.637
0
LINE
8
Black
10
177.359
20
-126.637
11
177.358
21
-126.624
0
LINE
8
Black
10
177.358
20
-126.624
11
177.356
21
-126.611
0
LINE
8
Black
10
177.356
20
-126.611
11
177.356
21
-126.516
0
LINE
8
Black
10
177.356
20
-126.516
11
177.358
21
-126.504
0
LINE
8
Black
10
177.358
20
-126.504
11
177.359
21
-126.491
0
LINE
8
Black
10
177.359
20
-126.491
11
177.362
21
-126.482
0
LINE
8
Black
10
177.362
20
-126.482
11
177.363
21
-126.473
0
LINE
8
Black
10
177.363
20
-126.473
11
177.37
21
-126.462
0
LINE
8
Black
10
177.37
20
-126.462
11
177.375
21
-126.45
0
LINE
8
Black
10
177.375
20
-126.45
11
177.434
21
-126.355
0
LINE
8
Black
10
177.434
20
-126.355
11
177.448
21
-126.339
0
LINE
8
Black
10
177.448
20
-126.339
11
177.462
21
-126.324
0
LINE
8
Black
10
177.462
20
-126.324
11
177.521
21
-126.276
0
LINE
8
Black
10
177.521
20
-126.276
11
177.537
21
-126.267
0
LINE
8
Black
10
177.537
20
-126.267
11
177.552
21
-126.257
0
LINE
8
Black
10
177.552
20
-126.257
11
177.67
21
-126.21
0
LINE
8
Black
10
177.67
20
-126.21
11
177.682
21
-126.207
0
LINE
8
Black
10
177.682
20
-126.207
11
177.692
21
-126.203
0
LINE
8
Black
10
177.692
20
-126.203
11
177.929
21
-126.156
0
LINE
8
Black
10
177.929
20
-126.156
11
177.941
21
-126.155
0
LINE
8
Black
10
177.941
20
-126.155
11
177.953
21
-126.153
0
LINE
8
Black
10
177.953
20
-126.153
11
178.249
21
-126.153
0
LINE
8
Black
10
178.249
20
-126.153
11
178.261
21
-126.155
0
LINE
8
Black
10
177.966
20
-126.403
11
177.753
21
-126.446
0
LINE
8
Black
10
177.753
20
-126.446
11
177.663
21
-126.482
0
LINE
8
Black
10
177.663
20
-126.482
11
177.635
21
-126.505
0
LINE
8
Black
10
177.635
20
-126.505
11
177.606
21
-126.552
0
LINE
8
Black
10
177.606
20
-126.552
11
177.606
21
-126.576
0
LINE
8
Black
10
177.606
20
-126.576
11
177.635
21
-126.623
0
LINE
8
Black
10
177.635
20
-126.623
11
177.663
21
-126.645
0
LINE
8
Black
10
177.663
20
-126.645
11
177.753
21
-126.682
0
LINE
8
Black
10
177.753
20
-126.682
11
177.966
21
-126.725
0
LINE
8
Black
10
177.966
20
-126.725
11
178.236
21
-126.725
0
LINE
8
Black
10
178.236
20
-126.725
11
178.449
21
-126.682
0
LINE
8
Black
10
178.449
20
-126.682
11
178.539
21
-126.645
0
LINE
8
Black
10
178.539
20
-126.645
11
178.567
21
-126.623
0
LINE
8
Black
10
178.567
20
-126.623
11
178.596
21
-126.576
0
LINE
8
Black
10
178.596
20
-126.576
11
178.596
21
-126.552
0
LINE
8
Black
10
178.596
20
-126.552
11
178.567
21
-126.505
0
LINE
8
Black
10
178.567
20
-126.505
11
178.539
21
-126.482
0
LINE
8
Black
10
178.539
20
-126.482
11
178.449
21
-126.446
0
LINE
8
Black
10
178.449
20
-126.446
11
178.236
21
-126.403
0
LINE
8
Black
10
178.236
20
-126.403
11
177.966
21
-126.403
0
LINE
8
Black
10
177.957
20
-124.741
11
177.99
21
-124.769
0
LINE
8
Black
10
177.99
20
-124.769
11
178.012
21
-124.807
0
LINE
8
Black
10
178.012
20
-124.807
11
178.019
21
-124.85
0
LINE
8
Black
10
178.019
20
-124.85
11
178.019
21
-124.867
0
LINE
8
Black
10
178.019
20
-124.867
11
178.544
21
-124.867
0
LINE
8
Black
10
178.544
20
-124.867
11
178.546
21
-124.868
0
LINE
8
Black
10
178.546
20
-124.868
11
178.548
21
-124.867
0
LINE
8
Black
10
178.548
20
-124.867
11
178.567
21
-124.872
0
LINE
8
Black
10
178.567
20
-124.872
11
178.587
21
-124.875
0
LINE
8
Black
10
178.587
20
-124.875
11
178.588
21
-124.876
0
LINE
8
Black
10
178.588
20
-124.876
11
178.591
21
-124.876
0
LINE
8
Black
10
178.591
20
-124.876
11
178.709
21
-124.924
0
LINE
8
Black
10
178.709
20
-124.924
11
178.724
21
-124.933
0
LINE
8
Black
10
178.724
20
-124.933
11
178.739
21
-124.942
0
LINE
8
Black
10
178.739
20
-124.942
11
178.742
21
-124.945
0
LINE
8
Black
10
178.742
20
-124.945
11
178.745
21
-124.947
0
LINE
8
Black
10
178.745
20
-124.947
11
178.756
21
-124.961
0
LINE
8
Black
10
178.756
20
-124.961
11
178.768
21
-124.974
0
LINE
8
Black
10
178.768
20
-124.974
11
178.827
21
-125.069
0
LINE
8
Black
10
178.827
20
-125.069
11
178.832
21
-125.081
0
LINE
8
Black
10
178.832
20
-125.081
11
178.838
21
-125.092
0
LINE
8
Black
10
178.838
20
-125.092
11
178.84
21
-125.101
0
LINE
8
Black
10
178.84
20
-125.101
11
178.843
21
-125.11
0
LINE
8
Black
10
178.843
20
-125.11
11
178.844
21
-125.123
0
LINE
8
Black
10
178.844
20
-125.123
11
178.846
21
-125.135
0
LINE
8
Black
10
178.846
20
-125.135
11
178.846
21
-125.23
0
LINE
8
Black
10
178.846
20
-125.23
11
178.838
21
-125.273
0
LINE
8
Black
10
178.838
20
-125.273
11
178.817
21
-125.311
0
LINE
8
Black
10
178.817
20
-125.311
11
178.783
21
-125.339
0
LINE
8
Black
10
178.783
20
-125.339
11
178.743
21
-125.354
0
LINE
8
Black
10
178.743
20
-125.354
11
178.699
21
-125.354
0
LINE
8
Black
10
178.699
20
-125.354
11
178.658
21
-125.339
0
LINE
8
Black
10
178.658
20
-125.339
11
178.625
21
-125.311
0
LINE
8
Black
10
178.625
20
-125.311
11
178.603
21
-125.273
0
LINE
8
Black
10
178.603
20
-125.273
11
178.596
21
-125.23
0
LINE
8
Black
10
178.596
20
-125.23
11
178.596
21
-125.171
0
LINE
8
Black
10
178.596
20
-125.171
11
178.577
21
-125.141
0
LINE
8
Black
10
178.577
20
-125.141
11
178.52
21
-125.117
0
LINE
8
Black
10
178.52
20
-125.117
11
178.019
21
-125.117
0
LINE
8
Black
10
178.019
20
-125.117
11
178.019
21
-125.23
0
LINE
8
Black
10
178.019
20
-125.23
11
178.012
21
-125.273
0
LINE
8
Black
10
178.012
20
-125.273
11
177.99
21
-125.311
0
LINE
8
Black
10
177.99
20
-125.311
11
177.957
21
-125.339
0
LINE
8
Black
10
177.957
20
-125.339
11
177.916
21
-125.354
0
LINE
8
Black
10
177.916
20
-125.354
11
177.873
21
-125.354
0
LINE
8
Black
10
177.873
20
-125.354
11
177.832
21
-125.339
0
LINE
8
Black
10
177.832
20
-125.339
11
177.799
21
-125.311
0
LINE
8
Black
10
177.799
20
-125.311
11
177.777
21
-125.273
0
LINE
8
Black
10
177.777
20
-125.273
11
177.769
21
-125.23
0
LINE
8
Black
10
177.769
20
-125.23
11
177.769
21
-125.117
0
LINE
8
Black
10
177.769
20
-125.117
11
177.481
21
-125.117
0
LINE
8
Black
10
177.481
20
-125.117
11
177.438
21
-125.11
0
LINE
8
Black
10
177.438
20
-125.11
11
177.401
21
-125.088
0
LINE
8
Black
10
177.401
20
-125.088
11
177.373
21
-125.055
0
LINE
8
Black
10
177.373
20
-125.055
11
177.358
21
-125.014
0
LINE
8
Black
10
177.358
20
-125.014
11
177.358
21
-124.971
0
LINE
8
Black
10
177.358
20
-124.971
11
177.373
21
-124.93
0
LINE
8
Black
10
177.373
20
-124.93
11
177.401
21
-124.897
0
LINE
8
Black
10
177.401
20
-124.897
11
177.438
21
-124.875
0
LINE
8
Black
10
177.438
20
-124.875
11
177.481
21
-124.867
0
LINE
8
Black
10
177.481
20
-124.867
11
177.769
21
-124.867
0
LINE
8
Black
10
177.769
20
-124.867
11
177.769
21
-124.85
0
LINE
8
Black
10
177.769
20
-124.85
11
177.777
21
-124.807
0
LINE
8
Black
10
177.777
20
-124.807
11
177.799
21
-124.769
0
LINE
8
Black
10
177.799
20
-124.769
11
177.832
21
-124.741
0
LINE
8
Black
10
177.832
20
-124.741
11
177.873
21
-124.726
0
LINE
8
Black
10
177.873
20
-124.726
11
177.916
21
-124.726
0
LINE
8
Black
10
177.916
20
-124.726
11
177.957
21
-124.741
0
LINE
8
Black
10
178.546
20
-123.963
11
178.548
21
-123.963
0
LINE
8
Black
10
178.548
20
-123.963
11
178.567
21
-123.967
0
LINE
8
Black
10
178.567
20
-123.967
11
178.587
21
-123.97
0
LINE
8
Black
10
178.587
20
-123.97
11
178.588
21
-123.971
0
LINE
8
Black
10
178.588
20
-123.971
11
178.591
21
-123.972
0
LINE
8
Black
10
178.591
20
-123.972
11
178.709
21
-124.019
0
LINE
8
Black
10
178.709
20
-124.019
11
178.724
21
-124.029
0
LINE
8
Black
10
178.724
20
-124.029
11
178.739
21
-124.037
0
LINE
8
Black
10
178.739
20
-124.037
11
178.742
21
-124.04
0
LINE
8
Black
10
178.742
20
-124.04
11
178.745
21
-124.042
0
LINE
8
Black
10
178.745
20
-124.042
11
178.756
21
-124.056
0
LINE
8
Black
10
178.756
20
-124.056
11
178.768
21
-124.069
0
LINE
8
Black
10
178.768
20
-124.069
11
178.827
21
-124.165
0
LINE
8
Black
10
178.827
20
-124.165
11
178.832
21
-124.177
0
LINE
8
Black
10
178.832
20
-124.177
11
178.838
21
-124.188
0
LINE
8
Black
10
178.838
20
-124.188
11
178.84
21
-124.197
0
LINE
8
Black
10
178.84
20
-124.197
11
178.843
21
-124.205
0
LINE
8
Black
10
178.843
20
-124.205
11
178.844
21
-124.218
0
LINE
8
Black
10
178.844
20
-124.218
11
178.846
21
-124.23
0
LINE
8
Black
10
178.846
20
-124.23
11
178.846
21
-124.421
0
LINE
8
Black
10
178.846
20
-124.421
11
178.844
21
-124.434
0
LINE
8
Black
10
178.844
20
-124.434
11
178.843
21
-124.447
0
LINE
8
Black
10
178.843
20
-124.447
11
178.84
21
-124.455
0
LINE
8
Black
10
178.84
20
-124.455
11
178.838
21
-124.464
0
LINE
8
Black
10
178.838
20
-124.464
11
178.832
21
-124.475
0
LINE
8
Black
10
178.832
20
-124.475
11
178.827
21
-124.487
0
LINE
8
Black
10
178.827
20
-124.487
11
178.768
21
-124.582
0
LINE
8
Black
10
178.768
20
-124.582
11
178.739
21
-124.614
0
LINE
8
Black
10
178.739
20
-124.614
11
178.701
21
-124.635
0
LINE
8
Black
10
178.701
20
-124.635
11
178.658
21
-124.641
0
LINE
8
Black
10
178.658
20
-124.641
11
178.615
21
-124.632
0
LINE
8
Black
10
178.615
20
-124.632
11
178.579
21
-124.609
0
LINE
8
Black
10
178.579
20
-124.609
11
178.552
21
-124.575
0
LINE
8
Black
10
178.552
20
-124.575
11
178.538
21
-124.534
0
LINE
8
Black
10
178.538
20
-124.534
11
178.54
21
-124.491
0
LINE
8
Black
10
178.54
20
-124.491
11
178.556
21
-124.45
0
LINE
8
Black
10
178.556
20
-124.45
11
178.596
21
-124.385
0
LINE
8
Black
10
178.596
20
-124.385
11
178.596
21
-124.266
0
LINE
8
Black
10
178.596
20
-124.266
11
178.577
21
-124.236
0
LINE
8
Black
10
178.577
20
-124.236
11
178.52
21
-124.213
0
LINE
8
Black
10
178.52
20
-124.213
11
178.405
21
-124.213
0
LINE
8
Black
10
178.405
20
-124.213
11
178.311
21
-124.594
0
LINE
8
Black
10
178.311
20
-124.594
11
178.304
21
-124.61
0
LINE
8
Black
10
178.304
20
-124.61
11
178.298
21
-124.626
0
LINE
8
Black
10
178.298
20
-124.626
11
178.295
21
-124.63
0
LINE
8
Black
10
178.295
20
-124.63
11
178.293
21
-124.634
0
LINE
8
Black
10
178.293
20
-124.634
11
178.281
21
-124.646
0
LINE
8
Black
10
178.281
20
-124.646
11
178.27
21
-124.66
0
LINE
8
Black
10
178.27
20
-124.66
11
178.266
21
-124.662
0
LINE
8
Black
10
178.266
20
-124.662
11
178.263
21
-124.665
0
LINE
8
Black
10
178.263
20
-124.665
11
178.247
21
-124.673
0
LINE
8
Black
10
178.247
20
-124.673
11
178.232
21
-124.681
0
LINE
8
Black
10
178.232
20
-124.681
11
178.228
21
-124.682
0
LINE
8
Black
10
178.228
20
-124.682
11
178.224
21
-124.684
0
LINE
8
Black
10
178.224
20
-124.684
11
178.207
21
-124.686
0
LINE
8
Black
10
178.207
20
-124.686
11
178.19
21
-124.689
0
LINE
8
Black
10
178.19
20
-124.689
11
178.071
21
-124.689
0
LINE
8
Black
10
178.071
20
-124.689
11
178.069
21
-124.688
0
LINE
8
Black
10
178.069
20
-124.688
11
178.067
21
-124.689
0
LINE
8
Black
10
178.067
20
-124.689
11
178.048
21
-124.685
0
LINE
8
Black
10
178.048
20
-124.685
11
178.029
21
-124.681
0
LINE
8
Black
10
178.029
20
-124.681
11
178.027
21
-124.68
0
LINE
8
Black
10
178.027
20
-124.68
11
178.025
21
-124.68
0
LINE
8
Black
10
178.025
20
-124.68
11
177.907
21
-124.632
0
LINE
8
Black
10
177.907
20
-124.632
11
177.892
21
-124.623
0
LINE
8
Black
10
177.892
20
-124.623
11
177.876
21
-124.614
0
LINE
8
Black
10
177.876
20
-124.614
11
177.873
21
-124.611
0
LINE
8
Black
10
177.873
20
-124.611
11
177.87
21
-124.609
0
LINE
8
Black
10
177.87
20
-124.609
11
177.859
21
-124.595
0
LINE
8
Black
10
177.859
20
-124.595
11
177.847
21
-124.582
0
LINE
8
Black
10
177.847
20
-124.582
11
177.788
21
-124.487
0
LINE
8
Black
10
177.788
20
-124.487
11
177.783
21
-124.475
0
LINE
8
Black
10
177.783
20
-124.475
11
177.777
21
-124.464
0
LINE
8
Black
10
177.777
20
-124.464
11
177.775
21
-124.455
0
LINE
8
Black
10
177.775
20
-124.455
11
177.772
21
-124.447
0
LINE
8
Black
10
177.772
20
-124.447
11
177.772
21
-124.434
0
LINE
8
Black
10
177.772
20
-124.434
11
177.769
21
-124.421
0
LINE
8
Black
10
177.769
20
-124.421
11
177.769
21
-124.23
0
LINE
8
Black
10
177.769
20
-124.23
11
177.772
21
-124.218
0
LINE
8
Black
10
177.772
20
-124.218
11
177.772
21
-124.205
0
LINE
8
Black
10
177.772
20
-124.205
11
177.775
21
-124.197
0
LINE
8
Black
10
177.775
20
-124.197
11
177.777
21
-124.188
0
LINE
8
Black
10
177.777
20
-124.188
11
177.783
21
-124.177
0
LINE
8
Black
10
177.783
20
-124.177
11
177.788
21
-124.165
0
LINE
8
Black
10
177.788
20
-124.165
11
177.847
21
-124.069
0
LINE
8
Black
10
177.847
20
-124.069
11
177.859
21
-124.056
0
LINE
8
Black
10
177.859
20
-124.056
11
177.87
21
-124.042
0
LINE
8
Black
10
177.87
20
-124.042
11
177.873
21
-124.04
0
LINE
8
Black
10
177.873
20
-124.04
11
177.876
21
-124.037
0
LINE
8
Black
10
177.876
20
-124.037
11
177.892
21
-124.029
0
LINE
8
Black
10
177.892
20
-124.029
11
177.907
21
-124.019
0
LINE
8
Black
10
177.907
20
-124.019
11
178.025
21
-123.972
0
LINE
8
Black
10
178.025
20
-123.972
11
178.027
21
-123.971
0
LINE
8
Black
10
178.027
20
-123.971
11
178.029
21
-123.97
0
LINE
8
Black
10
178.029
20
-123.97
11
178.048
21
-123.967
0
LINE
8
Black
10
178.048
20
-123.967
11
178.067
21
-123.963
0
LINE
8
Black
10
178.067
20
-123.963
11
178.069
21
-123.963
0
LINE
8
Black
10
178.069
20
-123.963
11
178.071
21
-123.963
0
LINE
8
Black
10
178.071
20
-123.963
11
178.544
21
-123.963
0
LINE
8
Black
10
178.544
20
-123.963
11
178.546
21
-123.963
0
LINE
8
Black
10
178.096
20
-124.213
11
178.038
21
-124.236
0
LINE
8
Black
10
178.038
20
-124.236
11
178.019
21
-124.266
0
LINE
8
Black
10
178.019
20
-124.266
11
178.019
21
-124.385
0
LINE
8
Black
10
178.019
20
-124.385
11
178.038
21
-124.416
0
LINE
8
Black
10
178.038
20
-124.416
11
178.092
21
-124.437
0
LINE
8
Black
10
178.092
20
-124.437
11
178.148
21
-124.213
0
LINE
8
Black
10
178.148
20
-124.213
11
178.096
21
-124.213
0
LINE
8
Black
10
178.546
20
-123.106
11
178.548
21
-123.106
0
LINE
8
Black
10
178.548
20
-123.106
11
178.567
21
-123.11
0
LINE
8
Black
10
178.567
20
-123.11
11
178.587
21
-123.113
0
LINE
8
Black
10
178.587
20
-123.113
11
178.588
21
-123.114
0
LINE
8
Black
10
178.588
20
-123.114
11
178.591
21
-123.115
0
LINE
8
Black
10
178.591
20
-123.115
11
178.709
21
-123.162
0
LINE
8
Black
10
178.709
20
-123.162
11
178.724
21
-123.172
0
LINE
8
Black
10
178.724
20
-123.172
11
178.739
21
-123.18
0
LINE
8
Black
10
178.739
20
-123.18
11
178.742
21
-123.183
0
LINE
8
Black
10
178.742
20
-123.183
11
178.745
21
-123.185
0
LINE
8
Black
10
178.745
20
-123.185
11
178.756
21
-123.199
0
LINE
8
Black
10
178.756
20
-123.199
11
178.768
21
-123.212
0
LINE
8
Black
10
178.768
20
-123.212
11
178.827
21
-123.307
0
LINE
8
Black
10
178.827
20
-123.307
11
178.832
21
-123.319
0
LINE
8
Black
10
178.832
20
-123.319
11
178.838
21
-123.331
0
LINE
8
Black
10
178.838
20
-123.331
11
178.84
21
-123.339
0
LINE
8
Black
10
178.84
20
-123.339
11
178.843
21
-123.348
0
LINE
8
Black
10
178.843
20
-123.348
11
178.844
21
-123.361
0
LINE
8
Black
10
178.844
20
-123.361
11
178.846
21
-123.373
0
LINE
8
Black
10
178.846
20
-123.373
11
178.846
21
-123.516
0
LINE
8
Black
10
178.846
20
-123.516
11
178.844
21
-123.529
0
LINE
8
Black
10
178.844
20
-123.529
11
178.843
21
-123.542
0
LINE
8
Black
10
178.843
20
-123.542
11
178.84
21
-123.55
0
LINE
8
Black
10
178.84
20
-123.55
11
178.838
21
-123.559
0
LINE
8
Black
10
178.838
20
-123.559
11
178.832
21
-123.57
0
LINE
8
Black
10
178.832
20
-123.57
11
178.827
21
-123.582
0
LINE
8
Black
10
178.827
20
-123.582
11
178.823
21
-123.589
0
LINE
8
Black
10
178.823
20
-123.589
11
178.829
21
-123.597
0
LINE
8
Black
10
178.829
20
-123.597
11
178.844
21
-123.637
0
LINE
8
Black
10
178.844
20
-123.637
11
178.844
21
-123.681
0
LINE
8
Black
10
178.844
20
-123.681
11
178.829
21
-123.722
0
LINE
8
Black
10
178.829
20
-123.722
11
178.801
21
-123.755
0
LINE
8
Black
10
178.801
20
-123.755
11
178.764
21
-123.777
0
LINE
8
Black
10
178.764
20
-123.777
11
178.721
21
-123.784
0
LINE
8
Black
10
178.721
20
-123.784
11
177.894
21
-123.784
0
LINE
8
Black
10
177.894
20
-123.784
11
177.852
21
-123.777
0
LINE
8
Black
10
177.852
20
-123.777
11
177.814
21
-123.755
0
LINE
8
Black
10
177.814
20
-123.755
11
177.786
21
-123.722
0
LINE
8
Black
10
177.786
20
-123.722
11
177.771
21
-123.681
0
LINE
8
Black
10
177.771
20
-123.681
11
177.771
21
-123.637
0
LINE
8
Black
10
177.771
20
-123.637
11
177.786
21
-123.597
0
LINE
8
Black
10
177.786
20
-123.597
11
177.814
21
-123.563
0
LINE
8
Black
10
177.814
20
-123.563
11
177.852
21
-123.542
0
LINE
8
Black
10
177.852
20
-123.542
11
177.894
21
-123.534
0
LINE
8
Black
10
177.894
20
-123.534
11
178.559
21
-123.534
0
LINE
8
Black
10
178.559
20
-123.534
11
178.567
21
-123.527
0
LINE
8
Black
10
178.567
20
-123.527
11
178.596
21
-123.481
0
LINE
8
Black
10
178.596
20
-123.481
11
178.596
21
-123.409
0
LINE
8
Black
10
178.596
20
-123.409
11
178.577
21
-123.379
0
LINE
8
Black
10
178.577
20
-123.379
11
178.52
21
-123.355
0
LINE
8
Black
10
178.52
20
-123.355
11
177.894
21
-123.355
0
LINE
8
Black
10
177.894
20
-123.355
11
177.852
21
-123.348
0
LINE
8
Black
10
177.852
20
-123.348
11
177.814
21
-123.326
0
LINE
8
Black
10
177.814
20
-123.326
11
177.786
21
-123.293
0
LINE
8
Black
10
177.786
20
-123.293
11
177.771
21
-123.252
0
LINE
8
Black
10
177.771
20
-123.252
11
177.771
21
-123.209
0
LINE
8
Black
10
177.771
20
-123.209
11
177.786
21
-123.168
0
LINE
8
Black
10
177.786
20
-123.168
11
177.814
21
-123.135
0
LINE
8
Black
10
177.814
20
-123.135
11
177.852
21
-123.113
0
LINE
8
Black
10
177.852
20
-123.113
11
177.894
21
-123.105
0
LINE
8
Black
10
177.894
20
-123.105
11
178.544
21
-123.105
0
LINE
8
Black
10
178.544
20
-123.105
11
178.546
21
-123.106
0
LINE
8
Black
10
178.732
20
-122.107
11
178.743
21
-122.107
0
LINE
8
Black
10
178.743
20
-122.107
11
178.753
21
-122.111
0
LINE
8
Black
10
178.753
20
-122.111
11
178.764
21
-122.113
0
LINE
8
Black
10
178.764
20
-122.113
11
178.773
21
-122.118
0
LINE
8
Black
10
178.773
20
-122.118
11
178.783
21
-122.122
0
LINE
8
Black
10
178.783
20
-122.122
11
178.792
21
-122.129
0
LINE
8
Black
10
178.792
20
-122.129
11
178.801
21
-122.135
0
LINE
8
Black
10
178.801
20
-122.135
11
178.808
21
-122.143
0
LINE
8
Black
10
178.808
20
-122.143
11
178.817
21
-122.15
0
LINE
8
Black
10
178.817
20
-122.15
11
178.822
21
-122.16
0
LINE
8
Black
10
178.822
20
-122.16
11
178.829
21
-122.168
0
LINE
8
Black
10
178.829
20
-122.168
11
178.833
21
-122.178
0
LINE
8
Black
10
178.833
20
-122.178
11
178.838
21
-122.188
0
LINE
8
Black
10
178.838
20
-122.188
11
178.84
21
-122.198
0
LINE
8
Black
10
178.84
20
-122.198
11
178.844
21
-122.209
0
LINE
8
Black
10
178.844
20
-122.209
11
178.844
21
-122.22
0
LINE
8
Black
10
178.844
20
-122.22
11
178.846
21
-122.23
0
LINE
8
Black
10
178.846
20
-122.23
11
178.846
21
-122.469
0
LINE
8
Black
10
178.846
20
-122.469
11
178.845
21
-122.471
0
LINE
8
Black
10
178.845
20
-122.471
11
178.846
21
-122.474
0
LINE
8
Black
10
178.846
20
-122.474
11
178.842
21
-122.493
0
LINE
8
Black
10
178.842
20
-122.493
11
178.838
21
-122.511
0
LINE
8
Black
10
178.838
20
-122.511
11
178.837
21
-122.514
0
LINE
8
Black
10
178.837
20
-122.514
11
178.836
21
-122.516
0
LINE
8
Black
10
178.836
20
-122.516
11
178.777
21
-122.659
0
LINE
8
Black
10
178.777
20
-122.659
11
178.772
21
-122.667
0
LINE
8
Black
10
178.772
20
-122.667
11
178.769
21
-122.676
0
LINE
8
Black
10
178.769
20
-122.676
11
178.761
21
-122.685
0
LINE
8
Black
10
178.761
20
-122.685
11
178.754
21
-122.696
0
LINE
8
Black
10
178.754
20
-122.696
11
178.747
21
-122.702
0
LINE
8
Black
10
178.747
20
-122.702
11
178.74
21
-122.709
0
LINE
8
Black
10
178.74
20
-122.709
11
178.622
21
-122.804
0
LINE
8
Black
10
178.622
20
-122.804
11
178.606
21
-122.813
0
LINE
8
Black
10
178.606
20
-122.813
11
178.591
21
-122.823
0
LINE
8
Black
10
178.591
20
-122.823
11
178.472
21
-122.87
0
LINE
8
Black
10
178.472
20
-122.87
11
178.461
21
-122.873
0
LINE
8
Black
10
178.461
20
-122.873
11
178.45
21
-122.877
0
LINE
8
Black
10
178.45
20
-122.877
11
178.214
21
-122.924
0
LINE
8
Black
10
178.214
20
-122.924
11
178.202
21
-122.925
0
LINE
8
Black
10
178.202
20
-122.925
11
178.19
21
-122.927
0
LINE
8
Black
10
178.19
20
-122.927
11
178.012
21
-122.927
0
LINE
8
Black
10
178.012
20
-122.927
11
178
21
-122.925
0
LINE
8
Black
10
178
20
-122.925
11
177.988
21
-122.924
0
LINE
8
Black
10
177.988
20
-122.924
11
177.751
21
-122.877
0
LINE
8
Black
10
177.751
20
-122.877
11
177.741
21
-122.873
0
LINE
8
Black
10
177.741
20
-122.873
11
177.729
21
-122.87
0
LINE
8
Black
10
177.729
20
-122.87
11
177.611
21
-122.823
0
LINE
8
Black
10
177.611
20
-122.823
11
177.596
21
-122.813
0
LINE
8
Black
10
177.596
20
-122.813
11
177.58
21
-122.804
0
LINE
8
Black
10
177.58
20
-122.804
11
177.462
21
-122.709
0
LINE
8
Black
10
177.462
20
-122.709
11
177.455
21
-122.702
0
LINE
8
Black
10
177.455
20
-122.702
11
177.448
21
-122.696
0
LINE
8
Black
10
177.448
20
-122.696
11
177.441
21
-122.685
0
LINE
8
Black
10
177.441
20
-122.685
11
177.433
21
-122.676
0
LINE
8
Black
10
177.433
20
-122.676
11
177.43
21
-122.667
0
LINE
8
Black
10
177.43
20
-122.667
11
177.424
21
-122.659
0
LINE
8
Black
10
177.424
20
-122.659
11
177.365
21
-122.516
0
LINE
8
Black
10
177.365
20
-122.516
11
177.365
21
-122.514
0
LINE
8
Black
10
177.365
20
-122.514
11
177.363
21
-122.511
0
LINE
8
Black
10
177.363
20
-122.511
11
177.36
21
-122.493
0
LINE
8
Black
10
177.36
20
-122.493
11
177.356
21
-122.474
0
LINE
8
Black
10
177.356
20
-122.474
11
177.356
21
-122.471
0
LINE
8
Black
10
177.356
20
-122.471
11
177.356
21
-122.469
0
LINE
8
Black
10
177.356
20
-122.469
11
177.356
21
-122.23
0
LINE
8
Black
10
177.356
20
-122.23
11
177.358
21
-122.22
0
LINE
8
Black
10
177.358
20
-122.22
11
177.358
21
-122.209
0
LINE
8
Black
10
177.358
20
-122.209
11
177.362
21
-122.198
0
LINE
8
Black
10
177.362
20
-122.198
11
177.363
21
-122.188
0
LINE
8
Black
10
177.363
20
-122.188
11
177.369
21
-122.178
0
LINE
8
Black
10
177.369
20
-122.178
11
177.373
21
-122.168
0
LINE
8
Black
10
177.373
20
-122.168
11
177.38
21
-122.16
0
LINE
8
Black
10
177.38
20
-122.16
11
177.385
21
-122.15
0
LINE
8
Black
10
177.385
20
-122.15
11
177.394
21
-122.143
0
LINE
8
Black
10
177.394
20
-122.143
11
177.401
21
-122.135
0
LINE
8
Black
10
177.401
20
-122.135
11
177.41
21
-122.129
0
LINE
8
Black
10
177.41
20
-122.129
11
177.418
21
-122.122
0
LINE
8
Black
10
177.418
20
-122.122
11
177.429
21
-122.118
0
LINE
8
Black
10
177.429
20
-122.118
11
177.438
21
-122.113
0
LINE
8
Black
10
177.438
20
-122.113
11
177.449
21
-122.111
0
LINE
8
Black
10
177.449
20
-122.111
11
177.459
21
-122.107
0
LINE
8
Black
10
177.459
20
-122.107
11
177.47
21
-122.107
0
LINE
8
Black
10
177.47
20
-122.107
11
177.481
21
-122.105
0
LINE
8
Black
10
177.481
20
-122.105
11
178.721
21
-122.105
0
LINE
8
Black
10
178.721
20
-122.105
11
178.732
21
-122.107
0
LINE
8
Black
10
177.606
20
-122.355
11
177.606
21
-122.444
0
LINE
8
Black
10
177.606
20
-122.444
11
177.643
21
-122.534
0
LINE
8
Black
10
177.643
20
-122.534
11
177.722
21
-122.598
0
LINE
8
Black
10
177.722
20
-122.598
11
177.812
21
-122.634
0
LINE
8
Black
10
177.812
20
-122.634
11
178.025
21
-122.677
0
LINE
8
Black
10
178.025
20
-122.677
11
178.177
21
-122.677
0
LINE
8
Black
10
178.177
20
-122.677
11
178.39
21
-122.634
0
LINE
8
Black
10
178.39
20
-122.634
11
178.48
21
-122.598
0
LINE
8
Black
10
178.48
20
-122.598
11
178.559
21
-122.534
0
LINE
8
Black
10
178.559
20
-122.534
11
178.596
21
-122.444
0
LINE
8
Black
10
178.596
20
-122.444
11
178.596
21
-122.355
0
LINE
8
Black
10
178.596
20
-122.355
11
177.606
21
-122.355
0
LINE
8
Black
10
178.683
20
-120.824
11
178.702
21
-120.826
0
LINE
8
Black
10
178.702
20
-120.826
11
178.705
21
-120.828
0
LINE
8
Black
10
178.705
20
-120.828
11
178.707
21
-120.828
0
LINE
8
Black
10
178.707
20
-120.828
11
178.723
21
-120.838
0
LINE
8
Black
10
178.723
20
-120.838
11
178.74
21
-120.847
0
LINE
8
Black
10
178.74
20
-120.847
11
178.799
21
-120.895
0
LINE
8
Black
10
178.799
20
-120.895
11
178.8
21
-120.896
0
LINE
8
Black
10
178.8
20
-120.896
11
178.801
21
-120.897
0
LINE
8
Black
10
178.801
20
-120.897
11
178.802
21
-120.898
0
LINE
8
Black
10
178.802
20
-120.898
11
178.803
21
-120.898
0
LINE
8
Black
10
178.803
20
-120.898
11
178.815
21
-120.913
0
LINE
8
Black
10
178.815
20
-120.913
11
178.828
21
-120.928
0
LINE
8
Black
10
178.828
20
-120.928
11
178.828
21
-120.929
0
LINE
8
Black
10
178.828
20
-120.929
11
178.829
21
-120.93
0
LINE
8
Black
10
178.829
20
-120.93
11
178.83
21
-120.931
0
LINE
8
Black
10
178.83
20
-120.931
11
178.83
21
-120.932
0
LINE
8
Black
10
178.83
20
-120.932
11
178.837
21
-120.95
0
LINE
8
Black
10
178.837
20
-120.95
11
178.844
21
-120.968
0
LINE
8
Black
10
178.844
20
-120.968
11
178.844
21
-120.97
0
LINE
8
Black
10
178.844
20
-120.97
11
178.844
21
-120.971
0
LINE
8
Black
10
178.844
20
-120.971
11
178.844
21
-120.972
0
LINE
8
Black
10
178.844
20
-120.972
11
178.844
21
-120.973
0
LINE
8
Black
10
178.844
20
-120.973
11
178.844
21
-120.992
0
LINE
8
Black
10
178.844
20
-120.992
11
178.844
21
-121.012
0
LINE
8
Black
10
178.844
20
-121.012
11
178.844
21
-121.013
0
LINE
8
Black
10
178.844
20
-121.013
11
178.844
21
-121.014
0
LINE
8
Black
10
178.844
20
-121.014
11
178.844
21
-121.015
0
LINE
8
Black
10
178.844
20
-121.015
11
178.844
21
-121.016
0
LINE
8
Black
10
178.844
20
-121.016
11
178.837
21
-121.035
0
LINE
8
Black
10
178.837
20
-121.035
11
178.83
21
-121.053
0
LINE
8
Black
10
178.83
20
-121.053
11
178.83
21
-121.054
0
LINE
8
Black
10
178.83
20
-121.054
11
178.829
21
-121.055
0
LINE
8
Black
10
178.829
20
-121.055
11
178.828
21
-121.056
0
LINE
8
Black
10
178.828
20
-121.056
11
178.828
21
-121.057
0
LINE
8
Black
10
178.828
20
-121.057
11
178.815
21
-121.072
0
LINE
8
Black
10
178.815
20
-121.072
11
178.803
21
-121.087
0
LINE
8
Black
10
178.803
20
-121.087
11
178.802
21
-121.087
0
LINE
8
Black
10
178.802
20
-121.087
11
178.801
21
-121.088
0
LINE
8
Black
10
178.801
20
-121.088
11
178.8
21
-121.089
0
LINE
8
Black
10
178.8
20
-121.089
11
178.799
21
-121.09
0
LINE
8
Black
10
178.799
20
-121.09
11
178.74
21
-121.137
0
LINE
8
Black
10
178.74
20
-121.137
11
178.723
21
-121.147
0
LINE
8
Black
10
178.723
20
-121.147
11
178.707
21
-121.157
0
LINE
8
Black
10
178.707
20
-121.157
11
178.705
21
-121.157
0
LINE
8
Black
10
178.705
20
-121.157
11
178.702
21
-121.158
0
LINE
8
Black
10
178.702
20
-121.158
11
178.683
21
-121.161
0
LINE
8
Black
10
178.683
20
-121.161
11
178.664
21
-121.165
0
LINE
8
Black
10
178.664
20
-121.165
11
178.662
21
-121.165
0
LINE
8
Black
10
178.662
20
-121.165
11
178.659
21
-121.165
0
LINE
8
Black
10
178.659
20
-121.165
11
178.641
21
-121.161
0
LINE
8
Black
10
178.641
20
-121.161
11
178.621
21
-121.158
0
LINE
8
Black
10
178.621
20
-121.158
11
178.619
21
-121.157
0
LINE
8
Black
10
178.619
20
-121.157
11
178.617
21
-121.157
0
LINE
8
Black
10
178.617
20
-121.157
11
178.6
21
-121.147
0
LINE
8
Black
10
178.6
20
-121.147
11
178.583
21
-121.137
0
LINE
8
Black
10
178.583
20
-121.137
11
178.524
21
-121.09
0
LINE
8
Black
10
178.524
20
-121.09
11
178.524
21
-121.089
0
LINE
8
Black
10
178.524
20
-121.089
11
178.523
21
-121.088
0
LINE
8
Black
10
178.523
20
-121.088
11
178.522
21
-121.087
0
LINE
8
Black
10
178.522
20
-121.087
11
178.521
21
-121.087
0
LINE
8
Black
10
178.521
20
-121.087
11
178.509
21
-121.072
0
LINE
8
Black
10
178.509
20
-121.072
11
178.496
21
-121.057
0
LINE
8
Black
10
178.496
20
-121.057
11
178.495
21
-121.056
0
LINE
8
Black
10
178.495
20
-121.056
11
178.495
21
-121.055
0
LINE
8
Black
10
178.495
20
-121.055
11
178.494
21
-121.054
0
LINE
8
Black
10
178.494
20
-121.054
11
178.493
21
-121.053
0
LINE
8
Black
10
178.493
20
-121.053
11
178.487
21
-121.034
0
LINE
8
Black
10
178.487
20
-121.034
11
178.48
21
-121.016
0
LINE
8
Black
10
178.48
20
-121.016
11
178.48
21
-121.015
0
LINE
8
Black
10
178.48
20
-121.015
11
178.48
21
-121.014
0
LINE
8
Black
10
178.48
20
-121.014
11
178.48
21
-121.013
0
LINE
8
Black
10
178.48
20
-121.013
11
178.479
21
-121.012
0
LINE
8
Black
10
178.479
20
-121.012
11
178.48
21
-120.992
0
LINE
8
Black
10
178.48
20
-120.992
11
178.479
21
-120.973
0
LINE
8
Black
10
178.479
20
-120.973
11
178.48
21
-120.972
0
LINE
8
Black
10
178.48
20
-120.972
11
178.48
21
-120.971
0
LINE
8
Black
10
178.48
20
-120.971
11
178.48
21
-120.97
0
LINE
8
Black
10
178.48
20
-120.97
11
178.48
21
-120.968
0
LINE
8
Black
10
178.48
20
-120.968
11
178.487
21
-120.95
0
LINE
8
Black
10
178.487
20
-120.95
11
178.493
21
-120.932
0
LINE
8
Black
10
178.493
20
-120.932
11
178.494
21
-120.931
0
LINE
8
Black
10
178.494
20
-120.931
11
178.495
21
-120.93
0
LINE
8
Black
10
178.495
20
-120.93
11
178.495
21
-120.929
0
LINE
8
Black
10
178.495
20
-120.929
11
178.496
21
-120.928
0
LINE
8
Black
10
178.496
20
-120.928
11
178.509
21
-120.913
0
LINE
8
Black
10
178.509
20
-120.913
11
178.521
21
-120.898
0
LINE
8
Black
10
178.521
20
-120.898
11
178.522
21
-120.898
0
LINE
8
Black
10
178.522
20
-120.898
11
178.523
21
-120.897
0
LINE
8
Black
10
178.523
20
-120.897
11
178.524
21
-120.896
0
LINE
8
Black
10
178.524
20
-120.896
11
178.524
21
-120.895
0
LINE
8
Black
10
178.524
20
-120.895
11
178.583
21
-120.847
0
LINE
8
Black
10
178.583
20
-120.847
11
178.6
21
-120.838
0
LINE
8
Black
10
178.6
20
-120.838
11
178.617
21
-120.828
0
LINE
8
Black
10
178.617
20
-120.828
11
178.619
21
-120.828
0
LINE
8
Black
10
178.619
20
-120.828
11
178.621
21
-120.826
0
LINE
8
Black
10
178.621
20
-120.826
11
178.641
21
-120.824
0
LINE
8
Black
10
178.641
20
-120.824
11
178.659
21
-120.82
0
LINE
8
Black
10
178.659
20
-120.82
11
178.662
21
-120.82
0
LINE
8
Black
10
178.662
20
-120.82
11
178.664
21
-120.82
0
LINE
8
Black
10
178.664
20
-120.82
11
178.683
21
-120.824
0
LINE
8
Black
10
178.034
20
-120.824
11
178.053
21
-120.826
0
LINE
8
Black
10
178.053
20
-120.826
11
178.055
21
-120.828
0
LINE
8
Black
10
178.055
20
-120.828
11
178.057
21
-120.828
0
LINE
8
Black
10
178.057
20
-120.828
11
178.074
21
-120.838
0
LINE
8
Black
10
178.074
20
-120.838
11
178.091
21
-120.847
0
LINE
8
Black
10
178.091
20
-120.847
11
178.15
21
-120.895
0
LINE
8
Black
10
178.15
20
-120.895
11
178.151
21
-120.896
0
LINE
8
Black
10
178.151
20
-120.896
11
178.152
21
-120.897
0
LINE
8
Black
10
178.152
20
-120.897
11
178.153
21
-120.898
0
LINE
8
Black
10
178.153
20
-120.898
11
178.154
21
-120.898
0
LINE
8
Black
10
178.154
20
-120.898
11
178.166
21
-120.913
0
LINE
8
Black
10
178.166
20
-120.913
11
178.178
21
-120.928
0
LINE
8
Black
10
178.178
20
-120.928
11
178.179
21
-120.929
0
LINE
8
Black
10
178.179
20
-120.929
11
178.18
21
-120.93
0
LINE
8
Black
10
178.18
20
-120.93
11
178.18
21
-120.931
0
LINE
8
Black
10
178.18
20
-120.931
11
178.181
21
-120.932
0
LINE
8
Black
10
178.181
20
-120.932
11
178.187
21
-120.95
0
LINE
8
Black
10
178.187
20
-120.95
11
178.194
21
-120.968
0
LINE
8
Black
10
178.194
20
-120.968
11
178.194
21
-120.97
0
LINE
8
Black
10
178.194
20
-120.97
11
178.195
21
-120.971
0
LINE
8
Black
10
178.195
20
-120.971
11
178.195
21
-120.972
0
LINE
8
Black
10
178.195
20
-120.972
11
178.195
21
-120.973
0
LINE
8
Black
10
178.195
20
-120.973
11
178.195
21
-120.992
0
LINE
8
Black
10
178.195
20
-120.992
11
178.195
21
-121.012
0
LINE
8
Black
10
178.195
20
-121.012
11
178.195
21
-121.013
0
LINE
8
Black
10
178.195
20
-121.013
11
178.195
21
-121.014
0
LINE
8
Black
10
178.195
20
-121.014
11
178.194
21
-121.015
0
LINE
8
Black
10
178.194
20
-121.015
11
178.194
21
-121.016
0
LINE
8
Black
10
178.194
20
-121.016
11
178.187
21
-121.035
0
LINE
8
Black
10
178.187
20
-121.035
11
178.181
21
-121.053
0
LINE
8
Black
10
178.181
20
-121.053
11
178.18
21
-121.054
0
LINE
8
Black
10
178.18
20
-121.054
11
178.18
21
-121.055
0
LINE
8
Black
10
178.18
20
-121.055
11
178.179
21
-121.056
0
LINE
8
Black
10
178.179
20
-121.056
11
178.178
21
-121.057
0
LINE
8
Black
10
178.178
20
-121.057
11
178.166
21
-121.072
0
LINE
8
Black
10
178.166
20
-121.072
11
178.154
21
-121.087
0
LINE
8
Black
10
178.154
20
-121.087
11
178.153
21
-121.087
0
LINE
8
Black
10
178.153
20
-121.087
11
178.152
21
-121.088
0
LINE
8
Black
10
178.152
20
-121.088
11
178.151
21
-121.089
0
LINE
8
Black
10
178.151
20
-121.089
11
178.15
21
-121.09
0
LINE
8
Black
10
178.15
20
-121.09
11
178.091
21
-121.137
0
LINE
8
Black
10
178.091
20
-121.137
11
178.074
21
-121.147
0
LINE
8
Black
10
178.074
20
-121.147
11
178.057
21
-121.157
0
LINE
8
Black
10
178.057
20
-121.157
11
178.055
21
-121.157
0
LINE
8
Black
10
178.055
20
-121.157
11
178.053
21
-121.158
0
LINE
8
Black
10
178.053
20
-121.158
11
178.034
21
-121.161
0
LINE
8
Black
10
178.034
20
-121.161
11
178.015
21
-121.165
0
LINE
8
Black
10
178.015
20
-121.165
11
178.012
21
-121.165
0
LINE
8
Black
10
178.012
20
-121.165
11
178.01
21
-121.165
0
LINE
8
Black
10
178.01
20
-121.165
11
177.991
21
-121.161
0
LINE
8
Black
10
177.991
20
-121.161
11
177.972
21
-121.158
0
LINE
8
Black
10
177.972
20
-121.158
11
177.97
21
-121.157
0
LINE
8
Black
10
177.97
20
-121.157
11
177.967
21
-121.157
0
LINE
8
Black
10
177.967
20
-121.157
11
177.951
21
-121.147
0
LINE
8
Black
10
177.951
20
-121.147
11
177.934
21
-121.137
0
LINE
8
Black
10
177.934
20
-121.137
11
177.875
21
-121.09
0
LINE
8
Black
10
177.875
20
-121.09
11
177.874
21
-121.089
0
LINE
8
Black
10
177.874
20
-121.089
11
177.873
21
-121.088
0
LINE
8
Black
10
177.873
20
-121.088
11
177.872
21
-121.087
0
LINE
8
Black
10
177.872
20
-121.087
11
177.871
21
-121.087
0
LINE
8
Black
10
177.871
20
-121.087
11
177.859
21
-121.072
0
LINE
8
Black
10
177.859
20
-121.072
11
177.846
21
-121.057
0
LINE
8
Black
10
177.846
20
-121.057
11
177.846
21
-121.056
0
LINE
8
Black
10
177.846
20
-121.056
11
177.845
21
-121.055
0
LINE
8
Black
10
177.845
20
-121.055
11
177.845
21
-121.054
0
LINE
8
Black
10
177.845
20
-121.054
11
177.844
21
-121.053
0
LINE
8
Black
10
177.844
20
-121.053
11
177.838
21
-121.034
0
LINE
8
Black
10
177.838
20
-121.034
11
177.831
21
-121.016
0
LINE
8
Black
10
177.831
20
-121.016
11
177.831
21
-121.015
0
LINE
8
Black
10
177.831
20
-121.015
11
177.83
21
-121.014
0
LINE
8
Black
10
177.83
20
-121.014
11
177.83
21
-121.013
0
LINE
8
Black
10
177.83
20
-121.013
11
177.83
21
-121.012
0
LINE
8
Black
10
177.83
20
-121.012
11
177.83
21
-120.992
0
LINE
8
Black
10
177.83
20
-120.992
11
177.83
21
-120.973
0
LINE
8
Black
10
177.83
20
-120.973
11
177.83
21
-120.972
0
LINE
8
Black
10
177.83
20
-120.972
11
177.83
21
-120.971
0
LINE
8
Black
10
177.83
20
-120.971
11
177.831
21
-120.97
0
LINE
8
Black
10
177.831
20
-120.97
11
177.831
21
-120.968
0
LINE
8
Black
10
177.831
20
-120.968
11
177.838
21
-120.95
0
LINE
8
Black
10
177.838
20
-120.95
11
177.844
21
-120.932
0
LINE
8
Black
10
177.844
20
-120.932
11
177.845
21
-120.931
0
LINE
8
Black
10
177.845
20
-120.931
11
177.845
21
-120.93
0
LINE
8
Black
10
177.845
20
-120.93
11
177.846
21
-120.929
0
LINE
8
Black
10
177.846
20
-120.929
11
177.846
21
-120.928
0
LINE
8
Black
10
177.846
20
-120.928
11
177.859
21
-120.913
0
LINE
8
Black
10
177.859
20
-120.913
11
177.871
21
-120.898
0
LINE
8
Black
10
177.871
20
-120.898
11
177.872
21
-120.898
0
LINE
8
Black
10
177.872
20
-120.898
11
177.873
21
-120.897
0
LINE
8
Black
10
177.873
20
-120.897
11
177.874
21
-120.896
0
LINE
8
Black
10
177.874
20
-120.896
11
177.875
21
-120.895
0
LINE
8
Black
10
177.875
20
-120.895
11
177.934
21
-120.847
0
LINE
8
Black
10
177.934
20
-120.847
11
177.951
21
-120.838
0
LINE
8
Black
10
177.951
20
-120.838
11
177.967
21
-120.828
0
LINE
8
Black
10
177.967
20
-120.828
11
177.97
21
-120.828
0
LINE
8
Black
10
177.97
20
-120.828
11
177.972
21
-120.826
0
LINE
8
Black
10
177.972
20
-120.826
11
177.991
21
-120.824
0
LINE
8
Black
10
177.991
20
-120.824
11
178.01
21
-120.82
0
LINE
8
Black
10
178.01
20
-120.82
11
178.012
21
-120.82
0
LINE
8
Black
10
178.012
20
-120.82
11
178.015
21
-120.82
0
LINE
8
Black
10
178.015
20
-120.82
11
178.034
21
-120.824
0
LINE
8
Black
10
178.764
20
-119.827
11
178.801
21
-119.849
0
LINE
8
Black
10
178.801
20
-119.849
11
178.829
21
-119.882
0
LINE
8
Black
10
178.829
20
-119.882
11
178.844
21
-119.923
0
LINE
8
Black
10
178.844
20
-119.923
11
178.844
21
-119.966
0
LINE
8
Black
10
178.844
20
-119.966
11
178.829
21
-120.007
0
LINE
8
Black
10
178.829
20
-120.007
11
178.801
21
-120.041
0
LINE
8
Black
10
178.801
20
-120.041
11
178.764
21
-120.062
0
LINE
8
Black
10
178.764
20
-120.062
11
178.721
21
-120.07
0
LINE
8
Black
10
178.721
20
-120.07
11
178.051
21
-120.07
0
LINE
8
Black
10
178.051
20
-120.07
11
178.773
21
-120.403
0
LINE
8
Black
10
178.773
20
-120.403
11
178.787
21
-120.412
0
LINE
8
Black
10
178.787
20
-120.412
11
178.801
21
-120.42
0
LINE
8
Black
10
178.801
20
-120.42
11
178.805
21
-120.424
0
LINE
8
Black
10
178.805
20
-120.424
11
178.809
21
-120.427
0
LINE
8
Black
10
178.809
20
-120.427
11
178.819
21
-120.441
0
LINE
8
Black
10
178.819
20
-120.441
11
178.829
21
-120.454
0
LINE
8
Black
10
178.829
20
-120.454
11
178.831
21
-120.459
0
LINE
8
Black
10
178.831
20
-120.459
11
178.834
21
-120.463
0
LINE
8
Black
10
178.834
20
-120.463
11
178.838
21
-120.479
0
LINE
8
Black
10
178.838
20
-120.479
11
178.844
21
-120.494
0
LINE
8
Black
10
178.844
20
-120.494
11
178.844
21
-120.5
0
LINE
8
Black
10
178.844
20
-120.5
11
178.845
21
-120.505
0
LINE
8
Black
10
178.845
20
-120.505
11
178.844
21
-120.521
0
LINE
8
Black
10
178.844
20
-120.521
11
178.844
21
-120.538
0
LINE
8
Black
10
178.844
20
-120.538
11
178.842
21
-120.543
0
LINE
8
Black
10
178.842
20
-120.543
11
178.842
21
-120.548
0
LINE
8
Black
10
178.842
20
-120.548
11
178.835
21
-120.563
0
LINE
8
Black
10
178.835
20
-120.563
11
178.829
21
-120.579
0
LINE
8
Black
10
178.829
20
-120.579
11
178.826
21
-120.583
0
LINE
8
Black
10
178.826
20
-120.583
11
178.824
21
-120.587
0
LINE
8
Black
10
178.824
20
-120.587
11
178.812
21
-120.599
0
LINE
8
Black
10
178.812
20
-120.599
11
178.801
21
-120.612
0
LINE
8
Black
10
178.801
20
-120.612
11
178.797
21
-120.615
0
LINE
8
Black
10
178.797
20
-120.615
11
178.793
21
-120.618
0
LINE
8
Black
10
178.793
20
-120.618
11
178.778
21
-120.625
0
LINE
8
Black
10
178.778
20
-120.625
11
178.764
21
-120.634
0
LINE
8
Black
10
178.764
20
-120.634
11
178.759
21
-120.635
0
LINE
8
Black
10
178.759
20
-120.635
11
178.754
21
-120.637
0
LINE
8
Black
10
178.754
20
-120.637
11
178.737
21
-120.638
0
LINE
8
Black
10
178.737
20
-120.638
11
178.721
21
-120.641
0
LINE
8
Black
10
178.721
20
-120.641
11
177.481
21
-120.641
0
LINE
8
Black
10
177.481
20
-120.641
11
177.438
21
-120.634
0
LINE
8
Black
10
177.438
20
-120.634
11
177.401
21
-120.612
0
LINE
8
Black
10
177.401
20
-120.612
11
177.373
21
-120.579
0
LINE
8
Black
10
177.373
20
-120.579
11
177.358
21
-120.538
0
LINE
8
Black
10
177.358
20
-120.538
11
177.358
21
-120.494
0
LINE
8
Black
10
177.358
20
-120.494
11
177.373
21
-120.454
0
LINE
8
Black
10
177.373
20
-120.454
11
177.401
21
-120.42
0
LINE
8
Black
10
177.401
20
-120.42
11
177.438
21
-120.399
0
LINE
8
Black
10
177.438
20
-120.399
11
177.481
21
-120.391
0
LINE
8
Black
10
177.481
20
-120.391
11
178.151
21
-120.391
0
LINE
8
Black
10
178.151
20
-120.391
11
177.429
21
-120.058
0
LINE
8
Black
10
177.429
20
-120.058
11
177.415
21
-120.049
0
LINE
8
Black
10
177.415
20
-120.049
11
177.401
21
-120.041
0
LINE
8
Black
10
177.401
20
-120.041
11
177.397
21
-120.037
0
LINE
8
Black
10
177.397
20
-120.037
11
177.393
21
-120.034
0
LINE
8
Black
10
177.393
20
-120.034
11
177.383
21
-120.02
0
LINE
8
Black
10
177.383
20
-120.02
11
177.373
21
-120.007
0
LINE
8
Black
10
177.373
20
-120.007
11
177.371
21
-120.002
0
LINE
8
Black
10
177.371
20
-120.002
11
177.368
21
-119.998
0
LINE
8
Black
10
177.368
20
-119.998
11
177.364
21
-119.982
0
LINE
8
Black
10
177.364
20
-119.982
11
177.358
21
-119.966
0
LINE
8
Black
10
177.358
20
-119.966
11
177.358
21
-119.961
0
LINE
8
Black
10
177.358
20
-119.961
11
177.356
21
-119.956
0
LINE
8
Black
10
177.356
20
-119.956
11
177.358
21
-119.94
0
LINE
8
Black
10
177.358
20
-119.94
11
177.358
21
-119.923
0
LINE
8
Black
10
177.358
20
-119.923
11
177.36
21
-119.918
0
LINE
8
Black
10
177.36
20
-119.918
11
177.36
21
-119.913
0
LINE
8
Black
10
177.36
20
-119.913
11
177.367
21
-119.898
0
LINE
8
Black
10
177.367
20
-119.898
11
177.373
21
-119.882
0
LINE
8
Black
10
177.373
20
-119.882
11
177.376
21
-119.878
0
LINE
8
Black
10
177.376
20
-119.878
11
177.378
21
-119.874
0
LINE
8
Black
10
177.378
20
-119.874
11
177.39
21
-119.862
0
LINE
8
Black
10
177.39
20
-119.862
11
177.401
21
-119.849
0
LINE
8
Black
10
177.401
20
-119.849
11
177.405
21
-119.846
0
LINE
8
Black
10
177.405
20
-119.846
11
177.409
21
-119.843
0
LINE
8
Black
10
177.409
20
-119.843
11
177.424
21
-119.836
0
LINE
8
Black
10
177.424
20
-119.836
11
177.438
21
-119.827
0
LINE
8
Black
10
177.438
20
-119.827
11
177.443
21
-119.826
0
LINE
8
Black
10
177.443
20
-119.826
11
177.448
21
-119.824
0
LINE
8
Black
10
177.448
20
-119.824
11
177.465
21
-119.823
0
LINE
8
Black
10
177.465
20
-119.823
11
177.481
21
-119.82
0
LINE
8
Black
10
177.481
20
-119.82
11
178.721
21
-119.82
0
LINE
8
Black
10
178.721
20
-119.82
11
178.764
21
-119.827
0
LINE
8
Black
10
178.32
20
-118.727
11
178.332
21
-118.727
0
LINE
8
Black
10
178.332
20
-118.727
11
178.569
21
-118.775
0
LINE
8
Black
10
178.569
20
-118.775
11
178.576
21
-118.778
0
LINE
8
Black
10
178.576
20
-118.778
11
178.584
21
-118.779
0
LINE
8
Black
10
178.584
20
-118.779
11
178.596
21
-118.785
0
LINE
8
Black
10
178.596
20
-118.785
11
178.609
21
-118.79
0
LINE
8
Black
10
178.609
20
-118.79
11
178.615
21
-118.796
0
LINE
8
Black
10
178.615
20
-118.796
11
178.622
21
-118.8
0
LINE
8
Black
10
178.622
20
-118.8
11
178.74
21
-118.895
0
LINE
8
Black
10
178.74
20
-118.895
11
178.754
21
-118.911
0
LINE
8
Black
10
178.754
20
-118.911
11
178.768
21
-118.927
0
LINE
8
Black
10
178.768
20
-118.927
11
178.827
21
-119.022
0
LINE
8
Black
10
178.827
20
-119.022
11
178.832
21
-119.034
0
LINE
8
Black
10
178.832
20
-119.034
11
178.838
21
-119.045
0
LINE
8
Black
10
178.838
20
-119.045
11
178.84
21
-119.054
0
LINE
8
Black
10
178.84
20
-119.054
11
178.843
21
-119.062
0
LINE
8
Black
10
178.843
20
-119.062
11
178.844
21
-119.075
0
LINE
8
Black
10
178.844
20
-119.075
11
178.846
21
-119.088
0
LINE
8
Black
10
178.846
20
-119.088
11
178.846
21
-119.278
0
LINE
8
Black
10
178.846
20
-119.278
11
178.844
21
-119.291
0
LINE
8
Black
10
178.844
20
-119.291
11
178.843
21
-119.304
0
LINE
8
Black
10
178.843
20
-119.304
11
178.84
21
-119.312
0
LINE
8
Black
10
178.84
20
-119.312
11
178.838
21
-119.321
0
LINE
8
Black
10
178.838
20
-119.321
11
178.832
21
-119.332
0
LINE
8
Black
10
178.832
20
-119.332
11
178.827
21
-119.344
0
LINE
8
Black
10
178.827
20
-119.344
11
178.768
21
-119.439
0
LINE
8
Black
10
178.768
20
-119.439
11
178.754
21
-119.455
0
LINE
8
Black
10
178.754
20
-119.455
11
178.74
21
-119.471
0
LINE
8
Black
10
178.74
20
-119.471
11
178.622
21
-119.566
0
LINE
8
Black
10
178.622
20
-119.566
11
178.615
21
-119.57
0
LINE
8
Black
10
178.615
20
-119.57
11
178.609
21
-119.575
0
LINE
8
Black
10
178.609
20
-119.575
11
178.596
21
-119.58
0
LINE
8
Black
10
178.596
20
-119.58
11
178.584
21
-119.587
0
LINE
8
Black
10
178.584
20
-119.587
11
178.576
21
-119.588
0
LINE
8
Black
10
178.576
20
-119.588
11
178.569
21
-119.591
0
LINE
8
Black
10
178.569
20
-119.591
11
178.332
21
-119.639
0
LINE
8
Black
10
178.332
20
-119.639
11
178.32
21
-119.639
0
LINE
8
Black
10
178.32
20
-119.639
11
178.308
21
-119.641
0
LINE
8
Black
10
178.308
20
-119.641
11
177.894
21
-119.641
0
LINE
8
Black
10
177.894
20
-119.641
11
177.882
21
-119.639
0
LINE
8
Black
10
177.882
20
-119.639
11
177.87
21
-119.639
0
LINE
8
Black
10
177.87
20
-119.639
11
177.633
21
-119.591
0
LINE
8
Black
10
177.633
20
-119.591
11
177.626
21
-119.588
0
LINE
8
Black
10
177.626
20
-119.588
11
177.618
21
-119.587
0
LINE
8
Black
10
177.618
20
-119.587
11
177.606
21
-119.58
0
LINE
8
Black
10
177.606
20
-119.58
11
177.593
21
-119.575
0
LINE
8
Black
10
177.593
20
-119.575
11
177.587
21
-119.57
0
LINE
8
Black
10
177.587
20
-119.57
11
177.58
21
-119.566
0
LINE
8
Black
10
177.58
20
-119.566
11
177.462
21
-119.471
0
LINE
8
Black
10
177.462
20
-119.471
11
177.448
21
-119.455
0
LINE
8
Black
10
177.448
20
-119.455
11
177.434
21
-119.439
0
LINE
8
Black
10
177.434
20
-119.439
11
177.375
21
-119.344
0
LINE
8
Black
10
177.375
20
-119.344
11
177.37
21
-119.332
0
LINE
8
Black
10
177.37
20
-119.332
11
177.363
21
-119.321
0
LINE
8
Black
10
177.363
20
-119.321
11
177.362
21
-119.312
0
LINE
8
Black
10
177.362
20
-119.312
11
177.359
21
-119.304
0
LINE
8
Black
10
177.359
20
-119.304
11
177.358
21
-119.291
0
LINE
8
Black
10
177.358
20
-119.291
11
177.356
21
-119.278
0
LINE
8
Black
10
177.356
20
-119.278
11
177.356
21
-119.088
0
LINE
8
Black
10
177.356
20
-119.088
11
177.358
21
-119.075
0
LINE
8
Black
10
177.358
20
-119.075
11
177.359
21
-119.062
0
LINE
8
Black
10
177.359
20
-119.062
11
177.362
21
-119.054
0
LINE
8
Black
10
177.362
20
-119.054
11
177.363
21
-119.045
0
LINE
8
Black
10
177.363
20
-119.045
11
177.37
21
-119.034
0
LINE
8
Black
10
177.37
20
-119.034
11
177.375
21
-119.022
0
LINE
8
Black
10
177.375
20
-119.022
11
177.434
21
-118.927
0
LINE
8
Black
10
177.434
20
-118.927
11
177.448
21
-118.911
0
LINE
8
Black
10
177.448
20
-118.911
11
177.462
21
-118.895
0
LINE
8
Black
10
177.462
20
-118.895
11
177.58
21
-118.8
0
LINE
8
Black
10
177.58
20
-118.8
11
177.587
21
-118.796
0
LINE
8
Black
10
177.587
20
-118.796
11
177.593
21
-118.79
0
LINE
8
Black
10
177.593
20
-118.79
11
177.606
21
-118.785
0
LINE
8
Black
10
177.606
20
-118.785
11
177.618
21
-118.779
0
LINE
8
Black
10
177.618
20
-118.779
11
177.626
21
-118.778
0
LINE
8
Black
10
177.626
20
-118.778
11
177.633
21
-118.775
0
LINE
8
Black
10
177.633
20
-118.775
11
177.87
21
-118.727
0
LINE
8
Black
10
177.87
20
-118.727
11
177.882
21
-118.727
0
LINE
8
Black
10
177.882
20
-118.727
11
177.894
21
-118.725
0
LINE
8
Black
10
177.894
20
-118.725
11
178.308
21
-118.725
0
LINE
8
Black
10
178.308
20
-118.725
11
178.32
21
-118.727
0
LINE
8
Black
10
177.907
20
-118.975
11
177.713
21
-119.014
0
LINE
8
Black
10
177.713
20
-119.014
11
177.635
21
-119.076
0
LINE
8
Black
10
177.635
20
-119.076
11
177.606
21
-119.123
0
LINE
8
Black
10
177.606
20
-119.123
11
177.606
21
-119.242
0
LINE
8
Black
10
177.606
20
-119.242
11
177.635
21
-119.289
0
LINE
8
Black
10
177.635
20
-119.289
11
177.713
21
-119.352
0
LINE
8
Black
10
177.713
20
-119.352
11
177.907
21
-119.391
0
LINE
8
Black
10
177.907
20
-119.391
11
178.295
21
-119.391
0
LINE
8
Black
10
178.295
20
-119.391
11
178.489
21
-119.352
0
LINE
8
Black
10
178.489
20
-119.352
11
178.567
21
-119.289
0
LINE
8
Black
10
178.567
20
-119.289
11
178.596
21
-119.242
0
LINE
8
Black
10
178.596
20
-119.242
11
178.596
21
-119.123
0
LINE
8
Black
10
178.596
20
-119.123
11
178.567
21
-119.076
0
LINE
8
Black
10
178.567
20
-119.076
11
178.489
21
-119.014
0
LINE
8
Black
10
178.489
20
-119.014
11
178.295
21
-118.975
0
LINE
8
Black
10
178.295
20
-118.975
11
177.907
21
-118.975
0
LINE
8
Black
10
178.732
20
-117.012
11
178.743
21
-117.012
0
LINE
8
Black
10
178.743
20
-117.012
11
178.753
21
-117.016
0
LINE
8
Black
10
178.753
20
-117.016
11
178.764
21
-117.018
0
LINE
8
Black
10
178.764
20
-117.018
11
178.773
21
-117.023
0
LINE
8
Black
10
178.773
20
-117.023
11
178.783
21
-117.027
0
LINE
8
Black
10
178.783
20
-117.027
11
178.792
21
-117.034
0
LINE
8
Black
10
178.792
20
-117.034
11
178.801
21
-117.039
0
LINE
8
Black
10
178.801
20
-117.039
11
178.808
21
-117.048
0
LINE
8
Black
10
178.808
20
-117.048
11
178.817
21
-117.055
0
LINE
8
Black
10
178.817
20
-117.055
11
178.822
21
-117.064
0
LINE
8
Black
10
178.822
20
-117.064
11
178.829
21
-117.073
0
LINE
8
Black
10
178.829
20
-117.073
11
178.833
21
-117.083
0
LINE
8
Black
10
178.833
20
-117.083
11
178.838
21
-117.092
0
LINE
8
Black
10
178.838
20
-117.092
11
178.84
21
-117.103
0
LINE
8
Black
10
178.84
20
-117.103
11
178.844
21
-117.114
0
LINE
8
Black
10
178.844
20
-117.114
11
178.844
21
-117.124
0
LINE
8
Black
10
178.844
20
-117.124
11
178.846
21
-117.135
0
LINE
8
Black
10
178.846
20
-117.135
11
178.846
21
-117.373
0
LINE
8
Black
10
178.846
20
-117.373
11
178.845
21
-117.376
0
LINE
8
Black
10
178.845
20
-117.376
11
178.846
21
-117.379
0
LINE
8
Black
10
178.846
20
-117.379
11
178.842
21
-117.397
0
LINE
8
Black
10
178.842
20
-117.397
11
178.838
21
-117.416
0
LINE
8
Black
10
178.838
20
-117.416
11
178.837
21
-117.418
0
LINE
8
Black
10
178.837
20
-117.418
11
178.836
21
-117.421
0
LINE
8
Black
10
178.836
20
-117.421
11
178.777
21
-117.564
0
LINE
8
Black
10
178.777
20
-117.564
11
178.772
21
-117.572
0
LINE
8
Black
10
178.772
20
-117.572
11
178.769
21
-117.581
0
LINE
8
Black
10
178.769
20
-117.581
11
178.761
21
-117.59
0
LINE
8
Black
10
178.761
20
-117.59
11
178.754
21
-117.601
0
LINE
8
Black
10
178.754
20
-117.601
11
178.747
21
-117.606
0
LINE
8
Black
10
178.747
20
-117.606
11
178.74
21
-117.613
0
LINE
8
Black
10
178.74
20
-117.613
11
178.622
21
-117.709
0
LINE
8
Black
10
178.622
20
-117.709
11
178.606
21
-117.718
0
LINE
8
Black
10
178.606
20
-117.718
11
178.591
21
-117.727
0
LINE
8
Black
10
178.591
20
-117.727
11
178.472
21
-117.775
0
LINE
8
Black
10
178.472
20
-117.775
11
178.461
21
-117.777
0
LINE
8
Black
10
178.461
20
-117.777
11
178.45
21
-117.782
0
LINE
8
Black
10
178.45
20
-117.782
11
178.214
21
-117.829
0
LINE
8
Black
10
178.214
20
-117.829
11
178.202
21
-117.83
0
LINE
8
Black
10
178.202
20
-117.83
11
178.19
21
-117.832
0
LINE
8
Black
10
178.19
20
-117.832
11
178.012
21
-117.832
0
LINE
8
Black
10
178.012
20
-117.832
11
178
21
-117.83
0
LINE
8
Black
10
178
20
-117.83
11
177.988
21
-117.829
0
LINE
8
Black
10
177.988
20
-117.829
11
177.751
21
-117.782
0
LINE
8
Black
10
177.751
20
-117.782
11
177.741
21
-117.777
0
LINE
8
Black
10
177.741
20
-117.777
11
177.729
21
-117.775
0
LINE
8
Black
10
177.729
20
-117.775
11
177.611
21
-117.727
0
LINE
8
Black
10
177.611
20
-117.727
11
177.596
21
-117.718
0
LINE
8
Black
10
177.596
20
-117.718
11
177.58
21
-117.709
0
LINE
8
Black
10
177.58
20
-117.709
11
177.462
21
-117.613
0
LINE
8
Black
10
177.462
20
-117.613
11
177.455
21
-117.606
0
LINE
8
Black
10
177.455
20
-117.606
11
177.448
21
-117.601
0
LINE
8
Black
10
177.448
20
-117.601
11
177.441
21
-117.59
0
LINE
8
Black
10
177.441
20
-117.59
11
177.433
21
-117.581
0
LINE
8
Black
10
177.433
20
-117.581
11
177.43
21
-117.572
0
LINE
8
Black
10
177.43
20
-117.572
11
177.424
21
-117.564
0
LINE
8
Black
10
177.424
20
-117.564
11
177.365
21
-117.421
0
LINE
8
Black
10
177.365
20
-117.421
11
177.365
21
-117.418
0
LINE
8
Black
10
177.365
20
-117.418
11
177.363
21
-117.416
0
LINE
8
Black
10
177.363
20
-117.416
11
177.36
21
-117.397
0
LINE
8
Black
10
177.36
20
-117.397
11
177.356
21
-117.379
0
LINE
8
Black
10
177.356
20
-117.379
11
177.356
21
-117.376
0
LINE
8
Black
10
177.356
20
-117.376
11
177.356
21
-117.373
0
LINE
8
Black
10
177.356
20
-117.373
11
177.356
21
-117.135
0
LINE
8
Black
10
177.356
20
-117.135
11
177.358
21
-117.124
0
LINE
8
Black
10
177.358
20
-117.124
11
177.358
21
-117.114
0
LINE
8
Black
10
177.358
20
-117.114
11
177.362
21
-117.103
0
LINE
8
Black
10
177.362
20
-117.103
11
177.363
21
-117.092
0
LINE
8
Black
10
177.363
20
-117.092
11
177.369
21
-117.083
0
LINE
8
Black
10
177.369
20
-117.083
11
177.373
21
-117.073
0
LINE
8
Black
10
177.373
20
-117.073
11
177.38
21
-117.064
0
LINE
8
Black
10
177.38
20
-117.064
11
177.385
21
-117.055
0
LINE
8
Black
10
177.385
20
-117.055
11
177.394
21
-117.048
0
LINE
8
Black
10
177.394
20
-117.048
11
177.401
21
-117.039
0
LINE
8
Black
10
177.401
20
-117.039
11
177.41
21
-117.034
0
LINE
8
Black
10
177.41
20
-117.034
11
177.418
21
-117.027
0
LINE
8
Black
10
177.418
20
-117.027
11
177.429
21
-117.023
0
LINE
8
Black
10
177.429
20
-117.023
11
177.438
21
-117.018
0
LINE
8
Black
10
177.438
20
-117.018
11
177.449
21
-117.016
0
LINE
8
Black
10
177.449
20
-117.016
11
177.459
21
-117.012
0
LINE
8
Black
10
177.459
20
-117.012
11
177.47
21
-117.012
0
LINE
8
Black
10
177.47
20
-117.012
11
177.481
21
-117.01
0
LINE
8
Black
10
177.481
20
-117.01
11
178.721
21
-117.01
0
LINE
8
Black
10
178.721
20
-117.01
11
178.732
21
-117.012
0
LINE
8
Black
10
177.606
20
-117.26
11
177.606
21
-117.349
0
LINE
8
Black
10
177.606
20
-117.349
11
177.643
21
-117.439
0
LINE
8
Black
10
177.643
20
-117.439
11
177.722
21
-117.502
0
LINE
8
Black
10
177.722
20
-117.502
11
177.812
21
-117.539
0
LINE
8
Black
10
177.812
20
-117.539
11
178.025
21
-117.582
0
LINE
8
Black
10
178.025
20
-117.582
11
178.177
21
-117.582
0
LINE
8
Black
10
178.177
20
-117.582
11
178.39
21
-117.539
0
LINE
8
Black
10
178.39
20
-117.539
11
178.48
21
-117.502
0
LINE
8
Black
10
178.48
20
-117.502
11
178.559
21
-117.439
0
LINE
8
Black
10
178.559
20
-117.439
11
178.596
21
-117.349
0
LINE
8
Black
10
178.596
20
-117.349
11
178.596
21
-117.26
0
LINE
8
Black
10
178.596
20
-117.26
11
177.606
21
-117.26
0
LINE
8
Black
10
178.732
20
-116.107
11
178.743
21
-116.107
0
LINE
8
Black
10
178.743
20
-116.107
11
178.753
21
-116.111
0
LINE
8
Black
10
178.753
20
-116.111
11
178.764
21
-116.113
0
LINE
8
Black
10
178.764
20
-116.113
11
178.773
21
-116.118
0
LINE
8
Black
10
178.773
20
-116.118
11
178.783
21
-116.122
0
LINE
8
Black
10
178.783
20
-116.122
11
178.792
21
-116.129
0
LINE
8
Black
10
178.792
20
-116.129
11
178.801
21
-116.135
0
LINE
8
Black
10
178.801
20
-116.135
11
178.808
21
-116.143
0
LINE
8
Black
10
178.808
20
-116.143
11
178.817
21
-116.15
0
LINE
8
Black
10
178.817
20
-116.15
11
178.822
21
-116.16
0
LINE
8
Black
10
178.822
20
-116.16
11
178.829
21
-116.168
0
LINE
8
Black
10
178.829
20
-116.168
11
178.833
21
-116.178
0
LINE
8
Black
10
178.833
20
-116.178
11
178.838
21
-116.188
0
LINE
8
Black
10
178.838
20
-116.188
11
178.84
21
-116.198
0
LINE
8
Black
10
178.84
20
-116.198
11
178.844
21
-116.209
0
LINE
8
Black
10
178.844
20
-116.209
11
178.844
21
-116.22
0
LINE
8
Black
10
178.844
20
-116.22
11
178.846
21
-116.23
0
LINE
8
Black
10
178.846
20
-116.23
11
178.846
21
-116.707
0
LINE
8
Black
10
178.846
20
-116.707
11
178.838
21
-116.749
0
LINE
8
Black
10
178.838
20
-116.749
11
178.817
21
-116.787
0
LINE
8
Black
10
178.817
20
-116.787
11
178.783
21
-116.815
0
LINE
8
Black
10
178.783
20
-116.815
11
178.743
21
-116.83
0
LINE
8
Black
10
178.743
20
-116.83
11
178.699
21
-116.83
0
LINE
8
Black
10
178.699
20
-116.83
11
178.658
21
-116.815
0
LINE
8
Black
10
178.658
20
-116.815
11
178.625
21
-116.787
0
LINE
8
Black
10
178.625
20
-116.787
11
178.603
21
-116.749
0
LINE
8
Black
10
178.603
20
-116.749
11
178.596
21
-116.707
0
LINE
8
Black
10
178.596
20
-116.707
11
178.596
21
-116.355
0
LINE
8
Black
10
178.596
20
-116.355
11
178.196
21
-116.355
0
LINE
8
Black
10
178.196
20
-116.355
11
178.196
21
-116.564
0
LINE
8
Black
10
178.196
20
-116.564
11
178.189
21
-116.607
0
LINE
8
Black
10
178.189
20
-116.607
11
178.167
21
-116.644
0
LINE
8
Black
10
178.167
20
-116.644
11
178.134
21
-116.672
0
LINE
8
Black
10
178.134
20
-116.672
11
178.093
21
-116.687
0
LINE
8
Black
10
178.093
20
-116.687
11
178.05
21
-116.687
0
LINE
8
Black
10
178.05
20
-116.687
11
178.009
21
-116.672
0
LINE
8
Black
10
178.009
20
-116.672
11
177.976
21
-116.644
0
LINE
8
Black
10
177.976
20
-116.644
11
177.954
21
-116.607
0
LINE
8
Black
10
177.954
20
-116.607
11
177.946
21
-116.564
0
LINE
8
Black
10
177.946
20
-116.564
11
177.946
21
-116.355
0
LINE
8
Black
10
177.946
20
-116.355
11
177.606
21
-116.355
0
LINE
8
Black
10
177.606
20
-116.355
11
177.606
21
-116.707
0
LINE
8
Black
10
177.606
20
-116.707
11
177.598
21
-116.749
0
LINE
8
Black
10
177.598
20
-116.749
11
177.577
21
-116.787
0
LINE
8
Black
10
177.577
20
-116.787
11
177.543
21
-116.815
0
LINE
8
Black
10
177.543
20
-116.815
11
177.503
21
-116.83
0
LINE
8
Black
10
177.503
20
-116.83
11
177.459
21
-116.83
0
LINE
8
Black
10
177.459
20
-116.83
11
177.418
21
-116.815
0
LINE
8
Black
10
177.418
20
-116.815
11
177.385
21
-116.787
0
LINE
8
Black
10
177.385
20
-116.787
11
177.363
21
-116.749
0
LINE
8
Black
10
177.363
20
-116.749
11
177.356
21
-116.707
0
LINE
8
Black
10
177.356
20
-116.707
11
177.356
21
-116.23
0
LINE
8
Black
10
177.356
20
-116.23
11
177.358
21
-116.22
0
LINE
8
Black
10
177.358
20
-116.22
11
177.358
21
-116.209
0
LINE
8
Black
10
177.358
20
-116.209
11
177.362
21
-116.198
0
LINE
8
Black
10
177.362
20
-116.198
11
177.363
21
-116.188
0
LINE
8
Black
10
177.363
20
-116.188
11
177.369
21
-116.178
0
LINE
8
Black
10
177.369
20
-116.178
11
177.373
21
-116.168
0
LINE
8
Black
10
177.373
20
-116.168
11
177.38
21
-116.16
0
LINE
8
Black
10
177.38
20
-116.16
11
177.385
21
-116.15
0
LINE
8
Black
10
177.385
20
-116.15
11
177.394
21
-116.143
0
LINE
8
Black
10
177.394
20
-116.143
11
177.401
21
-116.135
0
LINE
8
Black
10
177.401
20
-116.135
11
177.41
21
-116.129
0
LINE
8
Black
10
177.41
20
-116.129
11
177.418
21
-116.122
0
LINE
8
Black
10
177.418
20
-116.122
11
177.429
21
-116.118
0
LINE
8
Black
10
177.429
20
-116.118
11
177.438
21
-116.113
0
LINE
8
Black
10
177.438
20
-116.113
11
177.449
21
-116.111
0
LINE
8
Black
10
177.449
20
-116.111
11
177.459
21
-116.107
0
LINE
8
Black
10
177.459
20
-116.107
11
177.47
21
-116.107
0
LINE
8
Black
10
177.47
20
-116.107
11
177.481
21
-116.105
0
LINE
8
Black
10
177.481
20
-116.105
11
178.721
21
-116.105
0
LINE
8
Black
10
178.721
20
-116.105
11
178.732
21
-116.107
0
LINE
8
Black
10
177.837
20
-115.106
11
177.84
21
-115.106
0
LINE
8
Black
10
177.84
20
-115.106
11
177.859
21
-115.11
0
LINE
8
Black
10
177.859
20
-115.11
11
177.878
21
-115.113
0
LINE
8
Black
10
177.878
20
-115.113
11
177.88
21
-115.114
0
LINE
8
Black
10
177.88
20
-115.114
11
177.882
21
-115.115
0
LINE
8
Black
10
177.882
20
-115.115
11
178
21
-115.162
0
LINE
8
Black
10
178
20
-115.162
11
178.016
21
-115.172
0
LINE
8
Black
10
178.016
20
-115.172
11
178.032
21
-115.181
0
LINE
8
Black
10
178.032
20
-115.181
11
178.091
21
-115.228
0
LINE
8
Black
10
178.091
20
-115.228
11
178.105
21
-115.244
0
LINE
8
Black
10
178.105
20
-115.244
11
178.119
21
-115.26
0
LINE
8
Black
10
178.119
20
-115.26
11
178.178
21
-115.355
0
LINE
8
Black
10
178.178
20
-115.355
11
178.184
21
-115.37
0
LINE
8
Black
10
178.184
20
-115.37
11
178.191
21
-115.384
0
LINE
8
Black
10
178.191
20
-115.384
11
178.245
21
-115.559
0
LINE
8
Black
10
178.245
20
-115.559
11
178.285
21
-115.623
0
LINE
8
Black
10
178.285
20
-115.623
11
178.313
21
-115.645
0
LINE
8
Black
10
178.313
20
-115.645
11
178.391
21
-115.677
0
LINE
8
Black
10
178.391
20
-115.677
11
178.461
21
-115.677
0
LINE
8
Black
10
178.461
20
-115.677
11
178.539
21
-115.645
0
LINE
8
Black
10
178.539
20
-115.645
11
178.567
21
-115.623
0
LINE
8
Black
10
178.567
20
-115.623
11
178.596
21
-115.576
0
LINE
8
Black
10
178.596
20
-115.576
11
178.596
21
-115.398
0
LINE
8
Black
10
178.596
20
-115.398
11
178.546
21
-115.278
0
LINE
8
Black
10
178.546
20
-115.278
11
178.537
21
-115.236
0
LINE
8
Black
10
178.537
20
-115.236
11
178.543
21
-115.193
0
LINE
8
Black
10
178.543
20
-115.193
11
178.563
21
-115.154
0
LINE
8
Black
10
178.563
20
-115.154
11
178.595
21
-115.125
0
LINE
8
Black
10
178.595
20
-115.125
11
178.635
21
-115.108
0
LINE
8
Black
10
178.635
20
-115.108
11
178.678
21
-115.107
0
LINE
8
Black
10
178.678
20
-115.107
11
178.72
21
-115.12
0
LINE
8
Black
10
178.72
20
-115.12
11
178.754
21
-115.146
0
LINE
8
Black
10
178.754
20
-115.146
11
178.777
21
-115.183
0
LINE
8
Black
10
178.777
20
-115.183
11
178.836
21
-115.326
0
LINE
8
Black
10
178.836
20
-115.326
11
178.837
21
-115.328
0
LINE
8
Black
10
178.837
20
-115.328
11
178.838
21
-115.331
0
LINE
8
Black
10
178.838
20
-115.331
11
178.842
21
-115.349
0
LINE
8
Black
10
178.842
20
-115.349
11
178.846
21
-115.368
0
LINE
8
Black
10
178.846
20
-115.368
11
178.845
21
-115.371
0
LINE
8
Black
10
178.845
20
-115.371
11
178.846
21
-115.373
0
LINE
8
Black
10
178.846
20
-115.373
11
178.846
21
-115.611
0
LINE
8
Black
10
178.846
20
-115.611
11
178.844
21
-115.624
0
LINE
8
Black
10
178.844
20
-115.624
11
178.843
21
-115.637
0
LINE
8
Black
10
178.843
20
-115.637
11
178.84
21
-115.645
0
LINE
8
Black
10
178.84
20
-115.645
11
178.838
21
-115.654
0
LINE
8
Black
10
178.838
20
-115.654
11
178.832
21
-115.665
0
LINE
8
Black
10
178.832
20
-115.665
11
178.827
21
-115.677
0
LINE
8
Black
10
178.827
20
-115.677
11
178.768
21
-115.773
0
LINE
8
Black
10
178.768
20
-115.773
11
178.754
21
-115.788
0
LINE
8
Black
10
178.754
20
-115.788
11
178.74
21
-115.804
0
LINE
8
Black
10
178.74
20
-115.804
11
178.681
21
-115.852
0
LINE
8
Black
10
178.681
20
-115.852
11
178.665
21
-115.86
0
LINE
8
Black
10
178.665
20
-115.86
11
178.65
21
-115.87
0
LINE
8
Black
10
178.65
20
-115.87
11
178.532
21
-115.918
0
LINE
8
Black
10
178.532
20
-115.918
11
178.529
21
-115.918
0
LINE
8
Black
10
178.529
20
-115.918
11
178.528
21
-115.919
0
LINE
8
Black
10
178.528
20
-115.919
11
178.508
21
-115.923
0
LINE
8
Black
10
178.508
20
-115.923
11
178.489
21
-115.927
0
LINE
8
Black
10
178.489
20
-115.927
11
178.487
21
-115.927
0
LINE
8
Black
10
178.487
20
-115.927
11
178.485
21
-115.927
0
LINE
8
Black
10
178.485
20
-115.927
11
178.367
21
-115.927
0
LINE
8
Black
10
178.367
20
-115.927
11
178.365
21
-115.927
0
LINE
8
Black
10
178.365
20
-115.927
11
178.362
21
-115.927
0
LINE
8
Black
10
178.362
20
-115.927
11
178.343
21
-115.923
0
LINE
8
Black
10
178.343
20
-115.923
11
178.324
21
-115.919
0
LINE
8
Black
10
178.324
20
-115.919
11
178.322
21
-115.918
0
LINE
8
Black
10
178.322
20
-115.918
11
178.32
21
-115.918
0
LINE
8
Black
10
178.32
20
-115.918
11
178.202
21
-115.87
0
LINE
8
Black
10
178.202
20
-115.87
11
178.186
21
-115.86
0
LINE
8
Black
10
178.186
20
-115.86
11
178.17
21
-115.852
0
LINE
8
Black
10
178.17
20
-115.852
11
178.111
21
-115.804
0
LINE
8
Black
10
178.111
20
-115.804
11
178.097
21
-115.788
0
LINE
8
Black
10
178.097
20
-115.788
11
178.083
21
-115.773
0
LINE
8
Black
10
178.083
20
-115.773
11
178.024
21
-115.677
0
LINE
8
Black
10
178.024
20
-115.677
11
178.018
21
-115.663
0
LINE
8
Black
10
178.018
20
-115.663
11
178.011
21
-115.648
0
LINE
8
Black
10
178.011
20
-115.648
11
177.957
21
-115.473
0
LINE
8
Black
10
177.957
20
-115.473
11
177.917
21
-115.41
0
LINE
8
Black
10
177.917
20
-115.41
11
177.889
21
-115.387
0
LINE
8
Black
10
177.889
20
-115.387
11
177.811
21
-115.355
0
LINE
8
Black
10
177.811
20
-115.355
11
177.741
21
-115.355
0
LINE
8
Black
10
177.741
20
-115.355
11
177.663
21
-115.387
0
LINE
8
Black
10
177.663
20
-115.387
11
177.635
21
-115.41
0
LINE
8
Black
10
177.635
20
-115.41
11
177.606
21
-115.457
0
LINE
8
Black
10
177.606
20
-115.457
11
177.606
21
-115.634
0
LINE
8
Black
10
177.606
20
-115.634
11
177.656
21
-115.754
0
LINE
8
Black
10
177.656
20
-115.754
11
177.665
21
-115.797
0
LINE
8
Black
10
177.665
20
-115.797
11
177.659
21
-115.84
0
LINE
8
Black
10
177.659
20
-115.84
11
177.639
21
-115.878
0
LINE
8
Black
10
177.639
20
-115.878
11
177.607
21
-115.907
0
LINE
8
Black
10
177.607
20
-115.907
11
177.567
21
-115.924
0
LINE
8
Black
10
177.567
20
-115.924
11
177.524
21
-115.926
0
LINE
8
Black
10
177.524
20
-115.926
11
177.482
21
-115.913
0
LINE
8
Black
10
177.482
20
-115.913
11
177.448
21
-115.886
0
LINE
8
Black
10
177.448
20
-115.886
11
177.424
21
-115.85
0
LINE
8
Black
10
177.424
20
-115.85
11
177.365
21
-115.707
0
LINE
8
Black
10
177.365
20
-115.707
11
177.365
21
-115.704
0
LINE
8
Black
10
177.365
20
-115.704
11
177.363
21
-115.702
0
LINE
8
Black
10
177.363
20
-115.702
11
177.36
21
-115.683
0
LINE
8
Black
10
177.36
20
-115.683
11
177.356
21
-115.664
0
LINE
8
Black
10
177.356
20
-115.664
11
177.356
21
-115.662
0
LINE
8
Black
10
177.356
20
-115.662
11
177.356
21
-115.659
0
LINE
8
Black
10
177.356
20
-115.659
11
177.356
21
-115.421
0
LINE
8
Black
10
177.356
20
-115.421
11
177.358
21
-115.408
0
LINE
8
Black
10
177.358
20
-115.408
11
177.359
21
-115.395
0
LINE
8
Black
10
177.359
20
-115.395
11
177.362
21
-115.387
0
LINE
8
Black
10
177.362
20
-115.387
11
177.363
21
-115.378
0
LINE
8
Black
10
177.363
20
-115.378
11
177.37
21
-115.367
0
LINE
8
Black
10
177.37
20
-115.367
11
177.375
21
-115.355
0
LINE
8
Black
10
177.375
20
-115.355
11
177.434
21
-115.26
0
LINE
8
Black
10
177.434
20
-115.26
11
177.448
21
-115.244
0
LINE
8
Black
10
177.448
20
-115.244
11
177.462
21
-115.228
0
LINE
8
Black
10
177.462
20
-115.228
11
177.521
21
-115.181
0
LINE
8
Black
10
177.521
20
-115.181
11
177.537
21
-115.172
0
LINE
8
Black
10
177.537
20
-115.172
11
177.552
21
-115.162
0
LINE
8
Black
10
177.552
20
-115.162
11
177.67
21
-115.115
0
LINE
8
Black
10
177.67
20
-115.115
11
177.673
21
-115.114
0
LINE
8
Black
10
177.673
20
-115.114
11
177.674
21
-115.113
0
LINE
8
Black
10
177.674
20
-115.113
11
177.694
21
-115.11
0
LINE
8
Black
10
177.694
20
-115.11
11
177.713
21
-115.106
0
LINE
8
Black
10
177.713
20
-115.106
11
177.715
21
-115.106
0
LINE
8
Black
10
177.715
20
-115.106
11
177.717
21
-115.105
0
LINE
8
Black
10
177.717
20
-115.105
11
177.835
21
-115.105
0
LINE
8
Black
10
177.835
20
-115.105
11
177.837
21
-115.106
0
LINE
8
Black
10
178.774
20
-114.165
11
178.809
21
-114.19
0
LINE
8
Black
10
178.809
20
-114.19
11
178.834
21
-114.225
0
LINE
8
Black
10
178.834
20
-114.225
11
178.845
21
-114.267
0
LINE
8
Black
10
178.845
20
-114.267
11
178.842
21
-114.31
0
LINE
8
Black
10
178.842
20
-114.31
11
178.823
21
-114.35
0
LINE
8
Black
10
178.823
20
-114.35
11
178.793
21
-114.38
0
LINE
8
Black
10
178.793
20
-114.38
11
178.753
21
-114.399
0
LINE
8
Black
10
178.753
20
-114.399
11
178.492
21
-114.469
0
LINE
8
Black
10
178.492
20
-114.469
11
178.492
21
-114.754
0
LINE
8
Black
10
178.492
20
-114.754
11
178.753
21
-114.824
0
LINE
8
Black
10
178.753
20
-114.824
11
178.793
21
-114.842
0
LINE
8
Black
10
178.793
20
-114.842
11
178.823
21
-114.873
0
LINE
8
Black
10
178.823
20
-114.873
11
178.842
21
-114.913
0
LINE
8
Black
10
178.842
20
-114.913
11
178.845
21
-114.956
0
LINE
8
Black
10
178.845
20
-114.956
11
178.834
21
-114.998
0
LINE
8
Black
10
178.834
20
-114.998
11
178.809
21
-115.033
0
LINE
8
Black
10
178.809
20
-115.033
11
178.774
21
-115.058
0
LINE
8
Black
10
178.774
20
-115.058
11
178.732
21
-115.069
0
LINE
8
Black
10
178.732
20
-115.069
11
178.689
21
-115.065
0
LINE
8
Black
10
178.689
20
-115.065
11
177.449
21
-114.732
0
LINE
8
Black
10
177.449
20
-114.732
11
177.439
21
-114.728
0
LINE
8
Black
10
177.439
20
-114.728
11
177.428
21
-114.725
0
LINE
8
Black
10
177.428
20
-114.725
11
177.419
21
-114.718
0
LINE
8
Black
10
177.419
20
-114.718
11
177.409
21
-114.714
0
LINE
8
Black
10
177.409
20
-114.714
11
177.402
21
-114.706
0
LINE
8
Black
10
177.402
20
-114.706
11
177.393
21
-114.7
0
LINE
8
Black
10
177.393
20
-114.7
11
177.386
21
-114.691
0
LINE
8
Black
10
177.386
20
-114.691
11
177.379
21
-114.683
0
LINE
8
Black
10
177.379
20
-114.683
11
177.374
21
-114.673
0
LINE
8
Black
10
177.374
20
-114.673
11
177.368
21
-114.664
0
LINE
8
Black
10
177.368
20
-114.664
11
177.365
21
-114.654
0
LINE
8
Black
10
177.365
20
-114.654
11
177.36
21
-114.644
0
LINE
8
Black
10
177.36
20
-114.644
11
177.359
21
-114.633
0
LINE
8
Black
10
177.359
20
-114.633
11
177.356
21
-114.622
0
LINE
8
Black
10
177.356
20
-114.622
11
177.357
21
-114.611
0
LINE
8
Black
10
177.357
20
-114.611
11
177.356
21
-114.6
0
LINE
8
Black
10
177.356
20
-114.6
11
177.359
21
-114.59
0
LINE
8
Black
10
177.359
20
-114.59
11
177.36
21
-114.579
0
LINE
8
Black
10
177.36
20
-114.579
11
177.365
21
-114.569
0
LINE
8
Black
10
177.365
20
-114.569
11
177.368
21
-114.559
0
LINE
8
Black
10
177.368
20
-114.559
11
177.374
21
-114.55
0
LINE
8
Black
10
177.374
20
-114.55
11
177.379
21
-114.54
0
LINE
8
Black
10
177.379
20
-114.54
11
177.386
21
-114.532
0
LINE
8
Black
10
177.386
20
-114.532
11
177.393
21
-114.523
0
LINE
8
Black
10
177.393
20
-114.523
11
177.402
21
-114.517
0
LINE
8
Black
10
177.402
20
-114.517
11
177.409
21
-114.509
0
LINE
8
Black
10
177.409
20
-114.509
11
177.419
21
-114.504
0
LINE
8
Black
10
177.419
20
-114.504
11
177.428
21
-114.498
0
LINE
8
Black
10
177.428
20
-114.498
11
177.439
21
-114.495
0
LINE
8
Black
10
177.439
20
-114.495
11
177.449
21
-114.491
0
LINE
8
Black
10
177.449
20
-114.491
11
178.689
21
-114.157
0
LINE
8
Black
10
178.689
20
-114.157
11
178.732
21
-114.154
0
LINE
8
Black
10
178.732
20
-114.154
11
178.774
21
-114.165
0
LINE
8
Black
10
177.962
20
-114.611
11
178.242
21
-114.686
0
LINE
8
Black
10
178.242
20
-114.686
11
178.242
21
-114.536
0
LINE
8
Black
10
178.242
20
-114.536
11
177.962
21
-114.611
0
LINE
8
Black
10
178.732
20
-113.298
11
178.743
21
-113.298
0
LINE
8
Black
10
178.743
20
-113.298
11
178.753
21
-113.302
0
LINE
8
Black
10
178.753
20
-113.302
11
178.764
21
-113.303
0
LINE
8
Black
10
178.764
20
-113.303
11
178.773
21
-113.309
0
LINE
8
Black
10
178.773
20
-113.309
11
178.783
21
-113.313
0
LINE
8
Black
10
178.783
20
-113.313
11
178.792
21
-113.32
0
LINE
8
Black
10
178.792
20
-113.32
11
178.801
21
-113.325
0
LINE
8
Black
10
178.801
20
-113.325
11
178.808
21
-113.334
0
LINE
8
Black
10
178.808
20
-113.334
11
178.817
21
-113.341
0
LINE
8
Black
10
178.817
20
-113.341
11
178.822
21
-113.35
0
LINE
8
Black
10
178.822
20
-113.35
11
178.829
21
-113.358
0
LINE
8
Black
10
178.829
20
-113.358
11
178.833
21
-113.369
0
LINE
8
Black
10
178.833
20
-113.369
11
178.838
21
-113.378
0
LINE
8
Black
10
178.838
20
-113.378
11
178.84
21
-113.389
0
LINE
8
Black
10
178.84
20
-113.389
11
178.844
21
-113.399
0
LINE
8
Black
10
178.844
20
-113.399
11
178.844
21
-113.41
0
LINE
8
Black
10
178.844
20
-113.41
11
178.846
21
-113.421
0
LINE
8
Black
10
178.846
20
-113.421
11
178.846
21
-113.802
0
LINE
8
Black
10
178.846
20
-113.802
11
178.844
21
-113.815
0
LINE
8
Black
10
178.844
20
-113.815
11
178.843
21
-113.827
0
LINE
8
Black
10
178.843
20
-113.827
11
178.84
21
-113.836
0
LINE
8
Black
10
178.84
20
-113.836
11
178.838
21
-113.845
0
LINE
8
Black
10
178.838
20
-113.845
11
178.832
21
-113.856
0
LINE
8
Black
10
178.832
20
-113.856
11
178.827
21
-113.868
0
LINE
8
Black
10
178.827
20
-113.868
11
178.768
21
-113.963
0
LINE
8
Black
10
178.768
20
-113.963
11
178.754
21
-113.979
0
LINE
8
Black
10
178.754
20
-113.979
11
178.74
21
-113.994
0
LINE
8
Black
10
178.74
20
-113.994
11
178.681
21
-114.042
0
LINE
8
Black
10
178.681
20
-114.042
11
178.665
21
-114.051
0
LINE
8
Black
10
178.665
20
-114.051
11
178.65
21
-114.061
0
LINE
8
Black
10
178.65
20
-114.061
11
178.532
21
-114.108
0
LINE
8
Black
10
178.532
20
-114.108
11
178.529
21
-114.109
0
LINE
8
Black
10
178.529
20
-114.109
11
178.528
21
-114.11
0
LINE
8
Black
10
178.528
20
-114.11
11
178.508
21
-114.113
0
LINE
8
Black
10
178.508
20
-114.113
11
178.489
21
-114.117
0
LINE
8
Black
10
178.489
20
-114.117
11
178.487
21
-114.117
0
LINE
8
Black
10
178.487
20
-114.117
11
178.485
21
-114.117
0
LINE
8
Black
10
178.485
20
-114.117
11
178.308
21
-114.117
0
LINE
8
Black
10
178.308
20
-114.117
11
178.305
21
-114.117
0
LINE
8
Black
10
178.305
20
-114.117
11
178.303
21
-114.117
0
LINE
8
Black
10
178.303
20
-114.117
11
178.284
21
-114.113
0
LINE
8
Black
10
178.284
20
-114.113
11
178.265
21
-114.11
0
LINE
8
Black
10
178.265
20
-114.11
11
178.263
21
-114.109
0
LINE
8
Black
10
178.263
20
-114.109
11
178.261
21
-114.108
0
LINE
8
Black
10
178.261
20
-114.108
11
178.143
21
-114.061
0
LINE
8
Black
10
178.143
20
-114.061
11
178.127
21
-114.051
0
LINE
8
Black
10
178.127
20
-114.051
11
178.111
21
-114.042
0
LINE
8
Black
10
178.111
20
-114.042
11
178.052
21
-113.994
0
LINE
8
Black
10
178.052
20
-113.994
11
178.046
21
-113.987
0
LINE
8
Black
10
178.046
20
-113.987
11
178.043
21
-113.985
0
LINE
8
Black
10
178.043
20
-113.985
11
178.032
21
-113.994
0
LINE
8
Black
10
178.032
20
-113.994
11
178.016
21
-114.003
0
LINE
8
Black
10
178.016
20
-114.003
11
178
21
-114.013
0
LINE
8
Black
10
178
20
-114.013
11
177.882
21
-114.061
0
LINE
8
Black
10
177.882
20
-114.061
11
177.88
21
-114.061
0
LINE
8
Black
10
177.88
20
-114.061
11
177.878
21
-114.062
0
LINE
8
Black
10
177.878
20
-114.062
11
177.859
21
-114.066
0
LINE
8
Black
10
177.859
20
-114.066
11
177.84
21
-114.07
0
LINE
8
Black
10
177.84
20
-114.07
11
177.837
21
-114.069
0
LINE
8
Black
10
177.837
20
-114.069
11
177.835
21
-114.07
0
LINE
8
Black
10
177.835
20
-114.07
11
177.717
21
-114.07
0
LINE
8
Black
10
177.717
20
-114.07
11
177.715
21
-114.069
0
LINE
8
Black
10
177.715
20
-114.069
11
177.713
21
-114.07
0
LINE
8
Black
10
177.713
20
-114.07
11
177.694
21
-114.066
0
LINE
8
Black
10
177.694
20
-114.066
11
177.674
21
-114.062
0
LINE
8
Black
10
177.674
20
-114.062
11
177.673
21
-114.061
0
LINE
8
Black
10
177.673
20
-114.061
11
177.67
21
-114.061
0
LINE
8
Black
10
177.67
20
-114.061
11
177.552
21
-114.013
0
LINE
8
Black
10
177.552
20
-114.013
11
177.537
21
-114.003
0
LINE
8
Black
10
177.537
20
-114.003
11
177.521
21
-113.994
0
LINE
8
Black
10
177.521
20
-113.994
11
177.462
21
-113.947
0
LINE
8
Black
10
177.462
20
-113.947
11
177.448
21
-113.931
0
LINE
8
Black
10
177.448
20
-113.931
11
177.434
21
-113.915
0
LINE
8
Black
10
177.434
20
-113.915
11
177.375
21
-113.82
0
LINE
8
Black
10
177.375
20
-113.82
11
177.37
21
-113.808
0
LINE
8
Black
10
177.37
20
-113.808
11
177.363
21
-113.797
0
LINE
8
Black
10
177.363
20
-113.797
11
177.362
21
-113.788
0
LINE
8
Black
10
177.362
20
-113.788
11
177.359
21
-113.78
0
LINE
8
Black
10
177.359
20
-113.78
11
177.358
21
-113.767
0
LINE
8
Black
10
177.358
20
-113.767
11
177.356
21
-113.754
0
LINE
8
Black
10
177.356
20
-113.754
11
177.356
21
-113.421
0
LINE
8
Black
10
177.356
20
-113.421
11
177.358
21
-113.41
0
LINE
8
Black
10
177.358
20
-113.41
11
177.358
21
-113.399
0
LINE
8
Black
10
177.358
20
-113.399
11
177.362
21
-113.389
0
LINE
8
Black
10
177.362
20
-113.389
11
177.363
21
-113.378
0
LINE
8
Black
10
177.363
20
-113.378
11
177.369
21
-113.369
0
LINE
8
Black
10
177.369
20
-113.369
11
177.373
21
-113.358
0
LINE
8
Black
10
177.373
20
-113.358
11
177.38
21
-113.35
0
LINE
8
Black
10
177.38
20
-113.35
11
177.385
21
-113.341
0
LINE
8
Black
10
177.385
20
-113.341
11
177.394
21
-113.334
0
LINE
8
Black
10
177.394
20
-113.334
11
177.401
21
-113.325
0
LINE
8
Black
10
177.401
20
-113.325
11
177.41
21
-113.32
0
LINE
8
Black
10
177.41
20
-113.32
11
177.418
21
-113.313
0
LINE
8
Black
10
177.418
20
-113.313
11
177.429
21
-113.309
0
LINE
8
Black
10
177.429
20
-113.309
11
177.438
21
-113.303
0
LINE
8
Black
10
177.438
20
-113.303
11
177.449
21
-113.302
0
LINE
8
Black
10
177.449
20
-113.302
11
177.459
21
-113.298
0
LINE
8
Black
10
177.459
20
-113.298
11
177.47
21
-113.298
0
LINE
8
Black
10
177.47
20
-113.298
11
177.481
21
-113.296
0
LINE
8
Black
10
177.481
20
-113.296
11
178.721
21
-113.296
0
LINE
8
Black
10
178.721
20
-113.296
11
178.732
21
-113.298
0
LINE
8
Black
10
178.196
20
-113.546
11
178.196
21
-113.729
0
LINE
8
Black
10
178.196
20
-113.729
11
178.234
21
-113.82
0
LINE
8
Black
10
178.234
20
-113.82
11
178.254
21
-113.836
0
LINE
8
Black
10
178.254
20
-113.836
11
178.332
21
-113.867
0
LINE
8
Black
10
178.332
20
-113.867
11
178.461
21
-113.867
0
LINE
8
Black
10
178.461
20
-113.867
11
178.539
21
-113.836
0
LINE
8
Black
10
178.539
20
-113.836
11
178.567
21
-113.813
0
LINE
8
Black
10
178.567
20
-113.813
11
178.596
21
-113.766
0
LINE
8
Black
10
178.596
20
-113.766
11
178.596
21
-113.546
0
LINE
8
Black
10
178.596
20
-113.546
11
178.196
21
-113.546
0
LINE
8
Black
10
177.606
20
-113.546
11
177.606
21
-113.719
0
LINE
8
Black
10
177.606
20
-113.719
11
177.635
21
-113.766
0
LINE
8
Black
10
177.635
20
-113.766
11
177.663
21
-113.788
0
LINE
8
Black
10
177.663
20
-113.788
11
177.741
21
-113.82
0
LINE
8
Black
10
177.741
20
-113.82
11
177.811
21
-113.82
0
LINE
8
Black
10
177.811
20
-113.82
11
177.889
21
-113.788
0
LINE
8
Black
10
177.889
20
-113.788
11
177.917
21
-113.766
0
LINE
8
Black
10
177.917
20
-113.766
11
177.946
21
-113.719
0
LINE
8
Black
10
177.946
20
-113.719
11
177.946
21
-113.546
0
LINE
8
Black
10
177.946
20
-113.546
11
177.606
21
-113.546
  0
ENDSEC
  0
EOF
